<svg xmlns="http://www.w3.org/2000/svg" width="35.887" height="35.887" viewBox="0 0 35.887 35.887">
  <g id="imgTuercaResponsive" transform="translate(-10.76 -1595.875)">
    <circle id="Elipse_41" data-name="Elipse 41" cx="17.943" cy="17.943" r="17.943" transform="translate(10.76 1595.875)" fill="#fff"/>
    <g id="Grupo_539" data-name="Grupo 539">
      <g id="Grupo_538" data-name="Grupo 538">
        <path id="Trazado_2940" data-name="Trazado 2940" d="M35.342,1611.356h-.819a.556.556,0,0,1-.517-.35l-.044-.11a.551.551,0,0,1,.125-.6l.578-.578a1.177,1.177,0,0,0,0-1.664l-.87-.87a1.177,1.177,0,0,0-1.665,0l-.541.541a.563.563,0,0,1-.4.164.532.532,0,0,1-.213-.044c-.049-.022-.1-.043-.149-.063a.545.545,0,0,1-.337-.512v-.763a1.179,1.179,0,0,0-1.177-1.178h-1.23a1.179,1.179,0,0,0-1.177,1.178v.763a.544.544,0,0,1-.337.512c-.05.02-.1.041-.149.063a.531.531,0,0,1-.212.044.565.565,0,0,1-.4-.164l-.541-.541a1.177,1.177,0,0,0-1.665,0l-.869.869a1.177,1.177,0,0,0,0,1.665l.577.578a.549.549,0,0,1,.125.6c-.015.037-.03.073-.044.11a.555.555,0,0,1-.517.35h-.819a1.179,1.179,0,0,0-1.177,1.178v1.229a1.179,1.179,0,0,0,1.177,1.178h.9a.551.551,0,0,1,.51.335l.022.05a.553.553,0,0,1-.116.616l-.633.634a1.176,1.176,0,0,0,0,1.664l.869.87a1.177,1.177,0,0,0,1.665,0l.671-.671a.549.549,0,0,1,.391-.161.6.6,0,0,1,.224.044.556.556,0,0,1,.349.517v.948a1.179,1.179,0,0,0,1.177,1.178h1.23a1.179,1.179,0,0,0,1.177-1.178v-.948a.566.566,0,0,1,.964-.4l.671.671a1.177,1.177,0,0,0,1.665,0l.87-.87a1.178,1.178,0,0,0,0-1.664l-.634-.634a.553.553,0,0,1-.116-.616l.022-.051a.552.552,0,0,1,.511-.334h.894a1.179,1.179,0,0,0,1.177-1.178v-1.229A1.179,1.179,0,0,0,35.342,1611.356Zm-1.974,3.676-.02.046a1.17,1.17,0,0,0,.246,1.3l.633.633a.559.559,0,0,1,0,.79l-.869.87a.56.56,0,0,1-.79,0L31.9,1618a1.162,1.162,0,0,0-.828-.344,1.2,1.2,0,0,0-.457.091,1.17,1.17,0,0,0-.735,1.09v.948a.56.56,0,0,1-.559.559h-1.23a.56.56,0,0,1-.559-.559v-.948a1.2,1.2,0,0,0-1.189-1.182,1.166,1.166,0,0,0-.83.345l-.671.671a.56.56,0,0,1-.79,0l-.87-.87a.558.558,0,0,1,0-.79l.633-.633a1.168,1.168,0,0,0,.246-1.3l-.02-.046a1.17,1.17,0,0,0-1.079-.71h-.9a.56.56,0,0,1-.559-.559v-1.229a.56.56,0,0,1,.559-.559h.819a1.18,1.18,0,0,0,1.1-.746l.038-.1a1.164,1.164,0,0,0-.259-1.269l-.578-.578a.559.559,0,0,1,0-.79l.869-.87a.561.561,0,0,1,.791,0l.541.541a1.188,1.188,0,0,0,.834.345,1.148,1.148,0,0,0,.46-.095c.043-.02.087-.038.132-.056a1.163,1.163,0,0,0,.723-1.086v-.763a.56.56,0,0,1,.559-.559h1.23a.56.56,0,0,1,.559.559v.763a1.162,1.162,0,0,0,.724,1.086c.044.018.088.036.132.056a1.144,1.144,0,0,0,.459.095,1.19,1.19,0,0,0,.835-.345l.541-.541a.56.56,0,0,1,.79,0l.869.87a.559.559,0,0,1,0,.79l-.577.578a1.163,1.163,0,0,0-.26,1.269l.039.1a1.178,1.178,0,0,0,1.094.746h.819a.56.56,0,0,1,.559.559v1.229a.56.56,0,0,1-.559.559h-.894A1.17,1.17,0,0,0,33.368,1615.032Z" fill="#01b7e8" stroke="#01b7e8" stroke-miterlimit="10" stroke-width="0.25"/>
        <path id="Trazado_2941" data-name="Trazado 2941" d="M28.99,1609.4a.31.31,0,0,0-.309-.31,3.957,3.957,0,0,0-3.49,5.82.332.332,0,0,0,.034.049,1.119,1.119,0,1,0,.929-.488,1.125,1.125,0,0,0-.446.092,3.337,3.337,0,0,1,2.973-4.854A.31.31,0,0,0,28.99,1609.4Zm-2.494,5.83a.493.493,0,0,1-.349.842.493.493,0,1,1,.349-.842Z" fill="#01b7e8" stroke="#01b7e8" stroke-miterlimit="10" stroke-width="0.25"/>
        <path id="Trazado_2942" data-name="Trazado 2942" d="M32.141,1611.137a1.106,1.106,0,1,0-.882.443,1.1,1.1,0,0,0,.384-.071,3.337,3.337,0,0,1-2.962,4.874.309.309,0,0,0,0,.619,3.956,3.956,0,0,0,3.489-5.819A.323.323,0,0,0,32.141,1611.137Zm-1.231-.32a.495.495,0,1,1,.349.144A.49.49,0,0,1,30.91,1610.817Z" fill="#01b7e8" stroke="#01b7e8" stroke-miterlimit="10" stroke-width="0.25"/>
      </g>
    </g>
  </g>
</svg>
