<svg xmlns="http://www.w3.org/2000/svg" width="36.184" height="36.184" viewBox="0 0 36.184 36.184">
  <g id="imgBusquedaPostulate" transform="translate(-10.611 -1680)">
    <circle id="Elipse_40" data-name="Elipse 40" cx="18.092" cy="18.092" r="18.092" transform="translate(10.611 1680)" fill="#fff"/>
    <g id="Grupo_541" data-name="Grupo 541">
      <g id="Grupo_540" data-name="Grupo 540">
        <path id="Trazado_2943" data-name="Trazado 2943" d="M32.77,1701.664a.321.321,0,0,0-.227-.095.322.322,0,0,0-.227.549l3.045,3.045a.321.321,0,0,0,.454,0,.321.321,0,0,0,0-.454Z" fill="#01b7e8" stroke="#01b7e8" stroke-miterlimit="10" stroke-width="0.25"/>
        <path id="Trazado_2944" data-name="Trazado 2944" d="M31.043,1699.936a5.534,5.534,0,0,0-.165-7.6,5.493,5.493,0,1,0-.3,8.045l.7.7a.321.321,0,0,0,.454,0,.321.321,0,0,0,0-.454Zm-4.05-8.564a4.852,4.852,0,1,1-3.432,1.421A4.817,4.817,0,0,1,26.993,1691.372Z" fill="#01b7e8" stroke="#01b7e8" stroke-miterlimit="10" stroke-width="0.25"/>
        <path id="Trazado_2945" data-name="Trazado 2945" d="M25.433,1693.194a.321.321,0,0,0,.136-.03,3.389,3.389,0,0,1,2.209-.222.306.306,0,0,0,.074.008.321.321,0,0,0,.074-.633,4.037,4.037,0,0,0-2.629.265.321.321,0,0,0,.136.612Z" fill="#01b7e8" stroke="#01b7e8" stroke-miterlimit="10" stroke-width="0.25"/>
      </g>
    </g>
  </g>
</svg>
