<svg xmlns="http://www.w3.org/2000/svg" width="422.903" height="76.184" viewBox="0 0 422.903 76.184">
  <g id="botonOf" transform="translate(-663.013 -472.283)">
    <rect id="Rectángulo_1320" data-name="Rectángulo 1320" width="420.903" height="74.184" rx="36.549" transform="translate(664.013 473.283)" fill="#fff" stroke="#01b7e8" stroke-miterlimit="10" stroke-width="2"/>
    <g id="Grupo_981" data-name="Grupo 981" transform="translate(-2350)">
      <g id="Grupo_975" data-name="Grupo 975">
        <g id="Grupo_972" data-name="Grupo 972">
          <g id="Grupo_971" data-name="Grupo 971">
            <path id="Trazado_5921" data-name="Trazado 5921" d="M3057.07,523.071a3.516,3.516,0,0,1-2.485-6l6.694-6.694-6.694-6.694a3.515,3.515,0,0,1,4.971-4.972l9.181,9.18a3.517,3.517,0,0,1,0,4.972l-9.181,9.18A3.5,3.5,0,0,1,3057.07,523.071Z" fill="#01b7e8"/>
          </g>
        </g>
        <g id="Grupo_974" data-name="Grupo 974">
          <g id="Grupo_973" data-name="Grupo 973">
            <path id="Trazado_5922" data-name="Trazado 5922" d="M3037.148,523.071a3.516,3.516,0,0,1-2.486-6l6.695-6.694-6.695-6.694a3.516,3.516,0,0,1,4.972-4.972l9.181,9.18a3.517,3.517,0,0,1,0,4.972l-9.181,9.18A3.5,3.5,0,0,1,3037.148,523.071Z" fill="#01b7e8"/>
          </g>
        </g>
      </g>
      <g id="Grupo_980" data-name="Grupo 980">
        <g id="Grupo_977" data-name="Grupo 977">
          <g id="Grupo_976" data-name="Grupo 976">
            <path id="Trazado_5923" data-name="Trazado 5923" d="M3394.374,497.68a3.515,3.515,0,0,1,2.486,6l-6.694,6.694,6.694,6.7a3.516,3.516,0,0,1-4.972,4.972l-9.18-9.181a3.517,3.517,0,0,1,0-4.972l9.18-9.18A3.509,3.509,0,0,1,3394.374,497.68Z" fill="#01b7e8"/>
          </g>
        </g>
        <g id="Grupo_979" data-name="Grupo 979">
          <g id="Grupo_978" data-name="Grupo 978">
            <path id="Trazado_5924" data-name="Trazado 5924" d="M3414.3,497.68a3.515,3.515,0,0,1,2.486,6l-6.7,6.694,6.7,6.7a3.516,3.516,0,0,1-4.972,4.972l-9.181-9.181a3.518,3.518,0,0,1,0-4.972l9.181-9.18A3.5,3.5,0,0,1,3414.3,497.68Z" fill="#01b7e8"/>
          </g>
        </g>
      </g>
    </g>
  </g>
</svg>
