<svg xmlns="http://www.w3.org/2000/svg" width="36.134" height="25.391" viewBox="0 0 36.134 25.391">
  <g id="flachaIzq" transform="translate(-3381.679 -497.68)">
    <g id="Grupo_977" data-name="Grupo 977">
      <g id="Grupo_976" data-name="Grupo 976">
        <path id="Trazado_5923" data-name="Trazado 5923" d="M3394.374,497.68a3.515,3.515,0,0,1,2.486,6l-6.694,6.694,6.694,6.7a3.516,3.516,0,0,1-4.972,4.972l-9.18-9.181a3.517,3.517,0,0,1,0-4.972l9.18-9.18A3.509,3.509,0,0,1,3394.374,497.68Z" fill="#01b7e8"/>
      </g>
    </g>
    <g id="Grupo_979" data-name="Grupo 979">
      <g id="Grupo_978" data-name="Grupo 978">
        <path id="Trazado_5924" data-name="Trazado 5924" d="M3414.3,497.68a3.515,3.515,0,0,1,2.486,6l-6.7,6.694,6.7,6.7a3.516,3.516,0,0,1-4.972,4.972l-9.181-9.181a3.518,3.518,0,0,1,0-4.972l9.181-9.18A3.5,3.5,0,0,1,3414.3,497.68Z" fill="#01b7e8"/>
      </g>
    </g>
  </g>
</svg>
