<svg xmlns="http://www.w3.org/2000/svg" width="36.134" height="25.392" viewBox="0 0 36.134 25.392">
  <g id="flechaDer" transform="translate(-684.034 -417.699)">
    <g id="Grupo_975" data-name="Grupo 975" transform="translate(-2349.599 -79.98)">
      <g id="Grupo_972" data-name="Grupo 972">
        <g id="Grupo_971" data-name="Grupo 971">
          <path id="Trazado_5921" data-name="Trazado 5921" d="M3057.07,523.071a3.516,3.516,0,0,1-2.485-6l6.694-6.694-6.694-6.694a3.515,3.515,0,0,1,4.971-4.972l9.181,9.18a3.517,3.517,0,0,1,0,4.972l-9.181,9.18A3.5,3.5,0,0,1,3057.07,523.071Z" fill="#01b7e8"/>
        </g>
      </g>
      <g id="Grupo_974" data-name="Grupo 974">
        <g id="Grupo_973" data-name="Grupo 973">
          <path id="Trazado_5922" data-name="Trazado 5922" d="M3037.148,523.071a3.516,3.516,0,0,1-2.486-6l6.695-6.694-6.695-6.694a3.516,3.516,0,0,1,4.972-4.972l9.181,9.18a3.517,3.517,0,0,1,0,4.972l-9.181,9.18A3.5,3.5,0,0,1,3037.148,523.071Z" fill="#01b7e8"/>
        </g>
      </g>
    </g>
  </g>
</svg>
