<svg xmlns="http://www.w3.org/2000/svg" width="410.474" height="46.033" viewBox="0 0 410.474 46.033">
  <g id="RowSumateResponsive" transform="translate(0 -1595.875)">
    <rect id="Rectángulo_618" data-name="Rectángulo 618" width="146.866" height="40.263" transform="translate(0 1599.78)" fill="#60c3db" opacity="0.8"/>
    <circle id="Elipse_41" data-name="Elipse 41" cx="23.017" cy="23.017" r="23.017" transform="translate(13.802 1595.875)" fill="#fff"/>
    <rect id="Rectángulo_619" data-name="Rectángulo 619" width="124.019" height="40.263" transform="translate(146.801 1599.78)" fill="#60c3db" opacity="0.7"/>
    <rect id="Rectángulo_620" data-name="Rectángulo 620" width="139.785" height="40.263" transform="translate(270.689 1599.78)" fill="#60c3db" opacity="0.6"/>
    <text id="Sumate_a_los_beneficios" data-name="Sumate a los beneficios" transform="translate(324.609 1631.237)" fill="#fff" font-size="8" font-family="Montserrat-Medium, Montserrat" font-weight="500"><tspan x="-48.276" y="0">Sumate a los beneficios</tspan></text>
    <text id="_01" data-name="01" transform="translate(96.961 1619.68)" fill="#fff" font-size="19" font-family="Montserrat-ExtraBold, Montserrat" font-weight="800"><tspan x="-10.279" y="0">01</tspan></text>
    <text id="Inscribite" transform="translate(96.982 1631.237)" fill="#fff" font-size="8" font-family="Montserrat-Medium, Montserrat" font-weight="500"><tspan x="-18.856" y="0">Inscribite</tspan></text>
    <text id="_02" data-name="02" transform="translate(206.755 1619.68)" fill="#fff" font-size="19" font-family="Montserrat-ExtraBold, Montserrat" font-weight="800"><tspan x="-12.122" y="0">02</tspan></text>
    <text id="Te_llamamos" data-name="Te llamamos" transform="translate(205.362 1631.237)" fill="#fff" font-size="8" font-family="Montserrat-Medium, Montserrat" font-weight="500"><tspan x="-25.68" y="0">Te llamamos</tspan></text>
    <text id="_03" data-name="03" transform="translate(329.656 1619.68)" fill="#fff" font-size="19" font-family="Montserrat-ExtraBold, Montserrat" font-weight="800"><tspan x="-12.141" y="0">03</tspan></text>
    <g id="Grupo_539" data-name="Grupo 539" transform="translate(26.792 1608.006)">
      <g id="Grupo_538" data-name="Grupo 538">
        <path id="Trazado_2940" data-name="Trazado 2940" d="M39.429,1613.059H38.378a.714.714,0,0,1-.663-.449l-.056-.141a.706.706,0,0,1,.16-.766l.741-.741a1.51,1.51,0,0,0,0-2.134l-1.116-1.116a1.51,1.51,0,0,0-2.136,0l-.694.694a.722.722,0,0,1-.507.21.682.682,0,0,1-.273-.056c-.063-.028-.127-.055-.191-.081a.7.7,0,0,1-.432-.657v-.979a1.512,1.512,0,0,0-1.51-1.511H30.124a1.512,1.512,0,0,0-1.51,1.511v.979a.7.7,0,0,1-.432.657c-.064.026-.128.052-.191.081a.681.681,0,0,1-.272.056.725.725,0,0,1-.508-.21l-.694-.694a1.51,1.51,0,0,0-2.136,0l-1.115,1.115a1.51,1.51,0,0,0,0,2.136l.74.741a.7.7,0,0,1,.16.766c-.019.047-.038.094-.056.141a.712.712,0,0,1-.663.449H22.4a1.512,1.512,0,0,0-1.51,1.511v1.576a1.512,1.512,0,0,0,1.51,1.511h1.148a.707.707,0,0,1,.654.43l.028.064a.71.71,0,0,1-.149.79l-.812.813a1.508,1.508,0,0,0,0,2.134l1.115,1.116a1.509,1.509,0,0,0,2.136,0l.861-.861a.7.7,0,0,1,.5-.207.771.771,0,0,1,.287.057.713.713,0,0,1,.448.663v1.216a1.512,1.512,0,0,0,1.51,1.511H31.7a1.512,1.512,0,0,0,1.51-1.511v-1.216a.727.727,0,0,1,1.237-.513l.861.861a1.509,1.509,0,0,0,2.136,0l1.116-1.116a1.511,1.511,0,0,0,0-2.134l-.813-.813a.71.71,0,0,1-.149-.79l.028-.066a.708.708,0,0,1,.655-.428h1.147a1.512,1.512,0,0,0,1.51-1.511v-1.576A1.512,1.512,0,0,0,39.429,1613.059Zm-2.532,4.715-.026.059a1.5,1.5,0,0,0,.316,1.67l.812.812a.717.717,0,0,1,0,1.013l-1.115,1.116a.718.718,0,0,1-1.013,0l-.861-.861a1.49,1.49,0,0,0-1.062-.441,1.541,1.541,0,0,0-.586.117,1.5,1.5,0,0,0-.943,1.4v1.216a.718.718,0,0,1-.717.717H30.124a.718.718,0,0,1-.717-.717v-1.216a1.533,1.533,0,0,0-1.525-1.516,1.5,1.5,0,0,0-1.065.443l-.861.861a.718.718,0,0,1-1.013,0l-1.116-1.116a.715.715,0,0,1,0-1.013l.812-.812a1.5,1.5,0,0,0,.316-1.67l-.026-.059a1.5,1.5,0,0,0-1.384-.911H22.4a.718.718,0,0,1-.717-.717v-1.576a.718.718,0,0,1,.717-.717h1.051a1.514,1.514,0,0,0,1.4-.957l.049-.126a1.494,1.494,0,0,0-.332-1.628l-.741-.741a.717.717,0,0,1,0-1.013l1.115-1.116a.72.72,0,0,1,1.015,0l.694.694a1.523,1.523,0,0,0,1.07.443,1.473,1.473,0,0,0,.59-.122c.055-.026.112-.049.169-.072a1.492,1.492,0,0,0,.927-1.393v-.979a.718.718,0,0,1,.717-.717H31.7a.718.718,0,0,1,.717.717v.979a1.491,1.491,0,0,0,.929,1.393c.056.023.113.046.169.072a1.467,1.467,0,0,0,.589.122,1.526,1.526,0,0,0,1.071-.443l.694-.694a.719.719,0,0,1,1.013,0L38,1609.388a.717.717,0,0,1,0,1.013l-.74.741a1.492,1.492,0,0,0-.334,1.628l.05.126a1.511,1.511,0,0,0,1.4.957h1.051a.718.718,0,0,1,.717.717v1.576a.718.718,0,0,1-.717.717H38.282A1.5,1.5,0,0,0,36.9,1617.774Z" transform="translate(-20.887 -1605.332)" fill="#01b7e8" stroke="#01b7e8" stroke-miterlimit="10" stroke-width="0.25"/>
        <path id="Trazado_2941" data-name="Trazado 2941" d="M30.2,1609.489a.4.4,0,0,0-.4-.4,5.076,5.076,0,0,0-4.477,7.466.427.427,0,0,0,.044.063,1.435,1.435,0,1,0,1.192-.626,1.443,1.443,0,0,0-.572.118,4.281,4.281,0,0,1,3.814-6.226A.4.4,0,0,0,30.2,1609.489Zm-3.2,7.478a.635.635,0,0,1,0,.9.632.632,0,1,1,0-.9Z" transform="translate(-19.803 -1604.269)" fill="#01b7e8" stroke="#01b7e8" stroke-miterlimit="10" stroke-width="0.25"/>
        <path id="Trazado_2942" data-name="Trazado 2942" d="M33.207,1611.64a1.418,1.418,0,1,0-1.131.568,1.408,1.408,0,0,0,.493-.091,4.281,4.281,0,0,1-3.8,6.252.4.4,0,0,0,0,.794,5.074,5.074,0,0,0,4.475-7.464A.419.419,0,0,0,33.207,1611.64Zm-1.579-.41a.635.635,0,1,1,.448.185A.629.629,0,0,1,31.628,1611.23Z" transform="translate(-18.771 -1604.194)" fill="#01b7e8" stroke="#01b7e8" stroke-miterlimit="10" stroke-width="0.25"/>
      </g>
    </g>
    <line id="Línea_69" data-name="Línea 69" x2="73.556" transform="translate(112.785 1619.911)" fill="none" stroke="#fff" stroke-miterlimit="10" stroke-width="0.75"/>
    <line id="Línea_70" data-name="Línea 70" x2="73.556" transform="translate(229.653 1619.911)" fill="none" stroke="#fff" stroke-miterlimit="10" stroke-width="0.75"/>
  </g>
</svg>
