<svg xmlns="http://www.w3.org/2000/svg" width="59.08" height="59.08" viewBox="0 0 59.08 59.08">
  <g id="iconoTutorados" transform="translate(-62.161 -1014.76)">
    <g id="Grupo_3049" data-name="Grupo 3049">
      <rect id="Rectángulo_3469" data-name="Rectángulo 3469" width="23.452" height="5.412" transform="translate(79.975 1067.752)" fill="#fff"/>
    </g>
    <g id="Grupo_3050" data-name="Grupo 3050">
      <path id="Trazado_11076" data-name="Trazado 11076" d="M98.916,1067.752H79.975v3.608H95.308a3.608,3.608,0,0,0,3.608-3.608Z" fill="#01b7e8"/>
    </g>
    <g id="Grupo_3051" data-name="Grupo 3051">
      <path id="Trazado_11077" data-name="Trazado 11077" d="M103.427,1073.84H79.975a.676.676,0,0,1-.676-.676v-5.412a.677.677,0,0,1,.676-.677h23.452a.677.677,0,0,1,.676.677v5.412A.676.676,0,0,1,103.427,1073.84Zm-22.775-1.353h22.1v-4.059h-22.1Z" fill="#01b7e8"/>
    </g>
    <g id="Grupo_3052" data-name="Grupo 3052">
      <path id="Rectángulo_3470" data-name="Rectángulo 3470" d="M0,0H57.727a0,0,0,0,1,0,0V2.412a3,3,0,0,1-3,3H3a3,3,0,0,1-3-3V0A0,0,0,0,1,0,0Z" transform="translate(62.837 1062.34)" fill="#fff"/>
    </g>
    <g id="Grupo_3053" data-name="Grupo 3053">
      <path id="Trazado_11078" data-name="Trazado 11078" d="M117.859,1068.428H65.543a3.386,3.386,0,0,1-3.382-3.382v-2.706a.677.677,0,0,1,.676-.677h57.728a.677.677,0,0,1,.676.677v2.706A3.386,3.386,0,0,1,117.859,1068.428Zm-54.345-5.412v2.03a2.032,2.032,0,0,0,2.029,2.029h52.316a2.032,2.032,0,0,0,2.029-2.029v-2.03Z" fill="#01b7e8"/>
    </g>
    <g id="Grupo_3054" data-name="Grupo 3054">
      <path id="Trazado_11079" data-name="Trazado 11079" d="M109.741,1073.84H73.661a.676.676,0,0,1,0-1.353h36.08a.676.676,0,0,1,0,1.353Z" fill="#01b7e8"/>
    </g>
    <g id="Grupo_3055" data-name="Grupo 3055">
      <circle id="Elipse_107" data-name="Elipse 107" cx="0.676" cy="0.676" r="0.676" transform="translate(91.024 1064.369)" fill="#01b7e8"/>
    </g>
    <g id="Grupo_3056" data-name="Grupo 3056">
      <path id="Rectángulo_3471" data-name="Rectángulo 3471" d="M3,0H54.727a3,3,0,0,1,3,3V36.08a0,0,0,0,1,0,0H0a0,0,0,0,1,0,0V3A3,3,0,0,1,3,0Z" transform="translate(62.837 1026.261)" fill="#f2f2f2"/>
    </g>
    <g id="Grupo_3057" data-name="Grupo 3057">
      <path id="Trazado_11080" data-name="Trazado 11080" d="M120.565,1063.016H62.837a.676.676,0,0,1-.676-.676v-33.374a3.386,3.386,0,0,1,3.382-3.382h52.316a3.386,3.386,0,0,1,3.382,3.382v33.374A.676.676,0,0,1,120.565,1063.016Zm-57.051-1.353h56.374v-32.7a2.031,2.031,0,0,0-2.029-2.029H65.543a2.031,2.031,0,0,0-2.029,2.029Z" fill="#01b7e8"/>
    </g>
    <g id="Grupo_3058" data-name="Grupo 3058">
      <rect id="Rectángulo_3472" data-name="Rectángulo 3472" width="41.492" height="39.688" transform="translate(70.955 1022.651)" fill="#f2f2f2"/>
    </g>
    <g id="Grupo_3059" data-name="Grupo 3059">
      <path id="Trazado_11081" data-name="Trazado 11081" d="M112.447,1063.016H70.955a.676.676,0,0,1-.676-.676v-39.689a.676.676,0,0,1,.676-.676h41.492a.676.676,0,0,1,.676.676v39.689A.676.676,0,0,1,112.447,1063.016Zm-40.815-1.353H111.77v-38.335H71.632Z" fill="#01b7e8"/>
    </g>
    <g id="Grupo_3060" data-name="Grupo 3060">
      <path id="Rectángulo_3473" data-name="Rectángulo 3473" d="M2,0H39.492a2,2,0,0,1,2,2V7.216a0,0,0,0,1,0,0H0a0,0,0,0,1,0,0V2A2,2,0,0,1,2,0Z" transform="translate(70.955 1015.436)" fill="#01b7e8"/>
    </g>
    <g id="Grupo_3061" data-name="Grupo 3061">
      <path id="Rectángulo_3474" data-name="Rectángulo 3474" d="M2,0H41.492a0,0,0,0,1,0,0V3.789a2,2,0,0,1-2,2H0a0,0,0,0,1,0,0V2A2,2,0,0,1,2,0Z" transform="translate(70.955 1015.436)" fill="#fff"/>
    </g>
    <g id="Grupo_3062" data-name="Grupo 3062">
      <path id="Trazado_11082" data-name="Trazado 11082" d="M112.447,1023.329H70.955a.677.677,0,0,1-.676-.677v-5.412a2.482,2.482,0,0,1,2.48-2.48h37.884a2.482,2.482,0,0,1,2.48,2.48v5.412A.677.677,0,0,1,112.447,1023.329Zm-40.815-1.353H111.77v-4.736a1.128,1.128,0,0,0-1.127-1.127H72.759a1.128,1.128,0,0,0-1.127,1.127Z" fill="#01b7e8"/>
    </g>
    <g id="Grupo_3063" data-name="Grupo 3063">
      <path id="Trazado_11083" data-name="Trazado 11083" d="M107.937,1019.723a.677.677,0,0,1-.478-.2.708.708,0,0,1-.2-.478.675.675,0,0,1,.2-.478.7.7,0,0,1,.956-.009.684.684,0,0,1,0,.965A.693.693,0,0,1,107.937,1019.723Z" fill="#01b7e8"/>
    </g>
    <g id="Grupo_3064" data-name="Grupo 3064">
      <path id="Trazado_11084" data-name="Trazado 11084" d="M102.751,1019.047a.67.67,0,0,1,.676-.677h0a.676.676,0,0,1,.677.677h0a.681.681,0,0,1-.677.676h0A.675.675,0,0,1,102.751,1019.047Z" fill="#01b7e8"/>
    </g>
    <g id="Grupo_3065" data-name="Grupo 3065">
      <path id="Trazado_11085" data-name="Trazado 11085" d="M98.917,1019.723a.677.677,0,0,1-.478-.2.708.708,0,0,1-.2-.478.675.675,0,0,1,.2-.478.689.689,0,0,1,.957-.009.687.687,0,0,1,0,.965A.7.7,0,0,1,98.917,1019.723Z" fill="#01b7e8"/>
    </g>
    <g id="Grupo_3066" data-name="Grupo 3066">
      <path id="Trazado_11086" data-name="Trazado 11086" d="M66.446,1048.584a.677.677,0,0,1-.677-.677v-9.651a.677.677,0,0,1,1.353,0v9.651A.677.677,0,0,1,66.446,1048.584Z" fill="#01b7e8"/>
    </g>
    <g id="Grupo_3067" data-name="Grupo 3067">
      <path id="Trazado_11087" data-name="Trazado 11087" d="M66.446,1035.325a.677.677,0,0,1-.677-.677v-2.074a.677.677,0,0,1,1.353,0v2.074A.677.677,0,0,1,66.446,1035.325Z" fill="#01b7e8"/>
    </g>
    <g id="Grupo_3068" data-name="Grupo 3068">
      <circle id="Elipse_108" data-name="Elipse 108" cx="14.432" cy="14.432" r="14.432" transform="translate(77.269 1028.064)" fill="#fff"/>
    </g>
    <g id="Grupo_3069" data-name="Grupo 3069">
      <path id="Trazado_11088" data-name="Trazado 11088" d="M91.7,1057.6a15.108,15.108,0,1,1,15.108-15.108A15.125,15.125,0,0,1,91.7,1057.6Zm0-28.863a13.755,13.755,0,1,0,13.755,13.755A13.77,13.77,0,0,0,91.7,1028.741Z" fill="#01b7e8"/>
    </g>
    <g id="Grupo_3070" data-name="Grupo 3070">
      <path id="Trazado_11089" data-name="Trazado 11089" d="M97.283,1046.4l12.628,4.333-5.74,2.555-2.555,5.74Z" fill="#01b7e8"/>
    </g>
    <g id="Grupo_3071" data-name="Grupo 3071">
      <path id="Trazado_11090" data-name="Trazado 11090" d="M97.283,1046.4l6.887,6.887-2.555,5.74Z" fill="#01b7e8"/>
    </g>
    <g id="Grupo_3072" data-name="Grupo 3072">
      <path id="Trazado_11091" data-name="Trazado 11091" d="M101.616,1059.7h-.03a.676.676,0,0,1-.61-.457l-4.333-12.628a.677.677,0,0,1,.86-.859l12.628,4.333a.676.676,0,0,1,.055,1.258l-5.5,2.449-2.449,5.5A.676.676,0,0,1,101.616,1059.7Zm-3.244-12.215,3.325,9.692,1.855-4.168a.679.679,0,0,1,.344-.344l4.168-1.855Z" fill="#01b7e8"/>
    </g>
    <g id="Grupo_3073" data-name="Grupo 3073">
      <path id="Trazado_11092" data-name="Trazado 11092" d="M93.636,1039.138c0-.949-.879-1.519-2.089-1.519a3.342,3.342,0,0,0-2.966,1.709l-3.537-1.9c1.26-2.112,3.56-3.512,7.049-3.512,3.655,0,6.264,1.566,6.264,4.462,0,3.7-3.891,4.248-3.891,6.431H90.242C90.242,1041.7,93.636,1040.918,93.636,1039.138Zm-3.963,9.444a2.706,2.706,0,0,1,5.386,0,2.7,2.7,0,0,1-5.386,0Z" fill="#01b7e8"/>
    </g>
  </g>
</svg>
