<svg xmlns="http://www.w3.org/2000/svg" xmlns:xlink="http://www.w3.org/1999/xlink" width="50.882" height="38.164" viewBox="0 0 50.882 38.164">
  <defs>
    <linearGradient id="linear-gradient" y1="0.5" x2="1" y2="0.5" gradientUnits="objectBoundingBox">
      <stop offset="0" stop-color="#2cb0cf"/>
      <stop offset="1" stop-color="#d41183"/>
    </linearGradient>
  </defs>
  <g id="icono03InfoCap" transform="translate(-670.452 -3605.609)">
    <path id="Rectángulo_3449" data-name="Rectángulo 3449" d="M0,0H49.65a0,0,0,0,1,0,0V22.514a4.969,4.969,0,0,1-4.969,4.969H4.969A4.969,4.969,0,0,1,0,22.514V0A0,0,0,0,1,0,0Z" transform="translate(671.684 3616.291)" opacity="0.5" fill="url(#linear-gradient)"/>
    <g id="icono03InfoCap-2" data-name="icono03InfoCap">
      <path id="Trazado_11207" data-name="Trazado 11207" d="M717.838,3605.609H673.572a3.123,3.123,0,0,0-3.12,3.12v30.747a3.122,3.122,0,0,0,3.12,3.119h44.266a3.123,3.123,0,0,0,3.12-3.119v-30.747A3.124,3.124,0,0,0,717.838,3605.609Zm1.59,33.867a1.591,1.591,0,0,1-1.59,1.59H673.572a1.591,1.591,0,0,1-1.59-1.59v-30.747a1.592,1.592,0,0,1,1.59-1.59h44.266a1.592,1.592,0,0,1,1.59,1.59Z" fill="#0629f9"/>
      <path id="Trazado_11208" data-name="Trazado 11208" d="M716.79,3612.6H674.557a.765.765,0,1,0,0,1.53H716.79a.765.765,0,1,0,0-1.53Z" fill="#0629f9"/>
      <path id="Trazado_11209" data-name="Trazado 11209" d="M675.862,3610.905a.979.979,0,1,0-.979-.98A.98.98,0,0,0,675.862,3610.905Z" fill="#0629f9"/>
      <path id="Trazado_11210" data-name="Trazado 11210" d="M679.491,3610.905a.979.979,0,1,0-.98-.98A.979.979,0,0,0,679.491,3610.905Z" fill="#0629f9"/>
      <path id="Trazado_11211" data-name="Trazado 11211" d="M683.119,3610.905a.979.979,0,1,0-.98-.98A.98.98,0,0,0,683.119,3610.905Z" fill="#0629f9"/>
      <path id="Trazado_11212" data-name="Trazado 11212" d="M690.127,3621.272a.763.763,0,0,0-1.081,0l-5.649,5.648a.767.767,0,0,0,0,1.082l5.511,5.51a.765.765,0,1,0,1.081-1.082l-4.969-4.969,5.107-5.108A.764.764,0,0,0,690.127,3621.272Z" fill="#fff"/>
      <path id="Trazado_11213" data-name="Trazado 11213" d="M702.364,3621.272a.764.764,0,0,0-1.081,1.081l5.107,5.108-4.97,4.969a.765.765,0,1,0,1.082,1.082l5.51-5.51a.765.765,0,0,0,0-1.082Z" fill="#fff"/>
      <path id="Trazado_11214" data-name="Trazado 11214" d="M699.4,3621.155a.764.764,0,0,0-1.048.268l-6.612,11.158a.763.763,0,0,0,.268,1.048.754.754,0,0,0,.389.107.766.766,0,0,0,.659-.375l6.612-11.158A.765.765,0,0,0,699.4,3621.155Z" fill="#fff"/>
    </g>
  </g>
</svg>
