<svg xmlns="http://www.w3.org/2000/svg" width="58.84" height="58.84" viewBox="0 0 58.84 58.84">
  <g id="icon3Red" transform="translate(-645.904 -729.053)">
    <g id="Grupo_1127" data-name="Grupo 1127">
      <rect id="Rectángulo_1576" data-name="Rectángulo 1576" width="50.724" height="50.414" rx="3" transform="translate(649.579 732.656)" fill="none" stroke="#01b7e8" stroke-miterlimit="10" stroke-width="1"/>
    </g>
    <g id="Grupo_1129" data-name="Grupo 1129">
      <g id="Grupo_1128" data-name="Grupo 1128">
        <path id="Trazado_6679" data-name="Trazado 6679" d="M701.376,787.893h-52.1a3.372,3.372,0,0,1-3.369-3.368v-52.1a3.373,3.373,0,0,1,3.369-3.369h52.1a3.373,3.373,0,0,1,3.368,3.369v52.1A3.372,3.372,0,0,1,701.376,787.893Zm-52.1-57.492a2.023,2.023,0,0,0-2.021,2.021v52.1a2.023,2.023,0,0,0,2.021,2.021h52.1a2.024,2.024,0,0,0,2.021-2.021v-52.1a2.024,2.024,0,0,0-2.021-2.021Z" fill="#01b7e8"/>
      </g>
    </g>
    <g id="Grupo_1142" data-name="Grupo 1142">
      <g id="Grupo_1130" data-name="Grupo 1130">
        <path id="Trazado_6680" data-name="Trazado 6680" d="M675.318,763.384l-8.939,14.637-6.287-5.573,9.414-10.739Z" fill="#333"/>
      </g>
      <g id="Grupo_1131" data-name="Grupo 1131">
        <path id="Trazado_6681" data-name="Trazado 6681" d="M672.909,762.689,666.6,773.014a1.087,1.087,0,0,1-1.649.248l-3.138-2.782-1.724,1.967,6.287,5.574,8.939-14.637Z" fill="#01b7e8"/>
      </g>
      <g id="Grupo_1132" data-name="Grupo 1132">
        <path id="Trazado_6682" data-name="Trazado 6682" d="M666.379,778.836a.816.816,0,0,1-.541-.205l-6.287-5.573a.815.815,0,0,1-.072-1.148l9.414-10.739a.815.815,0,0,1,.839-.247l5.811,1.676a.815.815,0,0,1,.47,1.209l-8.938,14.636a.82.82,0,0,1-.576.383A.967.967,0,0,1,666.379,778.836Zm-5.139-6.461,4.951,4.389,7.873-12.893-4.286-1.236Z" fill="#01b7e8"/>
      </g>
      <g id="Grupo_1133" data-name="Grupo 1133">
        <path id="Trazado_6683" data-name="Trazado 6683" d="M675.318,763.384l8.939,14.637,6.287-5.573-9.414-10.739Z" fill="#333"/>
      </g>
      <g id="Grupo_1134" data-name="Grupo 1134">
        <path id="Trazado_6684" data-name="Trazado 6684" d="M690.543,772.447l-9.414-10.739-2.758.8,7.924,9.039a1.089,1.089,0,0,1-.1,1.531l-3.22,2.854,1.277,2.093Z" fill="#01b7e8"/>
      </g>
      <g id="Grupo_1135" data-name="Grupo 1135">
        <path id="Trazado_6685" data-name="Trazado 6685" d="M684.256,778.836a.954.954,0,0,1-.12-.008.82.82,0,0,1-.576-.383l-8.939-14.636a.817.817,0,0,1,.47-1.209l5.812-1.676a.814.814,0,0,1,.839.247l9.414,10.739a.815.815,0,0,1-.072,1.148l-6.287,5.573A.816.816,0,0,1,684.256,778.836Zm-7.686-14.965,7.874,12.893,4.951-4.389-8.538-9.74Z" fill="#01b7e8"/>
      </g>
      <g id="Grupo_1136" data-name="Grupo 1136">
        <path id="Trazado_6686" data-name="Trazado 6686" d="M676.236,739.276l1.822,2a1.244,1.244,0,0,0,1.3.347l2.578-.821a1.243,1.243,0,0,1,1.591.919l.578,2.642a1.244,1.244,0,0,0,.949.95l2.642.577a1.243,1.243,0,0,1,.919,1.591l-.821,2.578a1.24,1.24,0,0,0,.347,1.295l2,1.823a1.243,1.243,0,0,1,0,1.837l-2,1.821a1.244,1.244,0,0,0-.347,1.3l.821,2.578a1.243,1.243,0,0,1-.919,1.591l-2.642.577a1.244,1.244,0,0,0-.949.949l-.578,2.643a1.243,1.243,0,0,1-1.591.919l-2.578-.821a1.242,1.242,0,0,0-1.3.347l-1.822,2a1.244,1.244,0,0,1-1.837,0l-1.822-2a1.242,1.242,0,0,0-1.3-.347l-2.577.821a1.244,1.244,0,0,1-1.592-.919l-.578-2.643a1.244,1.244,0,0,0-.949-.949l-2.642-.577a1.242,1.242,0,0,1-.918-1.591l.82-2.578a1.244,1.244,0,0,0-.347-1.3l-2-1.821a1.242,1.242,0,0,1,0-1.837l2-1.823a1.24,1.24,0,0,0,.347-1.295l-.82-2.578a1.242,1.242,0,0,1,.918-1.591l2.642-.577a1.244,1.244,0,0,0,.949-.95l.578-2.642a1.244,1.244,0,0,1,1.592-.919l2.577.821a1.243,1.243,0,0,0,1.3-.347l1.822-2A1.244,1.244,0,0,1,676.236,739.276Z" fill="#333"/>
      </g>
      <g id="Grupo_1137" data-name="Grupo 1137">
        <path id="Trazado_6687" data-name="Trazado 6687" d="M690.137,755.014a1.243,1.243,0,0,0,0-1.837l-1.859-1.694a1.237,1.237,0,0,1-.316,1.356l-2,1.821a1.243,1.243,0,0,0-.347,1.3l.821,2.578a1.244,1.244,0,0,1-.919,1.592l-2.643.577a1.241,1.241,0,0,0-.948.949l-.579,2.642a1.242,1.242,0,0,1-1.59.92l-2.578-.821a1.241,1.241,0,0,0-1.3.347l-1.822,2a1.237,1.237,0,0,1-1.356.315l1.694,1.86a1.244,1.244,0,0,0,1.837,0l1.822-2a1.242,1.242,0,0,1,1.3-.347l2.578.821a1.243,1.243,0,0,0,1.591-.919l.578-2.643a1.244,1.244,0,0,1,.949-.949l2.642-.577a1.243,1.243,0,0,0,.919-1.591l-.821-2.578a1.244,1.244,0,0,1,.347-1.3Z" fill="#333"/>
      </g>
      <g id="Grupo_1138" data-name="Grupo 1138">
        <path id="Trazado_6688" data-name="Trazado 6688" d="M675.318,770.136a2.065,2.065,0,0,1-1.523-.673l-1.821-2a.425.425,0,0,0-.445-.119l-2.578.821a2.058,2.058,0,0,1-2.635-1.523L665.737,764a.427.427,0,0,0-.326-.326l-2.642-.578a2.057,2.057,0,0,1-1.521-2.636l.819-2.577a.426.426,0,0,0-.119-.445l-2-1.822a2.058,2.058,0,0,1,0-3.043l2-1.823a.429.429,0,0,0,.12-.445l-.821-2.577a2.059,2.059,0,0,1,1.521-2.636l2.643-.578a.429.429,0,0,0,.327-.326l.577-2.642a2.059,2.059,0,0,1,2.636-1.522l2.577.821a.428.428,0,0,0,.446-.119l1.822-2a2.125,2.125,0,0,1,3.044,0l1.821,2a.427.427,0,0,0,.447.119l2.576-.821a2.056,2.056,0,0,1,2.635,1.522l.579,2.642a.424.424,0,0,0,.325.325l2.643.579a2.057,2.057,0,0,1,1.521,2.636l-.82,2.577a.43.43,0,0,0,.119.446l2,1.822a2.057,2.057,0,0,1,0,3.042l-2,1.823a.426.426,0,0,0-.119.444l.821,2.578a2.059,2.059,0,0,1-1.521,2.636l-2.643.578a.427.427,0,0,0-.326.326l-.578,2.642a2.059,2.059,0,0,1-2.636,1.523l-2.577-.821a.424.424,0,0,0-.445.119l-1.823,2A2.059,2.059,0,0,1,675.318,770.136Zm-3.663-4.442a2.063,2.063,0,0,1,1.524.672l1.822,2c.222.242.411.244.632,0l1.823-2a2.066,2.066,0,0,1,2.146-.576l2.577.821a.42.42,0,0,0,.343-.037.425.425,0,0,0,.2-.279l.578-2.642a2.063,2.063,0,0,1,1.571-1.571l2.643-.578a.431.431,0,0,0,.316-.548l-.821-2.577a2.066,2.066,0,0,1,.574-2.146l2-1.822a.428.428,0,0,0,0-.631l-2-1.822a2.068,2.068,0,0,1-.574-2.147l.82-2.577a.429.429,0,0,0-.316-.548l-2.642-.578a2.06,2.06,0,0,1-1.571-1.571l-.578-2.642a.428.428,0,0,0-.547-.315l-2.578.821a2.062,2.062,0,0,1-2.146-.576l-1.821-2h0a.365.365,0,0,0-.631,0l-1.823,2a2.06,2.06,0,0,1-2.144.576l-2.579-.821a.427.427,0,0,0-.547.315l-.578,2.642a2.064,2.064,0,0,1-1.572,1.572l-2.642.577a.42.42,0,0,0-.278.205.426.426,0,0,0-.038.343l.821,2.577a2.064,2.064,0,0,1-.575,2.147l-2,1.822a.42.42,0,0,0-.14.314.426.426,0,0,0,.14.318l2,1.82a2.065,2.065,0,0,1,.575,2.148l-.82,2.576a.429.429,0,0,0,.316.548l2.642.578a2.065,2.065,0,0,1,1.571,1.571l.578,2.642a.427.427,0,0,0,.547.316l2.578-.821A2.074,2.074,0,0,1,671.655,765.694Z" fill="#01b7e8"/>
      </g>
      <g id="Grupo_1139" data-name="Grupo 1139">
        <path id="Trazado_6689" data-name="Trazado 6689" d="M675.318,745.4l1.8,1.978,2.549-.812.571,2.614,2.613.571-.812,2.549,1.977,1.8-1.977,1.8.812,2.549-2.613.571-.571,2.612-2.549-.811-1.8,1.977-1.8-1.977-2.548.811-.572-2.612-2.612-.571.811-2.549-1.977-1.8,1.977-1.8-.811-2.549,2.612-.571.572-2.614,2.548.813Z" fill="#333"/>
      </g>
      <g id="Grupo_1140" data-name="Grupo 1140">
        <path id="Trazado_6690" data-name="Trazado 6690" d="M683.119,754.914l-3.624.767a.546.546,0,0,0-.419.416l-.368,1.687a.544.544,0,0,1-.7.4l-1.648-.524a.543.543,0,0,0-.566.152l-1.165,1.278a.543.543,0,0,1-.8,0l-1.163-1.276a.542.542,0,0,0-.57-.151l-3.176,1.03,1.477.323.572,2.612,2.548-.811,1.8,1.978,1.8-1.978,2.549.811.571-2.612,2.613-.571-.812-2.549Z" fill="#01b7e8"/>
      </g>
      <g id="Grupo_1141" data-name="Grupo 1141">
        <path id="Trazado_6691" data-name="Trazado 6691" d="M675.317,763.611h0a.816.816,0,0,1-.6-.266l-1.449-1.591-2.05.653a.816.816,0,0,1-1.045-.6l-.459-2.1-2.1-.46a.817.817,0,0,1-.6-1.044l.654-2.051-1.591-1.448a.818.818,0,0,1,0-1.207l1.591-1.449-.653-2.05a.816.816,0,0,1,.6-1.044l2.1-.46.459-2.1a.816.816,0,0,1,1.045-.6l2.05.653,1.45-1.59a.841.841,0,0,1,1.2,0l1.45,1.59,2.05-.653a.816.816,0,0,1,1.044.6l.46,2.1,2.1.46a.816.816,0,0,1,.6,1.044l-.653,2.05,1.591,1.449a.817.817,0,0,1,0,1.207l-1.59,1.448.653,2.051a.816.816,0,0,1-.6,1.044l-2.1.46-.46,2.1a.816.816,0,0,1-1.044.6l-2.05-.653-1.45,1.591A.814.814,0,0,1,675.317,763.611Zm-1.8-3.608a.813.813,0,0,1,.6.266l1.2,1.316,1.2-1.316a.821.821,0,0,1,.85-.228l1.7.54.381-1.738a.816.816,0,0,1,.622-.623l1.738-.38-.54-1.7a.817.817,0,0,1,.228-.851l1.316-1.2-1.316-1.2a.818.818,0,0,1-.228-.851l.54-1.7-1.738-.38a.819.819,0,0,1-.623-.623l-.38-1.738-1.7.539a.817.817,0,0,1-.85-.228l-1.2-1.315-1.2,1.315a.812.812,0,0,1-.85.228l-1.7-.539-.38,1.738a.819.819,0,0,1-.623.623l-1.738.38.539,1.7a.813.813,0,0,1-.227.851l-1.316,1.2,1.316,1.2a.815.815,0,0,1,.228.851l-.54,1.7,1.738.38a.819.819,0,0,1,.623.623l.38,1.738,1.7-.54A.805.805,0,0,1,673.516,760Z" fill="#01b7e8"/>
      </g>
    </g>
    <g id="Grupo_1145" data-name="Grupo 1145">
      <g id="Grupo_1143" data-name="Grupo 1143">
        <path id="Trazado_6692" data-name="Trazado 6692" d="M653.253,779.849a.674.674,0,0,1-.674-.674v-9.61a.674.674,0,0,1,1.348,0v9.61A.674.674,0,0,1,653.253,779.849Z" fill="#01b7e8"/>
      </g>
      <g id="Grupo_1144" data-name="Grupo 1144">
        <path id="Trazado_6693" data-name="Trazado 6693" d="M653.253,766.413a.757.757,0,0,1-.757-.757v-2.32a.757.757,0,0,1,1.514,0v2.32A.757.757,0,0,1,653.253,766.413Z" fill="#01b7e8"/>
      </g>
    </g>
    <g id="Grupo_1148" data-name="Grupo 1148">
      <g id="Grupo_1146" data-name="Grupo 1146">
        <path id="Trazado_6694" data-name="Trazado 6694" d="M677.134,736.512a.856.856,0,0,1,.856-.856h12.215a.857.857,0,1,1,0,1.713H677.99A.857.857,0,0,1,677.134,736.512Z" fill="#01b7e8"/>
      </g>
      <g id="Grupo_1147" data-name="Grupo 1147">
        <path id="Trazado_6695" data-name="Trazado 6695" d="M692.965,736.512a.856.856,0,0,1,.856-.856h2.626a.857.857,0,0,1,0,1.713h-2.626A.857.857,0,0,1,692.965,736.512Z" fill="#01b7e8"/>
      </g>
    </g>
  </g>
</svg>
