<svg xmlns="http://www.w3.org/2000/svg" width="61.558" height="61.555" viewBox="0 0 61.558 61.555">
  <g id="icon1Red" transform="translate(-79.272 -727.696)">
    <g id="Grupo_1186" data-name="Grupo 1186">
      <rect id="Rectángulo_1585" data-name="Rectángulo 1585" width="41.35" height="60.146" rx="4" transform="translate(121.327 788.546) rotate(180)" fill="none" stroke="#01b7e8" stroke-miterlimit="10" stroke-width="1"/>
    </g>
    <g id="Grupo_1187" data-name="Grupo 1187">
      <path id="Trazado_6729" data-name="Trazado 6729" d="M117.568,789.251H83.736a4.468,4.468,0,0,1-4.464-4.464V732.16a4.468,4.468,0,0,1,4.464-4.464h33.832a4.469,4.469,0,0,1,4.464,4.464v52.627A4.469,4.469,0,0,1,117.568,789.251ZM83.736,729.1a3.058,3.058,0,0,0-3.054,3.055v52.627a3.057,3.057,0,0,0,3.054,3.054h33.832a3.057,3.057,0,0,0,3.054-3.054V732.16a3.058,3.058,0,0,0-3.054-3.055Z" fill="#01b7e8"/>
    </g>
    <g id="Grupo_1188" data-name="Grupo 1188">
      <path id="Trazado_6730" data-name="Trazado 6730" d="M105.351,732.864h-9.4a.7.7,0,1,1,0-1.409h9.4a.7.7,0,1,1,0,1.409Z" fill="#01b7e8"/>
    </g>
    <g id="Grupo_1189" data-name="Grupo 1189">
      <path id="Trazado_6731" data-name="Trazado 6731" d="M102.531,785.5H98.772a.705.705,0,0,1,0-1.41h3.759a.705.705,0,0,1,0,1.41Z" fill="#01b7e8"/>
    </g>
    <g id="Grupo_1190" data-name="Grupo 1190">
      <path id="Trazado_6732" data-name="Trazado 6732" d="M93.133,785.5H89.374a.705.705,0,0,1,0-1.41h3.759a.705.705,0,0,1,0,1.41Z" fill="#01b7e8"/>
    </g>
    <g id="Grupo_1191" data-name="Grupo 1191">
      <path id="Trazado_6733" data-name="Trazado 6733" d="M111.93,785.5h-3.759a.705.705,0,0,1,0-1.41h3.759a.705.705,0,0,1,0,1.41Z" fill="#01b7e8"/>
    </g>
    <g id="Grupo_1192" data-name="Grupo 1192">
      <circle id="Elipse_76" data-name="Elipse 76" cx="0.94" cy="0.94" r="0.94" transform="translate(108.172 731.22)" fill="#01b7e8"/>
    </g>
    <g id="Grupo_1193" data-name="Grupo 1193">
      <rect id="Rectángulo_1586" data-name="Rectángulo 1586" width="7.518" height="7.518" rx="2.5" transform="translate(85.616 767.872)" fill="none" stroke="#01b7e8" stroke-miterlimit="10" stroke-width="1"/>
    </g>
    <g id="Grupo_1194" data-name="Grupo 1194">
      <path id="Trazado_6734" data-name="Trazado 6734" d="M120.389,771.63H98.774V744.377a1.88,1.88,0,0,1,1.879-1.88h31.953v16.916A12.217,12.217,0,0,1,120.389,771.63Z" fill="#fff"/>
    </g>
    <g id="Grupo_1196" data-name="Grupo 1196">
      <g id="Grupo_1195" data-name="Grupo 1195">
        <path id="Trazado_6735" data-name="Trazado 6735" d="M105.351,781.734a.718.718,0,0,1-.339-.087.7.7,0,0,1-.366-.618v-5.875h-3.992a2.588,2.588,0,0,1-2.585-2.584V744.377a2.588,2.588,0,0,1,2.585-2.585h37.591a2.587,2.587,0,0,1,2.585,2.585V772.57a2.587,2.587,0,0,1-2.585,2.584H115.894l-10.164,6.47A.708.708,0,0,1,105.351,781.734Zm-4.7-38.532a1.176,1.176,0,0,0-1.175,1.175V772.57a1.176,1.176,0,0,0,1.175,1.175h4.7a.7.7,0,0,1,.705.705v5.295l9.255-5.89a.694.694,0,0,1,.378-.11h22.556a1.176,1.176,0,0,0,1.175-1.175V744.377a1.176,1.176,0,0,0-1.175-1.175Z" fill="#01b7e8"/>
      </g>
    </g>
    <g id="Grupo_1197" data-name="Grupo 1197">
      <path id="Trazado_6736" data-name="Trazado 6736" d="M119.443,753.22a.705.705,0,0,1-.705-.7v-1.642a.705.705,0,0,1,1.41,0v1.642A.705.705,0,0,1,119.443,753.22Z" fill="#01b7e8"/>
    </g>
    <g id="Grupo_1198" data-name="Grupo 1198">
      <path id="Trazado_6737" data-name="Trazado 6737" d="M119.443,766.795a.705.705,0,0,1-.705-.7v-1.641a.705.705,0,0,1,1.41,0v1.641A.705.705,0,0,1,119.443,766.795Z" fill="#01b7e8"/>
    </g>
    <g id="Grupo_1202" data-name="Grupo 1202">
      <g id="Grupo_1199" data-name="Grupo 1199">
        <path id="Trazado_6738" data-name="Trazado 6738" d="M90.314,776.095H87.5a3.058,3.058,0,0,1-3.055-3.054v-2.82a3.059,3.059,0,0,1,3.055-3.054h2.819a3.058,3.058,0,0,1,3.054,3.054v2.82A3.057,3.057,0,0,1,90.314,776.095ZM87.5,768.577a1.647,1.647,0,0,0-1.645,1.644v2.82a1.646,1.646,0,0,0,1.645,1.644h2.819a1.646,1.646,0,0,0,1.645-1.644v-2.82a1.647,1.647,0,0,0-1.645-1.644Z" fill="#01b7e8"/>
      </g>
      <g id="Grupo_1200" data-name="Grupo 1200">
        <path id="Trazado_6739" data-name="Trazado 6739" d="M90.314,762.24H87.5a3.058,3.058,0,0,1-3.055-3.055v-2.819a3.059,3.059,0,0,1,3.055-3.054h2.819a3.058,3.058,0,0,1,3.054,3.054v2.819A3.057,3.057,0,0,1,90.314,762.24ZM87.5,754.722a1.646,1.646,0,0,0-1.645,1.644v2.819A1.647,1.647,0,0,0,87.5,760.83h2.819a1.647,1.647,0,0,0,1.645-1.645v-2.819a1.646,1.646,0,0,0-1.645-1.644Z" fill="#01b7e8"/>
      </g>
      <g id="Grupo_1201" data-name="Grupo 1201">
        <path id="Trazado_6740" data-name="Trazado 6740" d="M90.314,748.384H87.5a3.058,3.058,0,0,1-3.055-3.054v-2.819a3.059,3.059,0,0,1,3.055-3.054h2.819a3.058,3.058,0,0,1,3.054,3.054v2.819A3.057,3.057,0,0,1,90.314,748.384ZM87.5,740.866a1.647,1.647,0,0,0-1.645,1.645v2.819a1.647,1.647,0,0,0,1.645,1.645h2.819a1.647,1.647,0,0,0,1.645-1.645v-2.819a1.647,1.647,0,0,0-1.645-1.645Z" fill="#01b7e8"/>
      </g>
    </g>
    <path id="Trazado_6741" data-name="Trazado 6741" d="M100.955,742.96a1.175,1.175,0,0,0-1.174,1.175v28.193a1.175,1.175,0,0,0,1.174,1.175h4.7a.705.705,0,0,1,.705.705V779.5l9.254-5.89a.709.709,0,0,1,.379-.11h22.556a1.176,1.176,0,0,0,1.175-1.175V744.135a1.176,1.176,0,0,0-1.175-1.175Z" fill="#333"/>
    <g id="Grupo_1209" data-name="Grupo 1209">
      <g id="Grupo_1203" data-name="Grupo 1203">
        <circle id="Elipse_77" data-name="Elipse 77" cx="11.277" cy="11.277" r="11.277" transform="translate(108.171 747.204)" fill="#333"/>
      </g>
      <g id="Grupo_1205" data-name="Grupo 1205">
        <g id="Grupo_1204" data-name="Grupo 1204">
          <path id="Trazado_6742" data-name="Trazado 6742" d="M119.449,770.464a11.982,11.982,0,1,1,11.982-11.982A12,12,0,0,1,119.449,770.464Zm0-22.555a10.573,10.573,0,1,0,10.572,10.573A10.585,10.585,0,0,0,119.449,747.909Z" fill="#01b7e8"/>
        </g>
      </g>
      <g id="Grupo_1206" data-name="Grupo 1206">
        <circle id="Elipse_78" data-name="Elipse 78" cx="0.94" cy="0.94" r="0.94" transform="translate(125.558 757.542)" fill="#01b7e8"/>
      </g>
      <g id="Grupo_1207" data-name="Grupo 1207">
        <circle id="Elipse_79" data-name="Elipse 79" cx="0.94" cy="0.94" r="0.94" transform="translate(111.46 757.542)" fill="#01b7e8"/>
      </g>
      <g id="Grupo_1208" data-name="Grupo 1208">
        <path id="Trazado_6743" data-name="Trazado 6743" d="M119.455,765.154a3.974,3.974,0,0,1-3.719-2.35.705.705,0,0,1,1.3-.547,2.6,2.6,0,0,0,2.419,1.487,2.445,2.445,0,0,0,2.578-2.278c0-1.04-.449-2.28-2.59-2.28-2.941,0-3.988-1.9-3.988-3.687a3.852,3.852,0,0,1,3.988-3.689,3.971,3.971,0,0,1,3.718,2.351.7.7,0,0,1-1.3.547,2.6,2.6,0,0,0-2.419-1.488,2.446,2.446,0,0,0-2.579,2.279c0,1.039.448,2.278,2.579,2.278,2.949,0,4,1.905,4,3.689A3.851,3.851,0,0,1,119.455,765.154Z" fill="#01b7e8"/>
      </g>
      <line id="Línea_94" data-name="Línea 94" x1="18.795" y2="13.65" transform="translate(110.052 751.062)" fill="none" stroke="#01b7e8" stroke-miterlimit="10" stroke-width="2"/>
    </g>
    <line id="Línea_95" data-name="Línea 95" y2="2.457" transform="translate(119.597 749.957)" fill="none" stroke="#01b7e8" stroke-miterlimit="10" stroke-width="1"/>
    <line id="Línea_96" data-name="Línea 96" y2="2.457" transform="translate(119.597 764.574)" fill="none" stroke="#01b7e8" stroke-miterlimit="10" stroke-width="1"/>
  </g>
</svg>
