<svg xmlns="http://www.w3.org/2000/svg" width="50.485" height="64.127" viewBox="0 0 50.485 64.127">
  <g id="iconoCertificados" transform="translate(-610.864 -889.17)">
    <g id="Grupo_3038" data-name="Grupo 3038">
      <path id="Trazado_11065" data-name="Trazado 11065" d="M636.107,928.981,622.04,952.013l-9.893-8.77,14.814-16.9Z" fill="#fff"/>
    </g>
    <g id="Grupo_3039" data-name="Grupo 3039">
      <path id="Trazado_11066" data-name="Trazado 11066" d="M632.316,927.888l-9.923,16.247a1.712,1.712,0,0,1-2.6.39l-4.936-4.377-2.714,3.095,9.893,8.77,14.067-23.032Z" fill="#01b7e8"/>
    </g>
    <g id="Grupo_3040" data-name="Grupo 3040">
      <path id="Trazado_11067" data-name="Trazado 11067" d="M622.04,953.3a1.284,1.284,0,0,1-.851-.323L611.3,944.2a1.285,1.285,0,0,1-.114-1.807L626,925.5a1.285,1.285,0,0,1,1.321-.388l9.145,2.637a1.284,1.284,0,0,1,.739,1.9l-14.065,23.033a1.285,1.285,0,0,1-.906.6A1.342,1.342,0,0,1,622.04,953.3Z" fill="#01b7e8"/>
    </g>
    <g id="Grupo_3041" data-name="Grupo 3041">
      <path id="Trazado_11068" data-name="Trazado 11068" d="M636.107,928.981l14.066,23.033,9.893-8.77-14.813-16.9Z" fill="#01b7e8"/>
    </g>
    <g id="Grupo_3042" data-name="Grupo 3042">
      <path id="Trazado_11069" data-name="Trazado 11069" d="M650.172,953.3a1.329,1.329,0,0,1-.189-.014,1.285,1.285,0,0,1-.906-.6L635.01,929.649a1.284,1.284,0,0,1,.74-1.9l9.146-2.637a1.283,1.283,0,0,1,1.321.388l14.813,16.9a1.284,1.284,0,0,1-.113,1.807l-9.893,8.77A1.288,1.288,0,0,1,650.172,953.3Zm-12.094-23.549,12.39,20.288,7.791-6.907L644.824,927.8Z" fill="#01b7e8"/>
    </g>
    <g id="Grupo_3043" data-name="Grupo 3043">
      <path id="Trazado_11070" data-name="Trazado 11070" d="M637.552,891.045l2.867,3.146a1.959,1.959,0,0,0,2.039.547l4.056-1.292a1.956,1.956,0,0,1,2.5,1.446l.91,4.158a1.957,1.957,0,0,0,1.493,1.494l4.158.909a1.954,1.954,0,0,1,1.445,2.5l-1.291,4.056a1.955,1.955,0,0,0,.547,2.039l3.146,2.868a1.956,1.956,0,0,1,0,2.891l-3.146,2.866a1.958,1.958,0,0,0-.547,2.041l1.291,4.056a1.954,1.954,0,0,1-1.445,2.5l-4.158.909a1.957,1.957,0,0,0-1.493,1.493l-.91,4.159a1.956,1.956,0,0,1-2.5,1.446l-4.056-1.292a1.955,1.955,0,0,0-2.039.547l-2.867,3.146a1.957,1.957,0,0,1-2.892,0l-2.866-3.146a1.957,1.957,0,0,0-2.04-.547l-4.056,1.292a1.957,1.957,0,0,1-2.5-1.446l-.909-4.159a1.958,1.958,0,0,0-1.493-1.493l-4.158-.909a1.954,1.954,0,0,1-1.446-2.5l1.291-4.056a1.958,1.958,0,0,0-.546-2.041l-3.146-2.866a1.954,1.954,0,0,1,0-2.891l3.146-2.868a1.955,1.955,0,0,0,.546-2.039l-1.291-4.056a1.953,1.953,0,0,1,1.446-2.5l4.158-.909a1.958,1.958,0,0,0,1.493-1.494l.909-4.158a1.957,1.957,0,0,1,2.5-1.446l4.056,1.292a1.961,1.961,0,0,0,2.04-.547l2.866-3.146A1.957,1.957,0,0,1,637.552,891.045Z" fill="#fff"/>
    </g>
    <g id="Grupo_3044" data-name="Grupo 3044">
      <path id="Trazado_11071" data-name="Trazado 11071" d="M636.107,939.606a3.248,3.248,0,0,1-2.4-1.059l-2.866-3.145a.67.67,0,0,0-.7-.188l-4.057,1.292a3.24,3.24,0,0,1-4.147-2.4l-.91-4.158a.674.674,0,0,0-.514-.513l-4.157-.909a3.239,3.239,0,0,1-2.394-4.148l1.29-4.056a.672.672,0,0,0-.188-.7l-3.145-2.866a3.239,3.239,0,0,1,0-4.789l3.145-2.868a.673.673,0,0,0,.189-.7l-1.292-4.056a3.24,3.24,0,0,1,2.393-4.148l4.16-.91a.673.673,0,0,0,.513-.513l.909-4.157a3.241,3.241,0,0,1,4.148-2.395l4.056,1.291a.671.671,0,0,0,.7-.187l2.867-3.147a3.343,3.343,0,0,1,4.789,0l2.867,3.147a.669.669,0,0,0,.7.187l4.054-1.291a3.236,3.236,0,0,1,4.147,2.395l.91,4.157a.668.668,0,0,0,.511.512l4.16.911a3.238,3.238,0,0,1,2.394,4.148l-1.29,4.056a.675.675,0,0,0,.187.7l3.147,2.866a3.24,3.24,0,0,1,0,4.788l-3.148,2.867a.673.673,0,0,0-.187.7l1.292,4.058a3.241,3.241,0,0,1-2.394,4.148l-4.159.909a.673.673,0,0,0-.513.513l-.909,4.158a3.242,3.242,0,0,1-4.148,2.4l-4.056-1.292a.67.67,0,0,0-.7.188l-2.867,3.145A3.245,3.245,0,0,1,636.107,939.606Zm-5.764-6.99a3.248,3.248,0,0,1,2.4,1.058l2.867,3.145a.574.574,0,0,0,.994,0l2.868-3.145a3.25,3.25,0,0,1,3.377-.906l4.055,1.292a.662.662,0,0,0,.54-.059.671.671,0,0,0,.322-.439l.908-4.158a3.248,3.248,0,0,1,2.473-2.472l4.159-.909a.677.677,0,0,0,.5-.863L654.51,921.1a3.244,3.244,0,0,1,.9-3.375l3.148-2.868a.672.672,0,0,0,0-.993L655.414,911a3.247,3.247,0,0,1-.9-3.377l1.29-4.056a.675.675,0,0,0-.5-.863l-4.156-.909a3.244,3.244,0,0,1-2.474-2.471l-.909-4.158a.673.673,0,0,0-.861-.5l-4.056,1.292a3.244,3.244,0,0,1-3.377-.906l-2.866-3.147h0a.575.575,0,0,0-.994,0l-2.867,3.147a3.245,3.245,0,0,1-3.375.906l-4.058-1.292a.656.656,0,0,0-.541.059.665.665,0,0,0-.321.438l-.908,4.158a3.249,3.249,0,0,1-2.475,2.473l-4.156.907a.675.675,0,0,0-.5.863l1.291,4.056a3.248,3.248,0,0,1-.9,3.377l-3.147,2.868a.673.673,0,0,0,0,.994l3.146,2.865a3.246,3.246,0,0,1,.905,3.379l-1.291,4.054a.675.675,0,0,0,.5.863l4.157.909a3.248,3.248,0,0,1,2.472,2.472l.91,4.158a.662.662,0,0,0,.321.439.669.669,0,0,0,.54.059l4.056-1.292A3.23,3.23,0,0,1,630.343,932.616Z" fill="#01b7e8"/>
    </g>
    <g id="Grupo_3045" data-name="Grupo 3045">
      <path id="Trazado_11072" data-name="Trazado 11072" d="M636.107,900.674l2.834,3.112,4.011-1.279.9,4.113,4.112.9-1.278,4.011,3.112,2.834-3.112,2.834,1.278,4.011-4.112.9-.9,4.111-4.011-1.277-2.834,3.112-2.835-3.112-4.01,1.277-.9-4.111-4.111-.9,1.277-4.011-3.111-2.834,3.111-2.834-1.277-4.011,4.111-.9.9-4.113,4.01,1.279Z" fill="#f2f2f2"/>
    </g>
    <g id="Grupo_3046" data-name="Grupo 3046">
      <path id="Trazado_11073" data-name="Trazado 11073" d="M648.383,915.653l-5.7,1.207a.857.857,0,0,0-.659.655l-.58,2.654a.854.854,0,0,1-1.1.631l-2.593-.825a.859.859,0,0,0-.892.239l-1.833,2.012a.856.856,0,0,1-1.265,0l-1.83-2.009a.855.855,0,0,0-.9-.237l-5,1.621,2.324.508.9,4.111,4.01-1.277,2.836,3.112,2.834-3.112,4.011,1.277.9-4.111,4.112-.9-1.278-4.011Z" fill="#01b7e8"/>
    </g>
    <g id="Grupo_3047" data-name="Grupo 3047">
      <path id="Trazado_11074" data-name="Trazado 11074" d="M636.106,929.338h0a1.288,1.288,0,0,1-.95-.419l-2.279-2.5-3.227,1.028a1.286,1.286,0,0,1-1.644-.949l-.722-3.307-3.309-.724a1.284,1.284,0,0,1-.949-1.643l1.029-3.227-2.5-2.279a1.285,1.285,0,0,1,0-1.9l2.5-2.281-1.028-3.225a1.282,1.282,0,0,1,.948-1.643l3.309-.724.722-3.309a1.286,1.286,0,0,1,1.644-.949l3.227,1.028,2.28-2.5a1.322,1.322,0,0,1,1.9,0l2.281,2.5,3.227-1.028a1.284,1.284,0,0,1,1.643.949l.724,3.309,3.307.724a1.281,1.281,0,0,1,.949,1.643l-1.027,3.225,2.5,2.281a1.284,1.284,0,0,1,0,1.9l-2.5,2.279,1.027,3.227a1.282,1.282,0,0,1-.949,1.643l-3.307.724-.724,3.307a1.284,1.284,0,0,1-1.643.949l-3.227-1.028-2.281,2.5A1.282,1.282,0,0,1,636.106,929.338Zm-2.835-5.678a1.284,1.284,0,0,1,.95.419l1.885,2.071,1.887-2.071a1.293,1.293,0,0,1,1.337-.359l2.668.851.6-2.736a1.282,1.282,0,0,1,.979-.98l2.735-.6-.85-2.669a1.283,1.283,0,0,1,.359-1.338l2.07-1.886-2.07-1.886a1.286,1.286,0,0,1-.359-1.339l.85-2.667-2.735-.6a1.284,1.284,0,0,1-.98-.979l-.6-2.736-2.668.849a1.285,1.285,0,0,1-1.337-.359l-1.887-2.069-1.886,2.069a1.279,1.279,0,0,1-1.338.359l-2.668-.849-.6,2.736a1.285,1.285,0,0,1-.98.979l-2.735.6.848,2.667a1.285,1.285,0,0,1-.357,1.339l-2.071,1.886,2.07,1.886a1.283,1.283,0,0,1,.359,1.338l-.85,2.669,2.736.6a1.287,1.287,0,0,1,.98.98l.6,2.736,2.669-.851A1.3,1.3,0,0,1,633.271,923.66Z" fill="#01b7e8"/>
    </g>
  </g>
</svg>
