<svg xmlns="http://www.w3.org/2000/svg" xmlns:xlink="http://www.w3.org/1999/xlink" width="281.482" height="196.053" viewBox="0 0 281.482 196.053">
  <defs>
    <linearGradient id="linear-gradient" x1="1.491" y1="-0.236" x2="7.01" y2="-4.452" gradientUnits="objectBoundingBox">
      <stop offset="0" stop-color="#2cb0cf"/>
      <stop offset="1" stop-color="#d41183"/>
    </linearGradient>
    <linearGradient id="linear-gradient-2" x1="0.879" y1="0.308" x2="6.154" y2="-4.065" xlink:href="#linear-gradient"/>
    <linearGradient id="linear-gradient-3" x1="0.127" y1="0.546" x2="4.799" y2="-2.653" xlink:href="#linear-gradient"/>
    <linearGradient id="linear-gradient-4" x1="-0.492" y1="1.445" x2="4.783" y2="-2.928" xlink:href="#linear-gradient"/>
    <linearGradient id="linear-gradient-5" x1="-1.266" y1="1.869" x2="4.253" y2="-2.346" xlink:href="#linear-gradient"/>
    <linearGradient id="linear-gradient-6" x1="-7.302" y1="1.92" x2="11.242" y2="-1.395" xlink:href="#linear-gradient"/>
    <linearGradient id="linear-gradient-7" x1="-3.598" y1="2.308" x2="4.982" y2="-1.427" xlink:href="#linear-gradient"/>
    <linearGradient id="linear-gradient-8" x1="-2.44" y1="3.06" x2="2.835" y2="-1.313" xlink:href="#linear-gradient"/>
    <linearGradient id="linear-gradient-9" x1="-3.304" y1="3.426" x2="2.215" y2="-0.789" xlink:href="#linear-gradient"/>
    <linearGradient id="linear-gradient-10" x1="-14.153" y1="3.144" x2="4.394" y2="-0.171" xlink:href="#linear-gradient"/>
    <linearGradient id="linear-gradient-11" x1="-4.148" y1="4.274" x2="1.241" y2="-0.099" xlink:href="#linear-gradient"/>
    <linearGradient id="linear-gradient-12" x1="-5.239" y1="5.012" x2="0.593" y2="0.427" xlink:href="#linear-gradient"/>
    <linearGradient id="linear-gradient-13" x1="-5.203" y1="5.281" x2="-0.014" y2="0.991" xlink:href="#linear-gradient"/>
    <linearGradient id="linear-gradient-14" x1="-6.621" y1="5.609" x2="-0.767" y2="1.414" xlink:href="#linear-gradient"/>
    <linearGradient id="linear-gradient-15" x1="-0.81" y1="1.561" x2="0.809" y2="0.267" xlink:href="#linear-gradient"/>
  </defs>
  <g id="logoCapHeader" transform="translate(-429.521 -419.721)">
    <g id="Grupo_3032" data-name="Grupo 3032">
      <path id="Trazado_11043" data-name="Trazado 11043" d="M568.839,615.69a97.758,97.758,0,0,1-48.12-15.027L484.174,609.8A4.273,4.273,0,0,1,479,604.637l9.231-37.389a97.993,97.993,0,1,1,177.263-81.269,4.255,4.255,0,0,1-2.653,5.418L627.476,503.52a4.282,4.282,0,0,1-5.413-2.647A52.021,52.021,0,1,0,582.682,568.9a4.217,4.217,0,0,1,2.911.482l17.74,10.114c-1.45-18.38-.132-19.685,1.154-20.951,3.851-3.8,13.151-13.35,16.041-19.986a4.281,4.281,0,0,1,5.61-2.2l34.26,14.953a4.249,4.249,0,0,1,2.2,5.608A97.4,97.4,0,0,1,568.839,615.69Z" fill="#fff"/>
    </g>
    <g id="Grupo_3033" data-name="Grupo 3033">
      <path id="Trazado_11044" data-name="Trazado 11044" d="M527.991,603.637a6.071,6.071,0,0,1,.89-3.235,6.289,6.289,0,0,1,2.43-2.285,7.4,7.4,0,0,1,6.813,0,6.349,6.349,0,0,1,2.439,2.285,6.025,6.025,0,0,1,.9,3.235v4.57a5.952,5.952,0,0,1-.9,3.21,6.359,6.359,0,0,1-2.447,2.276,7.381,7.381,0,0,1-6.805,0,6.311,6.311,0,0,1-2.43-2.276,6,6,0,0,1-.89-3.21Zm3.7,4.416a2.764,2.764,0,0,0,.4,1.489,2.693,2.693,0,0,0,1.087,1,3.323,3.323,0,0,0,1.54.351,3.381,3.381,0,0,0,1.549-.351,2.7,2.7,0,0,0,1.1-1,2.772,2.772,0,0,0,.4-1.489v-4.262a2.732,2.732,0,0,0-1.5-2.5,3.311,3.311,0,0,0-1.549-.359,3.274,3.274,0,0,0-1.532.359,2.736,2.736,0,0,0-1.5,2.5Z"/>
      <path id="Trazado_11045" data-name="Trazado 11045" d="M556,598.082a5.51,5.51,0,0,1,2.209,2.243,6.963,6.963,0,0,1,.778,3.346v8.781a1.682,1.682,0,0,1-1.883,1.883,1.791,1.791,0,0,1-1.352-.479,1.945,1.945,0,0,1-.462-1.4v-8.575a2.857,2.857,0,0,0-.805-2.191,3,3,0,0,0-2.139-.753,10.99,10.99,0,0,0-3.133.445v11.074a1.969,1.969,0,0,1-.453,1.4,1.74,1.74,0,0,1-1.327.479,1.954,1.954,0,0,1-1.429-.479,1.882,1.882,0,0,1-.488-1.4V599.769a1.658,1.658,0,0,1,.205-.839,1.171,1.171,0,0,1,.565-.514,14.185,14.185,0,0,1,2.893-.83,19.446,19.446,0,0,1,3.509-.3A6.7,6.7,0,0,1,556,598.082Z"/>
      <path id="Trazado_11046" data-name="Trazado 11046" d="M567.515,593.059V612.5a1.835,1.835,0,0,1-.471,1.369,2.284,2.284,0,0,1-2.765-.008,1.826,1.826,0,0,1-.479-1.361v-17.58h-.736a1.835,1.835,0,0,1-1.369-.47,1.889,1.889,0,0,1-.463-1.378,1.627,1.627,0,0,1,1.832-1.849h2.6a2.889,2.889,0,0,1,.7.086A1.574,1.574,0,0,1,567.515,593.059Z"/>
      <path id="Trazado_11047" data-name="Trazado 11047" d="M577.032,599.443V612.5a1.835,1.835,0,0,1-.471,1.369,2.286,2.286,0,0,1-2.756,0,1.835,1.835,0,0,1-.471-1.369V601.1h-1.026a1.746,1.746,0,0,1,0-3.492h2.875a1.611,1.611,0,0,1,1.729,1.044A2.193,2.193,0,0,1,577.032,599.443Zm-3.8-4.972a1.912,1.912,0,0,1-.6-1.412,1.958,1.958,0,0,1,.274-1,2.019,2.019,0,0,1,.744-.744,1.958,1.958,0,0,1,1-.274,1.887,1.887,0,0,1,1.4.6,1.97,1.97,0,0,1,.582,1.421,1.943,1.943,0,0,1-.582,1.412,1.9,1.9,0,0,1-1.4.59A1.957,1.957,0,0,1,573.232,594.471Z"/>
      <path id="Trazado_11048" data-name="Trazado 11048" d="M592.24,598.082a5.51,5.51,0,0,1,2.209,2.243,6.952,6.952,0,0,1,.779,3.346v8.781a1.684,1.684,0,0,1-1.884,1.883,1.791,1.791,0,0,1-1.352-.479,1.945,1.945,0,0,1-.462-1.4v-8.575a2.857,2.857,0,0,0-.8-2.191,3.007,3.007,0,0,0-2.14-.753,10.983,10.983,0,0,0-3.132.445v11.074a1.969,1.969,0,0,1-.454,1.4,1.739,1.739,0,0,1-1.327.479,1.956,1.956,0,0,1-1.429-.479,1.882,1.882,0,0,1-.488-1.4V599.769a1.669,1.669,0,0,1,.205-.839,1.18,1.18,0,0,1,.565-.514,14.185,14.185,0,0,1,2.893-.83,19.446,19.446,0,0,1,3.509-.3A6.7,6.7,0,0,1,592.24,598.082Z"/>
      <path id="Trazado_11049" data-name="Trazado 11049" d="M609.264,598.2a6.582,6.582,0,0,1,2.405,2.44,6.485,6.485,0,0,1,.864,3.252v1.728a1.775,1.775,0,0,1-.436,1.225,1.561,1.561,0,0,1-1.224.487h-8.234v.565a3.167,3.167,0,0,0,.394,1.532,3.069,3.069,0,0,0,1.121,1.173,3.109,3.109,0,0,0,1.652.445,5.852,5.852,0,0,0,2.465-.617,2.719,2.719,0,0,0,.376-.171,3.264,3.264,0,0,1,.394-.171,1.21,1.21,0,0,1,.377-.051,1.561,1.561,0,0,1,1.249.539,1.874,1.874,0,0,1,.462,1.258,1.783,1.783,0,0,1-.179.8,1.577,1.577,0,0,1-.522.608,7.6,7.6,0,0,1-2.02.907,8.982,8.982,0,0,1-2.636.377,6.883,6.883,0,0,1-3.466-.873,6.386,6.386,0,0,1-2.389-2.32,5.939,5.939,0,0,1-.855-3.072v-4.571a6.289,6.289,0,0,1,.847-3.209,6.219,6.219,0,0,1,2.379-2.328,6.969,6.969,0,0,1,3.484-.865A6.707,6.707,0,0,1,609.264,598.2Zm-5.084,2.731A2.791,2.791,0,0,0,603.05,602a3.048,3.048,0,0,0-.411,1.584v.7h6.3v-.719a2.973,2.973,0,0,0-.419-1.567,2.841,2.841,0,0,0-1.147-1.069,3.428,3.428,0,0,0-1.6-.377A3.379,3.379,0,0,0,604.18,600.933Z"/>
    </g>
    <g id="Grupo_3034" data-name="Grupo 3034">
      <path id="Trazado_11050" data-name="Trazado 11050" d="M429.521,574.3a10.569,10.569,0,0,1,10.537-10.911c4.334,0,8.444,2.653,9.677,6.24l-4.745,2.653a5.3,5.3,0,0,0-4.745-3.363,5.365,5.365,0,1,0,4.745,7.473l4.745,2.616c-1.233,3.661-5.343,6.24-9.677,6.24A10.859,10.859,0,0,1,429.521,574.3Z" fill="url(#linear-gradient)"/>
      <path id="Trazado_11051" data-name="Trazado 11051" d="M451.007,574.446a10.608,10.608,0,0,1,10.574-10.686,10.449,10.449,0,0,1,10.575,10.686v9.939h-4.97V582.7a8.438,8.438,0,0,1-5.605,2.13A10.478,10.478,0,0,1,451.007,574.446Zm15.88,0a5.289,5.289,0,1,0-10.574,0,5.291,5.291,0,0,0,10.574,0Z" fill="url(#linear-gradient-2)"/>
      <path id="Trazado_11052" data-name="Trazado 11052" d="M476.491,584.46H474.66v-5.231h1.831V564.321h12.031a9.959,9.959,0,0,1,10.014,10.125c0,5.082-3.475,10.014-10.014,10.014H482.1v8.669h-5.6Zm11.807-5.231a4.655,4.655,0,0,0,4.783-4.783,4.713,4.713,0,0,0-4.783-5.007h-6.2v9.79Z" fill="url(#linear-gradient-3)"/>
      <path id="Trazado_11053" data-name="Trazado 11053" d="M499.808,574.446a10.607,10.607,0,0,1,10.574-10.686,10.448,10.448,0,0,1,10.574,10.686v9.939h-4.969V582.7a8.442,8.442,0,0,1-5.605,2.13A10.477,10.477,0,0,1,499.808,574.446Zm15.88,0a5.289,5.289,0,1,0-10.574,0,5.291,5.291,0,0,0,10.574,0Z" fill="url(#linear-gradient-4)"/>
      <path id="Trazado_11054" data-name="Trazado 11054" d="M523.274,574.3a10.569,10.569,0,0,1,10.537-10.911c4.335,0,8.445,2.653,9.678,6.24l-4.746,2.653A5.3,5.3,0,0,0,534,568.916a5.365,5.365,0,1,0,4.745,7.473l4.746,2.616c-1.233,3.661-5.343,6.24-9.678,6.24A10.86,10.86,0,0,1,523.274,574.3Z" fill="url(#linear-gradient-5)"/>
      <path id="Trazado_11055" data-name="Trazado 11055" d="M546.366,559.65a3.008,3.008,0,1,1,6.016,0,3.008,3.008,0,1,1-6.016,0Zm.224,4.671h5.531v20.1H546.59Z" fill="url(#linear-gradient-6)"/>
      <path id="Trazado_11056" data-name="Trazado 11056" d="M556.9,577.323v-7.734h-1.831v-5.268H556.9v-4.185h5.754v4.185h4.895v5.268h-4.895v5.978c0,3.737,2.765,3.55,5.418,3.176V584.5C563.181,585.581,556.9,583.974,556.9,577.323Z" fill="url(#linear-gradient-7)"/>
      <path id="Trazado_11057" data-name="Trazado 11057" d="M569.123,574.446A10.607,10.607,0,0,1,579.7,563.76a10.448,10.448,0,0,1,10.574,10.686v9.939H585.3V582.7a8.442,8.442,0,0,1-5.6,2.13A10.477,10.477,0,0,1,569.123,574.446Zm15.88,0a5.289,5.289,0,1,0-10.575,0,5.292,5.292,0,0,0,10.575,0Z" fill="url(#linear-gradient-8)"/>
      <path id="Trazado_11058" data-name="Trazado 11058" d="M592.589,574.3a10.569,10.569,0,0,1,10.537-10.911c4.334,0,8.444,2.653,9.677,6.24l-4.745,2.653a5.3,5.3,0,0,0-4.745-3.363,5.365,5.365,0,1,0,4.745,7.473l4.745,2.616c-1.233,3.661-5.343,6.24-9.677,6.24A10.86,10.86,0,0,1,592.589,574.3Z" fill="url(#linear-gradient-9)"/>
      <path id="Trazado_11059" data-name="Trazado 11059" d="M615.682,559.65a3.008,3.008,0,1,1,6.015,0,3.008,3.008,0,1,1-6.015,0Zm.223,4.671h5.531v20.1h-5.531Z" fill="url(#linear-gradient-10)"/>
      <path id="Trazado_11060" data-name="Trazado 11060" d="M624.537,574.372a10.417,10.417,0,0,1,10.35-10.575,10.539,10.539,0,1,1-10.35,10.575Zm15.357,0a4.983,4.983,0,0,0-5.007-5.231,5.109,5.109,0,0,0-5.044,5.231,5.024,5.024,0,0,0,5.044,5.156A4.97,4.97,0,0,0,639.894,574.372Z" fill="url(#linear-gradient-11)"/>
      <path id="Trazado_11061" data-name="Trazado 11061" d="M648.152,564.321H652.6V566.9c.71-1.308,2.467-2.578,5.306-2.578,6.464,0,9.379,3.325,9.379,8.369v11.733h-5.306V574.11c0-2.877-1.607-4.447-4.3-4.447-2.728,0-4.223,2.093-4.223,4.933v9.827h-5.306Z" fill="url(#linear-gradient-12)"/>
      <path id="Trazado_11062" data-name="Trazado 11062" d="M671.282,576.688h-1.756v-5.119h1.756c.374-4.969,4.933-8.183,9.6-8.183,6.912,0,11.7,5.567,9.678,13.3H677.485c.3,1.457,2.242,2.877,4.484,2.877,1.345,0,3.549-.56,4.109-1.382l4.522,3.475c-2.093,2.279-5.418,3.213-9.192,3.213A9.815,9.815,0,0,1,671.282,576.688Zm13.414-5.119c.187-1.046-.785-2.952-3.587-2.952-2.5,0-3.624,1.719-3.624,2.952Z" fill="url(#linear-gradient-13)"/>
      <path id="Trazado_11063" data-name="Trazado 11063" d="M693.965,577.734c4.334,2.541,11.06,3.737,11.06.822,0-2.5-12.891-1.42-12.518-9.079.523-6.726,10.5-7.959,18.047-3.064l-2.316,3.96c-3.811-2.914-9.6-2.764-9.678-.56-.074,2.317,12.443,1.868,12.443,8.482,0,6.464-7.585,9.939-19.056,4.222Z" fill="url(#linear-gradient-14)"/>
    </g>
    <g id="Grupo_3035" data-name="Grupo 3035">
      <path id="Trazado_11064" data-name="Trazado 11064" d="M571.745,539.54a45.029,45.029,0,0,1-22.431-6.016l-16.65,4.891a1.969,1.969,0,0,1-2.48-2.279l3.548-17.383a45.143,45.143,0,1,1,80.07-40.73,1.962,1.962,0,0,1-1.12,2.544l-16.049,6.243a1.973,1.973,0,0,1-2.541-1.118,23.966,23.966,0,1,0-16.852,32.052,1.942,1.942,0,0,1,1.349.167l8.355,4.323c-1.012-8.433-.43-9.058.138-9.665,1.7-1.821,5.8-6.392,7.01-9.5a1.972,1.972,0,0,1,2.541-1.118l16.049,6.241a1.958,1.958,0,0,1,1.12,2.54A44.87,44.87,0,0,1,571.745,539.54Z" fill="url(#linear-gradient-15)"/>
    </g>
  </g>
</svg>
