<svg id="Capa_1" data-name="Capa 1" xmlns="http://www.w3.org/2000/svg" xmlns:xlink="http://www.w3.org/1999/xlink" viewBox="0 0 434 411"><defs><style>.cls-1{fill:#fff;}.cls-2{fill:url(#linear-gradient);}.cls-3{fill:url(#linear-gradient-2);}.cls-4{fill:url(#linear-gradient-3);}.cls-5{fill:url(#linear-gradient-4);}.cls-6{fill:url(#linear-gradient-5);}.cls-7{fill:url(#linear-gradient-6);}.cls-8{fill:url(#linear-gradient-7);}.cls-9{fill:url(#linear-gradient-8);}.cls-10{fill:url(#linear-gradient-9);}.cls-11{fill:url(#linear-gradient-10);}.cls-12{fill:url(#linear-gradient-11);}.cls-13{fill:url(#linear-gradient-12);}.cls-14{fill:url(#linear-gradient-13);}.cls-15{fill:url(#linear-gradient-14);}.cls-16{fill:url(#linear-gradient-15);}</style><linearGradient id="linear-gradient" x1="106.4" y1="217.94" x2="217.96" y2="125.79" gradientUnits="userSpaceOnUse"><stop offset="0" stop-color="#2cb0cf"/><stop offset="1" stop-color="#d41183"/></linearGradient><linearGradient id="linear-gradient-2" x1="116.34" y1="229.98" x2="227.9" y2="137.82" xlink:href="#linear-gradient"/><linearGradient id="linear-gradient-3" x1="124.43" y1="239.77" x2="235.99" y2="147.61" xlink:href="#linear-gradient"/><linearGradient id="linear-gradient-4" x1="136.14" y1="253.94" x2="247.7" y2="161.78" xlink:href="#linear-gradient"/><linearGradient id="linear-gradient-5" x1="144.43" y1="263.98" x2="255.99" y2="171.82" xlink:href="#linear-gradient"/><linearGradient id="linear-gradient-6" x1="149.17" y1="269.72" x2="260.73" y2="177.56" xlink:href="#linear-gradient"/><linearGradient id="linear-gradient-7" x1="155.03" y1="276.81" x2="266.59" y2="184.65" xlink:href="#linear-gradient"/><linearGradient id="linear-gradient-8" x1="164.25" y1="287.97" x2="275.81" y2="195.82" xlink:href="#linear-gradient"/><linearGradient id="linear-gradient-9" x1="172.54" y1="298.01" x2="284.1" y2="205.85" xlink:href="#linear-gradient"/><linearGradient id="linear-gradient-10" x1="177.29" y1="303.76" x2="288.85" y2="211.6" xlink:href="#linear-gradient"/><linearGradient id="linear-gradient-11" x1="185.42" y1="313.59" x2="296.97" y2="221.43" xlink:href="#linear-gradient"/><linearGradient id="linear-gradient-12" x1="194.67" y1="324.79" x2="306.23" y2="232.63" xlink:href="#linear-gradient"/><linearGradient id="linear-gradient-13" x1="204.4" y1="336.57" x2="315.96" y2="244.41" xlink:href="#linear-gradient"/><linearGradient id="linear-gradient-14" x1="212.51" y1="346.39" x2="324.07" y2="254.23" xlink:href="#linear-gradient"/><linearGradient id="linear-gradient-15" x1="102.53" y1="249.92" x2="243.99" y2="133.07" xlink:href="#linear-gradient"/></defs><circle class="cls-1" cx="219.37" cy="166.47" r="99.35"/><path d="M174.73,263.36a6.11,6.11,0,0,1,.89-3.23,6.3,6.3,0,0,1,2.43-2.29,7.4,7.4,0,0,1,6.81,0,6.4,6.4,0,0,1,2.44,2.29,6,6,0,0,1,.9,3.23v4.57a5.93,5.93,0,0,1-.9,3.21,6.34,6.34,0,0,1-2.45,2.28,7.38,7.38,0,0,1-6.8,0,6.28,6.28,0,0,1-2.43-2.28,6,6,0,0,1-.89-3.21Zm3.7,4.42a2.7,2.7,0,0,0,1.49,2.49,3.36,3.36,0,0,0,1.54.35,3.46,3.46,0,0,0,1.55-.35,2.7,2.7,0,0,0,1.49-2.49v-4.26a2.75,2.75,0,0,0-.4-1.49,2.72,2.72,0,0,0-1.09-1,3.5,3.5,0,0,0-3.09,0,2.72,2.72,0,0,0-1.09,1,2.75,2.75,0,0,0-.4,1.49Z"/><path d="M202.74,257.81a5.54,5.54,0,0,1,2.21,2.24,6.94,6.94,0,0,1,.78,3.35v8.78a1.68,1.68,0,0,1-1.88,1.88,1.8,1.8,0,0,1-1.36-.48,2,2,0,0,1-.46-1.4V263.6a2.87,2.87,0,0,0-.8-2.19,3,3,0,0,0-2.14-.75,11.29,11.29,0,0,0-3.14.44v11.08a2,2,0,0,1-.45,1.4,1.73,1.73,0,0,1-1.33.48,2,2,0,0,1-1.43-.48,1.9,1.9,0,0,1-.48-1.4V259.49a1.74,1.74,0,0,1,.2-.84,1.22,1.22,0,0,1,.57-.51,14.33,14.33,0,0,1,2.89-.83,19.29,19.29,0,0,1,3.51-.3A6.7,6.7,0,0,1,202.74,257.81Z"/><path d="M214.25,252.78v19.45a1.82,1.82,0,0,1-.47,1.37,1.87,1.87,0,0,1-1.38.46,1.91,1.91,0,0,1-1.38-.47,1.82,1.82,0,0,1-.48-1.36V254.65h-.74a1.86,1.86,0,0,1-1.37-.47,1.89,1.89,0,0,1-.46-1.38A1.63,1.63,0,0,1,209.8,251h2.6a2.82,2.82,0,0,1,.71.09A1.56,1.56,0,0,1,214.25,252.78Z"/><path d="M223.77,259.17v13.06a1.64,1.64,0,0,1-1.85,1.83,1.9,1.9,0,0,1-1.38-.46,1.86,1.86,0,0,1-.47-1.37v-11.4h-1a1.75,1.75,0,0,1,0-3.49h2.87a1.61,1.61,0,0,1,1.73,1A2.23,2.23,0,0,1,223.77,259.17Zm-3.8-5a1.94,1.94,0,0,1-.6-1.42,2,2,0,0,1,.27-1,2.13,2.13,0,0,1,.75-.74,2,2,0,0,1,1-.28,1.86,1.86,0,0,1,1.4.6,2,2,0,0,1,0,2.84,1.89,1.89,0,0,1-1.4.59A2,2,0,0,1,220,254.2Z"/><path d="M239,257.81a5.54,5.54,0,0,1,2.21,2.24,6.94,6.94,0,0,1,.78,3.35v8.78a1.69,1.69,0,0,1-1.89,1.88,1.79,1.79,0,0,1-1.35-.48,1.94,1.94,0,0,1-.46-1.4V263.6a2.84,2.84,0,0,0-.81-2.19,3,3,0,0,0-2.14-.75,11.27,11.27,0,0,0-3.13.44v11.08a2,2,0,0,1-.45,1.4,1.75,1.75,0,0,1-1.33.48,2,2,0,0,1-1.43-.48,1.91,1.91,0,0,1-.49-1.4V259.49a1.64,1.64,0,0,1,.21-.84,1.2,1.2,0,0,1,.56-.51,14.43,14.43,0,0,1,2.9-.83,19.29,19.29,0,0,1,3.51-.3A6.7,6.7,0,0,1,239,257.81Z"/><path d="M256,257.93a6.6,6.6,0,0,1,3.27,5.69v1.73a1.71,1.71,0,0,1-.44,1.22,1.53,1.53,0,0,1-1.22.49h-8.23v.56a3.23,3.23,0,0,0,.39,1.54,3.14,3.14,0,0,0,1.12,1.17,3.09,3.09,0,0,0,1.65.44,5.85,5.85,0,0,0,2.47-.61l.38-.17a4,4,0,0,1,.39-.18,1.35,1.35,0,0,1,.38-.05,1.57,1.57,0,0,1,1.25.54,1.92,1.92,0,0,1,.46,1.26,1.8,1.8,0,0,1-.18.8,1.67,1.67,0,0,1-.52.6,7.46,7.46,0,0,1-2,.91,9.06,9.06,0,0,1-2.64.38,6.9,6.9,0,0,1-3.47-.87,6.47,6.47,0,0,1-2.38-2.32,5.88,5.88,0,0,1-.86-3.08v-4.57a6.27,6.27,0,0,1,.85-3.21,6.11,6.11,0,0,1,2.38-2.32,6.92,6.92,0,0,1,3.48-.87A6.71,6.71,0,0,1,256,257.93Zm-5.08,2.73a2.77,2.77,0,0,0-1.13,1.07,3,3,0,0,0-.41,1.58v.7h6.3v-.72a2.94,2.94,0,0,0-.42-1.56,2.83,2.83,0,0,0-1.15-1.07,3.46,3.46,0,0,0-1.6-.38A3.39,3.39,0,0,0,250.92,260.66Z"/><path class="cls-2" d="M76.26,234A10.57,10.57,0,0,1,86.8,223.11c4.33,0,8.44,2.65,9.67,6.24L91.73,232A5.31,5.31,0,0,0,87,228.64a5.36,5.36,0,1,0,4.75,7.47l4.74,2.62c-1.23,3.66-5.34,6.24-9.67,6.24A10.86,10.86,0,0,1,76.26,234Z"/><path class="cls-3" d="M97.75,234.17a10.61,10.61,0,0,1,10.57-10.69,10.45,10.45,0,0,1,10.57,10.69v9.94h-5v-1.68a8.42,8.42,0,0,1-5.6,2.13A10.47,10.47,0,0,1,97.75,234.17Zm15.88,0a5.29,5.29,0,1,0-10.58,0,5.29,5.29,0,0,0,10.58,0Z"/><path class="cls-4" d="M123.23,244.18H121.4V239h1.83v-14.9h12a10,10,0,0,1,10,10.12c0,5.08-3.47,10-10,10h-6.43v8.67h-5.6ZM135,239a4.65,4.65,0,0,0,4.78-4.78,4.72,4.72,0,0,0-4.78-5h-6.21V239Z"/><path class="cls-5" d="M146.55,234.17a10.61,10.61,0,0,1,10.57-10.69,10.45,10.45,0,0,1,10.57,10.69v9.94h-5v-1.68a8.42,8.42,0,0,1-5.6,2.13A10.47,10.47,0,0,1,146.55,234.17Zm15.88,0a5.29,5.29,0,1,0-10.58,0,5.29,5.29,0,0,0,10.58,0Z"/><path class="cls-6" d="M170,234a10.57,10.57,0,0,1,10.54-10.91c4.33,0,8.44,2.65,9.68,6.24L185.48,232a5.3,5.3,0,0,0-4.74-3.36,5.36,5.36,0,1,0,4.74,7.47l4.75,2.62c-1.24,3.66-5.35,6.24-9.68,6.24A10.86,10.86,0,0,1,170,234Z"/><path class="cls-7" d="M193.1,219.37a3,3,0,1,1,6,0,3,3,0,1,1-6,0Zm.23,4.68h5.53v20.1h-5.53Z"/><path class="cls-8" d="M203.64,237.05v-7.74h-1.83v-5.26h1.83v-4.19h5.76v4.19h4.89v5.26H209.4v6c0,3.74,2.76,3.55,5.41,3.18v5.75C209.92,245.31,203.64,243.7,203.64,237.05Z"/><path class="cls-9" d="M215.86,234.17a10.62,10.62,0,0,1,10.58-10.69A10.46,10.46,0,0,1,237,234.17v9.94h-5v-1.68a8.44,8.44,0,0,1-5.6,2.13A10.48,10.48,0,0,1,215.86,234.17Zm15.88,0a5.29,5.29,0,1,0-10.57,0,5.29,5.29,0,0,0,10.57,0Z"/><path class="cls-10" d="M239.33,234a10.56,10.56,0,0,1,10.53-10.91c4.34,0,8.45,2.65,9.68,6.24L254.8,232a5.32,5.32,0,0,0-4.75-3.36,5.36,5.36,0,1,0,4.75,7.47l4.74,2.62c-1.23,3.66-5.34,6.24-9.68,6.24A10.86,10.86,0,0,1,239.33,234Z"/><path class="cls-11" d="M262.42,219.37a3,3,0,1,1,6,0,3,3,0,1,1-6,0Zm.22,4.68h5.53v20.1h-5.53Z"/><path class="cls-12" d="M271.28,234.1a10.42,10.42,0,0,1,10.35-10.58,10.54,10.54,0,1,1-10.35,10.58Zm15.35,0a5,5,0,0,0-5-5.23,5.11,5.11,0,0,0-5.05,5.23,5,5,0,0,0,5.05,5.15A5,5,0,0,0,286.63,234.1Z"/><path class="cls-13" d="M294.89,224.05h4.45v2.57c.71-1.3,2.46-2.57,5.3-2.57,6.47,0,9.38,3.32,9.38,8.37v11.73h-5.3V233.83c0-2.87-1.61-4.44-4.3-4.44s-4.22,2.09-4.22,4.93v9.83h-5.31Z"/><path class="cls-14" d="M318,236.41h-1.76v-5.12H318c.37-5,4.93-8.18,9.6-8.18,6.92,0,11.7,5.57,9.68,13.3H324.22c.3,1.46,2.24,2.88,4.49,2.88,1.34,0,3.55-.56,4.11-1.38l4.52,3.47c-2.09,2.28-5.42,3.22-9.19,3.22A9.81,9.81,0,0,1,318,236.41Zm13.41-5.12c.19-1-.78-2.95-3.58-2.95-2.51,0-3.63,1.72-3.63,2.95Z"/><path class="cls-15" d="M340.7,237.46c4.34,2.54,11.06,3.74,11.06.82,0-2.5-12.89-1.42-12.51-9.08.52-6.72,10.49-8,18-3.06l-2.31,4c-3.82-2.92-9.61-2.77-9.68-.56s12.44,1.87,12.44,8.48c0,6.46-7.58,9.94-19.06,4.22Z"/><path class="cls-16" d="M218.48,199.26a45,45,0,0,1-22.43-6l-16.65,4.89a2,2,0,0,1-1.88-.44,2,2,0,0,1-.6-1.84l3.55-17.38a45.14,45.14,0,1,1,80.07-40.73,2,2,0,0,1-1.12,2.54l-16.05,6.24a2,2,0,0,1-2.54-1.11A24,24,0,1,0,224,177.47a1.93,1.93,0,0,1,1.35.17l8.35,4.32c-1-8.43-.43-9.06.14-9.67,1.7-1.82,5.8-6.39,7-9.5a2,2,0,0,1,2.54-1.11l16.05,6.24a2,2,0,0,1,1.12,2.54A44.86,44.86,0,0,1,218.48,199.26Z"/></svg>