<svg xmlns="http://www.w3.org/2000/svg" width="442.872" height="44.901" viewBox="0 0 442.872 44.901">
  <g id="logosInfoCap" transform="translate(-59.027 -4507.477)">
    <path id="Trazado_11257" data-name="Trazado 11257" d="M406.732,4538.048h.55v3.89h-.516v-.786a3.7,3.7,0,0,1-2.455.842,3.821,3.821,0,0,1-3.934-3.968,3.933,3.933,0,0,1,4.113-3.99,3.835,3.835,0,0,1,2.825,1.076l-.358.381a3.309,3.309,0,0,0-2.456-.931,3.418,3.418,0,0,0-3.552,3.464,3.327,3.327,0,0,0,3.4,3.452,3.377,3.377,0,0,0,2.386-.941Z" fill="#fff"/>
    <path id="Trazado_11258" data-name="Trazado 11258" d="M414.252,4539.012a2.356,2.356,0,1,0-2.353,2.467,2.32,2.32,0,0,0,2.353-2.467m-5.277,0a2.925,2.925,0,1,1,2.924,2.971,2.85,2.85,0,0,1-2.924-2.971" fill="#fff"/>
    <path id="Trazado_11259" data-name="Trazado 11259" d="M421.829,4539.012a2.361,2.361,0,1,0-2.364,2.467,2.329,2.329,0,0,0,2.364-2.467m.561,0a2.836,2.836,0,0,1-2.892,2.971,2.615,2.615,0,0,1-2.4-1.423v1.378h-.538v-8.317h.559v3.8a2.62,2.62,0,0,1,2.377-1.38,2.83,2.83,0,0,1,2.892,2.971" fill="#fff"/>
    <path id="Trazado_11260" data-name="Trazado 11260" d="M424.127,4536.087h.56v5.851h-.56Zm-.179-1.872a.461.461,0,0,1,.459-.458.453.453,0,1,1-.459.458" fill="#fff"/>
    <path id="Trazado_11261" data-name="Trazado 11261" d="M426.962,4538.967c0,.112.012.236.023.348l4.461-.875a2.182,2.182,0,0,0-2.186-1.9,2.274,2.274,0,0,0-2.3,2.432m4.36,1.693.325.369a2.778,2.778,0,0,1-2.207.954,2.882,2.882,0,0,1-3.026-2.972,2.8,2.8,0,0,1,2.846-2.97,2.726,2.726,0,0,1,2.747,2.724l-4.944.964a2.521,2.521,0,0,0,4.259.931" fill="#fff"/>
    <path id="Trazado_11262" data-name="Trazado 11262" d="M436.512,4536.041v.551l-.135-.013a2.022,2.022,0,0,0-2.074,2.31v3.049h-.56v-5.851h.539v1.278a2.22,2.22,0,0,1,2.23-1.324" fill="#fff"/>
    <path id="Trazado_11263" data-name="Trazado 11263" d="M443.293,4538.52v3.418h-.561v-3.374a1.772,1.772,0,0,0-1.893-2.018,2.088,2.088,0,0,0-2.221,2.275v3.117h-.559v-5.851h.538v1.267a2.414,2.414,0,0,1,2.319-1.313,2.222,2.222,0,0,1,2.377,2.479" fill="#fff"/>
    <path id="Trazado_11264" data-name="Trazado 11264" d="M450.253,4539.012a2.357,2.357,0,1,0-2.354,2.467,2.321,2.321,0,0,0,2.354-2.467m-5.279,0a2.925,2.925,0,1,1,2.925,2.971,2.851,2.851,0,0,1-2.925-2.971" fill="#fff"/>
    <path id="Trazado_11265" data-name="Trazado 11265" d="M460.083,4539.012a2.357,2.357,0,1,0-2.354,2.466,2.321,2.321,0,0,0,2.354-2.466m.56-5.391v8.317h-.55v-1.378a2.594,2.594,0,0,1-2.4,1.423,2.972,2.972,0,0,1,0-5.942,2.625,2.625,0,0,1,2.387,1.4v-3.823Z" fill="#fff"/>
    <path id="Trazado_11266" data-name="Trazado 11266" d="M462.918,4538.967a3.375,3.375,0,0,0,.023.348l4.46-.875a2.181,2.181,0,0,0-2.185-1.9,2.274,2.274,0,0,0-2.3,2.432m4.36,1.693.326.369a2.785,2.785,0,0,1-2.209.954,2.882,2.882,0,0,1-3.026-2.972,2.8,2.8,0,0,1,2.847-2.97,2.725,2.725,0,0,1,2.746,2.724l-4.943.964a2.521,2.521,0,0,0,4.259.931" fill="#fff"/>
    <path id="Trazado_11267" data-name="Trazado 11267" d="M475.3,4541.567a1.773,1.773,0,0,1-1.2.416,1.451,1.451,0,0,1-1.591-1.591v-5.582h.559v1.277h1.861v.483h-1.861v3.765c0,.75.37,1.165,1.088,1.165a1.342,1.342,0,0,0,.908-.325Z" fill="#fff"/>
    <path id="Trazado_11268" data-name="Trazado 11268" d="M481.288,4539.012a2.356,2.356,0,1,0-2.353,2.467,2.321,2.321,0,0,0,2.353-2.467m-5.279,0a2.926,2.926,0,1,1,2.926,2.971,2.85,2.85,0,0,1-2.926-2.971" fill="#fff"/>
    <path id="Trazado_11269" data-name="Trazado 11269" d="M488.237,4539.012a2.356,2.356,0,1,0-2.354,2.466,2.321,2.321,0,0,0,2.354-2.466m.561-5.391v8.317h-.549v-1.378a2.6,2.6,0,0,1-2.4,1.423,2.972,2.972,0,0,1,0-5.942,2.624,2.624,0,0,1,2.387,1.4v-3.823Z" fill="#fff"/>
    <path id="Trazado_11270" data-name="Trazado 11270" d="M495.8,4539.012a2.357,2.357,0,1,0-2.354,2.467,2.321,2.321,0,0,0,2.354-2.467m-5.28,0a2.926,2.926,0,1,1,2.926,2.971,2.851,2.851,0,0,1-2.926-2.971" fill="#fff"/>
    <path id="Trazado_11271" data-name="Trazado 11271" d="M497.249,4541.232l.257-.45a3.4,3.4,0,0,0,2.107.707c1.233,0,1.726-.436,1.726-1.1,0-1.7-3.878-.45-3.878-2.747,0-.886.741-1.6,2.219-1.6a3.584,3.584,0,0,1,2.007.574l-.258.447a3.014,3.014,0,0,0-1.759-.527c-1.143,0-1.648.47-1.648,1.1,0,1.758,3.877.516,3.877,2.745,0,.953-.817,1.6-2.308,1.6a3.676,3.676,0,0,1-2.342-.751" fill="#fff"/>
    <path id="Trazado_11272" data-name="Trazado 11272" d="M399.08,4524.127c0-3.667,2.806-6.266,6.628-6.266a6.369,6.369,0,0,1,5.18,2.273l-2.168,1.961a3.565,3.565,0,0,0-2.841-1.411,3.444,3.444,0,0,0,0,6.886,3.564,3.564,0,0,0,2.841-1.412l2.168,1.962a6.372,6.372,0,0,1-5.18,2.273c-3.822,0-6.628-2.6-6.628-6.266" fill="#fff"/>
    <path id="Trazado_11273" data-name="Trazado 11273" d="M423.867,4518.1v12.05h-3.408v-4.7h-4.646v4.7H412.4V4518.1h3.408v4.527h4.646V4518.1Z" fill="#fff"/>
    <path id="Trazado_11274" data-name="Trazado 11274" d="M433.351,4525.3l-1.55-3.856-1.549,3.856Zm1,2.512h-5.094l-.947,2.343H424.83l5.319-12.051h3.357l5.335,12.051H435.3Z" fill="#fff"/>
    <path id="Trazado_11275" data-name="Trazado 11275" d="M439.014,4524.127c0-3.667,2.806-6.266,6.627-6.266a6.374,6.374,0,0,1,5.181,2.273l-2.17,1.961a3.56,3.56,0,0,0-2.839-1.411,3.444,3.444,0,0,0,0,6.886,3.559,3.559,0,0,0,2.839-1.412l2.17,1.962a6.377,6.377,0,0,1-5.181,2.273c-3.821,0-6.627-2.6-6.627-6.266" fill="#fff"/>
    <path id="Trazado_11276" data-name="Trazado 11276" d="M461.407,4524.127a3.258,3.258,0,1,0-3.253,3.443,3.228,3.228,0,0,0,3.253-3.443m-9.949,0c0-3.615,2.841-6.266,6.7-6.266s6.7,2.651,6.7,6.266-2.841,6.266-6.7,6.266-6.7-2.651-6.7-6.266" fill="#fff"/>
    <path id="Trazado_11277" data-name="Trazado 11277" d="M372.451,4543.965l-.125.943a11.819,11.819,0,0,1,1.788.05,4.747,4.747,0,0,0,2.138.075,8.435,8.435,0,0,1,2.243-.122l-.162-1a8.86,8.86,0,0,1-5.882.054" fill="#fff"/>
    <path id="Trazado_11278" data-name="Trazado 11278" d="M375.888,4547.318l-.047-.08Zm.758-.949a3.8,3.8,0,0,1-.821.834l.016.022a.633.633,0,0,0-.526-.291.617.617,0,0,0-.49.243,3.9,3.9,0,0,1-.781-.793,6.729,6.729,0,0,0,2.6-.015m-3.92-.044c.157,0,.644,0,.806.009a3.17,3.17,0,0,0,1.185,1.048l-.029.188v.011a5.216,5.216,0,0,1-1.962-1.256m1.962,1.466v.111a1.714,1.714,0,0,0,1.233-.479l-.029-.1.027.074,0,.01a3.154,3.154,0,0,0,1.247-1.1c.189-.018.506-.038.652-.043a5,5,0,0,1-1.878,1.337v.206a6.406,6.406,0,0,0,2.762-1.509l-.116-.724a7.7,7.7,0,0,0-1.9.146,5.225,5.225,0,0,1-2.256.083,16.732,16.732,0,0,0-2.242-.144l-.117.648a5.72,5.72,0,0,0,2.611,1.482" fill="#fff"/>
    <path id="Trazado_11279" data-name="Trazado 11279" d="M375.926,4548.381l-.05.147Zm4.693,2.586.219-.758a8.053,8.053,0,0,1-4.9-2.1v.134l-.016.122.014-.122v-.058a1.975,1.975,0,0,1-1.246.118l0-.021a7.46,7.46,0,0,1-4.675,1.924l.249.87a8.719,8.719,0,0,0,4.54-2.464l.222.2a8.612,8.612,0,0,1-4.6,2.848l.208.718s2.085-.078,4.678-3.5l.191-.03c2.6,3.449,4.7,3.527,4.7,3.527l.187-.654a8.736,8.736,0,0,1-4.653-3.021l.113-.149-.012.023a8.067,8.067,0,0,0,4.77,2.39" fill="#fff"/>
    <path id="Trazado_11280" data-name="Trazado 11280" d="M362.311,4531.025a2.479,2.479,0,0,1-1.42-2.228,7.952,7.952,0,0,1,.2-2.46c.282.575.531,1.213.874,1.777a3.368,3.368,0,0,1,.4,2.632c-.016.083-.036.169-.056.279" fill="#fff" fill-rule="evenodd"/>
    <path id="Trazado_11281" data-name="Trazado 11281" d="M362.708,4530.295a2.461,2.461,0,0,1,1.008-2.133,6.23,6.23,0,0,0,.891-.878c-.071.4-.133.9-.242,1.369a1.918,1.918,0,0,1-1.657,1.642" fill="#fff" fill-rule="evenodd"/>
    <path id="Trazado_11282" data-name="Trazado 11282" d="M362.815,4533.921a2.488,2.488,0,0,1-1.872-1.861,8.079,8.079,0,0,1-.338-2.445c.4.5.783,1.071,1.244,1.543a3.364,3.364,0,0,1,.962,2.485c0,.083,0,.169,0,.278" fill="#fff" fill-rule="evenodd"/>
    <path id="Trazado_11283" data-name="Trazado 11283" d="M363.047,4533.121a2.447,2.447,0,0,1,.517-2.3,5.791,5.791,0,0,0,.673-1.053c.021.413.07.906.067,1.392a1.916,1.916,0,0,1-1.257,1.961" fill="#fff" fill-rule="evenodd"/>
    <path id="Trazado_11284" data-name="Trazado 11284" d="M363.079,4536.575a2.476,2.476,0,0,1-1.951-1.777,7.883,7.883,0,0,1-.445-2.427c.419.483.829,1.036,1.308,1.488a3.382,3.382,0,0,1,1.072,2.438c0,.083.011.173.016.278" fill="#fff" fill-rule="evenodd"/>
    <path id="Trazado_11285" data-name="Trazado 11285" d="M363.274,4535.77a2.449,2.449,0,0,1,.417-2.325,6.1,6.1,0,0,0,.63-1.079c.036.411.1.9.128,1.387a1.923,1.923,0,0,1-1.175,2.017" fill="#fff" fill-rule="evenodd"/>
    <path id="Trazado_11286" data-name="Trazado 11286" d="M363.845,4539.263a2.472,2.472,0,0,1-2.15-1.528,7.967,7.967,0,0,1-.732-2.362c.477.43.945.929,1.477,1.324a3.369,3.369,0,0,1,1.356,2.291c.01.087.028.167.049.275" fill="#fff" fill-rule="evenodd"/>
    <path id="Trazado_11287" data-name="Trazado 11287" d="M363.943,4538.441a2.46,2.46,0,0,1,.133-2.356,5.822,5.822,0,0,0,.5-1.147c.088.4.216.879.3,1.365a1.923,1.923,0,0,1-.925,2.138" fill="#fff" fill-rule="evenodd"/>
    <path id="Trazado_11288" data-name="Trazado 11288" d="M365.2,4540.959a2.447,2.447,0,0,1-.331-2.336,6.239,6.239,0,0,0,.256-1.221c.164.373.385.82.555,1.277a1.913,1.913,0,0,1-.48,2.28" fill="#fff" fill-rule="evenodd"/>
    <path id="Trazado_11289" data-name="Trazado 11289" d="M366.778,4543.185a2.472,2.472,0,0,1-.73-2.246,5.591,5.591,0,0,0,.046-1.25c.23.343.521.745.771,1.165a1.925,1.925,0,0,1-.087,2.331" fill="#fff" fill-rule="evenodd"/>
    <path id="Trazado_11290" data-name="Trazado 11290" d="M369.19,4544.813a2.456,2.456,0,0,1-1.318-1.959,5.9,5.9,0,0,0-.3-1.209c.312.267.7.57,1.056.9a1.925,1.925,0,0,1,.559,2.264" fill="#fff" fill-rule="evenodd"/>
    <path id="Trazado_11291" data-name="Trazado 11291" d="M362.178,4523.878c.218.661.417,1.33.653,1.984a3.063,3.063,0,0,1-.187,2.341,2.011,2.011,0,0,1-.888-1.325,4.193,4.193,0,0,1,.1-1.966c.094-.36.218-.708.318-1.034" fill="#fff" fill-rule="evenodd"/>
    <path id="Trazado_11292" data-name="Trazado 11292" d="M361.457,4538.62c.627.306,1.243.63,1.877.917a3.044,3.044,0,0,1,1.542,1.77,2,2,0,0,1-1.567-.29,4.21,4.21,0,0,1-1.333-1.447c-.191-.32-.354-.65-.519-.95" fill="#fff" fill-rule="evenodd"/>
    <path id="Trazado_11293" data-name="Trazado 11293" d="M365.2,4525.337c-.145.4-.277.858-.467,1.287a1.594,1.594,0,0,1-1.633,1.019,2.082,2.082,0,0,1,1.086-1.653,7.276,7.276,0,0,0,1.014-.653" fill="#fff" fill-rule="evenodd"/>
    <path id="Trazado_11294" data-name="Trazado 11294" d="M362.978,4525.518a2.125,2.125,0,0,1-.3-2.09,6.273,6.273,0,0,1,1-1.813,5.434,5.434,0,0,0-.049.6,8.758,8.758,0,0,0,.063,1.206,2.406,2.406,0,0,1-.528,1.889l-.137.184Z" fill="#fff" fill-rule="evenodd"/>
    <path id="Trazado_11295" data-name="Trazado 11295" d="M363.533,4525.171a1.751,1.751,0,0,1,1.389-1.135,5.366,5.366,0,0,0,.9-.251c-.613,1.2-1.276,1.742-2.293,1.386" fill="#fff" fill-rule="evenodd"/>
    <path id="Trazado_11296" data-name="Trazado 11296" d="M363.975,4523.463a1.891,1.891,0,0,1-.071-1.651,4.661,4.661,0,0,1,1.226-1.6c-.087.666-.152,1.323-.264,1.981a2.213,2.213,0,0,1-.891,1.274" fill="#fff" fill-rule="evenodd"/>
    <path id="Trazado_11297" data-name="Trazado 11297" d="M366.787,4522.472c-.635.688-1.279,1.38-2.276.782a1.471,1.471,0,0,1,1.452-.73,4.546,4.546,0,0,0,.824-.052" fill="#fff" fill-rule="evenodd"/>
    <path id="Trazado_11298" data-name="Trazado 11298" d="M365.472,4522a1.879,1.879,0,0,1-.16-1.646,4.672,4.672,0,0,1,1.141-1.674c-.053.669-.084,1.339-.164,2a2.233,2.233,0,0,1-.817,1.324" fill="#fff" fill-rule="evenodd"/>
    <path id="Trazado_11299" data-name="Trazado 11299" d="M368.226,4520.852c-.6.726-1.2,1.454-2.232.914a1.488,1.488,0,0,1,1.407-.814,3.937,3.937,0,0,0,.825-.1" fill="#fff" fill-rule="evenodd"/>
    <path id="Trazado_11300" data-name="Trazado 11300" d="M366.668,4520.343a1.865,1.865,0,0,1,.173-1.643,4.589,4.589,0,0,1,1.45-1.406c-.184.645-.348,1.291-.558,1.918a2.226,2.226,0,0,1-1.065,1.131" fill="#fff" fill-rule="evenodd"/>
    <path id="Trazado_11301" data-name="Trazado 11301" d="M369.614,4519.528c-.665.662-1.338,1.335-2.306.692a1.492,1.492,0,0,1,1.48-.674,4.012,4.012,0,0,0,.826-.018" fill="#fff" fill-rule="evenodd"/>
    <path id="Trazado_11302" data-name="Trazado 11302" d="M371.5,4546.205a2.471,2.471,0,0,1-1.53-1.8,5.87,5.87,0,0,0-.428-1.172c.337.232.762.492,1.149.789a1.921,1.921,0,0,1,.809,2.187" fill="#fff" fill-rule="evenodd"/>
    <path id="Trazado_11303" data-name="Trazado 11303" d="M371.354,4516.906c-.763,1.3-1.536,2.612-3.3,2.021a2.387,2.387,0,0,1,2.022-1.656,6.858,6.858,0,0,0,1.278-.365" fill="#fff" fill-rule="evenodd"/>
    <path id="Trazado_11304" data-name="Trazado 11304" d="M373.2,4547.346a1.768,1.768,0,0,1-1.661.539,5.174,5.174,0,0,1-1.616-.561,3.954,3.954,0,0,0,.5-.046,7.473,7.473,0,0,0,.974-.217,1.975,1.975,0,0,1,1.616.162l.166.08Z" fill="#fff" fill-rule="evenodd"/>
    <path id="Trazado_11305" data-name="Trazado 11305" d="M369.267,4545.545a1.869,1.869,0,0,1-1.647.108,4.592,4.592,0,0,1-1.631-1.188c.665.069,1.323.122,1.985.222a2.205,2.205,0,0,1,1.293.858" fill="#fff" fill-rule="evenodd"/>
    <path id="Trazado_11306" data-name="Trazado 11306" d="M371.41,4546.453a1.862,1.862,0,0,1-1.587.455,4.66,4.66,0,0,1-1.844-.818c.667-.074,1.321-.16,1.984-.2a2.216,2.216,0,0,1,1.447.567" fill="#fff" fill-rule="evenodd"/>
    <path id="Trazado_11307" data-name="Trazado 11307" d="M367.538,4543.991a1.876,1.876,0,0,1-1.639.2,4.62,4.62,0,0,1-1.7-1.1c.668.036,1.338.05,2,.116a2.223,2.223,0,0,1,1.34.787" fill="#fff" fill-rule="evenodd"/>
    <path id="Trazado_11308" data-name="Trazado 11308" d="M365.869,4542.756a1.843,1.843,0,0,1-1.646-.091,4.549,4.549,0,0,1-1.479-1.375c.653.152,1.308.282,1.944.459a2.2,2.2,0,0,1,1.181,1.007" fill="#fff" fill-rule="evenodd"/>
    <path id="Trazado_11309" data-name="Trazado 11309" d="M388.457,4531.025a2.482,2.482,0,0,0,1.421-2.228,7.95,7.95,0,0,0-.2-2.46c-.281.575-.531,1.213-.873,1.777a3.372,3.372,0,0,0-.4,2.632c.015.083.035.169.054.279" fill="#fff" fill-rule="evenodd"/>
    <path id="Trazado_11310" data-name="Trazado 11310" d="M388.058,4530.295a2.463,2.463,0,0,0-1.005-2.133,6.238,6.238,0,0,1-.892-.878c.072.4.132.9.243,1.369a1.917,1.917,0,0,0,1.654,1.642" fill="#fff" fill-rule="evenodd"/>
    <path id="Trazado_11311" data-name="Trazado 11311" d="M387.953,4533.921a2.488,2.488,0,0,0,1.873-1.861,8.141,8.141,0,0,0,.337-2.445c-.4.5-.782,1.071-1.245,1.543a3.371,3.371,0,0,0-.961,2.485c0,.083,0,.169,0,.278" fill="#fff" fill-rule="evenodd"/>
    <path id="Trazado_11312" data-name="Trazado 11312" d="M387.723,4533.121a2.45,2.45,0,0,0-.519-2.3,5.737,5.737,0,0,1-.673-1.053c-.021.413-.071.906-.066,1.392a1.91,1.91,0,0,0,1.258,1.961" fill="#fff" fill-rule="evenodd"/>
    <path id="Trazado_11313" data-name="Trazado 11313" d="M387.689,4536.575a2.482,2.482,0,0,0,1.952-1.777,7.91,7.91,0,0,0,.444-2.427,19.5,19.5,0,0,1-1.309,1.488,3.381,3.381,0,0,0-1.071,2.438c0,.083-.008.173-.016.278" fill="#fff" fill-rule="evenodd"/>
    <path id="Trazado_11314" data-name="Trazado 11314" d="M387.492,4535.77a2.446,2.446,0,0,0-.415-2.325,6.153,6.153,0,0,1-.628-1.079c-.039.411-.107.9-.127,1.387a1.921,1.921,0,0,0,1.17,2.017" fill="#fff" fill-rule="evenodd"/>
    <path id="Trazado_11315" data-name="Trazado 11315" d="M386.926,4539.263a2.48,2.48,0,0,0,2.149-1.528,8.025,8.025,0,0,0,.731-2.362c-.476.43-.947.929-1.476,1.324a3.36,3.36,0,0,0-1.355,2.291c-.01.087-.03.167-.049.275" fill="#fff" fill-rule="evenodd"/>
    <path id="Trazado_11316" data-name="Trazado 11316" d="M386.824,4538.441a2.455,2.455,0,0,0-.132-2.356,5.828,5.828,0,0,1-.5-1.147c-.086.4-.213.879-.3,1.365a1.927,1.927,0,0,0,.925,2.138" fill="#fff" fill-rule="evenodd"/>
    <path id="Trazado_11317" data-name="Trazado 11317" d="M385.573,4540.959a2.46,2.46,0,0,0,.331-2.336,6.1,6.1,0,0,1-.258-1.221c-.164.373-.382.82-.556,1.277a1.914,1.914,0,0,0,.483,2.28" fill="#fff" fill-rule="evenodd"/>
    <path id="Trazado_11318" data-name="Trazado 11318" d="M383.99,4543.185a2.476,2.476,0,0,0,.732-2.246,5.536,5.536,0,0,1-.048-1.25c-.227.343-.52.745-.769,1.165a1.927,1.927,0,0,0,.085,2.331" fill="#fff" fill-rule="evenodd"/>
    <path id="Trazado_11319" data-name="Trazado 11319" d="M381.577,4544.813a2.449,2.449,0,0,0,1.318-1.959,6.246,6.246,0,0,1,.3-1.209c-.31.267-.7.57-1.058.9a1.929,1.929,0,0,0-.558,2.264" fill="#fff" fill-rule="evenodd"/>
    <path id="Trazado_11320" data-name="Trazado 11320" d="M388.591,4523.878c-.217.661-.417,1.33-.654,1.984a3.054,3.054,0,0,0,.189,2.341,2.009,2.009,0,0,0,.886-1.325,4.219,4.219,0,0,0-.1-1.966c-.1-.36-.218-.708-.318-1.034" fill="#fff" fill-rule="evenodd"/>
    <path id="Trazado_11321" data-name="Trazado 11321" d="M389.312,4538.62c-.629.306-1.244.63-1.877.917a3.052,3.052,0,0,0-1.543,1.77,2.006,2.006,0,0,0,1.569-.29,4.213,4.213,0,0,0,1.331-1.447c.189-.32.353-.65.52-.95" fill="#fff" fill-rule="evenodd"/>
    <path id="Trazado_11322" data-name="Trazado 11322" d="M385.573,4525.337c.146.4.276.858.464,1.287a1.6,1.6,0,0,0,1.635,1.019,2.09,2.09,0,0,0-1.087-1.653,7.317,7.317,0,0,1-1.012-.653" fill="#fff" fill-rule="evenodd"/>
    <path id="Trazado_11323" data-name="Trazado 11323" d="M387.789,4525.518a2.118,2.118,0,0,0,.3-2.09,6.256,6.256,0,0,0-1-1.813,5.615,5.615,0,0,1,.054.6,8.762,8.762,0,0,1-.066,1.206,2.4,2.4,0,0,0,.53,1.889l.133.184Z" fill="#fff" fill-rule="evenodd"/>
    <path id="Trazado_11324" data-name="Trazado 11324" d="M387.235,4525.171a1.754,1.754,0,0,0-1.386-1.135,5.4,5.4,0,0,1-.907-.251c.612,1.2,1.277,1.742,2.293,1.386" fill="#fff" fill-rule="evenodd"/>
    <path id="Trazado_11325" data-name="Trazado 11325" d="M386.792,4523.463a1.878,1.878,0,0,0,.073-1.651,4.69,4.69,0,0,0-1.223-1.6c.081.666.149,1.323.262,1.981a2.217,2.217,0,0,0,.888,1.274" fill="#fff" fill-rule="evenodd"/>
    <path id="Trazado_11326" data-name="Trazado 11326" d="M383.984,4522.472c.635.688,1.279,1.38,2.274.782a1.47,1.47,0,0,0-1.451-.73,4.507,4.507,0,0,1-.823-.052" fill="#fff" fill-rule="evenodd"/>
    <path id="Trazado_11327" data-name="Trazado 11327" d="M385.3,4522a1.876,1.876,0,0,0,.16-1.646,4.648,4.648,0,0,0-1.136-1.674c.05.669.079,1.339.163,2A2.227,2.227,0,0,0,385.3,4522" fill="#fff" fill-rule="evenodd"/>
    <path id="Trazado_11328" data-name="Trazado 11328" d="M382.544,4520.852c.6.726,1.2,1.454,2.231.914a1.491,1.491,0,0,0-1.409-.814,3.884,3.884,0,0,1-.822-.1" fill="#fff" fill-rule="evenodd"/>
    <path id="Trazado_11329" data-name="Trazado 11329" d="M384.1,4520.343a1.859,1.859,0,0,0-.174-1.643,4.573,4.573,0,0,0-1.448-1.406c.183.645.347,1.291.557,1.918a2.218,2.218,0,0,0,1.065,1.131" fill="#fff" fill-rule="evenodd"/>
    <path id="Trazado_11330" data-name="Trazado 11330" d="M381.155,4519.528c.663.662,1.337,1.335,2.306.692a1.494,1.494,0,0,0-1.481-.674,4,4,0,0,1-.825-.018" fill="#fff" fill-rule="evenodd"/>
    <path id="Trazado_11331" data-name="Trazado 11331" d="M379.271,4546.205a2.471,2.471,0,0,0,1.53-1.8,5.934,5.934,0,0,1,.429-1.172c-.339.232-.762.492-1.152.789a1.926,1.926,0,0,0-.807,2.187" fill="#fff" fill-rule="evenodd"/>
    <path id="Trazado_11332" data-name="Trazado 11332" d="M379.414,4516.906c.766,1.3,1.535,2.612,3.3,2.021a2.392,2.392,0,0,0-2.022-1.656,6.847,6.847,0,0,1-1.279-.365" fill="#fff" fill-rule="evenodd"/>
    <path id="Trazado_11333" data-name="Trazado 11333" d="M377.563,4547.346a1.772,1.772,0,0,0,1.661.539,5.158,5.158,0,0,0,1.616-.561,3.917,3.917,0,0,1-.5-.046,7.3,7.3,0,0,1-.972-.217,1.98,1.98,0,0,0-1.619.162l-.165.08Z" fill="#fff" fill-rule="evenodd"/>
    <path id="Trazado_11334" data-name="Trazado 11334" d="M381.5,4545.545a1.869,1.869,0,0,0,1.647.108,4.566,4.566,0,0,0,1.631-1.188c-.664.069-1.323.122-1.984.222a2.2,2.2,0,0,0-1.294.858" fill="#fff" fill-rule="evenodd"/>
    <path id="Trazado_11335" data-name="Trazado 11335" d="M379.356,4546.453a1.867,1.867,0,0,0,1.589.455,4.651,4.651,0,0,0,1.845-.818c-.666-.074-1.322-.16-1.986-.2a2.225,2.225,0,0,0-1.448.567" fill="#fff" fill-rule="evenodd"/>
    <path id="Trazado_11336" data-name="Trazado 11336" d="M383.229,4543.991a1.878,1.878,0,0,0,1.64.2,4.611,4.611,0,0,0,1.7-1.1c-.669.036-1.338.05-2,.116a2.231,2.231,0,0,0-1.341.787" fill="#fff" fill-rule="evenodd"/>
    <path id="Trazado_11337" data-name="Trazado 11337" d="M384.9,4542.756a1.848,1.848,0,0,0,1.648-.091,4.572,4.572,0,0,0,1.477-1.375c-.654.152-1.308.282-1.943.459a2.2,2.2,0,0,0-1.182,1.007" fill="#fff" fill-rule="evenodd"/>
    <path id="Trazado_11338" data-name="Trazado 11338" d="M375.329,4544.171c-5.532,0-10.017-5.755-10.017-12.849,0-.1,0-.2,0-.3h9.441l0,2.163,1.207.011,0-2.174h9.381v.3c0,7.094-4.483,12.849-10.016,12.849m-4.995-18.7.008-.018a2.255,2.255,0,0,1,1.974-1.393,4.6,4.6,0,0,1,1.681.037,2.381,2.381,0,0,0-.621-.172h-.017l-.025-.038,0-.019.009-.006.037-.041a.73.73,0,0,1,.286-.155,1.923,1.923,0,0,0-.494-.067l-.058,0a1.343,1.343,0,0,0-.33.041l0,.008h-.014l-.034-.038v-.008l.009-.01.108-.182-.016-.01a1.5,1.5,0,0,0-.52.122l-.014.009,0,0-.037-.039v-.01l.006-.012.028-.054.16-.225a2.367,2.367,0,0,0-.718-.223h-.011l-.026-.037.011-.026.011-.01a1.8,1.8,0,0,1,1.91.08,3.677,3.677,0,0,1,.966.745l.066-.089a1.926,1.926,0,0,0-.272-.412l-.009-.006,0-.019.023-.033.007,0h.044a.644.644,0,0,1,.28.061,2.014,2.014,0,0,0-.284-.334l-.043-.029-.235-.16-.01,0-.015-.025.015-.031.012-.007.166-.048,0-.017a1.452,1.452,0,0,0-.413-.222h0l-.019-.033.013-.029.015-.007.037-.012.239-.056a2.132,2.132,0,0,0-.338-.56l-.009-.009,0-.018.034-.038.013,0a1.6,1.6,0,0,1,1.209,1.162,3.428,3.428,0,0,1,.15.547h.061a2.909,2.909,0,0,1,.149-.546,1.6,1.6,0,0,1,1.209-1.162l.012,0,.035.038,0,.018-.01.013a2.18,2.18,0,0,0-.34.556l.242.056.04.012.01.007.018.029-.021.033-.01,0a1.346,1.346,0,0,0-.4.219l-.007.017.168.051.009,0,.015.031-.015.025-.007,0-.237.16-.041.029a2.12,2.12,0,0,0-.285.334.641.641,0,0,1,.28-.061h.036l.014,0,.025.033-.005.02-.007,0a1.968,1.968,0,0,0-.245.356l.082.1a3.739,3.739,0,0,1,.925-.7,1.79,1.79,0,0,1,1.906-.078l.016.01.012.024-.028.037h-.016a2.467,2.467,0,0,0-.722.223l.166.225.028.054.006.012v.009l-.034.037h-.01l-.012-.009a1.549,1.549,0,0,0-.521-.122l-.015.01.109.182.006.016v0l-.034.039-.017-.009a1.358,1.358,0,0,0-.328-.041l-.062,0a1.9,1.9,0,0,0-.489.067.788.788,0,0,1,.287.155l.034.041.009.006.007.019-.026.038h-.015a2.326,2.326,0,0,0-.622.172,4.6,4.6,0,0,1,1.68-.037,2.256,2.256,0,0,1,1.974,1.393l.009.018v0l-.041.036-.014,0h0a3.046,3.046,0,0,0-.917-.345,1.238,1.238,0,0,1-.008.353l-.021.1,0,.009-.034.025-.028-.011,0-.018a1.8,1.8,0,0,0-.439-.535l-.025,0a.941.941,0,0,1-.031.281l-.007.017-.029.022-.024-.012-.008-.013a1.945,1.945,0,0,0-.3-.31l-.06-.043a2.071,2.071,0,0,0-.546-.308.832.832,0,0,1,.168.371l.012.085v.017l-.036.033-.013-.007-.011-.006a3.21,3.21,0,0,0-.746-.308,5.2,5.2,0,0,1,1.313.912,2.464,2.464,0,0,1,.9,2.488l0,.011-.035.021-.028-.021,0,0a3.262,3.262,0,0,0-.612-.879,1.385,1.385,0,0,1-.223.31l-.091.08-.011.009-.018.007-.035-.033v-.008a2.016,2.016,0,0,0-.055-.767l-.02-.016a.959.959,0,0,1-.208.232l-.012.015h-.018l-.031-.021,0-.024a1.863,1.863,0,0,0-.078-.466l-.024-.078a2.678,2.678,0,0,0-.3-.611.973.973,0,0,1-.079.439l-.048.087-.007.009-.027.012-.027-.018-.007-.011a4.112,4.112,0,0,0-.907-1.193l-.173-.161a1.2,1.2,0,0,1-.273.437l.018.187a.921.921,0,0,1-.293.7c0,.406.041,2.709.073,4.474h.005v2.11h-.726l-.023-2.364c-.009-1.856-.019-4.158-.012-4.228h0v0a.944.944,0,0,1-.276-.688l.018-.2a1.3,1.3,0,0,1-.282-.485l-.236.217a4.155,4.155,0,0,0-.908,1.193v.011l-.032.018-.025-.009-.008-.012-.05-.087a1.015,1.015,0,0,1-.079-.439,2.656,2.656,0,0,0-.3.611l-.03.078a2.056,2.056,0,0,0-.076.472v.018l-.033.021h-.013l-.018-.016-.206-.232-.021.016a2.02,2.02,0,0,0-.057.767l0,.008-.039.033-.014,0-.014-.013-.086-.08a1.257,1.257,0,0,1-.226-.31,3.186,3.186,0,0,0-.61.879l-.006,0-.03.021-.032-.021-.007-.017a2.464,2.464,0,0,1,.9-2.482,5.215,5.215,0,0,1,1.315-.912,3.137,3.137,0,0,0-.746.308l-.009.006h-.017l-.035-.027v-.017l.01-.085a.864.864,0,0,1,.172-.371,1.994,1.994,0,0,0-.546.308l-.06.043a1.975,1.975,0,0,0-.306.313l-.006.01-.025.012-.031-.022,0-.017a.854.854,0,0,1-.031-.281l-.029,0a1.774,1.774,0,0,0-.435.538l0,.011-.03.015-.032-.023,0-.011-.021-.1a1.081,1.081,0,0,1-.009-.353,3.229,3.229,0,0,0-.917.34l-.009.006-.013,0-.035-.033Zm4.99-7.449c-5.7,0-10.314,5.928-10.314,13.23s4.615,13.231,10.314,13.231,10.308-5.925,10.308-13.231-4.613-13.23-10.308-13.23" fill="#fff" fill-rule="evenodd"/>
    <path id="Trazado_11339" data-name="Trazado 11339" d="M373.359,4534.522l2.643.071.2.208c.6.892.371,1.024-.013,1.28a.292.292,0,0,0-.164.232l-1.158.015a2.87,2.87,0,0,1-1.507-1.806m-1.083-.782c-.49-.014-.9-.166-1-.558-.106-.433,0-.632.187-.6.539.076.05.808.762.887a10.27,10.27,0,0,0,2.1-.132c.605-.121,2.1-.195,2.764.566.252.35.186.934.341.84s.535-.323.535-.323a7.384,7.384,0,0,1,2.339-1.034c.688.016.64.664.488.709-.35.094-.184-.161-.563-.282a6.129,6.129,0,0,0-2.452.944c-.373.2-.582.384-.746.445-.1-.081-.088-.263-.124-.4-.108-.38-.345-.611-.483-.58s.184.328.324.617c.091.187.035.269-.015.305a2.014,2.014,0,0,1-.309-.424,2.111,2.111,0,0,0-2-.926c-.722-.033-1.664-.041-2.154-.053m7.854-1.7c.442-.026.755.469.527.613-.065.044-.241.072-.535-.129a.94.94,0,0,0-.832,0c-.344.188-1.859,1.048-2.057,1.172l-.149-.122s2.149-1.538,3.046-1.538m-.81,1.459-1.766.991a3.542,3.542,0,0,0-.219-.649l1.6-.971Zm4.543,2.822-.1-.053a14.2,14.2,0,0,0-6.416-1c.424-.313,2.73-1.636,2.886-1.234.166.326.3.279.5.248a.477.477,0,0,0,.306-.707c-.239-.439-.868-.372-1.415-.127l-.443-.715s.505-.294.842-.094.8.37.844-.115-.556-.891-1.457-.477a23.746,23.746,0,0,0-2.458,1.429s-.8-.646-2.819-.291-2.072-.008-2.072-.008-.008-.832-.658-.8-.489.935-.026,1.274c.338.248.557.325,1.5.3a6.627,6.627,0,0,1,2.864.464l-2.452-.025s-.2-.015-.119.247a4.383,4.383,0,0,0,.216.508c-.94-.012-5.22-.047-6.9.145.033.136.07.273.1.4.505-.019,4.435-.17,7.092-.015a3.4,3.4,0,0,0,.511.664,38.255,38.255,0,0,0-7.357.13c.057.166.119.335.181.5a50.981,50.981,0,0,1,7.488-.4h.083q.33.01.657.024c2.264.579,5.283,3.476,6,4.2l.227-.245c-.965-1.372-5.041-4.065-5.041-4.065,2.074.433,4.818,3.1,5.382,3.657q.166-.209.324-.425a36.3,36.3,0,0,0-5.122-3.677c2.112.558,4.658,2.767,5.33,3.382.086-.128.169-.257.252-.387-1.207-1.452-5.276-3.5-5.276-3.5a15.6,15.6,0,0,1,5.517,3.1c.076-.131.146-.262.215-.4a43.285,43.285,0,0,0-4.657-2.831c1.171.131,4.414,2.154,4.858,2.43.048-.094.091-.191.133-.293a22.1,22.1,0,0,0-3.441-1.956,9.585,9.585,0,0,1,3.571,1.661c.042-.1.078-.2.115-.29a11.461,11.461,0,0,0-1.888-1.051,4.885,4.885,0,0,1,1.978.813c.051-.132.1-.259.142-.4" fill="#fff"/>
    <path id="Trazado_11340" data-name="Trazado 11340" d="M373.8,4543.346a7.2,7.2,0,0,0,5.554-1.161s-.226-.359-5.554,1.161" fill="#fff"/>
    <path id="Trazado_11341" data-name="Trazado 11341" d="M371.436,4542.436a8.127,8.127,0,0,0,1.4.652,48.085,48.085,0,0,1,8.254-2.128h0a33.241,33.241,0,0,0-9.652,1.477" fill="#fff"/>
    <path id="Trazado_11342" data-name="Trazado 11342" d="M369.865,4541.259a9.392,9.392,0,0,0,1.042.84,36.735,36.735,0,0,1,9.245-1.949s-1.761-.641-10.287,1.109" fill="#fff"/>
    <path id="Trazado_11343" data-name="Trazado 11343" d="M368.791,4540.1c.221.274.449.535.691.783a44.048,44.048,0,0,1,9.568-1.569s-1.594-.844-10.259.786" fill="#fff"/>
    <path id="Trazado_11344" data-name="Trazado 11344" d="M377.832,4538.568s-1.912-.843-9.869.333c.149.25.306.489.47.722a39.7,39.7,0,0,1,9.4-1.055" fill="#fff"/>
    <path id="Trazado_11345" data-name="Trazado 11345" d="M376.576,4537.677s-2.519-.985-9.254.016c.092.2.183.387.282.578a39.391,39.391,0,0,1,8.972-.594" fill="#fff"/>
    <path id="Trazado_11346" data-name="Trazado 11346" d="M379.581,4518.193a1.488,1.488,0,0,1-.561-.906s-.144-.545-.589-.511c0,0,.246.478.352.732a1.375,1.375,0,0,0,.522.79,1.646,1.646,0,0,1-.959-.531c-.411-.466-.452-.413-.452-.413.057.167-.156.145-.084.258a2.257,2.257,0,0,0,.547.581,3.654,3.654,0,0,0,1.091.486.928.928,0,0,1,.608.633,1.675,1.675,0,0,0-.475-1.119" fill="#fff"/>
    <path id="Trazado_11347" data-name="Trazado 11347" d="M372.983,4517.364s-.029-.062-.441.4a1.649,1.649,0,0,1-.959.532,1.4,1.4,0,0,0,.522-.79c.1-.254.351-.732.351-.732-.446-.034-.587.51-.587.51a1.5,1.5,0,0,1-.561.907,1.679,1.679,0,0,0-.478,1.119.928.928,0,0,1,.609-.633,3.724,3.724,0,0,0,1.093-.486,2.309,2.309,0,0,0,.547-.581c.071-.112-.153-.078-.1-.248" fill="#fff"/>
    <path id="Trazado_11348" data-name="Trazado 11348" d="M374.044,4509.836l-.028-.08.029.072Zm6.1,4.488a4.356,4.356,0,0,0,1.232-.342.94.94,0,0,1,.88.048,1.662,1.662,0,0,0-1.11-.5c-.591.041-1.251-.025-1.373-.2l2.152-1.1-2.2.06a4.343,4.343,0,0,0,.927-.884.935.935,0,0,1,.8-.367,1.67,1.67,0,0,0-1.214.087c-.492.306-1.033.551-1.238.462l.011-.011,1.514-1.862-1.947,1.011a4.355,4.355,0,0,0,.445-1.2.914.914,0,0,1,.56-.68,1.652,1.652,0,0,0-1.058.6c-.312.5-.7.964-.92.955l.624-2.352-1.441,1.781a1.936,1.936,0,0,0,.056-1.407.9.9,0,0,1,.242-.847,1.667,1.667,0,0,0-.725.976c-.089.586-.194,1.086-.4,1.165l-.528-2.255-.544,2.172c-.2-.089-.295-.487-.356-1.075a1.658,1.658,0,0,0-.677-1.012.908.908,0,0,1,.2.86,2.08,2.08,0,0,0-.047,1.325l-1.4-1.711.627,2.351c-.218.012-.608-.448-.922-.949a1.665,1.665,0,0,0-1.055-.61.941.941,0,0,1,.558.681,4.3,4.3,0,0,0,.446,1.2l-1.947-1.011,1.516,1.859.007.013c-.2.089-.741-.154-1.235-.464a1.664,1.664,0,0,0-1.215-.086.939.939,0,0,1,.8.369,4.363,4.363,0,0,0,.925.886l-2.193-.062,2.151,1.093c-.123.182-.781.245-1.372.2a1.668,1.668,0,0,0-1.111.5.951.951,0,0,1,.878-.053,4.453,4.453,0,0,0,1.234.348l-1.963.979,2.464-.1c-.035.216-.644.616-1.2.825a1.673,1.673,0,0,0-.8.917.933.933,0,0,1,.778-.413,2,2,0,0,0,2.017-.858,2.3,2.3,0,0,0-.766.344,1.413,1.413,0,0,1-1,.2,2.363,2.363,0,0,0,1.093-.647c.173-.207.464-.627.464-.627l-1.778.019,1.645-.912s-.182-.131-.8-.071a1.745,1.745,0,0,1-1.029-.182,2.391,2.391,0,0,0,1.259-.127c.251-.116.688-.376.688-.376l-1.572-.753,1.883-.03s-.1-.2-.675-.441a1.721,1.721,0,0,1-.818-.647,2.4,2.4,0,0,0,1.171.485,6.643,6.643,0,0,0,.719-.018l-1.144-1.336,1.707.794s0-.227-.415-.69a1.755,1.755,0,0,1-.455-.937,2.424,2.424,0,0,0,.842.943,4.949,4.949,0,0,0,.6.261l-.4-1.668,1.083,1.35s.1-.2-.066-.8a1.545,1.545,0,0,1,.058-1.042,2.411,2.411,0,0,0,.338,1.222,5,5,0,0,1,.327.588l.487-1.76.345,1.7s.227-.323.392-.543a2.35,2.35,0,0,0,.4-1.2,1.509,1.509,0,0,1,.006,1.037c-.2.591-.054.812-.054.812l1.08-1.35-.394,1.675a6.057,6.057,0,0,0,.6-.264,2.377,2.377,0,0,0,.843-.949,1.783,1.783,0,0,1-.454.942c-.415.463-.418.689-.418.689l1.708-.795-1.143,1.338s.446.03.718.015a2.392,2.392,0,0,0,1.171-.48,1.751,1.751,0,0,1-.817.645c-.576.237-.678.441-.678.441l1.887.026-1.574.754s.439.262.689.378a2.349,2.349,0,0,0,1.258.127,1.752,1.752,0,0,1-1.025.184c-.619-.062-.805.069-.805.069l1.647.914-1.775-.019s.282.394.459.6a2.317,2.317,0,0,0,1.089.647,1.414,1.414,0,0,1-1-.2,2.334,2.334,0,0,0-.768-.344,2,2,0,0,0,2.017.858.928.928,0,0,1,.778.413,1.673,1.673,0,0,0-.8-.917c-.552-.209-1.153-.583-1.187-.8l2.465.1Z" fill="#fff"/>
    <path id="Trazado_11349" data-name="Trazado 11349" d="M374.856,4513.434l-.005-.005-.013-.009-.026-.017-.029-.021-.1-.058-.107-.053-.1-.042-.1-.032-.1-.028-.1-.013-.1-.012-.1-.006h-.1l-.1.006-.091.012-.091.013-.091.021-.088.025-.081.025-.083.027-.079.03-.072.035-.067.033-.069.032-.063.035-.056.031-.057.036-.048.031-.079.049-.063.052-.033.028-.012.012v.007l.006.008.013.006.01.005h.026l.017-.005.023-.006.026-.008.026-.007.033-.013.03-.027.043-.034.051-.027.06-.032.07-.035.075-.033.082-.036.089-.031.083-.026.1-.03.091-.023.1-.021.1-.015.094-.007.048,0,.048-.006.043.006h.045l.058.006.055.014.051.01.06.021.106.038.1.048.048.02.052.017.047.019.045.018.043.011.049.006h.087l.026,0h.023l.02-.01.013-.008.011-.005.005-.008,0-.007v-.008l0-.007Z" fill="#fff"/>
    <path id="Trazado_11350" data-name="Trazado 11350" d="M374.564,4513.736l-.088-.036-.085-.036-.085-.023-.085-.021-.084-.014-.081-.009-.085,0-.081,0-.074.005-.079.012-.077.007-.071.02-.073.02-.066.02-.066.022-.064.022-.057.022-.057.03-.1.05-.085.048-.12.082-.046.028v.012h.009l.008.008h.017l.028,0,.034,0,.045-.018.031-.022.03-.024.043-.02.044-.024.056-.02.06-.026.063-.026.07-.022.073-.025.071-.016.076-.015.076-.017.076-.012.075-.005.072,0,.07,0,.054,0,.06,0,.051.017.049.017.1.034.1.036.047.016.043.014.043.013.044.006.04.005h.043l.022-.005.02,0,.024-.007.017-.009-.089-.056Z" fill="#fff"/>
    <path id="Trazado_11351" data-name="Trazado 11351" d="M374.5,4514.181l-.061.026-.068.035-.058.023-.067.02-.061.017-.064.018-.022,0,.02-.022.034-.031.026-.035.017-.043.022-.039.014-.041.006-.044v-.087l-.007-.029,0-.036-.005-.014.014.006.07.031.059.042.071.045.061.055.068.062Zm-.943.146-.05-.007-.046-.01-.05-.009-.083-.03-.08-.024-.072-.029-.058-.025-.05-.026-.037-.017.037-.028.108-.074.072-.047.09-.042.048-.019.05-.023.015,0,0,.014-.005.03,0,.032v.055l0,.026.005.025,0,.022,0,.023.011.022.012.024.007.02.01.022.012.02.013.016.017.02.014.018.019.012.016.016h0Zm.047-.462.052-.012.066-.009.061-.012h.019l-.019.006-.017.008-.019.007-.011.012-.017.007-.016.013-.011.012-.01.018-.014.014-.006.02-.006.014-.006.019,0,.019v.042l0,.015.006.02.006.02.006.017.014.013.01.016.011.015.016.008.017.014.011.012.019.007.017,0,.019,0,.017.006h.041l.019-.006.019,0,.014,0,.017-.007.018-.012.017-.014.014-.008.009-.015.012-.016.007-.013.015-.017,0-.02.007-.02v-.076l-.007-.019,0-.014-.015-.02-.007-.014-.012-.018-.009-.012-.014-.013-.017-.007-.018-.012-.017-.007-.014-.008-.019-.006h.031l.064.006.069.008.062.019h.009l.005,0,.008.019,0,.019.014.017.007.027v.022l0,.018v.055l0,.034-.012.031-.009.028-.012.026-.017.026-.022.025-.015.024-.022.021-.022.02-.031.018-.026.009-.032.011-.031.006-.031.006H373.8l-.034-.006-.027-.006-.028-.011-.029-.009-.027-.018-.023-.02-.018-.021-.027-.024-.016-.025-.017-.026-.013-.026-.012-.028,0-.031,0-.034-.006-.031.006-.035.009-.045.012-.035.008-.024Zm.236.025.026,0,.027.007.019.01.02.014.016.023.012.026.007.018,0,.025,0,.03-.007.025-.012.022-.016.02-.02.016-.019.01-.027.012h-.051l-.025-.012-.024-.01-.019-.016-.014-.02-.011-.022-.011-.025v-.055l.011-.018.011-.026.014-.023.019-.014.024-.01.025-.007Zm.7.121-.071-.058-.076-.05-.078-.038-.08-.035-.079-.025-.079-.02-.076-.01-.075-.009h-.074l-.078.008-.071,0-.069.015-.067.019-.072.02-.062.023-.065.023-.06.026-.054.024-.055.03-.051.026-.047.029-.037.025-.075.052-.05.037-.035.029-.013.007.048.024.055.03.076.033.078.037.093.031.1.03.052.012.059.014.058.013.066.014.058,0,.066.006.063,0h.132l.069-.006.069,0,.075-.014.07-.015.074-.014.072-.025.072-.023.077-.033.072-.035.074-.037.075-.051-.075-.076Z" fill="#fff"/>
    <path id="Trazado_11352" data-name="Trazado 11352" d="M378.223,4513.579l-.058-.042-.085-.058-.046-.031-.051-.033-.059-.03-.063-.036-.07-.03-.067-.036-.073-.029-.078-.034-.081-.026-.085-.025-.088-.023-.085-.02-.094-.013-.091-.013-.1-.006-.1,0-.1.006-.1.01-.1.018-.1.027-.107.035-.107.039-.1.051-.1.059-.033.017-.023.021-.011.008-.005.009-.008.013h0v.011l0,.007.008.007.008.005.013.009.02,0,.023.005.025.007h.09l.047-.01.047-.009.042-.017.045-.018.053-.019.048-.021.1-.042.107-.043.055-.019.054-.009.054-.014.057,0,.042-.007h.094l.048.007.094,0,.091.018.1.022.1.02.091.032.092.031.082.028.085.031.073.029.075.036.057.037.051.029.045.026.03.026.033.014.029.012.02.01.023.007.016,0h.027l.011,0,.014-.007,0-.01,0-.005v-.006l-.009-.007Z" fill="#fff"/>
    <path id="Trazado_11353" data-name="Trazado 11353" d="M377.791,4513.827l-.088-.051-.1-.051-.057-.02-.058-.027-.066-.028-.063-.019-.066-.019-.073-.021-.073-.014-.073-.014-.081-.008-.075-.008h-.08l-.085.006-.083.008-.081.012-.087.021-.085.025-.086.039-.089.039-.083.044-.086.055.021.006.022.007.019,0h.105l.044-.008.044-.013.045-.016.048-.012.092-.034.1-.033.049-.019.057-.006.056-.013.054-.008h.14l.079.01.076.015.076.011.07.019.076.017.072.023.07.021.064.025.056.022.057.027.045.024.043.021.033.023.028.015.045.019.038.011.024,0,.014,0,.014,0,0-.007,0,0-.042-.033Z" fill="#fff"/>
    <path id="Trazado_11354" data-name="Trazado 11354" d="M377.745,4514.121l-.048.028-.062.021-.07.029-.076.028-.086.021-.048.015-.048.007-.048.015-.042,0,.033-.021.03-.034.027-.042.023-.034.019-.044.012-.046.007-.021,0-.026V4514l0-.022,0-.033v-.029l0-.03-.007-.017.017.006.049.023.05.02.083.044.084.042.1.071.041.029Zm-1.056.149-.06-.013-.062-.015-.062-.023-.063-.026-.062-.032-.065-.03-.064-.033.064-.061.065-.055.068-.044.062-.043.069-.031.013-.008-.007.016-.005.037v.134l.005.026.01.044.022.042.021.038.026.034.029.03.016.018Zm.083-.468.069-.012.063,0h.051l-.017,0-.02,0-.022,0-.013.012-.016.006-.013.013-.013.013-.016.016-.009.01-.011.019-.009.017-.006.015,0,.021,0,.018v.037l0,.018,0,.023.006.014.009.021.011.012.009.017.016.015.013.012.013.013.016,0,.013.012.022,0,.02,0h.072l.021,0,.019,0,.016-.012.013,0,.017-.013.011-.012.017-.015.01-.017.012-.012.007-.021.007-.014,0-.023,0-.018v-.037l0-.018,0-.021-.007-.015-.007-.017-.012-.019-.01-.01-.017-.016-.011-.013-.017-.013-.013-.006-.016-.012-.019,0-.021,0h.025l.057.008.064.012.058.016.039.008.014.024.013.039.008.034,0,.046,0,.031,0,.031-.011.032-.01.026-.011.026-.017.031-.018.018-.017.023-.027.022-.02.02-.027.013-.03.015-.028.012-.028.01H377l-.032.006-.031-.006h-.03l-.031-.01-.029-.012-.027-.015-.028-.013-.024-.02-.024-.022-.016-.023-.017-.018-.018-.031-.012-.026-.013-.026-.007-.032-.006-.031v-.053l.005-.027v-.017l.007-.024.01-.021,0-.02.012-.02,0-.006.009,0Zm.228.048.026.006.022.01.018.019.016.019.01.019.01.025,0,.027,0,.026-.01.021-.01.026-.016.021-.018.012-.022.014-.026.006-.028.007-.026-.007-.025-.006-.025-.014-.016-.012-.013-.021-.013-.026-.006-.021,0-.026,0-.027.006-.025.013-.019.013-.019.016-.019.025-.01.025-.006.026,0Zm.75.143-.041-.03-.048-.025-.051-.029-.053-.026-.056-.027-.057-.026-.066-.022-.061-.023-.067-.022-.072-.013-.072-.016-.071-.009-.075,0h-.077l-.075.007-.076.012-.078.017-.075.027-.08.035-.08.039-.078.05-.072.054-.078.071-.073.079.073.042.073.038.075.036.074.034.074.028.074.019.071.018.071.018.075.008.067.01h.267l.066-.007.064-.008.052-.009.062-.014.059-.01.049-.015.106-.031.1-.032.074-.034.075-.034.056-.03.049-.024-.049-.035Z" fill="#fff"/>
    <path id="Trazado_11355" data-name="Trazado 11355" d="M377.894,4517.354a3.93,3.93,0,0,1-4.911.011l-.168.176a4.192,4.192,0,0,0,5.213.014" fill="#fff"/>
    <path id="Trazado_11356" data-name="Trazado 11356" d="M105.914,4512.234v7.083H105.2v-5.665l-2.782,4.765h-.354l-2.782-4.735v5.635H98.56v-7.083h.616l3.076,5.251,3.045-5.251Z" fill="#fff"/>
    <path id="Trazado_11357" data-name="Trazado 11357" d="M108.069,4514h.718v5.322h-.718Zm-.01-1.314a.5.5,0,0,1-.153-.365.483.483,0,0,1,.153-.353.5.5,0,0,1,.375-.152.509.509,0,0,1,.373.146.466.466,0,0,1,.152.349.53.53,0,0,1-.9.375" fill="#fff"/>
    <path id="Trazado_11358" data-name="Trazado 11358" d="M115.1,4514.537a2.27,2.27,0,0,1,.591,1.694v3.086h-.718V4516.3a1.77,1.77,0,0,0-.414-1.266,1.564,1.564,0,0,0-1.184-.434,1.815,1.815,0,0,0-1.36.511,1.928,1.928,0,0,0-.5,1.41v2.793h-.718V4514h.687v.982a2.008,2.008,0,0,1,.814-.755,2.628,2.628,0,0,1,1.21-.268,2.171,2.171,0,0,1,1.593.583" fill="#fff"/>
    <path id="Trazado_11359" data-name="Trazado 11359" d="M117.639,4514h.719v5.322h-.719Zm-.01-1.314a.5.5,0,0,1-.151-.365.478.478,0,0,1,.151-.353.506.506,0,0,1,.375-.152.513.513,0,0,1,.374.146.47.47,0,0,1,.152.349.53.53,0,0,1-.9.375" fill="#fff"/>
    <path id="Trazado_11360" data-name="Trazado 11360" d="M120.547,4519.181a2.69,2.69,0,0,1-.925-.471l.325-.566a2.736,2.736,0,0,0,.838.429,3.321,3.321,0,0,0,1.053.167,2.018,2.018,0,0,0,1.077-.227.725.725,0,0,0,.349-.643.582.582,0,0,0-.192-.461,1.284,1.284,0,0,0-.486-.252,6.873,6.873,0,0,0-.779-.167,9.048,9.048,0,0,1-1.042-.248,1.534,1.534,0,0,1-.673-.43,1.19,1.19,0,0,1-.278-.839,1.319,1.319,0,0,1,.556-1.094,2.513,2.513,0,0,1,1.548-.424,4.031,4.031,0,0,1,1.033.137,2.848,2.848,0,0,1,.85.359l-.315.577a2.679,2.679,0,0,0-1.568-.456,1.813,1.813,0,0,0-1.036.243.745.745,0,0,0-.35.637.632.632,0,0,0,.2.486,1.227,1.227,0,0,0,.492.268,7.852,7.852,0,0,0,.809.178,9.014,9.014,0,0,1,1.021.242,1.5,1.5,0,0,1,.658.415,1.137,1.137,0,0,1,.273.809,1.288,1.288,0,0,1-.581,1.108,2.77,2.77,0,0,1-1.613.409,4.115,4.115,0,0,1-1.241-.186" fill="#fff"/>
    <path id="Trazado_11361" data-name="Trazado 11361" d="M128.11,4518.993a1.352,1.352,0,0,1-.5.279,2.013,2.013,0,0,1-.622.1,1.41,1.41,0,0,1-1.559-1.548V4514.6h-.95V4514h.95v-1.163h.72V4514h1.618v.607h-1.618v3.177a1.006,1.006,0,0,0,.237.724.907.907,0,0,0,.683.248,1.363,1.363,0,0,0,.43-.071,1.06,1.06,0,0,0,.359-.2Z" fill="#fff"/>
    <path id="Trazado_11362" data-name="Trazado 11362" d="M130.189,4515.063a1.925,1.925,0,0,0-.591,1.28h3.773a1.931,1.931,0,0,0-.592-1.28,1.953,1.953,0,0,0-2.59,0m3.859,1.816H129.6a1.894,1.894,0,0,0,.637,1.34,2.113,2.113,0,0,0,1.456.511,2.3,2.3,0,0,0,.911-.177,1.972,1.972,0,0,0,.718-.521l.4.465a2.288,2.288,0,0,1-.885.648,3,3,0,0,1-1.169.222,2.959,2.959,0,0,1-1.451-.348,2.521,2.521,0,0,1-.987-.967,2.75,2.75,0,0,1-.353-1.4,2.862,2.862,0,0,1,.337-1.4,2.464,2.464,0,0,1,.932-.961,2.6,2.6,0,0,1,1.33-.344,2.574,2.574,0,0,1,1.325.344,2.443,2.443,0,0,1,.921.956,2.874,2.874,0,0,1,.334,1.4Z" fill="#fff"/>
    <path id="Trazado_11363" data-name="Trazado 11363" d="M136.967,4514.228a2.554,2.554,0,0,1,1.24-.273v.7l-.173-.009a1.7,1.7,0,0,0-1.315.516,2.053,2.053,0,0,0-.475,1.446v2.712h-.719V4514h.688v1.042a1.749,1.749,0,0,1,.754-.809" fill="#fff"/>
    <path id="Trazado_11364" data-name="Trazado 11364" d="M139.582,4514h.718v5.322h-.718Zm-.01-1.314a.5.5,0,0,1-.152-.365.486.486,0,0,1,.152-.353.5.5,0,0,1,.375-.152.513.513,0,0,1,.374.146.469.469,0,0,1,.151.349.516.516,0,0,1-.525.526.507.507,0,0,1-.375-.151" fill="#fff"/>
    <path id="Trazado_11365" data-name="Trazado 11365" d="M145.5,4518.472a1.79,1.79,0,0,0,.7-.734,2.433,2.433,0,0,0,0-2.165,1.8,1.8,0,0,0-.7-.733,2.142,2.142,0,0,0-2.034,0,1.832,1.832,0,0,0-.708.733,2.4,2.4,0,0,0,0,2.165,1.823,1.823,0,0,0,.708.734,2.135,2.135,0,0,0,2.034,0m-2.4.547a2.561,2.561,0,0,1-.971-.967,2.937,2.937,0,0,1,0-2.792,2.521,2.521,0,0,1,.971-.961,2.966,2.966,0,0,1,2.772,0,2.477,2.477,0,0,1,.967.961,2.959,2.959,0,0,1,0,2.792,2.516,2.516,0,0,1-.967.967,2.933,2.933,0,0,1-2.772,0" fill="#fff"/>
    <path id="Trazado_11366" data-name="Trazado 11366" d="M154.479,4518.472a1.823,1.823,0,0,0,.708-.734,2.4,2.4,0,0,0,0-2.165,1.839,1.839,0,0,0-.708-.733,1.988,1.988,0,0,0-1.006-.257,2.015,2.015,0,0,0-1.018.257,1.83,1.83,0,0,0-.707.733,2.4,2.4,0,0,0,0,2.165,1.814,1.814,0,0,0,.707.734,2.005,2.005,0,0,0,1.018.258,1.979,1.979,0,0,0,1.006-.258m1.674-6.662v7.507h-.687v-1.052a2.185,2.185,0,0,1-.856.819,2.5,2.5,0,0,1-1.2.283,2.7,2.7,0,0,1-1.357-.343,2.464,2.464,0,0,1-.95-.961,3.039,3.039,0,0,1,0-2.813,2.429,2.429,0,0,1,.95-.957,2.752,2.752,0,0,1,1.357-.338,2.526,2.526,0,0,1,1.168.267,2.235,2.235,0,0,1,.854.785v-3.2Z" fill="#fff"/>
    <path id="Trazado_11367" data-name="Trazado 11367" d="M158.931,4515.063a1.926,1.926,0,0,0-.592,1.28h3.774a1.931,1.931,0,0,0-.592-1.28,1.953,1.953,0,0,0-2.59,0m3.86,1.816h-4.452a1.9,1.9,0,0,0,.638,1.34,2.111,2.111,0,0,0,1.456.511,2.3,2.3,0,0,0,.91-.177,1.975,1.975,0,0,0,.719-.521l.4.465a2.3,2.3,0,0,1-.886.648,3,3,0,0,1-1.168.222,2.959,2.959,0,0,1-1.451-.348,2.523,2.523,0,0,1-.988-.967,2.75,2.75,0,0,1-.353-1.4,2.852,2.852,0,0,1,.338-1.4,2.457,2.457,0,0,1,.932-.961,2.735,2.735,0,0,1,2.655,0,2.45,2.45,0,0,1,.921.956,2.884,2.884,0,0,1,.333,1.4Z" fill="#fff"/>
    <path id="Trazado_11368" data-name="Trazado 11368" d="M104.812,4529.081a1.663,1.663,0,0,0,.576-1.358,1.684,1.684,0,0,0-.576-1.373,2.59,2.59,0,0,0-1.685-.479h-2v3.689h2a2.59,2.59,0,0,0,1.685-.479m.9-4.741a3.808,3.808,0,0,1,1.6,5.424,3.587,3.587,0,0,1-1.6,1.336,5.982,5.982,0,0,1-2.452.462h-2.139v2.93H98.665v-10.624h4.6a5.885,5.885,0,0,1,2.452.472" fill="#fff"/>
    <path id="Trazado_11369" data-name="Trazado 11369" d="M112.635,4526.509a4.244,4.244,0,0,1,1.662-.3v2.184c-.264-.019-.441-.03-.532-.03a2.173,2.173,0,0,0-1.594.57,2.3,2.3,0,0,0-.577,1.707v3.855h-2.367v-8.164h2.261v1.077a2.636,2.636,0,0,1,1.147-.9" fill="#fff"/>
    <path id="Trazado_11370" data-name="Trazado 11370" d="M120.768,4532.056a2.612,2.612,0,0,0,0-3.292,1.966,1.966,0,0,0-1.495-.616,1.991,1.991,0,0,0-1.5.616,2.588,2.588,0,0,0,0,3.292,2.006,2.006,0,0,0,1.5.615,1.98,1.98,0,0,0,1.495-.615m-3.809,2.018a4.008,4.008,0,0,1-1.6-1.5,4.37,4.37,0,0,1,0-4.34,4,4,0,0,1,1.6-1.494,5.221,5.221,0,0,1,4.621,0,4.012,4.012,0,0,1,1.593,1.494,4.376,4.376,0,0,1,0,4.34,4.026,4.026,0,0,1-1.593,1.5,5.234,5.234,0,0,1-4.621,0" fill="#fff"/>
    <path id="Trazado_11371" data-name="Trazado 11371" d="M130.352,4532.056a2.589,2.589,0,0,0,0-3.293,2.124,2.124,0,0,0-2.99,0,2.586,2.586,0,0,0,0,3.293,2.128,2.128,0,0,0,2.99,0m2.914-8.826v11.261H131v-.941a3.118,3.118,0,0,1-2.55,1.063,4.237,4.237,0,0,1-2.085-.516,3.693,3.693,0,0,1-1.465-1.472,4.89,4.89,0,0,1,0-4.432,3.686,3.686,0,0,1,1.465-1.472,4.232,4.232,0,0,1,2.085-.515,3.109,3.109,0,0,1,2.444.986v-3.962Z" fill="#fff"/>
    <path id="Trazado_11372" data-name="Trazado 11372" d="M143.3,4526.328v8.163H141.05v-.971a3.131,3.131,0,0,1-1.123.812,3.541,3.541,0,0,1-1.412.28,3.47,3.47,0,0,1-2.549-.925,3.69,3.69,0,0,1-.94-2.746v-4.613h2.366v4.264q0,1.973,1.654,1.972a1.783,1.783,0,0,0,1.366-.553,2.338,2.338,0,0,0,.517-1.648v-4.035Z" fill="#fff"/>
    <path id="Trazado_11373" data-name="Trazado 11373" d="M146.718,4534.074a4.038,4.038,0,0,1-1.624-1.5,4.324,4.324,0,0,1,0-4.34,4.025,4.025,0,0,1,1.624-1.494,5,5,0,0,1,2.345-.539,4.527,4.527,0,0,1,2.253.539,3.194,3.194,0,0,1,1.4,1.54l-1.837.986a2.005,2.005,0,0,0-1.836-1.123,2.075,2.075,0,0,0-1.532.607,2.555,2.555,0,0,0,0,3.309,2.078,2.078,0,0,0,1.532.607,1.988,1.988,0,0,0,1.836-1.124l1.837,1a3.258,3.258,0,0,1-1.4,1.518,4.478,4.478,0,0,1-2.253.546,5.021,5.021,0,0,1-2.345-.538" fill="#fff"/>
    <path id="Trazado_11374" data-name="Trazado 11374" d="M155.307,4534.074a4.116,4.116,0,0,1,0-7.329,5.007,5.007,0,0,1,2.345-.539,4.524,4.524,0,0,1,2.253.539,3.184,3.184,0,0,1,1.4,1.54l-1.836.986a2.008,2.008,0,0,0-1.836-1.123,2.078,2.078,0,0,0-1.533.607,2.562,2.562,0,0,0,0,3.309,2.082,2.082,0,0,0,1.533.607,1.988,1.988,0,0,0,1.836-1.124l1.836,1a3.247,3.247,0,0,1-1.4,1.518,4.475,4.475,0,0,1-2.253.546,5.024,5.024,0,0,1-2.345-.538" fill="#fff"/>
    <path id="Trazado_11375" data-name="Trazado 11375" d="M162.295,4526.328h2.368v8.164h-2.368Zm.122-1.518a1.284,1.284,0,0,1,0-1.881,1.5,1.5,0,0,1,1.062-.381,1.541,1.541,0,0,1,1.062.364,1.17,1.17,0,0,1,.41.911,1.285,1.285,0,0,1-.41.978,1.479,1.479,0,0,1-1.062.389,1.5,1.5,0,0,1-1.062-.38" fill="#fff"/>
    <path id="Trazado_11376" data-name="Trazado 11376" d="M171.007,4523.1h2.549l-2.747,2.185h-1.851Zm.857,8.961a2.612,2.612,0,0,0,0-3.292,1.965,1.965,0,0,0-1.494-.616,1.993,1.993,0,0,0-1.5.616,2.588,2.588,0,0,0,0,3.292,2.008,2.008,0,0,0,1.5.615,1.98,1.98,0,0,0,1.494-.615m-3.809,2.018a4,4,0,0,1-1.6-1.5,4.37,4.37,0,0,1,0-4.34,3.988,3.988,0,0,1,1.6-1.494,5.221,5.221,0,0,1,4.621,0,4.005,4.005,0,0,1,1.593,1.494,4.376,4.376,0,0,1,0,4.34,4.019,4.019,0,0,1-1.593,1.5,5.234,5.234,0,0,1-4.621,0" fill="#fff"/>
    <path id="Trazado_11377" data-name="Trazado 11377" d="M183.458,4527.116a3.614,3.614,0,0,1,.933,2.7v4.675h-2.367v-4.31a2.131,2.131,0,0,0-.425-1.449,1.56,1.56,0,0,0-1.229-.477,1.883,1.883,0,0,0-1.427.553,2.3,2.3,0,0,0-.531,1.646v4.037h-2.367v-8.163h2.261v.956a3.119,3.119,0,0,1,1.169-.8,4.082,4.082,0,0,1,1.532-.28,3.359,3.359,0,0,1,2.451.91" fill="#fff"/>
    <path id="Trazado_11378" data-name="Trazado 11378" d="M188.109,4532.071a1.411,1.411,0,0,1,.409,1.054,2.509,2.509,0,0,1-.075.607,6.906,6.906,0,0,1-.334.91l-.866,2.186h-1.5l.667-2.412a1.252,1.252,0,0,1-.6-.494,1.433,1.433,0,0,1-.22-.8,1.4,1.4,0,0,1,.418-1.054,1.461,1.461,0,0,1,1.054-.4,1.438,1.438,0,0,1,1.047.4" fill="#fff"/>
    <rect id="Rectángulo_3685" data-name="Rectángulo 3685" width="2.458" height="10.624" transform="translate(193.829 4523.868)" fill="#fff"/>
    <path id="Trazado_11379" data-name="Trazado 11379" d="M205.674,4527.116a3.61,3.61,0,0,1,.933,2.7v4.675H204.24v-4.31a2.126,2.126,0,0,0-.425-1.449,1.561,1.561,0,0,0-1.229-.477,1.885,1.885,0,0,0-1.427.553,2.3,2.3,0,0,0-.531,1.646v4.037h-2.367v-8.163h2.261v.956a3.131,3.131,0,0,1,1.168-.8,4.1,4.1,0,0,1,1.534-.28,3.357,3.357,0,0,1,2.45.91" fill="#fff"/>
    <path id="Trazado_11380" data-name="Trazado 11380" d="M213.769,4532.056a2.586,2.586,0,0,0,0-3.293,2.123,2.123,0,0,0-2.989,0,2.586,2.586,0,0,0,0,3.293,2.126,2.126,0,0,0,2.989,0m2.914-8.826v11.261h-2.261v-.941a3.117,3.117,0,0,1-2.549,1.063,4.237,4.237,0,0,1-2.087-.516,3.7,3.7,0,0,1-1.464-1.472,4.873,4.873,0,0,1,0-4.432,3.689,3.689,0,0,1,1.464-1.472,4.231,4.231,0,0,1,2.087-.515,3.1,3.1,0,0,1,2.442.986v-3.962Z" fill="#fff"/>
    <path id="Trazado_11381" data-name="Trazado 11381" d="M226.714,4526.328v8.163h-2.246v-.971a3.131,3.131,0,0,1-1.123.812,3.533,3.533,0,0,1-1.411.28,3.472,3.472,0,0,1-2.55-.925,3.69,3.69,0,0,1-.94-2.746v-4.613h2.367v4.264q0,1.973,1.655,1.972a1.784,1.784,0,0,0,1.365-.553,2.347,2.347,0,0,0,.516-1.648v-4.035Z" fill="#fff"/>
    <path id="Trazado_11382" data-name="Trazado 11382" d="M229.293,4534.362a5.213,5.213,0,0,1-1.547-.629l.79-1.7a4.948,4.948,0,0,0,1.32.568,5.52,5.52,0,0,0,1.517.221q1.5,0,1.5-.744a.525.525,0,0,0-.41-.5,5.985,5.985,0,0,0-1.259-.257,12.107,12.107,0,0,1-1.654-.35,2.591,2.591,0,0,1-1.131-.7,1.989,1.989,0,0,1-.478-1.426,2.229,2.229,0,0,1,.448-1.374,2.869,2.869,0,0,1,1.3-.933,5.562,5.562,0,0,1,2.025-.334,8,8,0,0,1,1.724.189,4.83,4.83,0,0,1,1.418.524l-.788,1.684a4.738,4.738,0,0,0-2.354-.607,2.389,2.389,0,0,0-1.138.213.623.623,0,0,0-.378.546.543.543,0,0,0,.41.531,7.1,7.1,0,0,0,1.3.288,13.892,13.892,0,0,1,1.639.358,2.458,2.458,0,0,1,1.108.69,1.951,1.951,0,0,1,.47,1.4,2.159,2.159,0,0,1-.455,1.351,2.913,2.913,0,0,1-1.328.919,5.93,5.93,0,0,1-2.071.325,7.9,7.9,0,0,1-1.989-.25" fill="#fff"/>
    <path id="Trazado_11383" data-name="Trazado 11383" d="M241.48,4534.1a2.452,2.452,0,0,1-.859.386,4.275,4.275,0,0,1-1.069.13,3.174,3.174,0,0,1-2.253-.744,2.839,2.839,0,0,1-.8-2.184v-3.355h-1.26v-1.821h1.26v-1.987h2.367v1.987H240.9v1.821h-2.033v3.325a1.112,1.112,0,0,0,.266.8.984.984,0,0,0,.752.28,1.522,1.522,0,0,0,.955-.3Z" fill="#fff"/>
    <path id="Trazado_11384" data-name="Trazado 11384" d="M245.842,4526.509a4.248,4.248,0,0,1,1.662-.3v2.184c-.264-.019-.44-.03-.531-.03a2.169,2.169,0,0,0-1.593.57,2.3,2.3,0,0,0-.578,1.707v3.855h-2.367v-8.164H244.7v1.077a2.644,2.644,0,0,1,1.146-.9" fill="#fff"/>
    <path id="Trazado_11385" data-name="Trazado 11385" d="M248.6,4526.328h2.367v8.164H248.6Zm.121-1.518a1.284,1.284,0,0,1,0-1.881,1.494,1.494,0,0,1,1.061-.381,1.544,1.544,0,0,1,1.063.364,1.166,1.166,0,0,1,.41.911,1.281,1.281,0,0,1-.41.978,1.482,1.482,0,0,1-1.063.389,1.5,1.5,0,0,1-1.061-.38" fill="#fff"/>
    <path id="Trazado_11386" data-name="Trazado 11386" d="M256.973,4532.738a1.533,1.533,0,0,0,.669-.827v-.834h-1.625q-1.456,0-1.456.957a.854.854,0,0,0,.356.72,1.606,1.606,0,0,0,.979.265,2.053,2.053,0,0,0,1.077-.281m2.018-5.63a3.457,3.457,0,0,1,1.018,2.724v4.66h-2.216v-1.018a2.638,2.638,0,0,1-2.489,1.139,3.846,3.846,0,0,1-1.63-.319,2.445,2.445,0,0,1-1.057-.879,2.309,2.309,0,0,1-.363-1.276,2.123,2.123,0,0,1,.857-1.79,4.365,4.365,0,0,1,2.649-.653h1.882a1.511,1.511,0,0,0-.471-1.191,2.067,2.067,0,0,0-1.411-.418,4.127,4.127,0,0,0-1.283.205,3.4,3.4,0,0,0-1.07.555l-.85-1.655a5.162,5.162,0,0,1,1.6-.729,7.214,7.214,0,0,1,1.92-.257,4.246,4.246,0,0,1,2.913.9" fill="#fff"/>
    <path id="Trazado_11387" data-name="Trazado 11387" d="M273.788,4526.328l-3.688,8.664a4.266,4.266,0,0,1-1.389,1.988,3.394,3.394,0,0,1-1.994.576,4.154,4.154,0,0,1-1.261-.2,2.777,2.777,0,0,1-1.016-.547l.863-1.684a2.118,2.118,0,0,0,.631.379,1.964,1.964,0,0,0,.706.137,1.251,1.251,0,0,0,.789-.236,1.985,1.985,0,0,0,.546-.781l.032-.075-3.537-8.225h2.443l2.292,5.539,2.306-5.539Z" fill="#fff"/>
    <path id="Trazado_11388" data-name="Trazado 11388" d="M286.686,4532.519v1.972h-8.224v-10.623h8.028v1.973h-5.584v2.307h4.931v1.913h-4.931v2.458Z" fill="#fff"/>
    <path id="Trazado_11389" data-name="Trazado 11389" d="M300.99,4527.108a3.681,3.681,0,0,1,.9,2.709v4.675h-2.368v-4.311a2.218,2.218,0,0,0-.4-1.45,1.42,1.42,0,0,0-1.148-.476,1.691,1.691,0,0,0-1.319.538,2.332,2.332,0,0,0-.484,1.6v4.1H293.8v-4.311q0-1.928-1.548-1.926a1.67,1.67,0,0,0-1.3.538,2.323,2.323,0,0,0-.487,1.6v4.1H288.1v-8.164h2.262v.939a2.981,2.981,0,0,1,1.115-.788,3.754,3.754,0,0,1,1.45-.273,3.528,3.528,0,0,1,1.563.34,2.766,2.766,0,0,1,1.122,1,3.354,3.354,0,0,1,1.268-.986,4.007,4.007,0,0,1,1.677-.349,3.292,3.292,0,0,1,2.436.9" fill="#fff"/>
    <path id="Trazado_11390" data-name="Trazado 11390" d="M309.548,4532.056a2.61,2.61,0,0,0,0-3.293,2.123,2.123,0,0,0-2.989,0,2.613,2.613,0,0,0,0,3.293,2.126,2.126,0,0,0,2.989,0m.987-5.327A3.744,3.744,0,0,1,312,4528.2a4.842,4.842,0,0,1,0,4.417,3.741,3.741,0,0,1-1.463,1.471,4.16,4.16,0,0,1-2.071.524,3.153,3.153,0,0,1-2.459-.986v3.808h-2.367v-11.107H305.9v.939a3.135,3.135,0,0,1,2.564-1.061,4.159,4.159,0,0,1,2.071.523" fill="#fff"/>
    <rect id="Rectángulo_3686" data-name="Rectángulo 3686" width="2.368" height="11.261" transform="translate(313.729 4523.23)" fill="#fff"/>
    <path id="Trazado_11391" data-name="Trazado 11391" d="M320.33,4528.452a1.932,1.932,0,0,0-.668,1.244h4.02a1.955,1.955,0,0,0-.665-1.237,2,2,0,0,0-1.337-.462,2.032,2.032,0,0,0-1.35.455m5.539,2.625h-6.177a1.923,1.923,0,0,0,.789,1.2,2.612,2.612,0,0,0,1.549.44,3.115,3.115,0,0,0,1.129-.19,2.729,2.729,0,0,0,.919-.6l1.259,1.366a4.23,4.23,0,0,1-3.368,1.319,5.334,5.334,0,0,1-2.444-.538,3.965,3.965,0,0,1-1.639-1.494,4.129,4.129,0,0,1-.575-2.171,4.182,4.182,0,0,1,.567-2.162,3.984,3.984,0,0,1,1.564-1.5,4.841,4.841,0,0,1,4.393-.024,3.769,3.769,0,0,1,1.525,1.48,4.407,4.407,0,0,1,.554,2.239c0,.03-.015.243-.045.637" fill="#fff"/>
    <path id="Trazado_11392" data-name="Trazado 11392" d="M332.493,4532.056a2.608,2.608,0,0,0,0-3.292,1.964,1.964,0,0,0-1.494-.616,2,2,0,0,0-1.5.616,2.588,2.588,0,0,0,0,3.292,2.01,2.01,0,0,0,1.5.615,1.978,1.978,0,0,0,1.494-.615m-3.808,2.018a4,4,0,0,1-1.6-1.5,4.369,4.369,0,0,1,0-4.34,3.988,3.988,0,0,1,1.6-1.494,5.219,5.219,0,0,1,4.62,0,4.014,4.014,0,0,1,1.594,1.494,4.369,4.369,0,0,1,0,4.34,4.028,4.028,0,0,1-1.594,1.5,5.232,5.232,0,0,1-4.62,0" fill="#fff"/>
    <path id="Trazado_11393" data-name="Trazado 11393" d="M99.738,4546.452a3.407,3.407,0,0,1-1.326-1.29,3.791,3.791,0,0,1,0-3.693,3.391,3.391,0,0,1,1.331-1.289,3.885,3.885,0,0,1,1.9-.465,3.937,3.937,0,0,1,1.456.262,3.02,3.02,0,0,1,1.134.769l-.477.475a2.815,2.815,0,0,0-2.093-.839,3.094,3.094,0,0,0-1.528.384,2.8,2.8,0,0,0-1.077,1.053,3.068,3.068,0,0,0,0,2.994,2.806,2.806,0,0,0,1.077,1.053,3.083,3.083,0,0,0,1.528.383,2.777,2.777,0,0,0,2.093-.85l.477.476a3.035,3.035,0,0,1-1.139.773,4.092,4.092,0,0,1-3.358-.2" fill="#fff"/>
    <path id="Trazado_11394" data-name="Trazado 11394" d="M109.986,4542.075a2.281,2.281,0,0,1,.592,1.695v3.086h-.719v-3.014a1.761,1.761,0,0,0-.415-1.266,1.559,1.559,0,0,0-1.183-.433,1.814,1.814,0,0,0-1.36.51,1.93,1.93,0,0,0-.5,1.411v2.792h-.719v-7.507h.719v3.117a1.934,1.934,0,0,1,.809-.719,2.676,2.676,0,0,1,1.183-.253,2.181,2.181,0,0,1,1.594.581" fill="#fff"/>
    <path id="Trazado_11395" data-name="Trazado 11395" d="M115.712,4546.012a1.831,1.831,0,0,0,.709-.734,2.408,2.408,0,0,0,0-2.165,1.833,1.833,0,0,0-.709-.733,2.106,2.106,0,0,0-2.023,0,1.827,1.827,0,0,0-.709.733,2.4,2.4,0,0,0,0,2.165,1.825,1.825,0,0,0,.709.734,2.12,2.12,0,0,0,2.023,0m1.674-4.477v5.321H116.7V4545.8a2.178,2.178,0,0,1-.856.819,2.49,2.49,0,0,1-1.2.283,2.676,2.676,0,0,1-1.356-.344,2.428,2.428,0,0,1-.952-.96,3.047,3.047,0,0,1,0-2.813,2.416,2.416,0,0,1,.952-.955,2.724,2.724,0,0,1,1.356-.34,2.508,2.508,0,0,1,1.167.269,2.221,2.221,0,0,1,.856.783v-1.011Z" fill="#fff"/>
    <path id="Trazado_11396" data-name="Trazado 11396" d="M120.184,4546.563a2.488,2.488,0,0,1-.977-.967,2.938,2.938,0,0,1,0-2.8,2.525,2.525,0,0,1,.977-.962,2.87,2.87,0,0,1,1.411-.343,2.738,2.738,0,0,1,1.229.267,2.031,2.031,0,0,1,.855.785l-.536.364a1.671,1.671,0,0,0-.668-.591,1.978,1.978,0,0,0-.88-.2,2.075,2.075,0,0,0-1.037.259,1.8,1.8,0,0,0-.718.733,2.405,2.405,0,0,0,0,2.171,1.825,1.825,0,0,0,.718.728,2.084,2.084,0,0,0,1.037.257,2.028,2.028,0,0,0,.88-.192,1.624,1.624,0,0,0,.668-.587l.536.364a2.045,2.045,0,0,1-.859.786,2.76,2.76,0,0,1-1.225.266,2.86,2.86,0,0,1-1.411-.343" fill="#fff"/>
    <path id="Trazado_11397" data-name="Trazado 11397" d="M128.277,4546.012a1.792,1.792,0,0,0,.7-.734,2.442,2.442,0,0,0,0-2.165,1.794,1.794,0,0,0-.7-.733,2.126,2.126,0,0,0-2.033,0,1.818,1.818,0,0,0-.708.733,2.392,2.392,0,0,0,0,2.165,1.816,1.816,0,0,0,.708.734,2.14,2.14,0,0,0,2.033,0m-2.4.547a2.556,2.556,0,0,1-.972-.967,2.93,2.93,0,0,1,0-2.792,2.526,2.526,0,0,1,.972-.962,2.971,2.971,0,0,1,2.771,0,2.493,2.493,0,0,1,.967.962,2.966,2.966,0,0,1,0,2.792,2.523,2.523,0,0,1-.967.967,2.931,2.931,0,0,1-2.771,0" fill="#fff"/>
    <path id="Trazado_11398" data-name="Trazado 11398" d="M139.219,4543.316h.718v3.541h-.658v-.6a2.8,2.8,0,0,1-.946.49,3.962,3.962,0,0,1-1.158.168,3.765,3.765,0,0,1-1.765-.426,3.285,3.285,0,0,1-1.31-1.234,3.884,3.884,0,0,1-.011-3.779,3.491,3.491,0,0,1,1.335-1.295,3.9,3.9,0,0,1,1.923-.469,4.135,4.135,0,0,1,1.487.258,2.95,2.95,0,0,1,1.143.762l-.465.477a2.911,2.911,0,0,0-2.135-.831,3.166,3.166,0,0,0-1.553.381,2.753,2.753,0,0,0-1.087,1.058,3.173,3.173,0,0,0,.005,3.079,2.666,2.666,0,0,0,1.062,1.011,3.013,3.013,0,0,0,1.421.35,3.125,3.125,0,0,0,1.078-.188,2.518,2.518,0,0,0,.916-.57Z" fill="#fff"/>
    <path id="Trazado_11399" data-name="Trazado 11399" d="M145.092,4546.012a1.8,1.8,0,0,0,.7-.734,2.451,2.451,0,0,0,0-2.165,1.806,1.806,0,0,0-.7-.733,2.128,2.128,0,0,0-2.034,0,1.825,1.825,0,0,0-.708.733,2.392,2.392,0,0,0,0,2.165,1.822,1.822,0,0,0,.708.734,2.142,2.142,0,0,0,2.034,0m-2.4.547a2.549,2.549,0,0,1-.972-.967,2.93,2.93,0,0,1,0-2.792,2.519,2.519,0,0,1,.972-.962,2.972,2.972,0,0,1,2.771,0,2.479,2.479,0,0,1,.967.962,2.966,2.966,0,0,1,0,2.792,2.509,2.509,0,0,1-.967.967,2.931,2.931,0,0,1-2.771,0" fill="#fff"/>
    <path id="Trazado_11400" data-name="Trazado 11400" d="M151.946,4546.012a1.828,1.828,0,0,0,.713-.734,2.4,2.4,0,0,0,0-2.165,1.824,1.824,0,0,0-.713-.733,2.118,2.118,0,0,0-2.029,0,1.825,1.825,0,0,0-.708.733,2.392,2.392,0,0,0,0,2.165,1.829,1.829,0,0,0,.708.734,2.132,2.132,0,0,0,2.029,0m.4-4.179a2.433,2.433,0,0,1,.95.956,3.045,3.045,0,0,1,0,2.812,2.441,2.441,0,0,1-.95.962,2.7,2.7,0,0,1-1.357.344,2.5,2.5,0,0,1-1.2-.284,2.193,2.193,0,0,1-.855-.818v1.051h-.688v-7.507h.72v3.2a2.219,2.219,0,0,1,.854-.784,2.53,2.53,0,0,1,1.168-.267,2.745,2.745,0,0,1,1.357.338" fill="#fff"/>
    <path id="Trazado_11401" data-name="Trazado 11401" d="M155.1,4541.535h.72v5.321h-.72Zm-.009-1.314a.5.5,0,0,1-.152-.365.481.481,0,0,1,.152-.353.507.507,0,0,1,.374-.154.519.519,0,0,1,.375.147.471.471,0,0,1,.151.35.53.53,0,0,1-.9.375" fill="#fff"/>
    <path id="Trazado_11402" data-name="Trazado 11402" d="M158.921,4542.369a1.818,1.818,0,0,0-.688.719,2.2,2.2,0,0,0-.248,1.058,1.737,1.737,0,0,0,.01.223l3.753-.73a1.852,1.852,0,0,0-.616-1.1,1.791,1.791,0,0,0-1.214-.429,1.944,1.944,0,0,0-1,.257m2.094,3.724a1.872,1.872,0,0,0,.713-.521l.4.465a2.3,2.3,0,0,1-.881.648,3.206,3.206,0,0,1-2.619-.126,2.514,2.514,0,0,1-.992-.967,2.756,2.756,0,0,1-.354-1.4,2.848,2.848,0,0,1,.339-1.4,2.466,2.466,0,0,1,.935-.962,2.673,2.673,0,0,1,1.357-.343,2.542,2.542,0,0,1,1.279.325,2.406,2.406,0,0,1,.911.9,2.709,2.709,0,0,1,.358,1.316l-4.37.849a1.884,1.884,0,0,0,.734,1.017,2.175,2.175,0,0,0,1.27.369,2.329,2.329,0,0,0,.915-.176" fill="#fff"/>
    <path id="Trazado_11403" data-name="Trazado 11403" d="M165.375,4541.768a2.557,2.557,0,0,1,1.24-.273v.7l-.172-.01a1.7,1.7,0,0,0-1.316.517,2.052,2.052,0,0,0-.475,1.446v2.711h-.719v-5.321h.688v1.041a1.747,1.747,0,0,1,.754-.808" fill="#fff"/>
    <path id="Trazado_11404" data-name="Trazado 11404" d="M172.295,4542.075a2.277,2.277,0,0,1,.593,1.695v3.086h-.719v-3.014a1.769,1.769,0,0,0-.415-1.266,1.562,1.562,0,0,0-1.184-.433,1.816,1.816,0,0,0-1.361.51,1.93,1.93,0,0,0-.5,1.411v2.792h-.719v-5.321h.688v.982a2,2,0,0,1,.815-.755,2.623,2.623,0,0,1,1.209-.268,2.18,2.18,0,0,1,1.593.581" fill="#fff"/>
    <path id="Trazado_11405" data-name="Trazado 11405" d="M178.031,4546.012a1.792,1.792,0,0,0,.7-.734,2.442,2.442,0,0,0,0-2.165,1.794,1.794,0,0,0-.7-.733,2.126,2.126,0,0,0-2.033,0,1.84,1.84,0,0,0-.709.733,2.408,2.408,0,0,0,0,2.165,1.838,1.838,0,0,0,.709.734,2.14,2.14,0,0,0,2.033,0m-2.4.547a2.549,2.549,0,0,1-.972-.967,2.937,2.937,0,0,1,0-2.792,2.519,2.519,0,0,1,.972-.962,2.974,2.974,0,0,1,2.772,0,2.49,2.49,0,0,1,.966.962,2.959,2.959,0,0,1,0,2.792,2.52,2.52,0,0,1-.966.967,2.933,2.933,0,0,1-2.772,0" fill="#fff"/>
    <path id="Trazado_11406" data-name="Trazado 11406" d="M187.014,4546.012a1.827,1.827,0,0,0,.71-.734,2.408,2.408,0,0,0,0-2.165,1.829,1.829,0,0,0-.71-.733,1.972,1.972,0,0,0-1.006-.259,2,2,0,0,0-1.016.259,1.827,1.827,0,0,0-.709.733,2.4,2.4,0,0,0,0,2.165,1.825,1.825,0,0,0,.709.734,2,2,0,0,0,1.016.257,1.981,1.981,0,0,0,1.006-.257m1.676-6.663v7.508H188v-1.052a2.177,2.177,0,0,1-.854.818,2.5,2.5,0,0,1-1.2.284,2.694,2.694,0,0,1-1.356-.344,2.443,2.443,0,0,1-.951-.962,3.045,3.045,0,0,1,0-2.812,2.428,2.428,0,0,1,.951-.956,2.741,2.741,0,0,1,1.356-.338,2.533,2.533,0,0,1,1.168.267,2.228,2.228,0,0,1,.855.784v-3.2Z" fill="#fff"/>
    <path id="Trazado_11407" data-name="Trazado 11407" d="M191.79,4542.369a1.809,1.809,0,0,0-.687.719,2.188,2.188,0,0,0-.249,1.058,1.735,1.735,0,0,0,.01.223l3.755-.73a1.865,1.865,0,0,0-.618-1.1,1.791,1.791,0,0,0-1.214-.429,1.947,1.947,0,0,0-1,.257m2.1,3.724a1.888,1.888,0,0,0,.713-.521l.4.465a2.3,2.3,0,0,1-.881.648,3.208,3.208,0,0,1-2.62-.126,2.514,2.514,0,0,1-.992-.967,2.756,2.756,0,0,1-.354-1.4,2.848,2.848,0,0,1,.339-1.4,2.462,2.462,0,0,1,.936-.962,2.666,2.666,0,0,1,1.356-.343,2.541,2.541,0,0,1,1.279.325,2.4,2.4,0,0,1,.91.9,2.721,2.721,0,0,1,.361,1.316l-4.371.849a1.882,1.882,0,0,0,.733,1.017,2.178,2.178,0,0,0,1.271.369,2.332,2.332,0,0,0,.915-.176" fill="#fff"/>
    <path id="Trazado_11408" data-name="Trazado 11408" d="M202.074,4546.533a1.4,1.4,0,0,1-.5.279,2.007,2.007,0,0,1-.618.094,1.407,1.407,0,0,1-1.557-1.547v-4.988h.718v1.164h1.609v.607h-1.609v3.177a1.027,1.027,0,0,0,.232.724.891.891,0,0,0,.678.248,1.131,1.131,0,0,0,.79-.276Z" fill="#fff"/>
    <path id="Trazado_11409" data-name="Trazado 11409" d="M206.571,4546.012a1.8,1.8,0,0,0,.7-.734,2.442,2.442,0,0,0,0-2.165,1.8,1.8,0,0,0-.7-.733,2.13,2.13,0,0,0-2.035,0,1.822,1.822,0,0,0-.707.733,2.392,2.392,0,0,0,0,2.165,1.82,1.82,0,0,0,.707.734,2.144,2.144,0,0,0,2.035,0m-2.4.547a2.549,2.549,0,0,1-.972-.967,2.93,2.93,0,0,1,0-2.792,2.519,2.519,0,0,1,.972-.962,2.971,2.971,0,0,1,2.771,0,2.477,2.477,0,0,1,.966.962,2.959,2.959,0,0,1,0,2.792,2.507,2.507,0,0,1-.966.967,2.931,2.931,0,0,1-2.771,0" fill="#fff"/>
    <path id="Trazado_11410" data-name="Trazado 11410" d="M212.9,4546.012a1.831,1.831,0,0,0,.709-.734,2.408,2.408,0,0,0,0-2.165,1.834,1.834,0,0,0-.709-.733,1.976,1.976,0,0,0-1.005-.259,2,2,0,0,0-1.018.259,1.831,1.831,0,0,0-.708.733,2.4,2.4,0,0,0,0,2.165,1.829,1.829,0,0,0,.708.734,2.012,2.012,0,0,0,1.018.257,1.985,1.985,0,0,0,1.005-.257m1.674-6.663v7.508h-.686v-1.052a2.189,2.189,0,0,1-.856.818,2.5,2.5,0,0,1-1.2.284,2.7,2.7,0,0,1-1.356-.344,2.45,2.45,0,0,1-.951-.962,3.053,3.053,0,0,1,0-2.812,2.435,2.435,0,0,1,.951-.956,2.744,2.744,0,0,1,1.356-.338,2.537,2.537,0,0,1,1.169.267,2.219,2.219,0,0,1,.854.784v-3.2Z" fill="#fff"/>
    <path id="Trazado_11411" data-name="Trazado 11411" d="M219.773,4546.012a1.792,1.792,0,0,0,.7-.734,2.442,2.442,0,0,0,0-2.165,1.794,1.794,0,0,0-.7-.733,2.128,2.128,0,0,0-2.034,0,1.822,1.822,0,0,0-.707.733,2.392,2.392,0,0,0,0,2.165,1.82,1.82,0,0,0,.707.734,2.142,2.142,0,0,0,2.034,0m-2.4.547a2.549,2.549,0,0,1-.972-.967,2.93,2.93,0,0,1,0-2.792,2.519,2.519,0,0,1,.972-.962,2.971,2.971,0,0,1,2.771,0,2.483,2.483,0,0,1,.966.962,2.959,2.959,0,0,1,0,2.792,2.513,2.513,0,0,1-.966.967,2.931,2.931,0,0,1-2.771,0" fill="#fff"/>
    <path id="Trazado_11412" data-name="Trazado 11412" d="M223.112,4546.72a2.7,2.7,0,0,1-.926-.47l.324-.567a2.7,2.7,0,0,0,.839.429,3.29,3.29,0,0,0,1.053.168,2.019,2.019,0,0,0,1.077-.227.729.729,0,0,0,.349-.643.578.578,0,0,0-.192-.461,1.271,1.271,0,0,0-.486-.252,6.872,6.872,0,0,0-.779-.167,8.679,8.679,0,0,1-1.042-.249,1.513,1.513,0,0,1-.673-.429,1.2,1.2,0,0,1-.278-.839,1.315,1.315,0,0,1,.557-1.094,2.5,2.5,0,0,1,1.547-.424,3.994,3.994,0,0,1,1.033.137,2.832,2.832,0,0,1,.849.358l-.313.577a2.686,2.686,0,0,0-1.569-.455,1.818,1.818,0,0,0-1.037.243.745.745,0,0,0-.349.637.632.632,0,0,0,.2.486,1.213,1.213,0,0,0,.492.267,7.311,7.311,0,0,0,.808.177,9.845,9.845,0,0,1,1.023.243,1.512,1.512,0,0,1,.657.416,1.134,1.134,0,0,1,.273.808,1.288,1.288,0,0,1-.582,1.109,2.763,2.763,0,0,1-1.613.409,4.072,4.072,0,0,1-1.239-.187" fill="#fff"/>
    <path id="Trazado_11413" data-name="Trazado 11413" d="M62.678,4541.892a3.4,3.4,0,0,1-2.412-1l-.244-.244a3.419,3.419,0,0,1,0-4.823l5.718-5.719,5.068,5.068-5.719,5.718a3.4,3.4,0,0,1-2.411,1m13.2-11.781-5.069-5.067,5.719-5.718a3.418,3.418,0,0,1,4.824,0l.244.244a3.421,3.421,0,0,1,0,4.823l-5.718,5.718" fill="#cbd6eb"/>
    <path id="Trazado_11414" data-name="Trazado 11414" d="M78.938,4541.892a3.4,3.4,0,0,1-2.411-1l-5.719-5.718,5.069-5.068,5.718,5.719a3.421,3.421,0,0,1,0,4.823l-.244.244a3.4,3.4,0,0,1-2.413,1m-13.2-11.781-5.719-5.718a3.421,3.421,0,0,1,0-4.823l.245-.244a3.416,3.416,0,0,1,4.822,0l5.719,5.718-5.067,5.067" fill="#dee3ef"/>
    <rect id="Rectángulo_3687" data-name="Rectángulo 3687" width="7.167" height="7.167" transform="translate(65.741 4530.111) rotate(-44.996)" fill="#f6f7f9"/>
  </g>
</svg>
