<svg xmlns="http://www.w3.org/2000/svg" width="323" height="38.428" viewBox="0 0 323 38.428">
  <g id="footerImgBg" transform="translate(1 -1899.157)">
    <rect id="Rectángulo_479" data-name="Rectángulo 479" width="323" height="38.428" transform="translate(-1 1899.157)" fill="#f2f2f2"/>
    <g id="Grupo_497" data-name="Grupo 497">
      <g id="Grupo_444" data-name="Grupo 444">
        <g id="Grupo_442" data-name="Grupo 442">
          <path id="Trazado_2289" data-name="Trazado 2289" d="M129.065,1914.022v2.475h-.251v-1.98l-.972,1.666h-.124l-.972-1.655v1.969h-.251v-2.475h.215l1.075,1.835,1.064-1.835Z" fill="#333"/>
          <path id="Trazado_2290" data-name="Trazado 2290" d="M129.818,1914.637h.251v1.859h-.251v-1.859Zm0-.46a.173.173,0,0,1-.053-.127.169.169,0,0,1,.053-.123.177.177,0,0,1,.131-.054.179.179,0,0,1,.131.052.164.164,0,0,1,.053.121.179.179,0,0,1-.053.131.188.188,0,0,1-.262,0Z" fill="#333"/>
          <path id="Trazado_2291" data-name="Trazado 2291" d="M132.273,1914.826a.794.794,0,0,1,.207.592v1.078h-.251v-1.053a.62.62,0,0,0-.145-.442.548.548,0,0,0-.414-.152.634.634,0,0,0-.475.179.672.672,0,0,0-.175.493v.975h-.251v-1.859h.24v.343a.693.693,0,0,1,.284-.263.909.909,0,0,1,.423-.094.761.761,0,0,1,.557.2Z" fill="#333"/>
          <path id="Trazado_2292" data-name="Trazado 2292" d="M133.162,1914.637h.251v1.859h-.251v-1.859Zm0-.46a.173.173,0,0,1-.053-.127.169.169,0,0,1,.053-.123.177.177,0,0,1,.131-.054.179.179,0,0,1,.131.052.164.164,0,0,1,.053.121.179.179,0,0,1-.053.131.188.188,0,0,1-.262,0Z" fill="#333"/>
          <path id="Trazado_2293" data-name="Trazado 2293" d="M134.178,1916.449a.954.954,0,0,1-.323-.164l.113-.2a.953.953,0,0,0,.293.151,1.2,1.2,0,0,0,.368.058.7.7,0,0,0,.377-.079.255.255,0,0,0,.121-.225.2.2,0,0,0-.067-.161.433.433,0,0,0-.169-.088,2.536,2.536,0,0,0-.273-.059,3.174,3.174,0,0,1-.364-.086.531.531,0,0,1-.235-.151.415.415,0,0,1-.1-.293.462.462,0,0,1,.194-.382.88.88,0,0,1,.541-.148,1.4,1.4,0,0,1,.361.048.973.973,0,0,1,.3.125l-.11.2a.932.932,0,0,0-.548-.16.638.638,0,0,0-.362.085.261.261,0,0,0-.122.223.221.221,0,0,0,.069.17.429.429,0,0,0,.171.093,2.527,2.527,0,0,0,.283.062,3.416,3.416,0,0,1,.357.085.525.525,0,0,1,.23.145.4.4,0,0,1,.1.283.451.451,0,0,1-.2.387.97.97,0,0,1-.564.143,1.413,1.413,0,0,1-.433-.065Z" fill="#333"/>
          <path id="Trazado_2294" data-name="Trazado 2294" d="M136.821,1916.383a.48.48,0,0,1-.175.1.717.717,0,0,1-.218.033.548.548,0,0,1-.4-.141.542.542,0,0,1-.141-.4v-1.124h-.332v-.212h.332v-.407h.251v.407h.566v.212h-.566v1.11a.354.354,0,0,0,.083.253.314.314,0,0,0,.239.087.482.482,0,0,0,.15-.025.375.375,0,0,0,.125-.071l.089.18Z" fill="#333"/>
          <path id="Trazado_2295" data-name="Trazado 2295" d="M137.547,1915.01a.67.67,0,0,0-.206.447h1.318a.671.671,0,0,0-.207-.447.681.681,0,0,0-.9,0Zm1.349.634h-1.555a.665.665,0,0,0,.222.469.738.738,0,0,0,.509.178.8.8,0,0,0,.318-.061.7.7,0,0,0,.251-.182l.142.162a.805.805,0,0,1-.309.226,1.046,1.046,0,0,1-.409.078,1.022,1.022,0,0,1-.507-.122.88.88,0,0,1-.345-.337.97.97,0,0,1-.123-.488,1,1,0,0,1,.118-.488.855.855,0,0,1,.325-.336.909.909,0,0,1,.465-.12.9.9,0,0,1,.463.12.855.855,0,0,1,.322.334,1,1,0,0,1,.116.49l0,.077Z" fill="#333"/>
          <path id="Trazado_2296" data-name="Trazado 2296" d="M139.916,1914.718a.9.9,0,0,1,.433-.095v.244l-.06,0a.6.6,0,0,0-.46.18.718.718,0,0,0-.166.506v.947h-.251v-1.859h.24V1915a.61.61,0,0,1,.264-.283Z" fill="#333"/>
          <path id="Trazado_2297" data-name="Trazado 2297" d="M140.83,1914.637h.251v1.859h-.251v-1.859Zm0-.46a.173.173,0,0,1-.053-.127.169.169,0,0,1,.053-.123.177.177,0,0,1,.131-.054.179.179,0,0,1,.131.052.164.164,0,0,1,.053.121.179.179,0,0,1-.053.131.188.188,0,0,1-.262,0Z" fill="#333"/>
          <path id="Trazado_2298" data-name="Trazado 2298" d="M142.9,1916.2a.633.633,0,0,0,.246-.256.858.858,0,0,0,0-.757.638.638,0,0,0-.246-.256.747.747,0,0,0-.711,0,.641.641,0,0,0-.247.256.841.841,0,0,0,0,.757.635.635,0,0,0,.247.256.747.747,0,0,0,.711,0Zm-.84.191a.885.885,0,0,1-.339-.337,1.022,1.022,0,0,1,0-.976.876.876,0,0,1,.339-.336,1.038,1.038,0,0,1,.969,0,.866.866,0,0,1,.338.336,1.037,1.037,0,0,1,0,.976.876.876,0,0,1-.338.337,1.023,1.023,0,0,1-.969,0Z" fill="#333"/>
          <path id="Trazado_2299" data-name="Trazado 2299" d="M146.035,1916.2a.644.644,0,0,0,.248-.256.841.841,0,0,0,0-.757.65.65,0,0,0-.248-.256.694.694,0,0,0-.351-.09.7.7,0,0,0-.356.09.641.641,0,0,0-.247.256.833.833,0,0,0,0,.757.635.635,0,0,0,.247.256.706.706,0,0,0,.356.09.7.7,0,0,0,.351-.09Zm.585-2.328v2.623h-.24v-.367a.767.767,0,0,1-.3.286.877.877,0,0,1-.419.1.949.949,0,0,1-.474-.12.858.858,0,0,1-.332-.336,1.067,1.067,0,0,1,0-.983.853.853,0,0,1,.332-.334.958.958,0,0,1,.474-.118.877.877,0,0,1,.409.094.771.771,0,0,1,.3.273v-1.117Z" fill="#333"/>
          <path id="Trazado_2300" data-name="Trazado 2300" d="M147.591,1915.01a.667.667,0,0,0-.207.447H148.7a.676.676,0,0,0-.207-.447.64.64,0,0,0-.455-.172.633.633,0,0,0-.45.172Zm1.349.634h-1.556a.662.662,0,0,0,.223.469.738.738,0,0,0,.509.178.808.808,0,0,0,.318-.061.7.7,0,0,0,.251-.182l.141.162a.8.8,0,0,1-.309.226,1.045,1.045,0,0,1-.408.078,1.026,1.026,0,0,1-.508-.122.88.88,0,0,1-.345-.337.97.97,0,0,1-.123-.488,1,1,0,0,1,.118-.488.857.857,0,0,1,.326-.336.955.955,0,0,1,.927,0,.855.855,0,0,1,.322.334,1,1,0,0,1,.117.49l0,.077Z" fill="#333"/>
          <path id="Trazado_2301" data-name="Trazado 2301" d="M128.679,1919.909a.665.665,0,0,0,0-.955.9.9,0,0,0-.588-.167h-.7v1.289h.7a.9.9,0,0,0,.588-.167Zm.316-1.657a1.271,1.271,0,0,1,.559.466,1.394,1.394,0,0,1,0,1.429,1.248,1.248,0,0,1-.559.467,2.086,2.086,0,0,1-.857.162h-.747v1.023h-.859v-3.712h1.606a2.054,2.054,0,0,1,.857.165Z" fill="#333"/>
          <path id="Trazado_2302" data-name="Trazado 2302" d="M131.413,1919.01a1.482,1.482,0,0,1,.581-.107v.764c-.092-.007-.154-.01-.186-.01a.758.758,0,0,0-.557.2.8.8,0,0,0-.2.6v1.347h-.828v-2.853h.791v.377a.915.915,0,0,1,.4-.313Z" fill="#333"/>
          <path id="Trazado_2303" data-name="Trazado 2303" d="M134.255,1920.948a.914.914,0,0,0,0-1.151.689.689,0,0,0-.522-.215.7.7,0,0,0-.525.215.9.9,0,0,0,0,1.151.7.7,0,0,0,.525.215.689.689,0,0,0,.522-.215Zm-1.331.7a1.387,1.387,0,0,1-.559-.522,1.525,1.525,0,0,1,0-1.517,1.394,1.394,0,0,1,.559-.522,1.819,1.819,0,0,1,1.615,0,1.408,1.408,0,0,1,.557.522,1.532,1.532,0,0,1,0,1.517,1.4,1.4,0,0,1-.557.522,1.828,1.828,0,0,1-1.615,0Z" fill="#333"/>
          <path id="Trazado_2304" data-name="Trazado 2304" d="M137.6,1920.948a.9.9,0,0,0,0-1.151.741.741,0,0,0-1.044,0,.9.9,0,0,0,0,1.151.741.741,0,0,0,1.044,0Zm1.018-3.084v3.935h-.79v-.329a1.089,1.089,0,0,1-.891.371,1.486,1.486,0,0,1-.729-.18,1.3,1.3,0,0,1-.512-.514,1.714,1.714,0,0,1,0-1.549,1.292,1.292,0,0,1,.512-.514,1.487,1.487,0,0,1,.729-.181,1.089,1.089,0,0,1,.854.345v-1.384Z" fill="#333"/>
          <path id="Trazado_2305" data-name="Trazado 2305" d="M142.127,1918.946v2.853h-.785v-.339a1.093,1.093,0,0,1-.392.283,1.355,1.355,0,0,1-1.384-.225,1.291,1.291,0,0,1-.329-.96v-1.612h.827v1.49q0,.69.578.69a.623.623,0,0,0,.478-.194.817.817,0,0,0,.18-.575v-1.411Z" fill="#333"/>
          <path id="Trazado_2306" data-name="Trazado 2306" d="M143.323,1921.653a1.4,1.4,0,0,1-.567-.522,1.506,1.506,0,0,1,0-1.517,1.409,1.409,0,0,1,.567-.522,1.746,1.746,0,0,1,.819-.189,1.583,1.583,0,0,1,.788.189,1.121,1.121,0,0,1,.491.538l-.642.345a.7.7,0,0,0-.642-.393.725.725,0,0,0-.535.212.892.892,0,0,0,0,1.157.725.725,0,0,0,.535.212.694.694,0,0,0,.642-.393l.642.35a1.141,1.141,0,0,1-.491.531,1.575,1.575,0,0,1-.788.19,1.745,1.745,0,0,1-.819-.188Z" fill="#333"/>
          <path id="Trazado_2307" data-name="Trazado 2307" d="M146.324,1921.653a1.4,1.4,0,0,1-.567-.522,1.512,1.512,0,0,1,0-1.517,1.409,1.409,0,0,1,.567-.522,1.753,1.753,0,0,1,.82-.189,1.58,1.58,0,0,1,.787.189,1.116,1.116,0,0,1,.491.538l-.642.345a.7.7,0,0,0-.641-.393.727.727,0,0,0-.536.212.9.9,0,0,0,0,1.157.727.727,0,0,0,.536.212.693.693,0,0,0,.641-.393l.642.35a1.136,1.136,0,0,1-.491.531,1.571,1.571,0,0,1-.787.19,1.752,1.752,0,0,1-.82-.188Z" fill="#333"/>
          <path id="Trazado_2308" data-name="Trazado 2308" d="M148.766,1918.946h.828v2.853h-.828v-2.853Zm.043-.53a.45.45,0,0,1,0-.658.525.525,0,0,1,.371-.133.536.536,0,0,1,.371.128.407.407,0,0,1,.144.318.448.448,0,0,1-.144.342.518.518,0,0,1-.371.135.525.525,0,0,1-.371-.132Z" fill="#333"/>
          <path id="Trazado_2309" data-name="Trazado 2309" d="M151.811,1917.817h.89l-.959.763H151.1l.716-.763Zm.3,3.131a.914.914,0,0,0,0-1.151.689.689,0,0,0-.522-.215.7.7,0,0,0-.525.215.9.9,0,0,0,0,1.151.7.7,0,0,0,.525.215.689.689,0,0,0,.522-.215Zm-1.331.7a1.387,1.387,0,0,1-.559-.522,1.525,1.525,0,0,1,0-1.517,1.394,1.394,0,0,1,.559-.522,1.819,1.819,0,0,1,1.615,0,1.408,1.408,0,0,1,.557.522,1.532,1.532,0,0,1,0,1.517,1.4,1.4,0,0,1-.557.522,1.828,1.828,0,0,1-1.615,0Z" fill="#333"/>
          <path id="Trazado_2310" data-name="Trazado 2310" d="M156.161,1919.222a1.259,1.259,0,0,1,.326.944v1.633h-.827v-1.506a.742.742,0,0,0-.148-.506.543.543,0,0,0-.43-.168.659.659,0,0,0-.5.194.8.8,0,0,0-.186.575v1.411h-.827v-2.853h.79v.334a1.1,1.1,0,0,1,.408-.278,1.437,1.437,0,0,1,.536-.1,1.174,1.174,0,0,1,.856.319Z" fill="#333"/>
          <path id="Trazado_2311" data-name="Trazado 2311" d="M157.787,1920.953a.5.5,0,0,1,.143.368.859.859,0,0,1-.027.213,2.305,2.305,0,0,1-.116.318l-.3.764h-.525l.234-.843a.434.434,0,0,1-.21-.173.5.5,0,0,1-.077-.279.49.49,0,0,1,.146-.368.512.512,0,0,1,.369-.14.5.5,0,0,1,.366.14Z" fill="#333"/>
          <path id="Trazado_2312" data-name="Trazado 2312" d="M159.786,1918.087h.859v3.712h-.859v-3.712Z" fill="#333"/>
          <path id="Trazado_2313" data-name="Trazado 2313" d="M163.924,1919.222a1.26,1.26,0,0,1,.327.944v1.633h-.828v-1.506a.742.742,0,0,0-.148-.506.543.543,0,0,0-.43-.168.657.657,0,0,0-.5.194.8.8,0,0,0-.186.575v1.411h-.827v-2.853h.79v.334a1.1,1.1,0,0,1,.408-.278,1.433,1.433,0,0,1,.536-.1,1.174,1.174,0,0,1,.856.319Z" fill="#333"/>
          <path id="Trazado_2314" data-name="Trazado 2314" d="M166.753,1920.948a.9.9,0,0,0,0-1.151.69.69,0,0,0-.519-.215.7.7,0,0,0-.525.215.9.9,0,0,0,0,1.151.7.7,0,0,0,.525.215.69.69,0,0,0,.519-.215Zm1.018-3.084v3.935h-.79v-.329a1.089,1.089,0,0,1-.891.371,1.48,1.48,0,0,1-.728-.18,1.285,1.285,0,0,1-.512-.514,1.705,1.705,0,0,1,0-1.549,1.279,1.279,0,0,1,.512-.514,1.48,1.48,0,0,1,.728-.181,1.087,1.087,0,0,1,.854.345v-1.384Z" fill="#333"/>
          <path id="Trazado_2315" data-name="Trazado 2315" d="M171.277,1918.946v2.853h-.785v-.339a1.111,1.111,0,0,1-.392.283,1.229,1.229,0,0,1-.494.1,1.214,1.214,0,0,1-.891-.323,1.291,1.291,0,0,1-.328-.96v-1.612h.827v1.49q0,.69.578.69a.621.621,0,0,0,.477-.194.817.817,0,0,0,.18-.575v-1.411Z" fill="#333"/>
          <path id="Trazado_2316" data-name="Trazado 2316" d="M172.178,1921.754a1.83,1.83,0,0,1-.541-.22l.276-.594a1.766,1.766,0,0,0,.461.2,1.958,1.958,0,0,0,.531.077q.525,0,.525-.26a.183.183,0,0,0-.144-.175,2.146,2.146,0,0,0-.44-.09,4.2,4.2,0,0,1-.578-.122.906.906,0,0,1-.4-.244.7.7,0,0,1-.167-.5.773.773,0,0,1,.157-.479,1,1,0,0,1,.456-.327,1.962,1.962,0,0,1,.708-.117,2.8,2.8,0,0,1,.6.067,1.677,1.677,0,0,1,.495.183l-.275.589a1.643,1.643,0,0,0-.822-.212.83.83,0,0,0-.4.074.217.217,0,0,0-.132.19.188.188,0,0,0,.143.186,2.563,2.563,0,0,0,.456.1,4.938,4.938,0,0,1,.572.124.86.86,0,0,1,.387.242.682.682,0,0,1,.165.488.753.753,0,0,1-.159.472,1.024,1.024,0,0,1-.464.321,2.1,2.1,0,0,1-.724.113,2.793,2.793,0,0,1-.7-.087Z" fill="#333"/>
          <path id="Trazado_2317" data-name="Trazado 2317" d="M176.436,1921.661a.85.85,0,0,1-.3.135,1.474,1.474,0,0,1-.374.045,1.112,1.112,0,0,1-.788-.259,1,1,0,0,1-.278-.764v-1.172h-.44v-.636h.44v-.7h.827v.7h.711v.636h-.711v1.161a.389.389,0,0,0,.093.279.346.346,0,0,0,.263.1.531.531,0,0,0,.334-.106l.222.583Z" fill="#333"/>
          <path id="Trazado_2318" data-name="Trazado 2318" d="M177.961,1919.01a1.479,1.479,0,0,1,.581-.107v.764c-.093-.007-.154-.01-.186-.01a.757.757,0,0,0-.557.2.8.8,0,0,0-.2.6v1.347h-.828v-2.853h.79v.377a.93.93,0,0,1,.4-.313Z" fill="#333"/>
          <path id="Trazado_2319" data-name="Trazado 2319" d="M178.923,1918.946h.828v2.853h-.828v-2.853Zm.043-.53a.448.448,0,0,1,0-.658.525.525,0,0,1,.371-.133.536.536,0,0,1,.371.128.406.406,0,0,1,.143.318.448.448,0,0,1-.143.342.517.517,0,0,1-.371.135.525.525,0,0,1-.371-.132Z" fill="#333"/>
          <path id="Trazado_2320" data-name="Trazado 2320" d="M181.85,1921.187a.538.538,0,0,0,.234-.29v-.291h-.568q-.509,0-.509.334a.3.3,0,0,0,.125.252.56.56,0,0,0,.342.093.722.722,0,0,0,.376-.1Zm.706-1.968a1.207,1.207,0,0,1,.355.952v1.628h-.774v-.355a.923.923,0,0,1-.87.4,1.355,1.355,0,0,1-.57-.111.849.849,0,0,1-.369-.308.8.8,0,0,1-.127-.445.744.744,0,0,1,.3-.626,1.525,1.525,0,0,1,.925-.228h.658a.527.527,0,0,0-.165-.416.724.724,0,0,0-.493-.146,1.431,1.431,0,0,0-.448.072,1.2,1.2,0,0,0-.374.193l-.3-.578a1.8,1.8,0,0,1,.56-.254,2.5,2.5,0,0,1,.67-.091,1.488,1.488,0,0,1,1.019.316Z" fill="#333"/>
          <path id="Trazado_2321" data-name="Trazado 2321" d="M187.726,1918.946l-1.289,3.028a1.476,1.476,0,0,1-.485.694,1.184,1.184,0,0,1-.7.2,1.443,1.443,0,0,1-.44-.069.966.966,0,0,1-.356-.191l.3-.588a.735.735,0,0,0,.221.133.7.7,0,0,0,.246.047.437.437,0,0,0,.276-.082.693.693,0,0,0,.191-.273l.011-.027-1.236-2.874h.854l.8,1.936.806-1.936Z" fill="#333"/>
          <path id="Trazado_2322" data-name="Trazado 2322" d="M192.233,1921.11v.689h-2.874v-3.712h2.805v.689h-1.951v.806h1.723v.668h-1.723v.859Z" fill="#333"/>
          <path id="Trazado_2323" data-name="Trazado 2323" d="M197.232,1919.219a1.287,1.287,0,0,1,.315.947v1.633h-.828v-1.506a.77.77,0,0,0-.14-.506.492.492,0,0,0-.4-.168.59.59,0,0,0-.461.189.811.811,0,0,0-.169.559v1.432h-.828v-1.506q0-.673-.541-.674a.58.58,0,0,0-.455.189.806.806,0,0,0-.17.559v1.432h-.828v-2.853h.791v.329a1.038,1.038,0,0,1,.389-.276,1.327,1.327,0,0,1,.507-.1,1.233,1.233,0,0,1,.546.12.967.967,0,0,1,.392.347,1.171,1.171,0,0,1,.443-.344,1.39,1.39,0,0,1,.587-.123,1.154,1.154,0,0,1,.851.316Z" fill="#333"/>
          <path id="Trazado_2324" data-name="Trazado 2324" d="M200.222,1920.948a.914.914,0,0,0,0-1.151.741.741,0,0,0-1.044,0,.91.91,0,0,0,0,1.151.741.741,0,0,0,1.044,0Zm.345-1.861a1.311,1.311,0,0,1,.512.514,1.7,1.7,0,0,1,0,1.543,1.311,1.311,0,0,1-.512.514,1.455,1.455,0,0,1-.724.183,1.1,1.1,0,0,1-.859-.344v1.331h-.827v-3.882h.79v.329a1.1,1.1,0,0,1,.9-.372,1.456,1.456,0,0,1,.724.184Z" fill="#333"/>
          <path id="Trazado_2325" data-name="Trazado 2325" d="M201.683,1917.864h.827v3.935h-.827v-3.935Z" fill="#333"/>
          <path id="Trazado_2326" data-name="Trazado 2326" d="M203.99,1919.689a.671.671,0,0,0-.234.434h1.4a.684.684,0,0,0-.233-.432.7.7,0,0,0-.466-.161.706.706,0,0,0-.472.159Zm1.935.917h-2.158a.672.672,0,0,0,.275.419.912.912,0,0,0,.541.154,1.074,1.074,0,0,0,.4-.067.959.959,0,0,0,.321-.209l.44.477a1.475,1.475,0,0,1-1.177.461,1.859,1.859,0,0,1-.854-.188,1.373,1.373,0,0,1-.572-.522,1.433,1.433,0,0,1-.2-.758,1.462,1.462,0,0,1,.2-.756,1.392,1.392,0,0,1,.546-.525,1.684,1.684,0,0,1,1.535-.008,1.307,1.307,0,0,1,.533.517,1.541,1.541,0,0,1,.194.782c0,.011,0,.085-.016.223Z" fill="#333"/>
          <path id="Trazado_2327" data-name="Trazado 2327" d="M208.24,1920.948a.914.914,0,0,0,0-1.151.689.689,0,0,0-.522-.215.7.7,0,0,0-.526.215.907.907,0,0,0,0,1.151.7.7,0,0,0,.526.215.689.689,0,0,0,.522-.215Zm-1.331.7a1.387,1.387,0,0,1-.559-.522,1.525,1.525,0,0,1,0-1.517,1.394,1.394,0,0,1,.559-.522,1.819,1.819,0,0,1,1.615,0,1.406,1.406,0,0,1,.556.522,1.525,1.525,0,0,1,0,1.517,1.4,1.4,0,0,1-.556.522,1.828,1.828,0,0,1-1.615,0Z" fill="#333"/>
        </g>
        <g id="Grupo_443" data-name="Grupo 443">
          <path id="Trazado_2328" data-name="Trazado 2328" d="M113.956,1922.488a1.184,1.184,0,0,1-.842-.347l-.086-.086a1.2,1.2,0,0,1,0-1.685l2-2,1.77,1.771-2,2a1.186,1.186,0,0,1-.843.347m4.613-4.116L116.8,1916.6l2-2a1.194,1.194,0,0,1,1.685,0l.086.085a1.2,1.2,0,0,1,0,1.686l-2,2" fill="#78bc56"/>
          <path id="Trazado_2329" data-name="Trazado 2329" d="M119.638,1922.488a1.184,1.184,0,0,1-.842-.347l-2-2,1.772-1.771,2,2a1.2,1.2,0,0,1,0,1.685l-.086.086a1.186,1.186,0,0,1-.843.347m-4.611-4.116-2-2a1.2,1.2,0,0,1,0-1.686l.086-.085a1.194,1.194,0,0,1,1.685,0l2,2-1.77,1.771" fill="#60c3db"/>
          <path id="Trazado_2330" data-name="Trazado 2330" d="M116.8,1920.143l-1.771-1.771,1.771-1.771,1.771,1.771-1.771,1.771" fill="#2e9d5c"/>
        </g>
      </g>
      <g id="Grupo_445" data-name="Grupo 445">
        <path id="Trazado_2331" data-name="Trazado 2331" d="M242.954,1920.873h.169v1.2h-.159v-.242a1.144,1.144,0,0,1-.756.259,1.176,1.176,0,0,1-1.212-1.222,1.212,1.212,0,0,1,1.267-1.23,1.182,1.182,0,0,1,.87.332l-.11.117a1.02,1.02,0,0,0-.756-.286,1.053,1.053,0,0,0-1.1,1.067,1.025,1.025,0,0,0,1.046,1.063,1.039,1.039,0,0,0,.736-.29v-.767Z" fill="#333"/>
        <path id="Trazado_2332" data-name="Trazado 2332" d="M245.271,1921.17a.726.726,0,1,0-.725.76.715.715,0,0,0,.725-.76Zm-1.627,0a.9.9,0,1,1,.9.916.879.879,0,0,1-.9-.916Z" fill="#333"/>
        <path id="Trazado_2333" data-name="Trazado 2333" d="M247.6,1921.17a.728.728,0,1,0-.728.76.717.717,0,0,0,.728-.76Zm.173,0a.874.874,0,0,1-.891.916.807.807,0,0,1-.739-.439v.425h-.166v-2.562h.173v1.17a.807.807,0,0,1,.732-.425.872.872,0,0,1,.891.915Z" fill="#333"/>
        <path id="Trazado_2334" data-name="Trazado 2334" d="M248.313,1920.269h.173v1.8h-.173v-1.8Zm-.055-.576a.142.142,0,0,1,.142-.142.14.14,0,1,1-.142.142Z" fill="#333"/>
        <path id="Trazado_2335" data-name="Trazado 2335" d="M249.187,1921.157c0,.034,0,.073.006.107l1.375-.269a.672.672,0,0,0-.673-.588.7.7,0,0,0-.708.75Zm1.343.521.1.114a.856.856,0,0,1-.68.294.887.887,0,0,1-.932-.916.862.862,0,0,1,.877-.915.839.839,0,0,1,.845.84l-1.522.3a.777.777,0,0,0,1.312.286Z" fill="#333"/>
        <path id="Trazado_2336" data-name="Trazado 2336" d="M252.129,1920.255v.17l-.042,0a.623.623,0,0,0-.639.712v.939h-.172v-1.8h.166v.394a.684.684,0,0,1,.687-.408Z" fill="#333"/>
        <path id="Trazado_2337" data-name="Trazado 2337" d="M254.218,1921.019v1.053h-.173v-1.039a.546.546,0,0,0-.583-.622.643.643,0,0,0-.684.7v.96H252.6v-1.8h.166v.391a.743.743,0,0,1,.715-.405.685.685,0,0,1,.732.764Z" fill="#333"/>
        <path id="Trazado_2338" data-name="Trazado 2338" d="M256.362,1921.17a.726.726,0,1,0-.725.76.714.714,0,0,0,.725-.76Zm-1.626,0a.9.9,0,1,1,.9.916.878.878,0,0,1-.9-.916Z" fill="#333"/>
        <path id="Trazado_2339" data-name="Trazado 2339" d="M259.391,1921.17a.726.726,0,1,0-.725.76.715.715,0,0,0,.725-.76Zm.172-1.66v2.562h-.168v-.425a.8.8,0,0,1-.74.439.916.916,0,0,1,0-1.831.81.81,0,0,1,.736.432v-1.177Z" fill="#333"/>
        <path id="Trazado_2340" data-name="Trazado 2340" d="M260.264,1921.157c0,.034,0,.073.007.107l1.375-.269a.673.673,0,0,0-.674-.588.7.7,0,0,0-.708.75Zm1.344.521.1.114a.856.856,0,0,1-.68.294.888.888,0,0,1-.933-.916.863.863,0,0,1,.877-.915.84.84,0,0,1,.846.84l-1.522.3a.777.777,0,0,0,1.312.286Z" fill="#333"/>
        <path id="Trazado_2341" data-name="Trazado 2341" d="M264.08,1921.958a.549.549,0,0,1-.369.128.448.448,0,0,1-.491-.491v-1.719h.173v.393h.573v.149h-.573v1.16c0,.232.114.359.335.359a.419.419,0,0,0,.28-.1l.072.121Z" fill="#333"/>
        <path id="Trazado_2342" data-name="Trazado 2342" d="M265.924,1921.17a.726.726,0,1,0-.725.76.714.714,0,0,0,.725-.76Zm-1.626,0a.9.9,0,1,1,.9.916.878.878,0,0,1-.9-.916Z" fill="#333"/>
        <path id="Trazado_2343" data-name="Trazado 2343" d="M268.065,1921.17a.726.726,0,1,0-.725.76.715.715,0,0,0,.725-.76Zm.173-1.66v2.562h-.17v-.425a.8.8,0,0,1-.739.439.916.916,0,0,1,0-1.831.81.81,0,0,1,.736.432v-1.177Z" fill="#333"/>
        <path id="Trazado_2344" data-name="Trazado 2344" d="M270.4,1921.17a.726.726,0,1,0-.725.76.715.715,0,0,0,.725-.76Zm-1.626,0a.9.9,0,1,1,.9.916.878.878,0,0,1-.9-.916Z" fill="#333"/>
        <path id="Trazado_2345" data-name="Trazado 2345" d="M270.841,1921.854l.08-.138a1.044,1.044,0,0,0,.649.218c.38,0,.532-.135.532-.339,0-.525-1.195-.138-1.195-.846,0-.273.228-.494.684-.494a1.108,1.108,0,0,1,.618.177l-.079.138a.93.93,0,0,0-.543-.163c-.352,0-.507.145-.507.339,0,.542,1.194.159,1.194.846,0,.293-.251.494-.711.494a1.128,1.128,0,0,1-.722-.232Z" fill="#333"/>
        <path id="Trazado_2346" data-name="Trazado 2346" d="M240.6,1916.585a1.921,1.921,0,0,1,2.042-1.931,1.963,1.963,0,0,1,1.6.7l-.668.6a1.1,1.1,0,0,0-.875-.435,1.061,1.061,0,0,0,0,2.121,1.1,1.1,0,0,0,.875-.435l.668.6a1.963,1.963,0,0,1-1.6.7,1.92,1.92,0,0,1-2.042-1.93Z" fill="#333"/>
        <path id="Trazado_2347" data-name="Trazado 2347" d="M248.233,1914.729v3.712h-1.05v-1.448h-1.432v1.448H244.7v-3.712h1.05v1.395h1.432v-1.395Z" fill="#333"/>
        <path id="Trazado_2348" data-name="Trazado 2348" d="M251.155,1916.945l-.477-1.188-.478,1.188Zm.307.774h-1.569l-.292.722H248.53l1.639-3.713H251.2l1.644,3.713h-1.092l-.292-.722Z" fill="#333"/>
        <path id="Trazado_2349" data-name="Trazado 2349" d="M252.9,1916.585a1.92,1.92,0,0,1,2.041-1.931,1.963,1.963,0,0,1,1.6.7l-.668.6a1.1,1.1,0,0,0-.876-.435,1.061,1.061,0,0,0,0,2.121,1.1,1.1,0,0,0,.876-.435l.668.6a1.964,1.964,0,0,1-1.6.7,1.92,1.92,0,0,1-2.041-1.93Z" fill="#333"/>
        <path id="Trazado_2350" data-name="Trazado 2350" d="M259.8,1916.585a1,1,0,1,0-1,1.06.994.994,0,0,0,1-1.06Zm-3.065,0a2.068,2.068,0,1,1,2.063,1.93,1.941,1.941,0,0,1-2.063-1.93Z" fill="#333"/>
        <path id="Trazado_2351" data-name="Trazado 2351" d="M232.9,1912.181v0l-.008-.024.009.021Zm1.884,1.391a1.319,1.319,0,0,0,.382-.107.288.288,0,0,1,.271.017.511.511,0,0,0-.343-.154c-.183.012-.387-.008-.424-.064l.665-.337-.678.019a1.321,1.321,0,0,0,.285-.274.294.294,0,0,1,.248-.114.521.521,0,0,0-.376.027c-.152.1-.319.17-.382.143l0,0,.468-.576-.6.313a1.325,1.325,0,0,0,.138-.371.284.284,0,0,1,.173-.21.513.513,0,0,0-.327.187c-.1.155-.217.3-.285.3l.193-.728-.445.551a.6.6,0,0,0,.017-.435.279.279,0,0,1,.075-.262.518.518,0,0,0-.224.3c-.028.181-.06.336-.123.36l-.163-.7-.168.671c-.062-.027-.091-.15-.11-.332a.516.516,0,0,0-.209-.313.28.28,0,0,1,.062.266.644.644,0,0,0-.015.41l-.432-.529.194.727c-.068,0-.189-.139-.286-.294a.515.515,0,0,0-.326-.188.291.291,0,0,1,.172.21,1.346,1.346,0,0,0,.139.371l-.6-.313.469.576,0,0c-.062.028-.23-.047-.383-.142a.515.515,0,0,0-.375-.028.291.291,0,0,1,.247.114,1.321,1.321,0,0,0,.285.274l-.677-.019.664.338c-.037.056-.241.076-.423.063a.515.515,0,0,0-.344.154.293.293,0,0,1,.272-.017,1.347,1.347,0,0,0,.381.107l-.607.3.762-.031c-.011.068-.2.191-.37.256a.516.516,0,0,0-.248.283.288.288,0,0,1,.24-.128,1.044,1.044,0,0,0,.345-.035l-.362.553.615-.3-.015.026a.461.461,0,0,1-.173.28.519.519,0,0,0-.148.347.288.288,0,0,1,.189-.2,1.125,1.125,0,0,0,.337-.15.654.654,0,0,0,.151-.155,1.29,1.29,0,0,0,1.5,0,.688.688,0,0,0,.154.159,1.125,1.125,0,0,0,.337.15.29.29,0,0,1,.189.2.519.519,0,0,0-.148-.347.461.461,0,0,1-.173-.28l-.007-.02.6.3-.359-.549a1.082,1.082,0,0,0,.333.031.29.29,0,0,1,.24.128.521.521,0,0,0-.248-.283c-.171-.065-.357-.18-.367-.248l.761.03-.607-.3Z" fill="#febd2c"/>
        <path id="Trazado_2352" data-name="Trazado 2352" d="M236.437,1918.7c-.023,2.288-1.431,4.133-3.164,4.133s-3.141-1.846-3.164-4.133Z" fill="#fff" fill-rule="evenodd"/>
        <path id="Trazado_2353" data-name="Trazado 2353" d="M230.163,1918.7c.023-2.18,1.407-3.938,3.113-3.938s3.09,1.758,3.113,3.937Z" fill="#8db5d6" fill-rule="evenodd"/>
        <path id="Trazado_2354" data-name="Trazado 2354" d="M229.269,1918.736a.768.768,0,0,1-.439-.689,2.45,2.45,0,0,1,.063-.761c.087.178.164.375.27.55a1.035,1.035,0,0,1,.123.813c0,.026-.01.053-.017.087Z" fill="#3e9b27" fill-rule="evenodd"/>
        <path id="Trazado_2355" data-name="Trazado 2355" d="M229.393,1918.51a.759.759,0,0,1,.31-.66,1.767,1.767,0,0,0,.276-.271c-.022.125-.04.276-.075.423a.591.591,0,0,1-.511.508Z" fill="#3e9b27" fill-rule="evenodd"/>
        <path id="Trazado_2356" data-name="Trazado 2356" d="M229.425,1919.631a.767.767,0,0,1-.578-.575,2.479,2.479,0,0,1-.1-.757c.124.155.242.332.384.478a1.043,1.043,0,0,1,.3.767c0,.027,0,.054,0,.087Z" fill="#3e9b27" fill-rule="evenodd"/>
        <path id="Trazado_2357" data-name="Trazado 2357" d="M229.5,1919.384a.756.756,0,0,1,.159-.711,1.765,1.765,0,0,0,.209-.326c.007.128.021.28.021.43a.594.594,0,0,1-.389.607Z" fill="#3e9b27" fill-rule="evenodd"/>
        <path id="Trazado_2358" data-name="Trazado 2358" d="M229.507,1920.452a.766.766,0,0,1-.6-.55,2.433,2.433,0,0,1-.138-.75c.13.149.256.32.4.46a1.047,1.047,0,0,1,.331.753c0,.027,0,.054.005.087Z" fill="#3e9b27" fill-rule="evenodd"/>
        <path id="Trazado_2359" data-name="Trazado 2359" d="M229.567,1920.2a.758.758,0,0,1,.129-.718,1.837,1.837,0,0,0,.194-.334c.012.128.033.278.04.429a.594.594,0,0,1-.363.623Z" fill="#3e9b27" fill-rule="evenodd"/>
        <path id="Trazado_2360" data-name="Trazado 2360" d="M229.743,1921.283a.765.765,0,0,1-.664-.473,2.5,2.5,0,0,1-.227-.73c.148.133.293.287.457.409a1.042,1.042,0,0,1,.419.708c0,.027.009.054.015.086Z" fill="#3e9b27" fill-rule="evenodd"/>
        <path id="Trazado_2361" data-name="Trazado 2361" d="M229.773,1921.028a.761.761,0,0,1,.042-.728,1.809,1.809,0,0,0,.154-.354c.027.124.066.272.091.421a.593.593,0,0,1-.287.661Z" fill="#3e9b27" fill-rule="evenodd"/>
        <path id="Trazado_2362" data-name="Trazado 2362" d="M230.161,1921.807a.761.761,0,0,1-.1-.723,1.936,1.936,0,0,0,.08-.377c.05.116.118.254.171.4a.593.593,0,0,1-.149.7Z" fill="#3e9b27" fill-rule="evenodd"/>
        <path id="Trazado_2363" data-name="Trazado 2363" d="M230.65,1922.495a.764.764,0,0,1-.225-.694,1.792,1.792,0,0,0,.014-.386c.071.1.161.229.238.359a.6.6,0,0,1-.027.721Z" fill="#3e9b27" fill-rule="evenodd"/>
        <path id="Trazado_2364" data-name="Trazado 2364" d="M231.4,1923a.759.759,0,0,1-.407-.6,1.835,1.835,0,0,0-.092-.375c.1.083.217.177.326.28a.6.6,0,0,1,.173.7Z" fill="#3e9b27" fill-rule="evenodd"/>
        <path id="Trazado_2365" data-name="Trazado 2365" d="M229.228,1916.526c.067.2.129.411.2.613a.945.945,0,0,1-.058.723.618.618,0,0,1-.274-.409,1.308,1.308,0,0,1,.031-.607c.03-.112.068-.219.1-.32Z" fill="#3e9b27" fill-rule="evenodd"/>
        <path id="Trazado_2366" data-name="Trazado 2366" d="M229.006,1921.084c.193.095.384.194.58.283a.943.943,0,0,1,.476.548.623.623,0,0,1-.485-.09,1.316,1.316,0,0,1-.412-.448c-.058-.1-.109-.2-.159-.293Z" fill="#3e9b27" fill-rule="evenodd"/>
        <path id="Trazado_2367" data-name="Trazado 2367" d="M230.161,1916.976c-.044.124-.085.267-.144.4a.493.493,0,0,1-.505.316.644.644,0,0,1,.336-.511,2.244,2.244,0,0,0,.313-.2Z" fill="#3e9b27" fill-rule="evenodd"/>
        <path id="Trazado_2368" data-name="Trazado 2368" d="M229.475,1917.033a.66.66,0,0,1-.093-.647,1.953,1.953,0,0,1,.31-.56,1.723,1.723,0,0,0-.016.187,2.869,2.869,0,0,0,.019.372.743.743,0,0,1-.163.586l-.041.056-.016.006Z" fill="#3e9b27" fill-rule="evenodd"/>
        <path id="Trazado_2369" data-name="Trazado 2369" d="M229.647,1916.925a.545.545,0,0,1,.429-.35,1.63,1.63,0,0,0,.281-.078c-.191.371-.4.539-.71.428Z" fill="#3e9b27" fill-rule="evenodd"/>
        <path id="Trazado_2370" data-name="Trazado 2370" d="M229.784,1916.4a.574.574,0,0,1-.022-.509,1.407,1.407,0,0,1,.379-.5c-.027.205-.047.408-.082.612a.687.687,0,0,1-.275.393Z" fill="#3e9b27" fill-rule="evenodd"/>
        <path id="Trazado_2371" data-name="Trazado 2371" d="M230.653,1916.09c-.2.214-.4.428-.7.243a.455.455,0,0,1,.448-.226,1.2,1.2,0,0,0,.255-.017Z" fill="#3e9b27" fill-rule="evenodd"/>
        <path id="Trazado_2372" data-name="Trazado 2372" d="M230.247,1915.947a.578.578,0,0,1-.05-.509,1.434,1.434,0,0,1,.352-.517c-.016.206-.025.413-.05.617a.693.693,0,0,1-.252.409Z" fill="#3e9b27" fill-rule="evenodd"/>
        <path id="Trazado_2373" data-name="Trazado 2373" d="M231.1,1915.591c-.185.223-.372.449-.69.282a.461.461,0,0,1,.435-.252,1.2,1.2,0,0,0,.255-.03Z" fill="#3e9b27" fill-rule="evenodd"/>
        <path id="Trazado_2374" data-name="Trazado 2374" d="M230.616,1915.432a.576.576,0,0,1,.054-.507,1.413,1.413,0,0,1,.448-.434c-.057.2-.107.4-.173.592a.675.675,0,0,1-.329.349Z" fill="#3e9b27" fill-rule="evenodd"/>
        <path id="Trazado_2375" data-name="Trazado 2375" d="M231.527,1915.181c-.2.2-.413.412-.713.215a.461.461,0,0,1,.458-.209,1.351,1.351,0,0,0,.255-.006Z" fill="#3e9b27" fill-rule="evenodd"/>
        <path id="Trazado_2376" data-name="Trazado 2376" d="M232.109,1923.429a.766.766,0,0,1-.473-.558,1.8,1.8,0,0,0-.133-.362c.106.071.236.151.356.244a.591.591,0,0,1,.25.676Z" fill="#3e9b27" fill-rule="evenodd"/>
        <path id="Trazado_2377" data-name="Trazado 2377" d="M231.967,1914.4c-.236.4-.377.776-.922.593a.738.738,0,0,1,.625-.512,1.145,1.145,0,0,0,.3-.081Z" fill="#3e9b27" fill-rule="evenodd"/>
        <path id="Trazado_2378" data-name="Trazado 2378" d="M232.637,1923.781a.547.547,0,0,1-.513.168,1.629,1.629,0,0,1-.5-.174,1.292,1.292,0,0,0,.154-.014,2.165,2.165,0,0,0,.3-.068.619.619,0,0,1,.5.05l.052.026.006.012Z" fill="#3e9b27" fill-rule="evenodd"/>
        <path id="Trazado_2379" data-name="Trazado 2379" d="M231.42,1923.224a.576.576,0,0,1-.509.034,1.407,1.407,0,0,1-.5-.367c.206.022.41.038.614.068a.687.687,0,0,1,.4.265Z" fill="#3e9b27" fill-rule="evenodd"/>
        <path id="Trazado_2380" data-name="Trazado 2380" d="M232.082,1923.506a.575.575,0,0,1-.49.14,1.405,1.405,0,0,1-.57-.253c.205-.022.408-.05.614-.062a.681.681,0,0,1,.446.175Z" fill="#3e9b27" fill-rule="evenodd"/>
        <path id="Trazado_2381" data-name="Trazado 2381" d="M230.885,1922.744a.578.578,0,0,1-.507.061,1.428,1.428,0,0,1-.525-.34c.207.011.414.016.618.036a.69.69,0,0,1,.414.243Z" fill="#3e9b27" fill-rule="evenodd"/>
        <path id="Trazado_2382" data-name="Trazado 2382" d="M230.369,1922.363a.576.576,0,0,1-.509-.028,1.418,1.418,0,0,1-.457-.426c.2.047.4.087.6.142a.681.681,0,0,1,.365.312Z" fill="#3e9b27" fill-rule="evenodd"/>
        <path id="Trazado_2383" data-name="Trazado 2383" d="M237.353,1918.736a.767.767,0,0,0,.439-.689,2.451,2.451,0,0,0-.062-.761c-.087.178-.165.375-.27.55a1.036,1.036,0,0,0-.124.813l.017.087Z" fill="#3e9b27" fill-rule="evenodd"/>
        <path id="Trazado_2384" data-name="Trazado 2384" d="M237.23,1918.51a.763.763,0,0,0-.311-.66,1.8,1.8,0,0,1-.275-.271c.021.125.04.276.075.423a.589.589,0,0,0,.511.508Z" fill="#3e9b27" fill-rule="evenodd"/>
        <path id="Trazado_2385" data-name="Trazado 2385" d="M237.2,1919.631a.767.767,0,0,0,.579-.575,2.478,2.478,0,0,0,.1-.757,5.9,5.9,0,0,1-.384.478,1.038,1.038,0,0,0-.3.767c0,.027,0,.054,0,.087Z" fill="#3e9b27" fill-rule="evenodd"/>
        <path id="Trazado_2386" data-name="Trazado 2386" d="M237.126,1919.384a.759.759,0,0,0-.16-.711,1.813,1.813,0,0,1-.208-.326c-.007.128-.021.28-.021.43a.594.594,0,0,0,.389.607Z" fill="#3e9b27" fill-rule="evenodd"/>
        <path id="Trazado_2387" data-name="Trazado 2387" d="M237.116,1920.452a.766.766,0,0,0,.6-.55,2.4,2.4,0,0,0,.137-.75c-.129.149-.256.32-.4.46a1.043,1.043,0,0,0-.331.753c0,.027,0,.054-.005.087Z" fill="#3e9b27" fill-rule="evenodd"/>
        <path id="Trazado_2388" data-name="Trazado 2388" d="M237.056,1920.2a.761.761,0,0,0-.129-.718,1.9,1.9,0,0,1-.2-.334c-.011.128-.032.278-.039.429a.592.592,0,0,0,.363.623Z" fill="#3e9b27" fill-rule="evenodd"/>
        <path id="Trazado_2389" data-name="Trazado 2389" d="M236.879,1921.283a.766.766,0,0,0,.665-.473,2.464,2.464,0,0,0,.226-.73c-.148.133-.292.287-.457.409a1.045,1.045,0,0,0-.419.708.823.823,0,0,1-.015.086Z" fill="#3e9b27" fill-rule="evenodd"/>
        <path id="Trazado_2390" data-name="Trazado 2390" d="M236.849,1921.028a.758.758,0,0,0-.042-.728,1.8,1.8,0,0,1-.153-.354c-.027.124-.067.272-.091.421a.593.593,0,0,0,.286.661Z" fill="#3e9b27" fill-rule="evenodd"/>
        <path id="Trazado_2391" data-name="Trazado 2391" d="M236.461,1921.807a.758.758,0,0,0,.1-.723,1.934,1.934,0,0,1-.079-.377c-.051.116-.119.254-.171.4a.591.591,0,0,0,.148.7Z" fill="#3e9b27" fill-rule="evenodd"/>
        <path id="Trazado_2392" data-name="Trazado 2392" d="M235.972,1922.495a.759.759,0,0,0,.225-.694,1.858,1.858,0,0,1-.014-.386c-.07.1-.16.229-.237.359a.6.6,0,0,0,.026.721Z" fill="#3e9b27" fill-rule="evenodd"/>
        <path id="Trazado_2393" data-name="Trazado 2393" d="M235.227,1923a.763.763,0,0,0,.407-.6,1.835,1.835,0,0,1,.092-.375c-.1.083-.218.177-.327.28a.593.593,0,0,0-.172.7Z" fill="#3e9b27" fill-rule="evenodd"/>
        <path id="Trazado_2394" data-name="Trazado 2394" d="M237.4,1916.526c-.068.2-.13.411-.2.613a.945.945,0,0,0,.059.723.618.618,0,0,0,.274-.409,1.294,1.294,0,0,0-.032-.607c-.03-.112-.068-.219-.1-.32Z" fill="#3e9b27" fill-rule="evenodd"/>
        <path id="Trazado_2395" data-name="Trazado 2395" d="M237.617,1921.084c-.194.095-.384.194-.58.283a.948.948,0,0,0-.477.548.622.622,0,0,0,.485-.09,1.3,1.3,0,0,0,.412-.448c.059-.1.109-.2.16-.293Z" fill="#3e9b27" fill-rule="evenodd"/>
        <path id="Trazado_2396" data-name="Trazado 2396" d="M236.461,1916.976c.045.124.085.267.144.4a.5.5,0,0,0,.506.316.643.643,0,0,0-.337-.511,2.3,2.3,0,0,1-.313-.2Z" fill="#3e9b27" fill-rule="evenodd"/>
        <path id="Trazado_2397" data-name="Trazado 2397" d="M237.147,1917.033a.66.66,0,0,0,.094-.647,1.978,1.978,0,0,0-.31-.56,1.682,1.682,0,0,1,.015.187,2.7,2.7,0,0,1-.019.372.747.747,0,0,0,.163.586l.041.056.016.006Z" fill="#3e9b27" fill-rule="evenodd"/>
        <path id="Trazado_2398" data-name="Trazado 2398" d="M236.975,1916.925a.544.544,0,0,0-.429-.35,1.618,1.618,0,0,1-.28-.078c.19.371.395.539.709.428Z" fill="#3e9b27" fill-rule="evenodd"/>
        <path id="Trazado_2399" data-name="Trazado 2399" d="M236.838,1916.4a.578.578,0,0,0,.023-.509,1.407,1.407,0,0,0-.379-.5c.026.205.047.408.081.612a.691.691,0,0,0,.275.393Z" fill="#3e9b27" fill-rule="evenodd"/>
        <path id="Trazado_2400" data-name="Trazado 2400" d="M235.97,1916.09c.2.214.4.428.7.243a.455.455,0,0,0-.448-.226,1.194,1.194,0,0,1-.255-.017Z" fill="#3e9b27" fill-rule="evenodd"/>
        <path id="Trazado_2401" data-name="Trazado 2401" d="M236.376,1915.947a.578.578,0,0,0,.049-.509,1.409,1.409,0,0,0-.352-.517c.017.206.025.413.051.617a.688.688,0,0,0,.252.409Z" fill="#3e9b27" fill-rule="evenodd"/>
        <path id="Trazado_2402" data-name="Trazado 2402" d="M235.525,1915.591c.185.223.372.449.689.282a.459.459,0,0,0-.435-.252,1.188,1.188,0,0,1-.254-.03Z" fill="#3e9b27" fill-rule="evenodd"/>
        <path id="Trazado_2403" data-name="Trazado 2403" d="M236.006,1915.432a.576.576,0,0,0-.053-.507,1.406,1.406,0,0,0-.449-.434c.057.2.108.4.173.592a.679.679,0,0,0,.329.349Z" fill="#3e9b27" fill-rule="evenodd"/>
        <path id="Trazado_2404" data-name="Trazado 2404" d="M235.1,1915.181c.205.2.413.412.713.215a.46.46,0,0,0-.458-.209,1.356,1.356,0,0,1-.255-.006Z" fill="#3e9b27" fill-rule="evenodd"/>
        <path id="Trazado_2405" data-name="Trazado 2405" d="M234.514,1923.429a.765.765,0,0,0,.472-.558,1.862,1.862,0,0,1,.133-.362c-.1.071-.236.151-.356.244a.592.592,0,0,0-.249.676Z" fill="#3e9b27" fill-rule="evenodd"/>
        <path id="Trazado_2406" data-name="Trazado 2406" d="M234.73,1914.458c.153.423.3.72.848.537a.741.741,0,0,0-.625-.512.627.627,0,0,1-.223-.025Z" fill="#3e9b27" fill-rule="evenodd"/>
        <path id="Trazado_2407" data-name="Trazado 2407" d="M233.985,1923.781a.548.548,0,0,0,.513.168,1.611,1.611,0,0,0,.5-.174,1.335,1.335,0,0,1-.154-.014,2.12,2.12,0,0,1-.3-.068.619.619,0,0,0-.5.05l-.052.026-.007.012Z" fill="#3e9b27" fill-rule="evenodd"/>
        <path id="Trazado_2408" data-name="Trazado 2408" d="M235.2,1923.224a.575.575,0,0,0,.509.034,1.4,1.4,0,0,0,.5-.367c-.205.022-.409.038-.613.068a.684.684,0,0,0-.4.265Z" fill="#3e9b27" fill-rule="evenodd"/>
        <path id="Trazado_2409" data-name="Trazado 2409" d="M234.54,1923.506a.576.576,0,0,0,.49.14,1.415,1.415,0,0,0,.571-.253c-.206-.022-.409-.05-.614-.062a.683.683,0,0,0-.447.175Z" fill="#3e9b27" fill-rule="evenodd"/>
        <path id="Trazado_2410" data-name="Trazado 2410" d="M235.737,1922.744a.581.581,0,0,0,.508.061,1.424,1.424,0,0,0,.524-.34c-.206.011-.413.016-.617.036a.692.692,0,0,0-.415.243Z" fill="#3e9b27" fill-rule="evenodd"/>
        <path id="Trazado_2411" data-name="Trazado 2411" d="M236.253,1922.363a.578.578,0,0,0,.51-.028,1.414,1.414,0,0,0,.456-.426c-.2.047-.4.087-.6.142a.683.683,0,0,0-.366.312Z" fill="#3e9b27" fill-rule="evenodd"/>
        <path id="Trazado_2412" data-name="Trazado 2412" d="M234.523,1922.177s-.069-.111-1.716.359a2.222,2.222,0,0,0,1.716-.359Z" fill="#a8d954"/>
        <path id="Trazado_2413" data-name="Trazado 2413" d="M232.078,1922.254a2.462,2.462,0,0,0,.432.2,15,15,0,0,1,2.549-.657h0a10.27,10.27,0,0,0-2.982.455Z" fill="#a8d954"/>
        <path id="Trazado_2414" data-name="Trazado 2414" d="M231.593,1921.891a2.924,2.924,0,0,0,.321.26,11.346,11.346,0,0,1,2.856-.6s-.544-.2-3.177.342Z" fill="#a8d954"/>
        <path id="Trazado_2415" data-name="Trazado 2415" d="M231.262,1921.533a3.078,3.078,0,0,0,.212.242,13.614,13.614,0,0,1,2.956-.485s-.492-.26-3.168.243Z" fill="#a8d954"/>
        <path id="Trazado_2416" data-name="Trazado 2416" d="M234.054,1921.061s-.591-.262-3.048.1c.046.076.094.151.145.223a12.231,12.231,0,0,1,2.9-.325Z" fill="#a8d954"/>
        <path id="Trazado_2417" data-name="Trazado 2417" d="M233.666,1920.785a6.368,6.368,0,0,0-2.859.005c.028.06.058.119.088.178a12.2,12.2,0,0,1,2.771-.183Z" fill="#a8d954"/>
        <path id="Trazado_2418" data-name="Trazado 2418" d="M233.254,1920.451h.018l-.007,0a6.41,6.41,0,0,0-2.609-.036c.018.052.036.1.056.153a16.014,16.014,0,0,1,2.542-.115Z" fill="#a8d954"/>
        <path id="Trazado_2419" data-name="Trazado 2419" d="M232.836,1920.172l-.1-.169s-1.6-.022-2.19.045c.01.042.021.084.033.125.16-.006,1.437-.055,2.256,0Z" fill="#a8d954"/>
        <path id="Trazado_2420" data-name="Trazado 2420" d="M233.143,1913.294l0,0,0,0-.008-.005-.009-.006-.032-.019-.033-.015-.032-.013-.032-.011-.032-.007-.032,0-.03,0-.031,0h-.031l-.031,0-.028,0-.028,0-.027.006-.028.007-.025.008-.026.009-.024.009-.022.01-.021.01-.02.01-.02.01-.017.01-.017.01-.015.01-.025.016-.019.015-.011.009,0,0h0l0,0,0,0h.017l.006,0,.009,0,.008,0,.01-.005.01-.008.013-.01.016-.009.02-.01.021-.011.023-.01.026-.01.027-.01.026-.008.03-.008.028-.008.029-.006.03,0,.029,0h.056l.018,0,.017,0,.016,0,.017.005.033.012.03.014.016.007.016.006.015,0,.014.005.013,0,.014,0h.043l.005,0,0,0,0,0,0,0v-.007l0,0Z"/>
        <path id="Trazado_2421" data-name="Trazado 2421" d="M233.053,1913.387l-.028-.011-.026-.011-.027-.008-.026-.007-.026,0-.025,0h-.073l-.024,0-.023,0-.023.006-.023.006-.02.006-.021.007-.019.007-.019.007-.017.009-.032.015-.026.015-.037.024-.013.01v0h0l0,0h.005l.009,0h.011l.014-.006.009-.006.01-.007.013-.007.014-.007.017-.007.018-.008.02-.008.021-.006.022-.007.022-.006.024-.005.023,0,.023,0,.023,0,.023,0,.021,0h.017l.018,0,.015,0,.015,0,.032.011.029.01.014,0,.014,0,.013,0,.014,0h.033l.007,0,.006,0,.006,0-.028-.017-.025-.015Z"/>
        <path id="Trazado_2422" data-name="Trazado 2422" d="M233.032,1913.524l-.019.008-.02.01-.018.008-.02.006-.02.005-.019.006h-.008l.007-.007.01-.01.008-.01.006-.013.007-.013,0-.013,0-.012v-.027l0-.01v-.015l0,0,.021.009.019.014.021.014.019.016.021.02-.021.011Zm-.291.045-.015,0-.013,0-.016,0-.026-.008-.024-.007-.022-.009-.018-.008-.015-.007-.012-.006.012-.009.032-.022.024-.014.026-.014.015-.006.016-.007h.005l0,.005v.05l0,.008v.007l0,.007,0,.007,0,.006,0,.007,0,.006,0,.006.006.005,0,0,.006.005.005.005h-.01Zm.015-.143.017,0,.019,0,.02,0h0l-.006,0-.005,0,0,0,0,0-.005,0,0,0,0,.006-.005.005,0,.005,0,.005v.006l0,.006v.013l0,.005v0l0,.006,0,.005.005.005,0,0,0,0,.005,0,0,0,0,0,.005,0h.011l.006,0h.012l.006,0h.011l0,0,.006,0,.005,0,0,0,0,0,0,0,0-.005,0-.005,0-.006,0,0v-.024l0-.006,0-.005,0-.005,0-.005,0-.006,0,0,0,0-.005,0-.006,0,0,0-.005,0-.006,0h.01l.019,0,.022,0,.019.005h0v0l0,.006,0,0,0,.006,0,.007v.04l0,.009,0,.01,0,.008,0,.008-.007.007-.005.007-.006.008-.008.005-.008,0-.009.005-.01,0-.009,0h-.039l-.008,0-.009,0-.009-.005-.008,0-.008-.005-.005-.008-.008-.007-.005-.007,0-.008-.005-.008,0-.01,0-.009v-.03l0-.014,0-.011,0-.007.014-.005Zm.073.009h.008l.008,0,.007,0,0,.005.006.006,0,.008,0,.006v.017l0,.007,0,.007-.006.006,0,.005-.007,0-.008,0h-.015l-.009,0-.007,0-.005-.005,0-.006,0-.007,0-.007v-.017l0-.006,0-.008,0-.006.005-.005.007,0,.009,0Zm.217.037-.022-.018-.024-.016-.024-.012-.024-.01-.024-.008-.025-.006-.023,0-.024,0h-.045l-.023,0-.021,0-.021.006-.022.006-.019.007-.02.007-.018.008-.018.008-.016.009-.016.008-.014.009-.012.007-.023.016-.016.012-.01.008,0,0,.014.007.018.01.023.01.024.011.029.009.03.01.017,0,.018,0,.017.005.02,0h.019l.02,0h.061l.02,0,.022,0,.022,0,.022-.005.023,0,.022-.008.022-.007.023-.01.023-.011.024-.011.023-.016-.023-.023-.025-.02Z"/>
        <path id="Trazado_2423" data-name="Trazado 2423" d="M234.18,1913.339l-.019-.013-.026-.018-.015-.01-.015-.01-.018-.01-.019-.01-.021-.01-.021-.011-.023-.009-.024-.01-.024-.009-.026-.007-.027-.007-.026-.006-.029,0-.028,0-.03,0h-.03l-.031,0-.032,0-.031.005-.032.008-.033.011-.033.011-.031.016-.033.018-.009.005-.007.006,0,0,0,0,0,0h0v.006l0,0,0,0,0,0h.006l.007,0,.009,0h.027l.014,0,.014,0,.014-.005.014-.006.016,0,.015-.007.03-.013.033-.012.017-.006.016,0,.018,0h.073l.029,0,.029.005.03.006.029.007.029.009.028.01.025.009.027.01.022.01.022.01.018.011.016.009.013.008.009.008.011,0,.009,0,.007,0,.007,0h.017l.005,0v-.007l0,0-.013-.01Z"/>
        <path id="Trazado_2424" data-name="Trazado 2424" d="M234.048,1913.415l-.028-.015-.03-.016-.017-.007-.018-.008-.02-.008-.02-.006-.021-.006-.022-.005-.023,0-.023,0-.024,0-.024,0h-.024l-.026,0-.025,0-.025,0-.027.007-.027.007-.026.011-.028.013-.026.014-.026.016.007,0,.007,0h.038l.014,0,.013,0,.015,0,.015,0,.028-.01.03-.011.016-.005.017,0,.017,0,.016,0h.044l.024,0,.023,0,.023,0,.023.006.023.005.022.007.022.007.02.007.017.007.017.008.015.007.013.007.01.006.009.006.014.006.012,0h.015v0l-.013-.01-.037-.024Z"/>
        <path id="Trazado_2425" data-name="Trazado 2425" d="M234.033,1913.505l-.014.009-.019.006-.022.01-.024.008-.027.007-.014.005H233.9l-.015.005h-.012l.009-.006.01-.01.008-.013.007-.011.006-.014,0-.013,0-.007v-.042l0-.008,0-.006.006,0,.016.006.015.007.026.013.025.014.031.021.012.009-.012.006Zm-.325.046-.018,0-.02-.006-.019-.007-.02-.007-.018-.009-.021-.011-.019-.01.019-.019.021-.016.02-.014.02-.013.02-.01,0,0,0,.005,0,.01v.043l0,.008,0,.012.006.013.007.012.008.011.009.01.005.005-.006,0Zm.025-.144.022,0,.019,0h0l0,0-.005,0-.005,0,0,0-.005.005,0,0,0,.006,0,.005,0,0v.036l0,.005,0,.007,0,0,0,.005.005,0,0,.005.005,0,.005,0,0,0,.006,0,.006,0h.024l.005,0,.007,0,0,0,.005,0,0,0,0-.005,0,0,0-.005,0,0,0-.007v-.005l0-.006v-.023l0-.007v0l0-.005,0-.006,0,0,0-.005,0,0,0,0-.005,0,0,0h-.006l.018,0,.019,0,.019,0,.012,0,0,.008,0,.011,0,.012v.032l0,.011,0,.007,0,.008,0,.009-.005.007-.007.007-.007.007-.006.006-.009,0-.009.005-.008,0-.01,0h-.04l-.008,0-.01,0-.008-.005-.008,0-.008-.006-.007-.007-.005-.007,0-.007-.006-.009,0-.008,0-.007,0-.011,0-.01v-.016l0-.007v-.007l0-.006,0-.007v-.006l0-.007h0l.02,0Zm.071.015.007,0,.007,0,.005.006.006.005,0,.007,0,.007v.017l0,.006,0,.008-.006.007-.005,0-.007,0-.007,0-.008,0-.009,0-.007,0-.008,0-.005,0,0-.007-.005-.008,0-.006v-.017l0-.007.005-.007,0-.005.005-.006.008,0,.007,0h.017Zm.231.043-.013-.008-.015-.008-.016-.009-.016-.007-.018-.009-.017-.008-.02-.007-.02-.007-.02-.006-.021-.005-.023-.005-.022,0h-.046l-.023,0-.024,0-.024.006-.024.008-.023.011-.025.012-.025.014-.022.018-.024.021-.022.024.022.013.024.013.022.011.023.011.023.007.022.007.023.005.022.005.022,0,.021,0h.083l.02,0,.019,0,.017,0,.018,0,.018,0,.016,0,.032-.01.029-.009.024-.011.023-.011.017-.008.016-.008-.016-.011-.037-.028Z"/>
        <path id="Trazado_2426" data-name="Trazado 2426" d="M232.419,1922.695l-.039.291a3.7,3.7,0,0,1,.552.015,1.48,1.48,0,0,0,.659.023,2.636,2.636,0,0,1,.691-.038l-.05-.308a2.733,2.733,0,0,1-1.813.017" fill="#8db5d6"/>
        <path id="Trazado_2427" data-name="Trazado 2427" d="M233.478,1923.728l-.014-.025.014.025Zm.234-.291a1.234,1.234,0,0,1-.253.257l0,.006a.19.19,0,0,0-.313-.015,1.238,1.238,0,0,1-.24-.245,2.076,2.076,0,0,0,.8,0Zm-1.208-.015c.048,0,.2,0,.247,0a.981.981,0,0,0,.366.324l-.009.057v0a1.58,1.58,0,0,1-.6-.387Zm.6.452v.035a.532.532,0,0,0,.38-.149l-.01-.03.01.023v0a.971.971,0,0,0,.385-.339c.057-.005.156-.012.2-.013a1.561,1.561,0,0,1-.579.412v.064a1.971,1.971,0,0,0,.851-.465l-.035-.224a2.386,2.386,0,0,0-.585.045,1.63,1.63,0,0,1-.7.026,5,5,0,0,0-.691-.044l-.036.2a1.767,1.767,0,0,0,.805.457Z" fill="#8db5d6"/>
        <path id="Trazado_2428" data-name="Trazado 2428" d="M233.49,1924.056l-.016.046.016-.046Zm1.447.8.067-.233a2.484,2.484,0,0,1-1.509-.647v.042l0,.038,0-.038V1924a.6.6,0,0,1-.383.037v-.005a2.312,2.312,0,0,1-1.442.592l.077.268a2.693,2.693,0,0,0,1.4-.759l.069.06a2.653,2.653,0,0,1-1.417.878l.064.222s.643-.025,1.442-1.078l.059-.011c.8,1.064,1.45,1.089,1.45,1.089l.058-.2a2.69,2.69,0,0,1-1.435-.931l.035-.046,0,.006a2.485,2.485,0,0,0,1.471.737Z" fill="#8db5d6"/>
        <path id="Trazado_2429" data-name="Trazado 2429" d="M233.416,1917.3l-.208.022v0h0l.01,2.032.225.028-.027-2.085Z" fill="#98562f" fill-rule="evenodd"/>
        <path id="Trazado_2430" data-name="Trazado 2430" d="M234.829,1916.988a.7.7,0,0,0-.608-.43,1.447,1.447,0,0,0-.518.012.738.738,0,0,1,.192-.054h0l.007-.011v-.006l0,0-.011-.012a.229.229,0,0,0-.088-.049.585.585,0,0,1,.151-.02h.019a.372.372,0,0,1,.1.014l.005,0,.011-.012h0l0-.005-.033-.055.005,0a.507.507,0,0,1,.16.038l0,0h0l.011-.01v-.007l-.01-.018-.05-.069a.75.75,0,0,1,.222-.069h0l.009-.012,0-.007-.005,0a.554.554,0,0,0-.588.024,1.117,1.117,0,0,0-.285.216l-.024-.031a.514.514,0,0,1,.075-.109v0l0-.006-.008-.011h-.015a.187.187,0,0,0-.087.02.559.559,0,0,1,.088-.1l.012-.011.073-.049h0l.005-.009-.005-.009h0l-.052-.016v-.005a.415.415,0,0,1,.126-.067h0l.006-.01,0-.01,0,0-.013,0-.074-.017a.7.7,0,0,1,.105-.172l0,0v-.006l-.011-.011h0a.493.493,0,0,0-.372.358.891.891,0,0,0-.047.168h-.018a.933.933,0,0,0-.047-.168.493.493,0,0,0-.372-.358h0l-.011.011,0,.006,0,0a.629.629,0,0,1,.1.172l-.073.017-.012,0,0,0,0,.01.005.01h0a.406.406,0,0,1,.128.068v.005l-.051.015,0,0-.005.009.005.009h0l.075.049.013.011a.556.556,0,0,1,.087.1.186.186,0,0,0-.086-.02h-.016l-.007.011v.005l0,0a.634.634,0,0,1,.085.127l-.022.027a1.148,1.148,0,0,0-.3-.23.557.557,0,0,0-.588-.025l0,0,0,.007.008.012h0a.73.73,0,0,1,.223.069l-.049.069-.009.018,0,0v0l.011.011h0l.005,0a.494.494,0,0,1,.16-.038l0,0-.032.055,0,.005h0l.01.012h0l0,0a.374.374,0,0,1,.1-.014h.018a.592.592,0,0,1,.152.02.219.219,0,0,0-.089.049l-.011.012,0,0v.006l.007.011h.005a.754.754,0,0,1,.191.054,1.447,1.447,0,0,0-.518-.012.7.7,0,0,0-.609.43l0,.005v0l.012.011h0l0,0a1,1,0,0,1,.282-.105.337.337,0,0,0,0,.109l.006.031v0l.01.006.009,0v0a.548.548,0,0,1,.134-.166l.009,0a.27.27,0,0,0,.009.087v.005l.01.007.007,0,0,0a.662.662,0,0,1,.1-.1l.018-.014a.662.662,0,0,1,.168-.094.284.284,0,0,0-.052.114l0,.026v.006l.011.008h.007a.9.9,0,0,1,.23-.094,1.629,1.629,0,0,0-.406.28.757.757,0,0,0-.277.765l0,.006.01.006.009-.006,0,0a.949.949,0,0,1,.188-.271.35.35,0,0,0,.07.095l.026.026.005,0h0l.012-.01v0a.611.611,0,0,1,.018-.236l.006-.006a.283.283,0,0,0,.063.073l.006.005h0l.01-.007v-.006a.746.746,0,0,1,.024-.145l.008-.024a.83.83,0,0,1,.093-.189.324.324,0,0,0,.024.136l.016.026,0,0,.008,0,.01-.005v0a1.275,1.275,0,0,1,.28-.369l.072-.067a.414.414,0,0,0,.087.15l-.005.06a.29.29,0,0,0,.085.212v0h.21a.282.282,0,0,0,.091-.216l-.005-.057a.4.4,0,0,0,.084-.136l.053.05a1.286,1.286,0,0,1,.28.368l0,0,.009.005.007,0,0,0,.016-.026a.31.31,0,0,0,.024-.136.83.83,0,0,1,.093.189l.007.024a.574.574,0,0,1,.025.143v.008l.01.007,0,0,0,0a.26.26,0,0,0,.065-.073l.006.006a.63.63,0,0,1,.017.236v0h0l.011.01h.005l0,0,.028-.026a.388.388,0,0,0,.068-.095,1,1,0,0,1,.189.271v0l.01.006.009-.007,0,0a.758.758,0,0,0-.278-.767,1.606,1.606,0,0,0-.4-.28.857.857,0,0,1,.229.094h0l0,0,.012-.009v-.006l0-.026a.272.272,0,0,0-.052-.114.645.645,0,0,1,.168.094l.019.014a.6.6,0,0,1,.093.095l0,0,0,0,.013-.007v-.005a.27.27,0,0,0,.01-.087l.007,0a.564.564,0,0,1,.136.165v.005l.008,0,.011-.007v0l.006-.031a.366.366,0,0,0,0-.109.928.928,0,0,1,.282.106h.006l.012-.012h0l0-.005Z" fill="#3e9b27" fill-rule="evenodd"/>
        <path id="Trazado_2431" data-name="Trazado 2431" d="M233.977,1919.784a1.246,1.246,0,0,0-.067-.2l.488-.3.118.193-.539.3Zm1.062-.278c-.073-.133-.265-.113-.432-.038l-.136-.219s.155-.089.258-.029.243.114.257-.034-.17-.273-.444-.146a7.206,7.206,0,0,0-.751.435,1.12,1.12,0,0,0-.861-.088c-.617.108-.633,0-.633,0s0-.254-.2-.246-.149.286-.008.39c.1.076.17.1.458.091a2.031,2.031,0,0,1,.87.141l-.744-.007s-.061,0-.036.075a1.287,1.287,0,0,0,.407.592c.1,0,.41.011.41.011a1.031,1.031,0,0,0,.157-.062.694.694,0,0,0,.285-.332c.061-.061.848-.522.9-.392.051.1.091.086.152.076a.146.146,0,0,0,.093-.216Z" fill="#6b3d21"/>
        <path id="Trazado_2432" data-name="Trazado 2432" d="M235.917,1920.367l-.031-.017a4.3,4.3,0,0,0-2-.3.663.663,0,0,1-.458.376l-.289-.007s.059.012.13.029h-.017a5.542,5.542,0,0,1,1.855,1.3l.068-.076a9.034,9.034,0,0,0-1.556-1.255,4.52,4.52,0,0,1,1.662,1.13c.035-.043.069-.087.1-.132a11.283,11.283,0,0,0-1.583-1.136,4.983,4.983,0,0,1,1.647,1.044c.026-.039.052-.078.077-.119a7.31,7.31,0,0,0-1.629-1.081,4.829,4.829,0,0,1,1.7.956c.023-.04.045-.081.067-.122a13.2,13.2,0,0,0-1.439-.874,6.688,6.688,0,0,1,1.5.75c.014-.029.028-.06.041-.09a6.927,6.927,0,0,0-1.063-.605,3,3,0,0,1,1.1.513c.012-.029.025-.059.036-.089a3.546,3.546,0,0,0-.584-.324,1.517,1.517,0,0,1,.612.251c.014-.04.029-.081.043-.122Z" fill="#a8d954"/>
      </g>
      <g id="Grupo_448" data-name="Grupo 448">
        <g id="Grupo_446" data-name="Grupo 446">
          <path id="Trazado_2433" data-name="Trazado 2433" d="M64.146,1916.48a.963.963,0,0,1-.385-.23l.1-.2a.968.968,0,0,0,.352.214,1.3,1.3,0,0,0,.452.081.829.829,0,0,0,.491-.12.369.369,0,0,0,.164-.311.311.311,0,0,0-.089-.233.6.6,0,0,0-.218-.134,3.32,3.32,0,0,0-.358-.1,3.839,3.839,0,0,1-.439-.134.725.725,0,0,1-.28-.2.52.52,0,0,1-.117-.358.608.608,0,0,1,.1-.336.662.662,0,0,1,.3-.242,1.234,1.234,0,0,1,.5-.091,1.446,1.446,0,0,1,.409.058,1.181,1.181,0,0,1,.347.158l-.087.206a1.185,1.185,0,0,0-.327-.152,1.213,1.213,0,0,0-.342-.05.791.791,0,0,0-.482.123.385.385,0,0,0-.162.319.319.319,0,0,0,.089.235.581.581,0,0,0,.223.135c.089.032.209.066.36.1a3.622,3.622,0,0,1,.434.131.717.717,0,0,1,.28.195.517.517,0,0,1,.115.353.6.6,0,0,1-.1.336.663.663,0,0,1-.3.24,1.276,1.276,0,0,1-.5.089A1.564,1.564,0,0,1,64.146,1916.48Z" fill="#333"/>
          <path id="Trazado_2434" data-name="Trazado 2434" d="M67.733,1914.715v1.831H67.5v-.334a.674.674,0,0,1-.268.259.8.8,0,0,1-.39.092.71.71,0,0,1-.773-.786v-1.062h.248v1.037a.614.614,0,0,0,.142.439.538.538,0,0,0,.408.15.6.6,0,0,0,.456-.176.682.682,0,0,0,.167-.489v-.961Z" fill="#333"/>
          <path id="Trazado_2435" data-name="Trazado 2435" d="M69.835,1914.818a.825.825,0,0,1,.328.329,1.05,1.05,0,0,1,0,.967.842.842,0,0,1-.328.331.924.924,0,0,1-.466.118.864.864,0,0,1-.413-.1.763.763,0,0,1-.294-.282v.362h-.236v-2.583h.247v1.1a.761.761,0,0,1,.294-.27.87.87,0,0,1,.4-.092A.935.935,0,0,1,69.835,1914.818Zm-.135,1.437a.626.626,0,0,0,.245-.252.824.824,0,0,0,0-.745.626.626,0,0,0-.245-.252.729.729,0,0,0-.7,0,.624.624,0,0,0-.244.252.824.824,0,0,0,0,.745.623.623,0,0,0,.244.252.729.729,0,0,0,.7,0Z" fill="#333"/>
          <path id="Trazado_2436" data-name="Trazado 2436" d="M70.85,1916.5a.908.908,0,0,1-.318-.162l.111-.2a.924.924,0,0,0,.289.148,1.158,1.158,0,0,0,.362.057.7.7,0,0,0,.371-.078.249.249,0,0,0,.12-.221.2.2,0,0,0-.066-.158.428.428,0,0,0-.167-.087,2.437,2.437,0,0,0-.269-.058,3.108,3.108,0,0,1-.358-.085.523.523,0,0,1-.232-.148.416.416,0,0,1-.1-.289.455.455,0,0,1,.191-.376.863.863,0,0,1,.533-.146,1.4,1.4,0,0,1,.355.047.967.967,0,0,1,.292.124l-.108.2a.919.919,0,0,0-.539-.157.624.624,0,0,0-.357.084.256.256,0,0,0-.12.219.214.214,0,0,0,.068.167.4.4,0,0,0,.169.092,2.429,2.429,0,0,0,.278.061,3.259,3.259,0,0,1,.352.084.514.514,0,0,1,.226.143.39.39,0,0,1,.094.278.444.444,0,0,1-.2.381.953.953,0,0,1-.555.141A1.407,1.407,0,0,1,70.85,1916.5Z" fill="#333"/>
          <path id="Trazado_2437" data-name="Trazado 2437" d="M74.082,1915.707H72.551a.651.651,0,0,0,.219.461.727.727,0,0,0,.5.176.78.78,0,0,0,.313-.061.686.686,0,0,0,.248-.179l.139.16a.788.788,0,0,1-.305.223,1.034,1.034,0,0,1-.4.076,1.015,1.015,0,0,1-.5-.12.868.868,0,0,1-.34-.332.953.953,0,0,1-.122-.481.98.98,0,0,1,.117-.48.85.85,0,0,1,.32-.331.9.9,0,0,1,.458-.118.886.886,0,0,1,.456.118.844.844,0,0,1,.317.329,1,1,0,0,1,.115.482Zm-1.328-.625a.663.663,0,0,0-.2.44h1.3a.66.66,0,0,0-.2-.44.671.671,0,0,0-.891,0Z" fill="#333"/>
          <path id="Trazado_2438" data-name="Trazado 2438" d="M74.864,1916.445a.858.858,0,0,1-.336-.332.953.953,0,0,1-.122-.483.942.942,0,0,1,.122-.48.856.856,0,0,1,.336-.331.981.981,0,0,1,.485-.118.947.947,0,0,1,.423.092.709.709,0,0,1,.294.27l-.184.125a.582.582,0,0,0-.23-.2.673.673,0,0,0-.3-.068.712.712,0,0,0-.357.089.624.624,0,0,0-.247.252.836.836,0,0,0,0,.747.625.625,0,0,0,.247.25.722.722,0,0,0,.357.089.7.7,0,0,0,.3-.066.571.571,0,0,0,.23-.2l.184.125a.69.69,0,0,1-.3.27.933.933,0,0,1-.421.092A.98.98,0,0,1,74.864,1916.445Z" fill="#333"/>
          <path id="Trazado_2439" data-name="Trazado 2439" d="M77.046,1914.8a.879.879,0,0,1,.427-.094v.24l-.06,0a.585.585,0,0,0-.452.177.709.709,0,0,0-.164.5v.933H76.55v-1.831h.237v.358A.6.6,0,0,1,77.046,1914.8Z" fill="#333"/>
          <path id="Trazado_2440" data-name="Trazado 2440" d="M79.54,1915.707H78.009a.655.655,0,0,0,.219.461.727.727,0,0,0,.5.176.788.788,0,0,0,.314-.061.691.691,0,0,0,.247-.179l.139.16a.788.788,0,0,1-.305.223,1.034,1.034,0,0,1-.4.076,1.015,1.015,0,0,1-.5-.12.875.875,0,0,1-.34-.332.953.953,0,0,1-.122-.481.98.98,0,0,1,.117-.48.85.85,0,0,1,.32-.331.9.9,0,0,1,.458-.118.883.883,0,0,1,.456.118.844.844,0,0,1,.317.329,1,1,0,0,1,.115.482Zm-1.328-.625a.663.663,0,0,0-.2.44h1.3a.66.66,0,0,0-.2-.44.671.671,0,0,0-.891,0Z" fill="#333"/>
          <path id="Trazado_2441" data-name="Trazado 2441" d="M81.013,1916.435a.482.482,0,0,1-.173.095.69.69,0,0,1-.214.033.484.484,0,0,1-.536-.532v-1.107h-.327v-.209h.327v-.4h.247v.4h.557v.209h-.557v1.093a.349.349,0,0,0,.082.249.311.311,0,0,0,.235.085.459.459,0,0,0,.148-.024.384.384,0,0,0,.124-.07Z" fill="#333"/>
          <path id="Trazado_2442" data-name="Trazado 2442" d="M82.652,1914.88a.693.693,0,0,1,.192.531v1.135h-.237v-.286a.566.566,0,0,1-.245.223.854.854,0,0,1-.385.08.748.748,0,0,1-.487-.146.5.5,0,0,1-.013-.762.829.829,0,0,1,.538-.143H82.6v-.111a.472.472,0,0,0-.133-.361.547.547,0,0,0-.386-.123.986.986,0,0,0-.334.057.832.832,0,0,0-.275.159l-.112-.185a.988.988,0,0,1,.334-.183,1.3,1.3,0,0,1,.411-.064A.776.776,0,0,1,82.652,1914.88Zm-.278,1.393A.572.572,0,0,0,82.6,1916v-.3h-.575q-.47,0-.47.327a.3.3,0,0,0,.122.252.551.551,0,0,0,.341.092A.66.66,0,0,0,82.374,1916.273Z" fill="#333"/>
          <path id="Trazado_2443" data-name="Trazado 2443" d="M84.012,1914.8a.875.875,0,0,1,.426-.094v.24l-.059,0a.586.586,0,0,0-.453.177.708.708,0,0,0-.163.5v.933h-.247v-1.831h.236v.358A.6.6,0,0,1,84.012,1914.8Z" fill="#333"/>
          <path id="Trazado_2444" data-name="Trazado 2444" d="M85.287,1914h.331l-.564.431H84.81Zm-.376.717h.247v1.831h-.247Z" fill="#333"/>
          <path id="Trazado_2445" data-name="Trazado 2445" d="M87.038,1914.88a.693.693,0,0,1,.192.531v1.135h-.237v-.286a.566.566,0,0,1-.245.223.854.854,0,0,1-.385.08.748.748,0,0,1-.487-.146.5.5,0,0,1-.013-.762.829.829,0,0,1,.538-.143h.582v-.111a.472.472,0,0,0-.133-.361.547.547,0,0,0-.386-.123.986.986,0,0,0-.334.057.832.832,0,0,0-.275.159l-.112-.185a.988.988,0,0,1,.334-.183,1.3,1.3,0,0,1,.411-.064A.776.776,0,0,1,87.038,1914.88Zm-.278,1.393a.572.572,0,0,0,.223-.277v-.3h-.575q-.469,0-.47.327a.3.3,0,0,0,.122.252.551.551,0,0,0,.341.092A.66.66,0,0,0,86.76,1916.273Z" fill="#333"/>
          <path id="Trazado_2446" data-name="Trazado 2446" d="M90.484,1913.963v2.583h-.236v-.362a.764.764,0,0,1-.294.282.864.864,0,0,1-.413.1.924.924,0,0,1-.466-.118.842.842,0,0,1-.328-.331,1.05,1.05,0,0,1,0-.967.824.824,0,0,1,.328-.329.935.935,0,0,1,.466-.117.87.87,0,0,1,.4.092.761.761,0,0,1,.294.27v-1.1Zm-.576,2.292a.63.63,0,0,0,.244-.252.824.824,0,0,0,0-.745.63.63,0,0,0-.244-.252.674.674,0,0,0-.346-.089.683.683,0,0,0-.35.089.637.637,0,0,0-.244.252.832.832,0,0,0,0,.745.636.636,0,0,0,.244.252.693.693,0,0,0,.35.089A.683.683,0,0,0,89.908,1916.255Z" fill="#333"/>
          <path id="Trazado_2447" data-name="Trazado 2447" d="M92.768,1915.707H91.236a.652.652,0,0,0,.22.461.727.727,0,0,0,.5.176.78.78,0,0,0,.313-.061.683.683,0,0,0,.247-.179l.14.16a.8.8,0,0,1-.305.223,1.034,1.034,0,0,1-.4.076,1.019,1.019,0,0,1-.5-.12.866.866,0,0,1-.339-.332.953.953,0,0,1-.122-.481.98.98,0,0,1,.117-.48.836.836,0,0,1,.32-.331.944.944,0,0,1,.914,0,.851.851,0,0,1,.317.329,1,1,0,0,1,.114.482Zm-1.328-.625a.66.66,0,0,0-.2.44h1.3a.664.664,0,0,0-.2-.44.671.671,0,0,0-.891,0Z" fill="#333"/>
        </g>
        <g id="Grupo_447" data-name="Grupo 447">
          <path id="Trazado_2448" data-name="Trazado 2448" d="M66.861,1921.089v.678h-2.83v-3.655h2.762v.679H64.872v.794h1.7v.658h-1.7v.846Z" fill="#333"/>
          <path id="Trazado_2449" data-name="Trazado 2449" d="M71.782,1919.227a1.266,1.266,0,0,1,.311.932v1.608h-.815v-1.483a.761.761,0,0,0-.138-.5.486.486,0,0,0-.394-.165.582.582,0,0,0-.455.186.8.8,0,0,0-.167.551v1.409H69.31v-1.483q0-.663-.533-.663a.573.573,0,0,0-.449.186.8.8,0,0,0-.167.551v1.409h-.815v-2.809h.778v.324a1.045,1.045,0,0,1,.384-.272,1.308,1.308,0,0,1,.5-.094,1.214,1.214,0,0,1,.538.118.944.944,0,0,1,.386.342,1.152,1.152,0,0,1,.436-.339,1.363,1.363,0,0,1,.577-.121A1.132,1.132,0,0,1,71.782,1919.227Z" fill="#333"/>
          <path id="Trazado_2450" data-name="Trazado 2450" d="M75.066,1919.1a1.284,1.284,0,0,1,.5.506,1.67,1.67,0,0,1,0,1.52,1.285,1.285,0,0,1-.5.506,1.43,1.43,0,0,1-.712.18,1.084,1.084,0,0,1-.846-.339v1.31h-.815v-3.822h.778v.324a1.08,1.08,0,0,1,.883-.366A1.419,1.419,0,0,1,75.066,1919.1Zm-.339,1.832a.9.9,0,0,0,0-1.133.733.733,0,0,0-1.029,0,.9.9,0,0,0,0,1.133.73.73,0,0,0,1.029,0Z" fill="#333"/>
          <path id="Trazado_2451" data-name="Trazado 2451" d="M76.166,1917.893h.814v3.874h-.814Z" fill="#333"/>
          <path id="Trazado_2452" data-name="Trazado 2452" d="M80.343,1920.593H78.218a.658.658,0,0,0,.271.412.9.9,0,0,0,.533.151,1.067,1.067,0,0,0,.389-.065.94.94,0,0,0,.316-.206l.433.47a1.456,1.456,0,0,1-1.159.454,1.844,1.844,0,0,1-.841-.185,1.355,1.355,0,0,1-.564-.515,1.507,1.507,0,0,1,0-1.49,1.362,1.362,0,0,1,.537-.517,1.661,1.661,0,0,1,1.512-.008,1.292,1.292,0,0,1,.525.509,1.519,1.519,0,0,1,.19.77C80.358,1920.384,80.353,1920.457,80.343,1920.593Zm-1.906-.9a.67.67,0,0,0-.23.428h1.384a.675.675,0,0,0-.23-.425.686.686,0,0,0-.459-.159A.7.7,0,0,0,78.437,1919.689Z" fill="#333"/>
          <path id="Trazado_2453" data-name="Trazado 2453" d="M81.311,1921.624a1.383,1.383,0,0,1-.551-.515,1.506,1.506,0,0,1,0-1.493,1.379,1.379,0,0,1,.551-.514,1.682,1.682,0,0,1,.8-.186,1.663,1.663,0,0,1,.793.186,1.378,1.378,0,0,1,.548.514,1.5,1.5,0,0,1,0,1.493,1.381,1.381,0,0,1-.548.515,1.676,1.676,0,0,1-.793.185A1.7,1.7,0,0,1,81.311,1921.624Zm1.311-.7a.9.9,0,0,0,0-1.133.735.735,0,0,0-1.031,0,.888.888,0,0,0,0,1.133.733.733,0,0,0,1.031,0Z" fill="#333"/>
        </g>
      </g>
      <g id="Grupo_496" data-name="Grupo 496">
        <g id="Grupo_495" data-name="Grupo 495">
          <g id="Grupo_494" data-name="Grupo 494">
            <g id="Grupo_493" data-name="Grupo 493">
              <g id="Grupo_487" data-name="Grupo 487">
                <g id="Grupo_486" data-name="Grupo 486">
                  <g id="Grupo_449" data-name="Grupo 449">
                    <path id="Trazado_2454" data-name="Trazado 2454" d="M55.212,1922.5l-.037.277a3.464,3.464,0,0,1,.526.015,1.4,1.4,0,0,0,.629.022,2.5,2.5,0,0,1,.66-.036l-.047-.3a2.6,2.6,0,0,1-1.731.017" fill="#333"/>
                    <path id="Trazado_2455" data-name="Trazado 2455" d="M55.87,1923.628v.033a.5.5,0,0,0,.363-.141l-.009-.029c0,.008.005.016.008.022v0a.931.931,0,0,0,.367-.324c.056-.005.149-.011.192-.013a1.465,1.465,0,0,1-.553.394v.061a1.9,1.9,0,0,0,.813-.444l-.034-.214a2.253,2.253,0,0,0-.558.044,1.546,1.546,0,0,1-.665.024,5,5,0,0,0-.659-.043l-.035.191A1.677,1.677,0,0,0,55.87,1923.628Zm-.577-.431c.046,0,.189,0,.237,0a.924.924,0,0,0,.348.308.21.21,0,0,0-.008.056v0A1.531,1.531,0,0,1,55.293,1923.2Zm1.153.013a1.1,1.1,0,0,1-.242.245l.005.007a.181.181,0,0,0-.3-.014,1.178,1.178,0,0,1-.23-.234A1.966,1.966,0,0,0,56.446,1923.21Zm-.223.279a.068.068,0,0,0-.014-.023A.068.068,0,0,1,56.223,1923.489Z" fill="#333"/>
                    <path id="Trazado_2456" data-name="Trazado 2456" d="M57.615,1924.563l.065-.223a2.367,2.367,0,0,1-1.441-.617v.039a.209.209,0,0,1,0,.037.221.221,0,0,0,0-.037v-.017a.58.58,0,0,1-.366.035v-.006a2.2,2.2,0,0,1-1.376.566l.074.256a2.569,2.569,0,0,0,1.336-.725.18.18,0,0,0,.065.058,2.53,2.53,0,0,1-1.352.838l.061.211s.614-.023,1.377-1.029a.206.206,0,0,0,.056-.009c.766,1.015,1.384,1.038,1.384,1.038l.055-.192a2.568,2.568,0,0,1-1.369-.889.18.18,0,0,0,.033-.044l0,.007A2.38,2.38,0,0,0,57.615,1924.563Zm-1.381-.761a.2.2,0,0,1-.015.043A.2.2,0,0,0,56.234,1923.8Z" fill="#333"/>
                    <path id="Trazado_2457" data-name="Trazado 2457" d="M55.233,1922.51" fill="#333"/>
                  </g>
                  <g id="Grupo_467" data-name="Grupo 467">
                    <g id="Grupo_466" data-name="Grupo 466">
                      <g id="Grupo_464" data-name="Grupo 464">
                        <g id="Grupo_463" data-name="Grupo 463">
                          <g id="Grupo_450" data-name="Grupo 450">
                            <path id="Trazado_2458" data-name="Trazado 2458" d="M52.228,1918.694a.727.727,0,0,1-.418-.655,2.337,2.337,0,0,1,.059-.724c.083.169.157.357.258.523a.993.993,0,0,1,.117.775C52.239,1918.637,52.234,1918.662,52.228,1918.694Z" fill="#333" fill-rule="evenodd"/>
                            <path id="Trazado_2459" data-name="Trazado 2459" d="M52.345,1918.48a.723.723,0,0,1,.3-.628,1.777,1.777,0,0,0,.262-.258c-.02.119-.039.263-.071.4A.565.565,0,0,1,52.345,1918.48Z" fill="#333" fill-rule="evenodd"/>
                          </g>
                          <g id="Grupo_451" data-name="Grupo 451">
                            <path id="Trazado_2460" data-name="Trazado 2460" d="M52.376,1919.547a.73.73,0,0,1-.551-.548,2.349,2.349,0,0,1-.1-.719c.118.146.23.315.365.454a.993.993,0,0,1,.284.731C52.375,1919.489,52.375,1919.515,52.376,1919.547Z" fill="#333" fill-rule="evenodd"/>
                            <path id="Trazado_2461" data-name="Trazado 2461" d="M52.444,1919.311a.722.722,0,0,1,.152-.677,1.689,1.689,0,0,0,.2-.309c.006.121.021.266.02.409A.562.562,0,0,1,52.444,1919.311Z" fill="#333" fill-rule="evenodd"/>
                          </g>
                          <g id="Grupo_452" data-name="Grupo 452">
                            <path id="Trazado_2462" data-name="Trazado 2462" d="M52.454,1920.328a.73.73,0,0,1-.575-.523,2.329,2.329,0,0,1-.13-.714,5.572,5.572,0,0,0,.385.437,1,1,0,0,1,.315.718C52.449,1920.271,52.452,1920.3,52.454,1920.328Z" fill="#333" fill-rule="evenodd"/>
                            <path id="Trazado_2463" data-name="Trazado 2463" d="M52.511,1920.091a.718.718,0,0,1,.123-.684,1.815,1.815,0,0,0,.185-.318c.011.121.031.264.038.408A.567.567,0,0,1,52.511,1920.091Z" fill="#333" fill-rule="evenodd"/>
                          </g>
                          <g id="Grupo_453" data-name="Grupo 453">
                            <path id="Trazado_2464" data-name="Trazado 2464" d="M52.679,1921.119a.728.728,0,0,1-.633-.45,2.334,2.334,0,0,1-.215-.695c.14.126.278.273.434.39a.988.988,0,0,1,.4.674C52.668,1921.063,52.673,1921.087,52.679,1921.119Z" fill="#333" fill-rule="evenodd"/>
                            <path id="Trazado_2465" data-name="Trazado 2465" d="M52.708,1920.877a.722.722,0,0,1,.039-.693,1.724,1.724,0,0,0,.146-.338c.026.118.064.259.087.4A.567.567,0,0,1,52.708,1920.877Z" fill="#333" fill-rule="evenodd"/>
                          </g>
                          <g id="Grupo_454" data-name="Grupo 454">
                            <path id="Trazado_2466" data-name="Trazado 2466" d="M53.077,1921.618a.72.72,0,0,1-.1-.687,1.808,1.808,0,0,0,.076-.36c.048.11.113.242.163.376A.564.564,0,0,1,53.077,1921.618Z" fill="#333" fill-rule="evenodd"/>
                          </g>
                          <g id="Grupo_455" data-name="Grupo 455">
                            <path id="Trazado_2467" data-name="Trazado 2467" d="M53.542,1922.273a.726.726,0,0,1-.214-.661,1.68,1.68,0,0,0,.013-.367c.067.1.153.218.227.342A.565.565,0,0,1,53.542,1922.273Z" fill="#333" fill-rule="evenodd"/>
                          </g>
                          <g id="Grupo_456" data-name="Grupo 456">
                            <path id="Trazado_2468" data-name="Trazado 2468" d="M54.252,1922.752a.724.724,0,0,1-.388-.577,1.741,1.741,0,0,0-.087-.355c.091.079.206.168.31.266A.566.566,0,0,1,54.252,1922.752Z" fill="#333" fill-rule="evenodd"/>
                          </g>
                          <g id="Grupo_457" data-name="Grupo 457">
                            <path id="Trazado_2469" data-name="Trazado 2469" d="M52.188,1916.592c.065.194.123.391.193.583a.9.9,0,0,1-.056.689.594.594,0,0,1-.261-.39,1.239,1.239,0,0,1,.031-.578C52.123,1916.79,52.159,1916.687,52.188,1916.592Z" fill="#333" fill-rule="evenodd"/>
                            <path id="Trazado_2470" data-name="Trazado 2470" d="M51.976,1920.93c.185.09.366.185.553.269a.9.9,0,0,1,.454.521.59.59,0,0,1-.462-.085,1.238,1.238,0,0,1-.392-.426C52.073,1921.115,52.025,1921.018,51.976,1920.93Z" fill="#333" fill-rule="evenodd"/>
                            <path id="Trazado_2471" data-name="Trazado 2471" d="M53.077,1917.021c-.043.117-.082.252-.138.378a.466.466,0,0,1-.48.3.611.611,0,0,1,.319-.486A2.221,2.221,0,0,0,53.077,1917.021Z" fill="#333" fill-rule="evenodd"/>
                          </g>
                          <g id="Grupo_458" data-name="Grupo 458">
                            <path id="Trazado_2472" data-name="Trazado 2472" d="M52.424,1917.074a.626.626,0,0,1-.089-.615,1.815,1.815,0,0,1,.3-.533,1.5,1.5,0,0,0-.015.177,2.454,2.454,0,0,0,.019.355.711.711,0,0,1-.156.556c-.013.019-.026.036-.04.054Z" fill="#333" fill-rule="evenodd"/>
                            <path id="Trazado_2473" data-name="Trazado 2473" d="M52.587,1916.972a.517.517,0,0,1,.409-.334,1.637,1.637,0,0,0,.266-.074C53.081,1916.917,52.886,1917.077,52.587,1916.972Z" fill="#333" fill-rule="evenodd"/>
                          </g>
                          <g id="Grupo_459" data-name="Grupo 459">
                            <path id="Trazado_2474" data-name="Trazado 2474" d="M52.717,1916.469a.552.552,0,0,1-.02-.485,1.353,1.353,0,0,1,.36-.472c-.025.2-.044.389-.078.583A.65.65,0,0,1,52.717,1916.469Z" fill="#333" fill-rule="evenodd"/>
                            <path id="Trazado_2475" data-name="Trazado 2475" d="M53.545,1916.177c-.187.2-.377.407-.67.231a.432.432,0,0,1,.427-.215A1.237,1.237,0,0,0,53.545,1916.177Z" fill="#333" fill-rule="evenodd"/>
                          </g>
                          <g id="Grupo_460" data-name="Grupo 460">
                            <path id="Trazado_2476" data-name="Trazado 2476" d="M53.158,1916.04a.552.552,0,0,1-.047-.485,1.364,1.364,0,0,1,.336-.492c-.016.2-.025.394-.049.587A.656.656,0,0,1,53.158,1916.04Z" fill="#333" fill-rule="evenodd"/>
                            <path id="Trazado_2477" data-name="Trazado 2477" d="M53.968,1915.7c-.176.213-.354.428-.657.269a.44.44,0,0,1,.414-.24A1.088,1.088,0,0,0,53.968,1915.7Z" fill="#333" fill-rule="evenodd"/>
                          </g>
                          <g id="Grupo_461" data-name="Grupo 461">
                            <path id="Trazado_2478" data-name="Trazado 2478" d="M53.509,1915.551a.554.554,0,0,1,.051-.483,1.357,1.357,0,0,1,.427-.414c-.054.19-.1.38-.164.565A.651.651,0,0,1,53.509,1915.551Z" fill="#333" fill-rule="evenodd"/>
                            <path id="Trazado_2479" data-name="Trazado 2479" d="M54.377,1915.311c-.2.195-.394.393-.679.2a.438.438,0,0,1,.436-.2A1.161,1.161,0,0,0,54.377,1915.311Z" fill="#333" fill-rule="evenodd"/>
                          </g>
                          <g id="Grupo_462" data-name="Grupo 462">
                            <path id="Trazado_2480" data-name="Trazado 2480" d="M54.931,1923.162a.729.729,0,0,1-.451-.531,1.655,1.655,0,0,0-.126-.345c.1.068.225.145.338.232A.566.566,0,0,1,54.931,1923.162Z" fill="#333" fill-rule="evenodd"/>
                          </g>
                          <path id="Trazado_2481" data-name="Trazado 2481" d="M54.889,1914.54c-.225.383-.452.768-.972.594a.706.706,0,0,1,.6-.487A1.993,1.993,0,0,0,54.889,1914.54Z" fill="#333" fill-rule="evenodd"/>
                        </g>
                      </g>
                      <g id="Grupo_465" data-name="Grupo 465">
                        <path id="Trazado_2482" data-name="Trazado 2482" d="M55.434,1923.5a.525.525,0,0,1-.49.159,1.518,1.518,0,0,1-.475-.165,1.226,1.226,0,0,0,.147-.014,1.954,1.954,0,0,0,.286-.064.587.587,0,0,1,.476.048l.049.024Z" fill="#333" fill-rule="evenodd"/>
                        <path id="Trazado_2483" data-name="Trazado 2483" d="M54.275,1922.967a.55.55,0,0,1-.485.032,1.352,1.352,0,0,1-.48-.349c.195.02.39.036.584.065A.659.659,0,0,1,54.275,1922.967Z" fill="#333" fill-rule="evenodd"/>
                        <path id="Trazado_2484" data-name="Trazado 2484" d="M54.9,1923.235a.547.547,0,0,1-.467.133,1.356,1.356,0,0,1-.542-.24c.2-.022.388-.048.584-.06A.649.649,0,0,1,54.9,1923.235Z" fill="#333" fill-rule="evenodd"/>
                        <path id="Trazado_2485" data-name="Trazado 2485" d="M53.766,1922.51a.553.553,0,0,1-.483.058,1.357,1.357,0,0,1-.5-.324c.2.011.394.015.588.034A.659.659,0,0,1,53.766,1922.51Z" fill="#333" fill-rule="evenodd"/>
                        <path id="Trazado_2486" data-name="Trazado 2486" d="M53.275,1922.147a.544.544,0,0,1-.485-.027,1.334,1.334,0,0,1-.435-.405c.192.045.385.083.572.135A.655.655,0,0,1,53.275,1922.147Z" fill="#333" fill-rule="evenodd"/>
                      </g>
                    </g>
                  </g>
                  <g id="Grupo_485" data-name="Grupo 485">
                    <g id="Grupo_484" data-name="Grupo 484">
                      <g id="Grupo_482" data-name="Grupo 482">
                        <g id="Grupo_481" data-name="Grupo 481">
                          <g id="Grupo_468" data-name="Grupo 468">
                            <path id="Trazado_2487" data-name="Trazado 2487" d="M59.922,1918.694a.729.729,0,0,0,.418-.655,2.368,2.368,0,0,0-.06-.724c-.083.169-.156.357-.257.523a.989.989,0,0,0-.117.775C59.91,1918.637,59.916,1918.662,59.922,1918.694Z" fill="#333" fill-rule="evenodd"/>
                            <path id="Trazado_2488" data-name="Trazado 2488" d="M59.8,1918.48a.725.725,0,0,0-.3-.628,1.835,1.835,0,0,1-.263-.258c.021.119.039.263.071.4A.566.566,0,0,0,59.8,1918.48Z" fill="#333" fill-rule="evenodd"/>
                          </g>
                          <g id="Grupo_469" data-name="Grupo 469">
                            <path id="Trazado_2489" data-name="Trazado 2489" d="M59.773,1919.547a.733.733,0,0,0,.552-.548,2.378,2.378,0,0,0,.1-.719c-.117.146-.23.315-.365.454a.984.984,0,0,0-.283.731C59.775,1919.489,59.773,1919.515,59.773,1919.547Z" fill="#333" fill-rule="evenodd"/>
                            <path id="Trazado_2490" data-name="Trazado 2490" d="M59.706,1919.311a.722.722,0,0,0-.153-.677,1.638,1.638,0,0,1-.2-.309c-.007.121-.021.266-.02.409A.562.562,0,0,0,59.706,1919.311Z" fill="#333" fill-rule="evenodd"/>
                          </g>
                          <g id="Grupo_470" data-name="Grupo 470">
                            <path id="Trazado_2491" data-name="Trazado 2491" d="M59.7,1920.328a.73.73,0,0,0,.574-.523,2.331,2.331,0,0,0,.131-.714,5.784,5.784,0,0,1-.385.437,1,1,0,0,0-.315.718C59.7,1920.271,59.7,1920.3,59.7,1920.328Z" fill="#333" fill-rule="evenodd"/>
                            <path id="Trazado_2492" data-name="Trazado 2492" d="M59.638,1920.091a.72.72,0,0,0-.122-.684,1.755,1.755,0,0,1-.185-.318c-.011.121-.032.264-.037.408A.565.565,0,0,0,59.638,1920.091Z" fill="#333" fill-rule="evenodd"/>
                          </g>
                          <g id="Grupo_471" data-name="Grupo 471">
                            <path id="Trazado_2493" data-name="Trazado 2493" d="M59.471,1921.119a.727.727,0,0,0,.632-.45,2.337,2.337,0,0,0,.216-.695c-.141.126-.279.273-.435.39a.99.99,0,0,0-.4.674C59.482,1921.063,59.477,1921.087,59.471,1921.119Z" fill="#333" fill-rule="evenodd"/>
                            <path id="Trazado_2494" data-name="Trazado 2494" d="M59.441,1920.877a.719.719,0,0,0-.039-.693,1.724,1.724,0,0,1-.146-.338c-.026.118-.063.259-.087.4A.568.568,0,0,0,59.441,1920.877Z" fill="#333" fill-rule="evenodd"/>
                          </g>
                          <g id="Grupo_472" data-name="Grupo 472">
                            <path id="Trazado_2495" data-name="Trazado 2495" d="M59.073,1921.618a.722.722,0,0,0,.1-.687,1.882,1.882,0,0,1-.076-.36c-.048.11-.112.242-.163.376A.563.563,0,0,0,59.073,1921.618Z" fill="#333" fill-rule="evenodd"/>
                          </g>
                          <g id="Grupo_473" data-name="Grupo 473">
                            <path id="Trazado_2496" data-name="Trazado 2496" d="M58.607,1922.273a.727.727,0,0,0,.215-.661,1.682,1.682,0,0,1-.014-.367c-.067.1-.153.218-.226.342A.567.567,0,0,0,58.607,1922.273Z" fill="#333" fill-rule="evenodd"/>
                          </g>
                          <g id="Grupo_474" data-name="Grupo 474">
                            <path id="Trazado_2497" data-name="Trazado 2497" d="M57.9,1922.752a.722.722,0,0,0,.388-.577,1.743,1.743,0,0,1,.088-.355c-.092.079-.207.168-.311.266A.566.566,0,0,0,57.9,1922.752Z" fill="#333" fill-rule="evenodd"/>
                          </g>
                          <g id="Grupo_475" data-name="Grupo 475">
                            <path id="Trazado_2498" data-name="Trazado 2498" d="M59.961,1916.592c-.064.194-.122.391-.193.583a.9.9,0,0,0,.056.689.587.587,0,0,0,.261-.39,1.252,1.252,0,0,0-.03-.578C60.026,1916.79,59.99,1916.687,59.961,1916.592Z" fill="#333" fill-rule="evenodd"/>
                            <path id="Trazado_2499" data-name="Trazado 2499" d="M60.173,1920.93c-.185.09-.366.185-.552.269a.9.9,0,0,0-.454.521.591.591,0,0,0,.462-.085,1.245,1.245,0,0,0,.391-.426C60.076,1921.115,60.124,1921.018,60.173,1920.93Z" fill="#333" fill-rule="evenodd"/>
                            <path id="Trazado_2500" data-name="Trazado 2500" d="M59.073,1917.021c.043.117.081.252.137.378a.468.468,0,0,0,.481.3.615.615,0,0,0-.32-.486A2.275,2.275,0,0,1,59.073,1917.021Z" fill="#333" fill-rule="evenodd"/>
                          </g>
                          <g id="Grupo_476" data-name="Grupo 476">
                            <path id="Trazado_2501" data-name="Trazado 2501" d="M59.725,1917.074a.624.624,0,0,0,.09-.615,1.862,1.862,0,0,0-.295-.533,1.75,1.75,0,0,1,.015.177,2.6,2.6,0,0,1-.019.355.707.707,0,0,0,.155.556c.013.019.027.036.04.054Z" fill="#333" fill-rule="evenodd"/>
                            <path id="Trazado_2502" data-name="Trazado 2502" d="M59.562,1916.972a.517.517,0,0,0-.408-.334,1.65,1.65,0,0,1-.267-.074C59.067,1916.917,59.263,1917.077,59.562,1916.972Z" fill="#333" fill-rule="evenodd"/>
                          </g>
                          <g id="Grupo_477" data-name="Grupo 477">
                            <path id="Trazado_2503" data-name="Trazado 2503" d="M59.432,1916.469a.552.552,0,0,0,.021-.485,1.353,1.353,0,0,0-.36-.472c.024.2.044.389.077.583A.651.651,0,0,0,59.432,1916.469Z" fill="#333" fill-rule="evenodd"/>
                            <path id="Trazado_2504" data-name="Trazado 2504" d="M58.6,1916.177c.187.2.377.407.669.231a.432.432,0,0,0-.426-.215A1.222,1.222,0,0,1,58.6,1916.177Z" fill="#333" fill-rule="evenodd"/>
                          </g>
                          <g id="Grupo_478" data-name="Grupo 478">
                            <path id="Trazado_2505" data-name="Trazado 2505" d="M58.991,1916.04a.552.552,0,0,0,.047-.485,1.372,1.372,0,0,0-.334-.492c.015.2.023.394.048.587A.659.659,0,0,0,58.991,1916.04Z" fill="#333" fill-rule="evenodd"/>
                            <path id="Trazado_2506" data-name="Trazado 2506" d="M58.182,1915.7c.176.213.353.428.656.269a.44.44,0,0,0-.415-.24A1.077,1.077,0,0,1,58.182,1915.7Z" fill="#333" fill-rule="evenodd"/>
                          </g>
                          <g id="Grupo_479" data-name="Grupo 479">
                            <path id="Trazado_2507" data-name="Trazado 2507" d="M58.64,1915.551a.554.554,0,0,0-.051-.483,1.336,1.336,0,0,0-.427-.414c.054.19.1.38.164.565A.651.651,0,0,0,58.64,1915.551Z" fill="#333" fill-rule="evenodd"/>
                            <path id="Trazado_2508" data-name="Trazado 2508" d="M57.773,1915.311c.195.195.393.393.678.2a.436.436,0,0,0-.435-.2A1.157,1.157,0,0,1,57.773,1915.311Z" fill="#333" fill-rule="evenodd"/>
                          </g>
                          <g id="Grupo_480" data-name="Grupo 480">
                            <path id="Trazado_2509" data-name="Trazado 2509" d="M57.219,1923.162a.73.73,0,0,0,.45-.531,1.777,1.777,0,0,1,.126-.345c-.1.068-.224.145-.339.232A.566.566,0,0,0,57.219,1923.162Z" fill="#333" fill-rule="evenodd"/>
                          </g>
                          <path id="Trazado_2510" data-name="Trazado 2510" d="M57.261,1914.54c.225.383.452.768.971.594a.7.7,0,0,0-.595-.487A1.962,1.962,0,0,1,57.261,1914.54Z" fill="#333" fill-rule="evenodd"/>
                        </g>
                      </g>
                      <g id="Grupo_483" data-name="Grupo 483">
                        <path id="Trazado_2511" data-name="Trazado 2511" d="M56.716,1923.5a.522.522,0,0,0,.489.159,1.51,1.51,0,0,0,.475-.165,1.207,1.207,0,0,1-.146-.014,1.9,1.9,0,0,1-.286-.064.586.586,0,0,0-.476.048l-.049.024Z" fill="#333" fill-rule="evenodd"/>
                        <path id="Trazado_2512" data-name="Trazado 2512" d="M57.875,1922.967a.548.548,0,0,0,.484.032,1.334,1.334,0,0,0,.48-.349c-.195.02-.389.036-.583.065A.652.652,0,0,0,57.875,1922.967Z" fill="#333" fill-rule="evenodd"/>
                        <path id="Trazado_2513" data-name="Trazado 2513" d="M57.244,1923.235a.547.547,0,0,0,.467.133,1.355,1.355,0,0,0,.543-.24c-.2-.022-.389-.048-.584-.06A.651.651,0,0,0,57.244,1923.235Z" fill="#333" fill-rule="evenodd"/>
                        <path id="Trazado_2514" data-name="Trazado 2514" d="M58.384,1922.51a.551.551,0,0,0,.482.058,1.349,1.349,0,0,0,.5-.324c-.2.011-.394.015-.588.034A.659.659,0,0,0,58.384,1922.51Z" fill="#333" fill-rule="evenodd"/>
                        <path id="Trazado_2515" data-name="Trazado 2515" d="M58.875,1922.147a.544.544,0,0,0,.485-.027,1.34,1.34,0,0,0,.434-.405c-.192.045-.384.083-.571.135A.651.651,0,0,0,58.875,1922.147Z" fill="#333" fill-rule="evenodd"/>
                      </g>
                    </g>
                  </g>
                </g>
                <path id="Trazado_2516" data-name="Trazado 2516" d="M56.057,1914.869c-1.677,0-3.035,1.744-3.035,3.893s1.358,3.894,3.035,3.894,3.033-1.744,3.033-3.894S57.733,1914.869,56.057,1914.869Zm-1.468,2.192,0-.005a.665.665,0,0,1,.581-.41,1.366,1.366,0,0,1,.495.011.7.7,0,0,0-.183-.051h0a.012.012,0,0,1-.009-.011l0-.005,0,0,.011-.011a.21.21,0,0,1,.085-.046.6.6,0,0,0-.146-.02h-.017a.432.432,0,0,0-.1.012l0,0h0a.012.012,0,0,1-.01-.012v0l0,0a.17.17,0,0,1,.032-.053l-.005,0a.446.446,0,0,0-.152.036l0,0h0a.011.011,0,0,1-.011-.011v0l0,0,.008-.016a.254.254,0,0,1,.047-.066.714.714,0,0,0-.211-.066h0a.014.014,0,0,1-.008-.011l0-.007,0,0a.528.528,0,0,1,.562.023,1.1,1.1,0,0,1,.285.219l.019-.026a.588.588,0,0,0-.08-.121l0,0v-.006c0-.005,0-.008.008-.009H55.8a.183.183,0,0,1,.083.018.583.583,0,0,0-.084-.1s-.008-.008-.012-.009a.381.381,0,0,0-.07-.047l0,0,0-.007c0-.005,0-.006,0-.009l0,0a.154.154,0,0,1,.049-.014l0-.005a.383.383,0,0,0-.121-.065h0a.011.011,0,0,1-.005-.01l0-.009,0,0,.011,0a.233.233,0,0,1,.07-.017.65.65,0,0,0-.1-.165l0,0v-.006a.012.012,0,0,1,.01-.011h0a.47.47,0,0,1,.355.342.916.916,0,0,1,.045.161h.018a.8.8,0,0,1,.044-.161.47.47,0,0,1,.355-.342h0a.011.011,0,0,1,.011.011v.006l0,0a.631.631,0,0,0-.1.163.225.225,0,0,1,.071.017l.012,0,0,0,.005.009a.011.011,0,0,1-.006.01h0a.373.373,0,0,0-.119.064l0,.005a.137.137,0,0,1,.05.015h0s0,0,0,.009l0,.007,0,0a.356.356,0,0,0-.071.047l-.012.009a.633.633,0,0,0-.084.1.186.186,0,0,1,.083-.018h.015a.008.008,0,0,1,.007.009v.007h0a.622.622,0,0,0-.072.1.22.22,0,0,1,.024.03,1.139,1.139,0,0,1,.272-.206.528.528,0,0,1,.562-.023l0,0,0,.007a.015.015,0,0,1-.007.011h-.005a.743.743,0,0,0-.213.066.259.259,0,0,1,.049.066l.008.016,0,0v0a.01.01,0,0,1-.01.011h0l0,0a.464.464,0,0,0-.153-.036l-.005,0a.191.191,0,0,1,.032.053l0,.005h0a.012.012,0,0,1-.01.012l-.005,0a.439.439,0,0,0-.1-.012h-.018a.583.583,0,0,0-.144.02.224.224,0,0,1,.085.046l.01.011,0,0,0,.005a.011.011,0,0,1-.007.011h-.005a.677.677,0,0,0-.183.051,1.365,1.365,0,0,1,.495-.011.664.664,0,0,1,.58.41l0,.005h0a.012.012,0,0,1-.012.011h0a.87.87,0,0,0-.27-.1.365.365,0,0,1,0,.1l-.006.03,0,0a.009.009,0,0,1-.01.007l-.007,0v-.005a.545.545,0,0,0-.129-.158h-.008a.272.272,0,0,1-.009.082l0,.006-.008.006-.008,0,0,0a.546.546,0,0,0-.089-.092l-.018-.012a.6.6,0,0,0-.161-.091.249.249,0,0,1,.05.109.12.12,0,0,1,0,.025v.005a.011.011,0,0,1-.01.01l0,0,0,0a.921.921,0,0,0-.22-.09,1.542,1.542,0,0,1,.387.268.724.724,0,0,1,.265.732v0a.01.01,0,0,1-.01.006l-.009-.006h0a.967.967,0,0,0-.18-.259.4.4,0,0,1-.065.091.325.325,0,0,1-.028.024l0,0-.005,0a.011.011,0,0,1-.01-.01h0v0a.591.591,0,0,0-.016-.225l-.006-.005a.277.277,0,0,1-.062.069l0,0h-.005a.01.01,0,0,1-.009-.006l0-.007a.517.517,0,0,0-.023-.137l-.007-.023a.77.77,0,0,0-.089-.18.3.3,0,0,1-.023.13l-.014.025,0,0-.008,0-.008-.005,0,0a1.238,1.238,0,0,0-.267-.351l-.051-.047a.349.349,0,0,1-.08.129.32.32,0,0,1,.005.054.271.271,0,0,1-.086.207h0c0,.12.012.8.021,1.316h0v.622h-.214l-.006-.7h0c0-.546-.006-1.224,0-1.244h0v0a.276.276,0,0,1-.081-.2.548.548,0,0,1,.005-.057.4.4,0,0,1-.083-.142q-.035.03-.069.063a1.239,1.239,0,0,0-.267.351v0a.014.014,0,0,1-.01.005l-.007,0,0,0-.015-.025a.3.3,0,0,1-.023-.13.811.811,0,0,0-.089.18.2.2,0,0,1-.008.023.612.612,0,0,0-.023.139h0v0a.012.012,0,0,1-.01.006h0l-.006,0a.27.27,0,0,1-.06-.069l-.006.005a.594.594,0,0,0-.017.225v0a.011.011,0,0,1-.012.01h0l0,0a.192.192,0,0,1-.025-.024.358.358,0,0,1-.067-.091.918.918,0,0,0-.179.259h0a.011.011,0,0,1-.009.006.01.01,0,0,1-.01-.006l0-.005a.725.725,0,0,1,.266-.73,1.56,1.56,0,0,1,.387-.268.921.921,0,0,0-.22.09l0,0h-.005a.01.01,0,0,1-.01-.008v-.005l0-.025a.261.261,0,0,1,.05-.109.561.561,0,0,0-.16.091l-.018.012a.6.6,0,0,0-.09.093l0,0-.005,0a.011.011,0,0,1-.011-.006v-.006a.244.244,0,0,1-.01-.082h-.008a.517.517,0,0,0-.128.159v0l-.009,0a.011.011,0,0,1-.009-.006v0a.177.177,0,0,1-.006-.03.305.305,0,0,1,0-.1.948.948,0,0,0-.27.1l0,0h0a.011.011,0,0,1-.01-.01Zm1.469,5.5c-1.628,0-2.947-1.693-2.947-3.781,0-.029,0-.059,0-.088H55.89v.637l.355,0v-.64h2.761v.088C59.006,1920.87,57.687,1922.563,56.058,1922.563Z" fill="#333" fill-rule="evenodd"/>
              </g>
              <g id="Grupo_488" data-name="Grupo 488">
                <path id="Trazado_2517" data-name="Trazado 2517" d="M58.57,1920.254l-.03-.016a4.171,4.171,0,0,0-1.888-.293c.125-.093.8-.482.85-.364.048.1.088.083.146.073a.14.14,0,0,0,.09-.208c-.07-.128-.256-.109-.417-.037l-.13-.21s.148-.087.248-.028.235.109.248-.034-.164-.262-.428-.14a6.929,6.929,0,0,0-.724.42,1.075,1.075,0,0,0-.829-.085c-.6.1-.61,0-.61,0s0-.246-.194-.237-.144.275-.008.375c.1.073.164.1.442.088a1.947,1.947,0,0,1,.843.136l-.722-.007s-.059,0-.035.072a1.2,1.2,0,0,0,.063.15c-.276,0-1.536-.014-2.031.043.01.04.021.08.031.119.149-.006,1.305-.05,2.087-.005a1.037,1.037,0,0,0,.151.2,11.146,11.146,0,0,0-2.165.038c.016.049.035.1.053.146a15.121,15.121,0,0,1,2.2-.116h.025l.194.007a5.236,5.236,0,0,1,1.766,1.235c.023-.023.045-.048.067-.072a8.614,8.614,0,0,0-1.484-1.2,4.308,4.308,0,0,1,1.584,1.077q.05-.062.1-.126a10.759,10.759,0,0,0-1.508-1.081,4.717,4.717,0,0,1,1.569.995l.074-.114a6.952,6.952,0,0,0-1.553-1.03,4.586,4.586,0,0,1,1.624.911q.033-.058.063-.117a12.634,12.634,0,0,0-1.37-.833,6.394,6.394,0,0,1,1.43.715c.014-.028.026-.056.038-.086a6.515,6.515,0,0,0-1.012-.576,2.833,2.833,0,0,1,1.051.489l.034-.085a3.347,3.347,0,0,0-.556-.309,1.428,1.428,0,0,1,.582.239C58.543,1920.331,58.557,1920.293,58.57,1920.254Zm-1.337-.832-.519.293a1.108,1.108,0,0,0-.065-.192l.472-.285S57.244,1919.4,57.233,1919.422Zm.238-.428c.13-.008.222.138.156.18-.02.013-.071.021-.158-.038a.278.278,0,0,0-.245,0c-.1.056-.547.308-.606.345a.18.18,0,0,0-.043-.036A2.759,2.759,0,0,1,57.471,1918.994Zm-2.311.5c-.144-.005-.265-.049-.293-.164s0-.187.055-.178c.158.023.014.238.224.262a3.108,3.108,0,0,0,.618-.039.958.958,0,0,1,.813.166c.075.1.055.275.1.247s.157-.095.157-.095a2.165,2.165,0,0,1,.688-.3c.2.005.189.195.144.208-.1.028-.054-.047-.165-.082a1.789,1.789,0,0,0-.722.278c-.11.059-.172.112-.22.13-.029-.023-.026-.077-.036-.117-.032-.112-.1-.18-.143-.171s.055.1.1.181c.027.056.01.08,0,.09a.6.6,0,0,1-.092-.124.619.619,0,0,0-.587-.273C55.581,1919.5,55.3,1919.5,55.16,1919.494Zm.319.23.778.02a.3.3,0,0,1,.058.062c.178.262.109.3,0,.376a.087.087,0,0,0-.048.069l-.341,0A.842.842,0,0,1,55.479,1919.724Z" fill="#333"/>
                <path id="Trazado_2518" data-name="Trazado 2518" d="M55.607,1922.32a2.121,2.121,0,0,0,1.635-.341S57.175,1921.873,55.607,1922.32Z" fill="#333"/>
                <path id="Trazado_2519" data-name="Trazado 2519" d="M54.913,1922.052a2.293,2.293,0,0,0,.411.192,14.262,14.262,0,0,1,2.429-.626h0A9.766,9.766,0,0,0,54.913,1922.052Z" fill="#333"/>
                <path id="Trazado_2520" data-name="Trazado 2520" d="M54.45,1921.706a2.862,2.862,0,0,0,.307.247,10.862,10.862,0,0,1,2.721-.573S56.959,1921.191,54.45,1921.706Z" fill="#333"/>
                <path id="Trazado_2521" data-name="Trazado 2521" d="M54.135,1921.365a2.982,2.982,0,0,0,.2.231,12.864,12.864,0,0,1,2.816-.462S56.684,1920.885,54.135,1921.365Z" fill="#333"/>
                <path id="Trazado_2522" data-name="Trazado 2522" d="M56.795,1920.914s-.563-.248-2.9.1c.043.074.089.144.138.213A11.659,11.659,0,0,1,56.795,1920.914Z" fill="#333"/>
                <path id="Trazado_2523" data-name="Trazado 2523" d="M56.425,1920.652a6.056,6.056,0,0,0-2.723.005c.027.058.054.114.083.17A11.55,11.55,0,0,1,56.425,1920.652Z" fill="#333"/>
              </g>
              <g id="Grupo_492" data-name="Grupo 492">
                <g id="Grupo_491" data-name="Grupo 491">
                  <g id="Grupo_489" data-name="Grupo 489">
                    <path id="Trazado_2524" data-name="Trazado 2524" d="M57.31,1914.919a.445.445,0,0,1-.166-.267s-.042-.161-.173-.15c0,0,.072.14.1.215a.4.4,0,0,0,.153.232.479.479,0,0,1-.281-.156c-.121-.137-.134-.121-.134-.121.017.049-.046.042-.025.076a.705.705,0,0,0,.161.171,1.1,1.1,0,0,0,.322.142.272.272,0,0,1,.178.187A.49.49,0,0,0,57.31,1914.919Z" fill="#333"/>
                    <path id="Trazado_2525" data-name="Trazado 2525" d="M55.368,1914.675s-.008-.019-.13.118a.482.482,0,0,1-.282.156.407.407,0,0,0,.154-.232c.03-.075.1-.215.1-.215-.131-.011-.173.15-.173.15a.443.443,0,0,1-.165.267.488.488,0,0,0-.14.329.272.272,0,0,1,.179-.187,1.094,1.094,0,0,0,.321-.142.686.686,0,0,0,.161-.171C55.417,1914.714,55.351,1914.724,55.368,1914.675Z" fill="#333"/>
                    <path id="Trazado_2526" data-name="Trazado 2526" d="M57.474,1913.78a1.266,1.266,0,0,0,.363-.1.279.279,0,0,1,.258.014.491.491,0,0,0-.326-.146c-.174.013-.369-.007-.4-.059l.633-.322-.646.018a1.281,1.281,0,0,0,.272-.261.279.279,0,0,1,.236-.108.491.491,0,0,0-.357.026c-.145.09-.3.162-.365.136l0,0,.446-.548-.573.3a1.266,1.266,0,0,0,.131-.352.269.269,0,0,1,.165-.2.483.483,0,0,0-.311.178c-.093.147-.207.283-.272.281l.184-.692-.424.524a.569.569,0,0,0,.017-.414.266.266,0,0,1,.071-.25.49.49,0,0,0-.213.288c-.027.172-.057.319-.117.343l-.156-.664-.16.639c-.058-.026-.086-.143-.1-.316a.488.488,0,0,0-.2-.3.267.267,0,0,1,.059.253.609.609,0,0,0-.014.39l-.412-.5.185.693c-.064,0-.179-.133-.271-.28a.49.49,0,0,0-.311-.179.277.277,0,0,1,.164.2,1.3,1.3,0,0,0,.131.353l-.573-.3.446.548,0,0c-.059.026-.219-.046-.364-.137a.488.488,0,0,0-.357-.025.274.274,0,0,1,.235.108,1.255,1.255,0,0,0,.272.261l-.645-.018.632.321c-.036.054-.229.073-.4.06a.491.491,0,0,0-.327.147.275.275,0,0,1,.258-.016,1.337,1.337,0,0,0,.363.1l-.577.288.725-.028c-.01.063-.19.181-.353.242a.5.5,0,0,0-.235.27.272.272,0,0,1,.229-.121.589.589,0,0,0,.593-.253.694.694,0,0,0-.226.1.411.411,0,0,1-.293.057.69.69,0,0,0,.321-.19c.052-.061.137-.185.137-.185l-.523.006.484-.268s-.054-.039-.236-.021a.515.515,0,0,1-.3-.054.7.7,0,0,0,.37-.037c.074-.034.2-.111.2-.111l-.463-.222.554-.008s-.029-.061-.2-.13a.506.506,0,0,1-.241-.191.69.69,0,0,0,.344.143,1.992,1.992,0,0,0,.212-.005l-.336-.393.5.233s0-.067-.122-.2a.516.516,0,0,1-.134-.276.7.7,0,0,0,.248.278,1.548,1.548,0,0,0,.175.077l-.116-.491.318.4s.031-.058-.019-.234a.454.454,0,0,1,.017-.307.707.707,0,0,0,.1.36,1.436,1.436,0,0,1,.1.173l.143-.518.1.5s.066-.095.115-.159a.69.69,0,0,0,.117-.352.437.437,0,0,1,0,.305c-.057.174-.015.239-.015.239l.317-.4-.116.492a1.788,1.788,0,0,0,.175-.077.7.7,0,0,0,.248-.279.52.52,0,0,1-.133.277c-.122.136-.123.2-.123.2l.5-.233-.337.393s.131.009.211.005a.708.708,0,0,0,.345-.142.52.52,0,0,1-.241.191c-.169.069-.2.129-.2.129l.555.008-.463.222s.129.077.2.111a.7.7,0,0,0,.37.037.515.515,0,0,1-.3.054c-.182-.018-.236.021-.236.021l.484.269-.522-.006s.083.116.135.177a.678.678,0,0,0,.32.19.413.413,0,0,1-.294-.057.694.694,0,0,0-.226-.1.59.59,0,0,0,.594.253.274.274,0,0,1,.229.121.494.494,0,0,0-.236-.27c-.162-.061-.339-.171-.349-.234l.725.028Zm-1.794-1.321-.008-.023.008.021Z" fill="#333"/>
                  </g>
                  <g id="Grupo_490" data-name="Grupo 490">
                    <path id="Trazado_2527" data-name="Trazado 2527" d="M55.919,1913.518h0l0,0-.008-.005-.008-.006-.031-.017-.031-.015-.031-.012-.03-.01-.03-.008-.03,0-.029,0-.03,0h-.029l-.029,0-.027,0-.027,0-.026.006-.026.008-.024.007-.024.008-.023.009-.021.01-.02.01-.02.01-.019.01-.016.009-.017.011-.014.009-.023.015-.019.015-.01.008,0,0h0l0,0,0,0h.016l.006,0,.008,0,.008,0,.01,0,.009-.008.013-.01.015-.008.018-.009.021-.011.022-.01.024-.01.026-.009.025-.007.029-.009.026-.007.029-.006.029,0,.028,0h.014l.014,0,.013,0h.013l.017,0,.016,0,.015,0,.018.006.031.011.029.014.014.006.015.005.014.005.013.005.013,0,.014,0h.04l.006,0,0,0h0l0,0v-.007Z" fill="#333"/>
                    <path id="Trazado_2528" data-name="Trazado 2528" d="M55.833,1913.607l-.026-.011-.025-.011-.025-.007-.025-.006-.025,0-.024,0h-.049l-.022,0-.023,0-.023,0-.021.006-.022.006-.019.006-.02.006-.019.006-.017.007-.017.008-.03.015-.025.014-.036.024-.013.009h0v0h0l0,0h.023l.013-.005.009-.006.009-.007.013-.006.013-.006.016-.006.017-.007.019-.008.02-.007.021-.007.021,0,.023,0,.023,0,.022,0,.022,0h.075l.015.005.015,0,.03.01.028.01.014,0,.013,0,.013,0,.013,0h.037l.007,0,.005,0-.026-.016Z" fill="#333"/>
                    <path id="Trazado_2529" data-name="Trazado 2529" d="M55.826,1913.688l-.021-.017-.023-.015-.022-.012-.024-.009-.023-.008-.023-.006-.022,0-.023,0h-.022l-.022,0H55.58l-.021,0-.019.006-.022.006-.018.006-.019.007-.017.008-.016.007-.017.009-.015.007-.013.009-.011.007-.022.015-.015.011-.011.009,0,0,.014.007.016.009.022.01.023.011.028.009.029.009.016,0,.017,0,.017,0,.019,0h.017l.02,0h.058l.019,0,.021,0,.022,0,.02-.005.022,0,.021-.007.021-.007.023-.01.022-.01.022-.011.021-.015-.021-.023Zm-.207-.036h.008l.007,0,.006,0,.006,0,.005.006,0,.008,0,.005,0,.008,0,.009,0,.007,0,.006-.005.006-.006.005-.006,0-.007,0h-.015l-.008,0-.007,0-.005-.005,0-.006,0-.006,0-.007v-.017l0-.005,0-.008,0-.006.005,0,.007,0,.008,0Zm-.07-.008.016,0,.019,0,.019,0h0l0,0-.006,0-.005,0,0,0-.005,0,0,0,0,0,0,.006-.005,0v.005l0,.005,0,.005v.023l0,.005,0,.007v0l.005,0,0,.005,0,0,0,0,.005,0,0,0,.005,0,.006,0h.033l0,0,.005,0,.006,0,0,0,0,0,0,0,0-.005,0,0,0,0v-.007l0-.005v-.023l0-.005v-.005l0-.005,0,0,0-.006,0,0,0,0,0,0-.006,0-.005,0,0,0-.006,0h.01l.019,0,.02,0,.018.005h0v0l0,.005,0,.005,0,.006,0,.007v.039l0,.009,0,.008,0,.008-.005.007-.006.008,0,.007-.006.006-.007.006-.009.005-.007,0-.01,0h-.009l-.009,0h-.019l-.009,0h-.008l-.009,0-.008,0-.008-.005-.007-.006-.005-.006-.008-.007-.005-.008-.005-.007,0-.008,0-.008v-.009l0-.01v-.02l0-.013,0-.01,0-.007Zm-.013.136h-.015l-.013,0-.015,0-.025-.009-.023-.007-.021-.008-.017-.008-.015-.007-.011-.005.011-.009.032-.021.021-.014.026-.012.014-.006.015-.007h.005v0l0,.009v.033l0,.007v.013l0,.007,0,.007,0,.006,0,.006,0,.006,0,.005,0,.006,0,.005.006,0,0,0h0Zm.277-.042-.018.008-.019.01-.018.007-.019.006-.018,0-.019.006h-.007l.006-.007.01-.009.008-.01,0-.013.006-.011,0-.012,0-.013v-.026l0-.009v-.01l0,0h.005l.02.01.017.012.021.014.018.016.02.018Z" fill="#333"/>
                    <path id="Trazado_2530" data-name="Trazado 2530" d="M56.91,1913.561l-.017-.012-.025-.017-.014-.009-.015-.009-.017-.009-.018-.011-.021-.009-.019-.011-.021-.009-.023-.01-.024-.008-.025-.007-.026-.007-.025-.005-.028,0-.027,0-.029,0h-.029l-.03,0-.03,0-.03.005-.031.008-.031.01-.031.011-.03.015-.031.018-.01,0-.007.006,0,0,0,0,0,0h0v.005l0,0h0l0,0h.006l.007,0,.007,0H56.3l.014,0,.014,0,.013,0,.013-.005.016-.005.015-.006.029-.012.032-.012.016-.005.016,0,.016,0h.017l.012,0h.027l.014,0,.028,0,.027.005.029.006.028.006.027.009.027.009.024.009.025.009.022.009.022.011.017.01.015.009.013.008.009.007.01,0,.009,0,.006,0,.006,0h.016l0,0v0h0v0l0,0Z" fill="#333"/>
                    <path id="Trazado_2531" data-name="Trazado 2531" d="M56.783,1913.634l-.026-.015-.029-.015-.017-.006-.017-.008-.019-.009-.018-.005-.019-.006-.022-.006-.021,0-.022,0-.024,0-.022,0H56.5l-.025,0-.025,0-.024,0-.025.006-.025.007-.025.011-.027.012-.024.013-.026.016.007,0,.006,0h.036l.013,0,.014,0,.013,0,.014,0,.027-.01.03-.01.015-.005.016,0,.017,0,.016,0h.042l.023,0,.023,0,.022,0,.021.005.022.005.021.007.021.006.019.007.017.007.017.008.013.007.013.006.01.006.008,0,.013.005.011,0h.015v0h0l-.013-.01Z" fill="#333"/>
                    <path id="Trazado_2532" data-name="Trazado 2532" d="M56.771,1913.682l-.012-.008-.014-.008-.015-.009-.016-.007-.017-.008-.016-.007-.02-.007-.018-.007-.02-.006-.02,0-.022-.005-.021,0h-.044l-.022,0-.023,0-.023.005-.022.008-.023.01-.024.012-.023.014-.021.017-.023.021-.022.023.022.012.022.011.022.011.022.01.021.008.022.006.021.005.021.005.022,0,.02,0h.1l.018,0,.016,0,.018-.005.017,0,.015-.005.031-.009.028-.009.023-.01.022-.01.016-.009.014-.007-.014-.01Zm-.221-.042.008,0,.006,0,.006.006,0,.005,0,.006,0,.007v.016l0,.006,0,.008,0,.006-.006,0-.006,0-.008,0-.008,0-.008,0-.007,0-.007,0-.005,0,0-.006,0-.008v-.029l0-.006,0-.005.005-.006.007,0,.007,0h.016Zm-.067-.014.02,0,.019,0h0l-.006,0,0,0,0,0,0,0,0,0,0,0,0,0,0,.006,0,.005v0l0,.006v.022l0,.007v0l0,.006,0,0,0,.005,0,0,0,0,0,0,0,0,0,0h.045l.005,0,0,0,0,0,0,0,0,0,0-.005,0,0,0-.006,0,0v-.007l0-.006v-.01l0-.006v-.006l0,0,0-.005,0-.006,0,0,0,0,0,0,0,0,0,0-.005,0-.006,0h0l.017,0,.019,0,.018.005.011,0,0,.007,0,.011,0,.011v.031l0,.01,0,.007,0,.008,0,.009-.006.006,0,.006-.008.007-.006.006-.008,0-.008,0-.009,0-.008,0h-.038l-.009,0-.009,0-.007,0-.009,0-.007-.006-.007-.007-.005-.006-.005-.006-.005-.009,0-.008,0-.007,0-.01,0-.008v-.03l0-.006,0-.007v-.005l0-.006v0h0Zm-.024.138-.018,0-.018,0-.018-.007-.019-.008-.018-.009-.019-.009-.019-.009.019-.019.019-.016.02-.013.018-.012.02-.01,0,0,0,.005v.058l0,.013.006.012.007.011.007.01.009.009.005.005Zm.311-.044-.015.009-.018.006-.02.008-.023.008-.025.007-.015,0-.014,0-.014.005h-.012l.009-.006.009-.01.008-.013.007-.01.006-.013,0-.013v-.006l0-.008v-.032l0-.009v-.005l0,0,.015.006.015.007.024.013.025.012.03.021.011.008Z" fill="#333"/>
                  </g>
                </g>
                <path id="Trazado_2533" data-name="Trazado 2533" d="M56.813,1914.672a1.156,1.156,0,0,1-1.445,0l-.049.051a1.233,1.233,0,0,0,1.534.005" fill="#333"/>
              </g>
            </g>
          </g>
        </g>
      </g>
    </g>
  </g>
</svg>
