<svg xmlns="http://www.w3.org/2000/svg" width="93.298" height="9.936" viewBox="0 0 93.298 9.936">
  <g id="linaIncentivoResponsive2" transform="translate(-155.714 -612.942)">
    <line id="Línea_62" data-name="Línea 62" x2="81.139" transform="translate(164.766 617.91)" fill="none" stroke="#fff" stroke-miterlimit="10" stroke-width="0.75"/>
    <g id="Grupo_530" data-name="Grupo 530" transform="translate(156.464 613.692)">
      <path id="Trazado_2909" data-name="Trazado 2909" d="M164.9,617.909a4.218,4.218,0,1,1-4.217-4.217A4.219,4.219,0,0,1,164.9,617.909Z" transform="translate(-156.464 -613.692)" fill="none" stroke="#fff" stroke-miterlimit="10" stroke-width="1.5"/>
      <path id="Trazado_2910" data-name="Trazado 2910" d="M161,620.254a2.025,2.025,0,1,1,2.024-2.024A2.027,2.027,0,0,1,161,620.254Z" transform="translate(-156.785 -614.013)" fill="#00b7e8" stroke="#fff" stroke-miterlimit="10" stroke-width="1.5"/>
    </g>
    <path id="Trazado_2946" data-name="Trazado 2946" d="M259.066,620.255a2.025,2.025,0,1,1,2.024-2.024A2.027,2.027,0,0,1,259.066,620.255Z" transform="translate(-12.828 -0.321)" fill="#00b7e8" stroke="#fff" stroke-miterlimit="10" stroke-width="1.5"/>
  </g>
</svg>
