<svg xmlns="http://www.w3.org/2000/svg" width="125.685" height="12.912" viewBox="0 0 125.685 12.912">
  <g id="Linea2ResponsiveIncen2" transform="translate(-155.714 -612.942)">
    <g id="Grupo_530" data-name="Grupo 530" transform="translate(156.464 613.692)">
      <path id="Trazado_2909" data-name="Trazado 2909" d="M167.876,619.4a5.706,5.706,0,1,1-5.705-5.705A5.707,5.707,0,0,1,167.876,619.4Z" transform="translate(-156.464 -613.692)" fill="none" stroke="#fff" stroke-miterlimit="10" stroke-width="1.5"/>
      <path id="Trazado_2910" data-name="Trazado 2910" d="M161.717,621.683a2.739,2.739,0,1,1,2.738-2.738A2.742,2.742,0,0,1,161.717,621.683Z" transform="translate(-156.011 -613.239)" fill="#00b7e8" stroke="#fff" stroke-miterlimit="10" stroke-width="1.5"/>
    </g>
    <path id="Trazado_2946" data-name="Trazado 2946" d="M259.78,621.684a2.739,2.739,0,1,1,2.738-2.738A2.742,2.742,0,0,1,259.78,621.684Z" transform="translate(18.13 0.453)" fill="#00b7e8" stroke="#fff" stroke-miterlimit="10" stroke-width="1.5"/>
  </g>
</svg>
