<?xml version="1.0" encoding="utf-8"?>
<!-- Generator: Adobe Illustrator 25.2.1, SVG Export Plug-In . SVG Version: 6.00 Build 0)  -->
<svg version="1.1" id="Capa_1" xmlns="http://www.w3.org/2000/svg" xmlns:xlink="http://www.w3.org/1999/xlink" x="0px" y="0px"
	 viewBox="0 0 824 183" style="enable-background:new 0 0 824 183;" xml:space="preserve">
<style type="text/css">
	.st0{fill:#FFFFFF;}
	.st1{fill-rule:evenodd;clip-rule:evenodd;fill:#FFFFFF;}
	.st2{fill:#CBD6EB;}
	.st3{fill:#DEE3EF;}
	.st4{fill:#F6F7F9;}
</style>
<g>
	<polygon class="st0" points="155.3,37.08 155.3,57.02 153.28,57.02 153.28,41.07 145.45,54.49 144.45,54.49 136.62,41.16 
		136.62,57.02 134.6,57.02 134.6,37.08 136.34,37.08 144.99,51.87 153.57,37.08 	"/>
	<path class="st0" d="M161.37,42.04h2.02v14.98h-2.02V42.04z M161.34,38.34c-0.28-0.29-0.43-0.63-0.43-1.03c0-0.38,0.15-0.71,0.43-1
		c0.29-0.29,0.63-0.43,1.06-0.43c0.41,0,0.77,0.13,1.05,0.41c0.29,0.28,0.43,0.6,0.43,0.98c0,0.42-0.14,0.77-0.43,1.06
		c-0.28,0.29-0.64,0.43-1.05,0.43C161.98,38.77,161.63,38.63,161.34,38.34"/>
	<path class="st0" d="M181.15,43.57c1.11,1.09,1.66,2.68,1.66,4.77v8.69h-2.02v-8.48c0-1.56-0.39-2.74-1.17-3.56
		c-0.78-0.81-1.89-1.22-3.33-1.22c-1.61,0-2.89,0.48-3.83,1.44c-0.94,0.96-1.41,2.28-1.41,3.97v7.86h-2.02V42.04h1.94v2.77
		c0.55-0.91,1.32-1.62,2.29-2.13c0.98-0.5,2.11-0.76,3.41-0.76C178.54,41.93,180.04,42.47,181.15,43.57"/>
	<path class="st0" d="M188.31,42.04h2.03v14.98h-2.03V42.04z M188.28,38.34c-0.29-0.29-0.43-0.63-0.43-1.03c0-0.38,0.14-0.71,0.43-1
		c0.28-0.29,0.63-0.43,1.05-0.43c0.42,0,0.77,0.13,1.05,0.41c0.29,0.28,0.43,0.6,0.43,0.98c0,0.42-0.14,0.77-0.43,1.06
		c-0.29,0.29-0.63,0.43-1.05,0.43C188.92,38.77,188.57,38.63,188.28,38.34"/>
	<path class="st0" d="M196.5,56.64c-1.11-0.35-1.98-0.79-2.61-1.33l0.91-1.59c0.63,0.49,1.41,0.9,2.36,1.21
		c0.95,0.31,1.94,0.47,2.97,0.47c1.37,0,2.37-0.21,3.03-0.64c0.66-0.43,0.98-1.03,0.98-1.81c0-0.55-0.18-0.98-0.54-1.3
		c-0.36-0.31-0.82-0.55-1.37-0.71c-0.55-0.16-1.28-0.32-2.19-0.47c-1.21-0.23-2.19-0.46-2.93-0.7c-0.74-0.24-1.37-0.64-1.89-1.21
		c-0.52-0.57-0.78-1.36-0.78-2.36c0-1.25,0.52-2.28,1.57-3.08c1.04-0.8,2.5-1.2,4.36-1.2c0.97,0,1.94,0.13,2.91,0.39
		c0.97,0.26,1.76,0.59,2.39,1.01l-0.89,1.62c-1.23-0.86-2.7-1.28-4.41-1.28c-1.29,0-2.26,0.23-2.92,0.69
		c-0.66,0.46-0.99,1.06-0.99,1.79c0,0.57,0.19,1.02,0.56,1.37c0.37,0.34,0.83,0.59,1.38,0.75c0.55,0.16,1.31,0.33,2.28,0.5
		c1.2,0.23,2.16,0.46,2.87,0.68c0.72,0.23,1.34,0.62,1.85,1.17c0.51,0.55,0.77,1.31,0.77,2.28c0,1.31-0.55,2.35-1.64,3.12
		c-1.1,0.77-2.61,1.15-4.54,1.15C198.77,57.16,197.61,56.99,196.5,56.64"/>
	<path class="st0" d="M217.78,56.11c-0.38,0.34-0.85,0.6-1.41,0.79c-0.56,0.18-1.14,0.27-1.75,0.27c-1.4,0-2.49-0.38-3.25-1.14
		c-0.76-0.76-1.14-1.83-1.14-3.22v-9.06h-2.67v-1.71h2.67v-3.27h2.03v3.27h4.55v1.71h-4.55v8.94c0,0.89,0.22,1.57,0.67,2.04
		c0.45,0.46,1.09,0.7,1.92,0.7c0.42,0,0.82-0.07,1.21-0.2c0.39-0.13,0.73-0.32,1.01-0.57L217.78,56.11z"/>
	<path class="st0" d="M223.64,45.05c-0.97,0.92-1.53,2.12-1.66,3.6h10.62c-0.13-1.48-0.69-2.68-1.67-3.6
		c-0.98-0.92-2.2-1.38-3.66-1.38C225.83,43.66,224.62,44.13,223.64,45.05 M234.5,50.16h-12.53c0.11,1.56,0.71,2.81,1.79,3.77
		c1.08,0.96,2.45,1.44,4.1,1.44c0.93,0,1.79-0.17,2.56-0.5c0.78-0.33,1.45-0.82,2.02-1.47l1.14,1.31c-0.67,0.8-1.49,1.4-2.49,1.82
		c-1,0.42-2.09,0.62-3.29,0.62c-1.54,0-2.9-0.33-4.08-0.98c-1.19-0.66-2.11-1.56-2.78-2.72c-0.66-1.16-0.99-2.47-0.99-3.93
		c0-1.46,0.32-2.77,0.95-3.93c0.64-1.16,1.51-2.06,2.62-2.71c1.11-0.64,2.36-0.97,3.74-0.97c1.39,0,2.63,0.32,3.73,0.97
		c1.1,0.65,1.97,1.54,2.59,2.69c0.63,1.15,0.94,2.47,0.94,3.95L234.5,50.16z"/>
	<path class="st0" d="M242.72,42.7c0.94-0.51,2.1-0.77,3.49-0.77v1.96l-0.49-0.03c-1.57,0-2.81,0.48-3.7,1.45
		c-0.89,0.97-1.34,2.33-1.34,4.07v7.63h-2.02V42.04h1.94v2.93C241.07,43.97,241.78,43.21,242.72,42.7"/>
	<path class="st0" d="M250.08,42.04h2.02v14.98h-2.02V42.04z M250.05,38.34c-0.28-0.29-0.43-0.63-0.43-1.03c0-0.38,0.14-0.71,0.43-1
		c0.29-0.29,0.63-0.43,1.06-0.43c0.41,0,0.77,0.13,1.05,0.41c0.29,0.28,0.43,0.6,0.43,0.98c0,0.42-0.14,0.77-0.43,1.06
		c-0.29,0.29-0.64,0.43-1.05,0.43C250.69,38.77,250.34,38.63,250.05,38.34"/>
	<path class="st0" d="M266.73,54.64c0.84-0.48,1.5-1.17,1.98-2.07c0.47-0.89,0.71-1.91,0.71-3.04c0-1.14-0.24-2.16-0.71-3.05
		c-0.48-0.89-1.13-1.58-1.98-2.06c-0.84-0.49-1.8-0.73-2.86-0.73s-2.02,0.24-2.86,0.73c-0.84,0.48-1.51,1.17-1.99,2.06
		c-0.49,0.89-0.73,1.91-0.73,3.05c0,1.14,0.24,2.16,0.73,3.04c0.49,0.9,1.15,1.58,1.99,2.07c0.84,0.49,1.8,0.73,2.86,0.73
		S265.88,55.13,266.73,54.64 M259.96,56.18c-1.16-0.66-2.07-1.56-2.73-2.72c-0.66-1.16-0.99-2.47-0.99-3.93
		c0-1.46,0.33-2.77,0.99-3.93c0.66-1.16,1.58-2.06,2.73-2.71c1.16-0.64,2.46-0.97,3.9-0.97c1.44,0,2.74,0.32,3.9,0.97
		c1.16,0.65,2.07,1.55,2.72,2.71c0.66,1.16,0.99,2.47,0.99,3.93c0,1.46-0.33,2.77-0.99,3.93c-0.66,1.16-1.56,2.06-2.72,2.72
		c-1.16,0.65-2.46,0.98-3.9,0.98C262.42,57.16,261.12,56.84,259.96,56.18"/>
	<path class="st0" d="M292.01,54.64c0.84-0.48,1.51-1.17,1.99-2.07c0.49-0.89,0.73-1.91,0.73-3.04c0-1.14-0.24-2.16-0.73-3.05
		c-0.49-0.89-1.15-1.58-1.99-2.06c-0.84-0.49-1.79-0.73-2.83-0.73c-1.06,0-2.02,0.24-2.87,0.73c-0.84,0.48-1.51,1.17-1.99,2.06
		c-0.49,0.89-0.73,1.91-0.73,3.05c0,1.14,0.24,2.16,0.73,3.04c0.48,0.9,1.15,1.58,1.99,2.07c0.85,0.49,1.8,0.73,2.87,0.73
		C290.22,55.37,291.17,55.13,292.01,54.64 M296.73,35.89v21.13h-1.93v-2.96c-0.61,1.01-1.41,1.78-2.41,2.31
		c-1,0.53-2.12,0.8-3.37,0.8c-1.41,0-2.68-0.32-3.82-0.96c-1.14-0.65-2.03-1.55-2.67-2.71c-0.65-1.16-0.97-2.48-0.97-3.96
		c0-1.48,0.32-2.8,0.97-3.96c0.64-1.16,1.54-2.06,2.67-2.69c1.14-0.63,2.41-0.95,3.82-0.95c1.21,0,2.31,0.25,3.29,0.75
		c0.97,0.51,1.78,1.24,2.4,2.21v-9H296.73z"/>
	<path class="st0" d="M304.55,45.05c-0.98,0.92-1.53,2.12-1.67,3.6h10.62c-0.13-1.48-0.69-2.68-1.67-3.6
		c-0.98-0.92-2.2-1.38-3.66-1.38C306.73,43.66,305.52,44.13,304.55,45.05 M315.41,50.16h-12.53c0.11,1.56,0.71,2.81,1.8,3.77
		c1.08,0.96,2.45,1.44,4.1,1.44c0.93,0,1.78-0.17,2.56-0.5c0.78-0.33,1.45-0.82,2.02-1.47l1.14,1.31c-0.67,0.8-1.5,1.4-2.49,1.82
		c-1,0.42-2.09,0.62-3.29,0.62c-1.54,0-2.9-0.33-4.08-0.98c-1.19-0.66-2.11-1.56-2.78-2.72c-0.66-1.16-0.99-2.47-0.99-3.93
		c0-1.46,0.32-2.77,0.95-3.93c0.64-1.16,1.51-2.06,2.62-2.71c1.11-0.64,2.36-0.97,3.74-0.97s2.63,0.32,3.73,0.97
		c1.1,0.65,1.96,1.54,2.59,2.69c0.63,1.15,0.94,2.47,0.94,3.95L315.41,50.16z"/>
	<path class="st0" d="M152.2,84.51c1.08-0.89,1.62-2.17,1.62-3.82c0-1.68-0.54-2.97-1.62-3.87c-1.08-0.9-2.66-1.35-4.74-1.35h-5.64
		v10.38h5.64C149.54,85.85,151.12,85.4,152.2,84.51 M154.74,71.16c1.95,0.89,3.45,2.13,4.51,3.76c1.06,1.62,1.58,3.55,1.58,5.77
		c0,2.19-0.53,4.11-1.58,5.75c-1.06,1.64-2.56,2.89-4.51,3.76c-1.95,0.87-4.25,1.3-6.9,1.3h-6.02v8.25h-6.92V69.83h12.94
		C150.49,69.83,152.79,70.28,154.74,71.16"/>
	<path class="st0" d="M174.22,77.27c1.35-0.57,2.91-0.85,4.68-0.85v6.15c-0.74-0.06-1.24-0.09-1.5-0.09c-1.91,0-3.4,0.54-4.48,1.6
		c-1.08,1.07-1.63,2.67-1.63,4.8v10.85h-6.66V76.76H171v3.03C171.79,78.68,172.87,77.84,174.22,77.27"/>
	<path class="st0" d="M197.12,92.88c1.1-1.15,1.64-2.7,1.64-4.64c0-1.93-0.55-3.48-1.64-4.63c-1.1-1.16-2.5-1.73-4.21-1.73
		c-1.71,0-3.12,0.58-4.23,1.73c-1.11,1.15-1.66,2.7-1.66,4.63c0,1.94,0.56,3.48,1.66,4.64c1.11,1.15,2.52,1.73,4.23,1.73
		C194.62,94.61,196.02,94.03,197.12,92.88 M186.39,98.56c-1.92-1.01-3.43-2.42-4.51-4.21c-1.08-1.79-1.62-3.83-1.62-6.11
		c0-2.28,0.54-4.31,1.62-6.11c1.08-1.79,2.58-3.2,4.51-4.21c1.92-1.01,4.1-1.52,6.52-1.52c2.42,0,4.58,0.5,6.49,1.52
		c1.91,1.01,3.4,2.41,4.48,4.21c1.08,1.8,1.62,3.83,1.62,6.11c0,2.28-0.54,4.32-1.62,6.11c-1.08,1.79-2.58,3.2-4.48,4.21
		c-1.91,1.01-4.07,1.51-6.49,1.51C190.49,100.08,188.32,99.57,186.39,98.56"/>
	<path class="st0" d="M224.1,92.88c1.11-1.15,1.66-2.7,1.66-4.64c0-1.93-0.55-3.48-1.66-4.63c-1.11-1.16-2.51-1.73-4.19-1.73
		c-1.71,0-3.12,0.57-4.23,1.73c-1.11,1.15-1.67,2.7-1.67,4.63c0,1.94,0.56,3.48,1.67,4.64c1.11,1.15,2.52,1.73,4.23,1.73
		C221.59,94.61,222.98,94.03,224.1,92.88 M232.3,68.04v31.7h-6.37v-2.65c-1.65,2-4.05,2.99-7.18,2.99c-2.16,0-4.12-0.48-5.87-1.45
		c-1.75-0.97-3.13-2.35-4.12-4.14c-1-1.8-1.5-3.87-1.5-6.24c0-2.36,0.5-4.44,1.5-6.24c0.99-1.79,2.37-3.17,4.12-4.14
		c1.75-0.97,3.71-1.45,5.87-1.45c2.93,0,5.23,0.93,6.88,2.77V68.04H232.3z"/>
	<path class="st0" d="M260.53,76.76v22.98h-6.32V97c-0.88,1-1.94,1.76-3.16,2.28s-2.55,0.79-3.97,0.79c-3.02,0-5.41-0.86-7.18-2.61
		c-1.77-1.74-2.65-4.31-2.65-7.73V76.76h6.66v12c0,3.7,1.56,5.55,4.66,5.55c1.6,0,2.88-0.52,3.84-1.56
		c0.97-1.04,1.46-2.59,1.46-4.64V76.76H260.53z"/>
	<path class="st0" d="M270.17,98.56c-1.95-1.01-3.48-2.42-4.57-4.21c-1.1-1.79-1.64-3.83-1.64-6.11c0-2.28,0.55-4.31,1.64-6.11
		c1.1-1.79,2.62-3.2,4.57-4.21c1.95-1.01,4.15-1.52,6.6-1.52c2.42,0,4.54,0.5,6.34,1.52c1.81,1.01,3.13,2.46,3.95,4.34l-5.17,2.78
		c-1.2-2.11-2.92-3.16-5.17-3.16c-1.74,0-3.18,0.57-4.31,1.71c-1.14,1.14-1.71,2.69-1.71,4.65c0,1.97,0.57,3.52,1.71,4.66
		c1.14,1.14,2.58,1.71,4.31,1.71c2.28,0,4-1.06,5.17-3.16l5.17,2.82c-0.83,1.83-2.15,3.25-3.95,4.27c-1.81,1.03-3.92,1.54-6.34,1.54
		C274.32,100.08,272.12,99.57,270.17,98.56"/>
	<path class="st0" d="M294.35,98.56c-1.95-1.01-3.47-2.42-4.57-4.21c-1.1-1.79-1.64-3.83-1.64-6.11c0-2.28,0.54-4.31,1.64-6.11
		c1.1-1.79,2.62-3.2,4.57-4.21c1.95-1.01,4.15-1.52,6.6-1.52c2.42,0,4.54,0.5,6.34,1.52c1.81,1.01,3.13,2.46,3.95,4.34l-5.17,2.78
		c-1.2-2.11-2.92-3.16-5.17-3.16c-1.74,0-3.18,0.57-4.32,1.71c-1.14,1.14-1.71,2.69-1.71,4.65c0,1.97,0.57,3.52,1.71,4.66
		c1.14,1.14,2.58,1.71,4.32,1.71c2.28,0,4-1.06,5.17-3.16l5.17,2.82c-0.82,1.83-2.14,3.25-3.95,4.27c-1.81,1.03-3.92,1.54-6.34,1.54
		C298.5,100.08,296.3,99.57,294.35,98.56"/>
	<path class="st0" d="M314.02,76.76h6.67v22.98h-6.67V76.76z M314.36,72.48c-0.77-0.71-1.15-1.6-1.15-2.65
		c0-1.05,0.39-1.93,1.15-2.64c0.77-0.71,1.77-1.07,2.99-1.07c1.22,0,2.22,0.34,2.99,1.02c0.77,0.69,1.15,1.54,1.15,2.56
		c0,1.11-0.39,2.03-1.15,2.76c-0.77,0.73-1.77,1.09-2.99,1.09C316.13,73.55,315.13,73.2,314.36,72.48"/>
	<path class="st0" d="M338.54,67.66h7.18l-7.73,6.15h-5.21L338.54,67.66z M340.95,92.88c1.1-1.15,1.64-2.7,1.64-4.64
		c0-1.93-0.55-3.48-1.64-4.63c-1.1-1.16-2.5-1.73-4.21-1.73c-1.71,0-3.12,0.58-4.23,1.73c-1.11,1.15-1.66,2.7-1.66,4.63
		c0,1.94,0.56,3.48,1.66,4.64c1.11,1.15,2.52,1.73,4.23,1.73C338.45,94.61,339.85,94.03,340.95,92.88 M330.23,98.56
		c-1.92-1.01-3.43-2.42-4.51-4.21c-1.08-1.79-1.62-3.83-1.62-6.11c0-2.28,0.54-4.31,1.62-6.11c1.08-1.79,2.58-3.2,4.51-4.21
		c1.92-1.01,4.09-1.52,6.52-1.52c2.42,0,4.58,0.5,6.49,1.52c1.91,1.01,3.4,2.41,4.48,4.21c1.08,1.8,1.62,3.83,1.62,6.11
		c0,2.28-0.54,4.32-1.62,6.11c-1.08,1.79-2.58,3.2-4.48,4.21c-1.91,1.01-4.07,1.51-6.49,1.51
		C334.32,100.08,332.15,99.57,330.23,98.56"/>
	<path class="st0" d="M373.59,78.98c1.75,1.71,2.63,4.24,2.63,7.6v13.16h-6.66V87.6c0-1.82-0.4-3.18-1.2-4.08
		c-0.8-0.9-1.95-1.34-3.46-1.34c-1.68,0-3.02,0.52-4.02,1.56c-1,1.04-1.49,2.59-1.49,4.63v11.36h-6.66V76.76h6.36v2.69
		c0.88-0.97,1.98-1.72,3.29-2.24c1.31-0.53,2.75-0.79,4.31-0.79C369.54,76.41,371.84,77.27,373.59,78.98"/>
	<path class="st0" d="M386.68,92.92c0.77,0.75,1.15,1.74,1.15,2.97c0,0.57-0.07,1.14-0.21,1.71c-0.14,0.57-0.46,1.42-0.94,2.56
		l-2.44,6.15h-4.23l1.88-6.79c-0.71-0.29-1.27-0.75-1.69-1.39c-0.41-0.64-0.62-1.39-0.62-2.24c0-1.23,0.39-2.21,1.18-2.97
		c0.78-0.75,1.77-1.13,2.97-1.13C384.93,91.79,385.91,92.17,386.68,92.92"/>
	<rect x="402.79" y="69.83" class="st0" width="6.92" height="29.91"/>
	<path class="st0" d="M436.13,78.98c1.75,1.71,2.63,4.24,2.63,7.6v13.16h-6.66V87.6c0-1.82-0.4-3.18-1.2-4.08
		c-0.8-0.9-1.95-1.34-3.46-1.34c-1.68,0-3.02,0.52-4.02,1.56c-1,1.04-1.49,2.59-1.49,4.63v11.36h-6.67V76.76h6.37v2.69
		c0.89-0.97,1.98-1.72,3.29-2.24c1.31-0.53,2.75-0.79,4.32-0.79C432.08,76.41,434.38,77.27,436.13,78.98"/>
	<path class="st0" d="M458.91,92.88c1.11-1.15,1.67-2.7,1.67-4.64c0-1.93-0.56-3.48-1.67-4.63c-1.11-1.16-2.5-1.73-4.18-1.73
		c-1.71,0-3.12,0.57-4.23,1.73c-1.11,1.15-1.67,2.7-1.67,4.63c0,1.94,0.56,3.48,1.67,4.64c1.11,1.15,2.52,1.73,4.23,1.73
		C456.41,94.61,457.81,94.03,458.91,92.88 M467.12,68.04v31.7h-6.37v-2.65c-1.65,2-4.04,2.99-7.18,2.99c-2.17,0-4.13-0.48-5.87-1.45
		c-1.75-0.97-3.13-2.35-4.12-4.14c-1-1.8-1.5-3.87-1.5-6.24c0-2.36,0.5-4.44,1.5-6.24c0.99-1.79,2.37-3.17,4.12-4.14
		c1.75-0.97,3.71-1.45,5.87-1.45c2.93,0,5.23,0.93,6.88,2.77V68.04H467.12z"/>
	<path class="st0" d="M495.35,76.76v22.98h-6.32V97c-0.88,1-1.94,1.76-3.16,2.28c-1.22,0.53-2.55,0.79-3.97,0.79
		c-3.02,0-5.41-0.86-7.18-2.61c-1.77-1.74-2.65-4.31-2.65-7.73V76.76h6.67v12c0,3.7,1.55,5.55,4.66,5.55c1.59,0,2.87-0.52,3.84-1.56
		c0.97-1.04,1.45-2.59,1.45-4.64V76.76H495.35z"/>
	<path class="st0" d="M502.62,99.37c-1.82-0.47-3.27-1.06-4.35-1.77l2.22-4.78c1.02,0.65,2.26,1.19,3.71,1.6
		c1.45,0.41,2.88,0.62,4.27,0.62c2.82,0,4.23-0.7,4.23-2.09c0-0.66-0.38-1.13-1.15-1.41c-0.77-0.29-1.95-0.53-3.54-0.72
		c-1.88-0.29-3.43-0.61-4.65-0.99c-1.23-0.37-2.28-1.03-3.18-1.96c-0.9-0.94-1.34-2.28-1.34-4.02c0-1.45,0.42-2.74,1.26-3.87
		c0.84-1.13,2.07-2,3.67-2.63c1.61-0.63,3.51-0.94,5.7-0.94c1.63,0,3.24,0.18,4.85,0.53c1.6,0.36,2.94,0.85,3.99,1.47l-2.22,4.74
		c-2.03-1.14-4.23-1.71-6.62-1.71c-1.42,0-2.49,0.2-3.2,0.6c-0.71,0.4-1.07,0.91-1.07,1.54c0,0.71,0.39,1.21,1.16,1.49
		c0.77,0.29,1.99,0.56,3.67,0.81c1.88,0.32,3.42,0.65,4.61,1.01c1.2,0.36,2.24,1,3.12,1.94c0.88,0.94,1.32,2.25,1.32,3.93
		c0,1.43-0.43,2.69-1.28,3.8c-0.85,1.11-2.1,1.97-3.74,2.58c-1.64,0.61-3.58,0.92-5.83,0.92
		C506.31,100.08,504.44,99.85,502.62,99.37"/>
	<path class="st0" d="M536.92,98.63c-0.66,0.48-1.46,0.84-2.42,1.09c-0.95,0.24-1.96,0.36-3.01,0.36c-2.73,0-4.85-0.7-6.34-2.09
		c-1.5-1.39-2.24-3.45-2.24-6.15v-9.44h-3.55v-5.13h3.55v-5.6h6.66v5.6h5.72v5.13h-5.72v9.36c0,0.97,0.25,1.71,0.75,2.24
		c0.5,0.53,1.2,0.79,2.12,0.79c1.05,0,1.95-0.28,2.69-0.85L536.92,98.63z"/>
	<path class="st0" d="M549.2,77.27c1.35-0.57,2.91-0.85,4.68-0.85v6.15c-0.74-0.06-1.24-0.09-1.5-0.09c-1.91,0-3.4,0.54-4.48,1.6
		c-1.08,1.07-1.63,2.67-1.63,4.8v10.85h-6.66V76.76h6.36v3.03C546.77,78.68,547.85,77.84,549.2,77.27"/>
	<path class="st0" d="M556.96,76.76h6.66v22.98h-6.66V76.76z M557.3,72.48c-0.77-0.71-1.15-1.6-1.15-2.65
		c0-1.05,0.39-1.93,1.15-2.64c0.77-0.71,1.77-1.07,2.99-1.07c1.23,0,2.22,0.34,2.99,1.02c0.77,0.69,1.16,1.54,1.16,2.56
		c0,1.11-0.39,2.03-1.16,2.76c-0.77,0.73-1.77,1.09-2.99,1.09C559.06,73.55,558.06,73.2,557.3,72.48"/>
	<path class="st0" d="M580.53,94.8c0.88-0.53,1.51-1.3,1.88-2.33v-2.35h-4.58c-2.73,0-4.1,0.9-4.1,2.69c0,0.85,0.33,1.53,1,2.03
		c0.67,0.5,1.59,0.74,2.76,0.74C578.64,95.59,579.65,95.33,580.53,94.8 M586.22,78.95c1.91,1.7,2.87,4.25,2.87,7.67v13.12h-6.24
		v-2.86c-1.25,2.14-3.59,3.2-7.01,3.2c-1.77,0-3.3-0.3-4.59-0.9c-1.3-0.6-2.29-1.43-2.97-2.48c-0.68-1.06-1.02-2.25-1.02-3.59
		c0-2.14,0.8-3.82,2.41-5.04c1.61-1.23,4.1-1.84,7.45-1.84h5.3c0-1.45-0.45-2.57-1.33-3.35c-0.88-0.79-2.21-1.18-3.97-1.18
		c-1.23,0-2.43,0.19-3.61,0.58c-1.18,0.39-2.19,0.9-3.01,1.56l-2.39-4.66c1.26-0.88,2.76-1.57,4.51-2.05
		c1.75-0.48,3.55-0.72,5.4-0.72C581.57,76.42,584.31,77.26,586.22,78.95"/>
	<path class="st0" d="M627.87,76.76l-10.38,24.39c-1.06,2.65-2.36,4.51-3.91,5.6c-1.55,1.08-3.42,1.62-5.61,1.62
		c-1.2,0-2.38-0.18-3.55-0.55c-1.17-0.37-2.12-0.89-2.86-1.54l2.43-4.74c0.52,0.45,1.11,0.81,1.78,1.07
		c0.67,0.26,1.33,0.39,1.99,0.39c0.91,0,1.65-0.22,2.22-0.67c0.57-0.44,1.08-1.17,1.54-2.2l0.09-0.21l-9.96-23.15h6.88l6.45,15.59
		l6.49-15.59H627.87z"/>
	<polygon class="st0" points="664.18,94.18 664.18,99.74 641.02,99.74 641.02,69.83 663.62,69.83 663.62,75.39 647.9,75.39 
		647.9,81.88 661.78,81.88 661.78,87.27 647.9,87.27 647.9,94.18 	"/>
	<path class="st0" d="M704.44,78.95c1.69,1.7,2.54,4.24,2.54,7.62v13.16h-6.67V87.6c0-1.82-0.38-3.18-1.13-4.08
		c-0.75-0.89-1.83-1.34-3.23-1.34c-1.56,0-2.8,0.5-3.71,1.51c-0.91,1.01-1.36,2.51-1.36,4.51v11.54h-6.67V87.6
		c0-3.62-1.45-5.42-4.36-5.42c-1.54,0-2.76,0.5-3.67,1.51c-0.91,1.01-1.37,2.51-1.37,4.51v11.54h-6.66V76.76h6.37v2.64
		c0.85-0.97,1.9-1.71,3.14-2.22c1.24-0.51,2.6-0.77,4.08-0.77c1.62,0,3.09,0.32,4.4,0.96c1.31,0.64,2.36,1.58,3.16,2.8
		c0.94-1.2,2.13-2.12,3.57-2.78c1.44-0.65,3.01-0.98,4.72-0.98C700.46,76.42,702.75,77.26,704.44,78.95"/>
	<path class="st0" d="M728.53,92.88c1.1-1.15,1.65-2.7,1.65-4.64c0-1.93-0.55-3.48-1.65-4.63c-1.1-1.16-2.5-1.73-4.21-1.73
		c-1.71,0-3.11,0.57-4.2,1.73c-1.1,1.15-1.64,2.7-1.64,4.63c0,1.94,0.55,3.48,1.64,4.64c1.1,1.15,2.5,1.73,4.2,1.73
		C726.03,94.61,727.44,94.03,728.53,92.88 M731.31,77.89c1.75,0.98,3.13,2.36,4.12,4.14c1,1.78,1.5,3.85,1.5,6.22
		s-0.5,4.44-1.5,6.22c-0.99,1.78-2.37,3.16-4.12,4.14c-1.75,0.98-3.7,1.47-5.83,1.47c-2.94,0-5.24-0.93-6.92-2.77v10.72h-6.66V76.76
		h6.37v2.64c1.65-1.99,4.05-2.99,7.22-2.99C727.61,76.42,729.56,76.9,731.31,77.89"/>
	<rect x="740.3" y="68.04" class="st0" width="6.67" height="31.7"/>
	<path class="st0" d="M758.88,82.74c-1.03,0.86-1.65,2.02-1.88,3.5h11.32c-0.23-1.45-0.85-2.62-1.87-3.48
		c-1.03-0.87-2.28-1.3-3.76-1.3C761.18,81.45,759.91,81.88,758.88,82.74 M774.48,90.13h-17.39c0.31,1.42,1.05,2.55,2.22,3.38
		c1.17,0.83,2.62,1.24,4.36,1.24c1.19,0,2.26-0.18,3.18-0.53c0.93-0.35,1.79-0.92,2.58-1.69l3.54,3.85
		c-2.16,2.48-5.32,3.71-9.48,3.71c-2.59,0-4.89-0.51-6.88-1.51c-1.99-1.01-3.53-2.42-4.61-4.21c-1.08-1.79-1.62-3.83-1.62-6.11
		c0-2.25,0.53-4.28,1.6-6.09c1.07-1.81,2.54-3.22,4.4-4.23c1.86-1.01,3.95-1.52,6.26-1.52c2.25,0,4.28,0.48,6.11,1.45
		c1.82,0.97,3.26,2.36,4.29,4.17c1.04,1.81,1.56,3.91,1.56,6.3C774.6,88.42,774.56,89.02,774.48,90.13"/>
	<path class="st0" d="M793.12,92.88c1.1-1.15,1.64-2.7,1.64-4.64c0-1.93-0.55-3.48-1.64-4.63c-1.1-1.16-2.5-1.73-4.21-1.73
		c-1.71,0-3.12,0.58-4.23,1.73c-1.11,1.15-1.66,2.7-1.66,4.63c0,1.94,0.56,3.48,1.66,4.64c1.11,1.15,2.52,1.73,4.23,1.73
		C790.62,94.61,792.03,94.03,793.12,92.88 M782.4,98.56c-1.93-1.01-3.43-2.42-4.51-4.21c-1.09-1.79-1.62-3.83-1.62-6.11
		c0-2.28,0.54-4.31,1.62-6.11c1.08-1.79,2.58-3.2,4.51-4.21c1.92-1.01,4.09-1.52,6.51-1.52c2.42,0,4.58,0.5,6.49,1.52
		c1.91,1.01,3.4,2.41,4.49,4.21c1.08,1.8,1.62,3.83,1.62,6.11c0,2.28-0.54,4.32-1.62,6.11c-1.09,1.79-2.58,3.2-4.49,4.21
		c-1.91,1.01-4.07,1.51-6.49,1.51C786.5,100.08,784.32,99.57,782.4,98.56"/>
	<path class="st0" d="M137.92,133.41c-1.59-0.87-2.83-2.08-3.73-3.63c-0.9-1.55-1.35-3.28-1.35-5.2c0-1.92,0.45-3.65,1.35-5.2
		c0.9-1.55,2.15-2.76,3.75-3.63c1.59-0.88,3.38-1.31,5.35-1.31c1.48,0,2.85,0.24,4.1,0.74c1.26,0.49,2.32,1.22,3.19,2.17l-1.34,1.34
		c-1.56-1.58-3.52-2.36-5.89-2.36c-1.58,0-3.01,0.36-4.3,1.08c-1.29,0.72-2.3,1.71-3.03,2.96c-0.73,1.25-1.1,2.66-1.1,4.21
		c0,1.56,0.37,2.96,1.1,4.21c0.73,1.26,1.74,2.24,3.03,2.96c1.29,0.72,2.73,1.08,4.3,1.08c2.39,0,4.36-0.8,5.89-2.39l1.34,1.34
		c-0.87,0.95-1.94,1.68-3.21,2.18c-1.26,0.5-2.63,0.76-4.11,0.76C141.28,134.72,139.5,134.28,137.92,133.41"/>
	<path class="st0" d="M166.77,121.09c1.11,1.1,1.67,2.69,1.67,4.77v8.69h-2.02v-8.49c0-1.56-0.39-2.74-1.17-3.56
		c-0.78-0.81-1.89-1.22-3.33-1.22c-1.61,0-2.89,0.48-3.83,1.44c-0.94,0.96-1.41,2.28-1.41,3.97v7.86h-2.02v-21.13h2.02v8.77
		c0.55-0.88,1.31-1.55,2.28-2.02c0.97-0.47,2.08-0.71,3.33-0.71C164.16,119.45,165.66,120,166.77,121.09"/>
	<path class="st0" d="M182.89,132.17c0.84-0.49,1.51-1.17,2-2.07c0.48-0.89,0.72-1.91,0.72-3.04c0-1.14-0.24-2.16-0.72-3.05
		c-0.49-0.89-1.15-1.58-2-2.06c-0.84-0.49-1.79-0.73-2.83-0.73c-1.06,0-2.02,0.24-2.86,0.73c-0.85,0.49-1.51,1.17-2,2.06
		c-0.48,0.89-0.73,1.91-0.73,3.05c0,1.14,0.24,2.16,0.73,3.04c0.49,0.9,1.15,1.58,2,2.07c0.84,0.48,1.8,0.72,2.86,0.72
		C181.1,132.89,182.04,132.65,182.89,132.17 M187.6,119.57v14.98h-1.93v-2.96c-0.61,1.01-1.41,1.78-2.41,2.3
		c-1,0.53-2.12,0.8-3.37,0.8c-1.41,0-2.68-0.32-3.82-0.97c-1.14-0.64-2.03-1.54-2.68-2.7c-0.64-1.16-0.97-2.48-0.97-3.96
		c0-1.48,0.32-2.8,0.97-3.96c0.64-1.16,1.54-2.05,2.68-2.69c1.14-0.63,2.41-0.96,3.82-0.96c1.21,0,2.31,0.25,3.29,0.76
		c0.98,0.5,1.78,1.24,2.41,2.21v-2.85H187.6z"/>
	<path class="st0" d="M195.47,133.72c-1.17-0.64-2.08-1.55-2.75-2.72c-0.66-1.17-1-2.48-1-3.94s0.33-2.77,1-3.93
		c0.67-1.16,1.58-2.06,2.75-2.71c1.17-0.64,2.49-0.97,3.97-0.97c1.29,0,2.44,0.25,3.46,0.75c1.02,0.51,1.82,1.24,2.41,2.21
		l-1.51,1.03c-0.49-0.74-1.12-1.3-1.88-1.66c-0.76-0.37-1.58-0.56-2.48-0.56c-1.08,0-2.06,0.24-2.92,0.73
		c-0.86,0.48-1.54,1.17-2.02,2.06c-0.49,0.89-0.73,1.91-0.73,3.05c0,1.16,0.24,2.18,0.73,3.06c0.48,0.88,1.16,1.57,2.02,2.05
		c0.86,0.49,1.84,0.72,2.92,0.72c0.89,0,1.72-0.18,2.48-0.54c0.76-0.36,1.39-0.91,1.88-1.65l1.51,1.03c-0.59,0.97-1.4,1.7-2.42,2.21
		c-1.03,0.5-2.18,0.75-3.45,0.75C197.96,134.69,196.64,134.37,195.47,133.72"/>
	<path class="st0" d="M218.25,132.17c0.85-0.48,1.51-1.17,1.98-2.07c0.48-0.89,0.71-1.91,0.71-3.05c0-1.14-0.23-2.16-0.71-3.05
		c-0.47-0.89-1.13-1.58-1.98-2.06c-0.84-0.49-1.8-0.73-2.86-0.73c-1.06,0-2.02,0.24-2.86,0.73c-0.85,0.48-1.51,1.17-1.99,2.06
		c-0.49,0.89-0.73,1.91-0.73,3.05c0,1.14,0.24,2.16,0.73,3.05c0.48,0.9,1.15,1.58,1.99,2.07c0.84,0.49,1.8,0.72,2.86,0.72
		C216.46,132.89,217.41,132.65,218.25,132.17 M211.49,133.71c-1.16-0.66-2.07-1.56-2.74-2.72c-0.66-1.16-1-2.47-1-3.93
		c0-1.46,0.33-2.77,1-3.93c0.67-1.16,1.58-2.06,2.74-2.71c1.16-0.64,2.46-0.97,3.9-0.97c1.44,0,2.74,0.32,3.9,0.97
		c1.16,0.65,2.07,1.55,2.72,2.71c0.65,1.16,0.98,2.47,0.98,3.93c0,1.46-0.33,2.77-0.98,3.93c-0.66,1.16-1.56,2.06-2.72,2.72
		c-1.16,0.65-2.46,0.98-3.9,0.98C213.95,134.69,212.65,134.36,211.49,133.71"/>
	<path class="st0" d="M249.06,124.58h2.02v9.97h-1.85v-1.68c-0.76,0.61-1.65,1.07-2.66,1.38c-1.01,0.31-2.1,0.47-3.26,0.47
		c-1.78,0-3.44-0.4-4.97-1.2c-1.53-0.8-2.76-1.95-3.69-3.47c-0.93-1.52-1.4-3.32-1.4-5.41c0-1.94,0.45-3.68,1.36-5.22
		c0.91-1.54,2.17-2.76,3.76-3.65c1.6-0.88,3.4-1.32,5.41-1.32c1.52,0,2.92,0.24,4.19,0.73c1.27,0.48,2.34,1.2,3.22,2.15l-1.31,1.34
		c-1.58-1.56-3.58-2.34-6.01-2.34c-1.61,0-3.07,0.36-4.37,1.07c-1.3,0.71-2.32,1.7-3.06,2.98c-0.74,1.27-1.11,2.69-1.11,4.27
		c0,1.69,0.38,3.16,1.13,4.4c0.75,1.24,1.74,2.19,2.99,2.85c1.24,0.65,2.58,0.99,4,0.99c1.04,0,2.06-0.18,3.04-0.53
		c0.98-0.35,1.84-0.89,2.58-1.61V124.58z"/>
	<path class="st0" d="M265.59,132.17c0.84-0.48,1.5-1.17,1.98-2.07c0.47-0.89,0.71-1.91,0.71-3.05c0-1.14-0.24-2.16-0.71-3.05
		c-0.48-0.89-1.13-1.58-1.98-2.06c-0.85-0.49-1.8-0.73-2.87-0.73c-1.06,0-2.01,0.24-2.86,0.73c-0.85,0.48-1.51,1.17-1.99,2.06
		c-0.49,0.89-0.73,1.91-0.73,3.05c0,1.14,0.24,2.16,0.73,3.05c0.49,0.9,1.14,1.58,1.99,2.07c0.84,0.49,1.8,0.72,2.86,0.72
		C263.79,132.89,264.74,132.65,265.59,132.17 M258.82,133.71c-1.16-0.66-2.07-1.56-2.73-2.72c-0.67-1.16-1-2.47-1-3.93
		c0-1.46,0.33-2.77,1-3.93c0.66-1.16,1.57-2.06,2.73-2.71c1.16-0.64,2.46-0.97,3.9-0.97c1.44,0,2.75,0.32,3.9,0.97
		c1.16,0.65,2.07,1.55,2.72,2.71c0.65,1.16,0.98,2.47,0.98,3.93c0,1.46-0.33,2.77-0.98,3.93c-0.66,1.16-1.56,2.06-2.72,2.72
		c-1.16,0.65-2.46,0.98-3.9,0.98C261.28,134.69,259.98,134.36,258.82,133.71"/>
	<path class="st0" d="M284.88,132.17c0.85-0.48,1.52-1.17,2.01-2.07c0.48-0.89,0.73-1.91,0.73-3.05c0-1.14-0.24-2.16-0.73-3.05
		c-0.49-0.89-1.15-1.58-2.01-2.06c-0.86-0.49-1.81-0.73-2.85-0.73c-1.06,0-2.01,0.24-2.86,0.73c-0.84,0.48-1.51,1.17-1.99,2.06
		c-0.48,0.89-0.73,1.91-0.73,3.05c0,1.14,0.24,2.16,0.73,3.05c0.49,0.9,1.15,1.58,1.99,2.07c0.85,0.49,1.8,0.72,2.86,0.72
		C283.08,132.89,284.03,132.65,284.88,132.17 M285.99,120.41c1.14,0.64,2.03,1.53,2.67,2.69c0.65,1.16,0.97,2.48,0.97,3.96
		c0,1.48-0.32,2.8-0.97,3.96c-0.64,1.16-1.54,2.06-2.67,2.71c-1.14,0.65-2.41,0.97-3.82,0.97c-1.25,0-2.38-0.26-3.37-0.8
		c-1-0.53-1.8-1.3-2.41-2.3v2.96h-1.94v-21.13h2.03v9c0.63-0.97,1.43-1.7,2.4-2.21c0.98-0.5,2.07-0.75,3.29-0.75
		C283.58,119.45,284.85,119.77,285.99,120.41"/>
	<path class="st0" d="M293.77,119.57h2.03v14.98h-2.03V119.57z M293.74,115.87c-0.29-0.29-0.43-0.63-0.43-1.03
		c0-0.38,0.14-0.71,0.43-1c0.28-0.29,0.64-0.43,1.05-0.43c0.42,0,0.77,0.14,1.05,0.41c0.29,0.28,0.43,0.6,0.43,0.99
		c0,0.42-0.14,0.77-0.43,1.06c-0.29,0.28-0.63,0.42-1.05,0.42C294.38,116.29,294.02,116.15,293.74,115.87"/>
	<path class="st0" d="M304.52,121.91c-0.83,0.49-1.47,1.16-1.94,2.02c-0.47,0.87-0.7,1.86-0.7,2.98c0,0.29,0.01,0.49,0.03,0.63
		l10.56-2.05c-0.23-1.25-0.81-2.28-1.74-3.09c-0.93-0.81-2.07-1.21-3.42-1.21C306.28,121.19,305.34,121.43,304.52,121.91
		 M310.41,132.39c0.79-0.33,1.46-0.82,2.01-1.47l1.14,1.31c-0.67,0.8-1.49,1.4-2.48,1.82c-0.99,0.41-2.08,0.62-3.27,0.62
		c-1.54,0-2.9-0.33-4.1-0.98c-1.2-0.66-2.13-1.56-2.79-2.72c-0.66-1.16-1-2.47-1-3.93c0-1.46,0.32-2.77,0.95-3.93
		c0.64-1.16,1.51-2.06,2.63-2.71c1.12-0.64,2.39-0.97,3.82-0.97c1.33,0,2.53,0.31,3.6,0.91c1.07,0.6,1.93,1.45,2.56,2.53
		c0.63,1.08,0.97,2.32,1.01,3.7l-12.3,2.39c0.38,1.22,1.07,2.17,2.07,2.86c1,0.69,2.19,1.04,3.58,1.04
		C308.77,132.89,309.62,132.73,310.41,132.39"/>
	<path class="st0" d="M322.69,120.22c0.94-0.51,2.1-0.77,3.49-0.77v1.96l-0.48-0.03c-1.58,0-2.81,0.49-3.7,1.45
		c-0.89,0.97-1.34,2.33-1.34,4.07v7.63h-2.02v-14.98h1.94v2.93C321.04,121.49,321.75,120.73,322.69,120.22"/>
	<path class="st0" d="M342.17,121.09c1.11,1.1,1.67,2.69,1.67,4.77v8.69h-2.02v-8.49c0-1.56-0.39-2.74-1.17-3.56
		c-0.78-0.81-1.89-1.22-3.33-1.22c-1.62,0-2.89,0.48-3.83,1.44c-0.94,0.96-1.41,2.28-1.41,3.97v7.86h-2.02v-14.98h1.94v2.76
		c0.55-0.91,1.32-1.62,2.29-2.12c0.98-0.5,2.11-0.76,3.4-0.76C339.56,119.45,341.06,120,342.17,121.09"/>
	<path class="st0" d="M358.31,132.17c0.84-0.48,1.51-1.17,1.98-2.07c0.48-0.89,0.71-1.91,0.71-3.05c0-1.14-0.24-2.16-0.71-3.05
		c-0.47-0.89-1.13-1.58-1.98-2.06c-0.84-0.49-1.8-0.73-2.86-0.73s-2.02,0.24-2.86,0.73c-0.84,0.48-1.51,1.17-1.99,2.06
		c-0.49,0.89-0.73,1.91-0.73,3.05c0,1.14,0.24,2.16,0.73,3.05c0.49,0.9,1.15,1.58,1.99,2.07c0.84,0.49,1.8,0.72,2.86,0.72
		S357.47,132.65,358.31,132.17 M351.55,133.71c-1.16-0.66-2.07-1.56-2.74-2.72c-0.66-1.16-0.99-2.47-0.99-3.93
		c0-1.46,0.33-2.77,0.99-3.93c0.67-1.16,1.58-2.06,2.74-2.71c1.16-0.64,2.46-0.97,3.9-0.97c1.44,0,2.74,0.32,3.9,0.97
		c1.16,0.65,2.06,1.55,2.72,2.71c0.66,1.16,0.99,2.47,0.99,3.93c0,1.46-0.33,2.77-0.99,3.93c-0.66,1.16-1.56,2.06-2.72,2.72
		c-1.16,0.65-2.46,0.98-3.9,0.98C354.01,134.69,352.71,134.36,351.55,133.71"/>
	<path class="st0" d="M383.6,132.17c0.85-0.48,1.51-1.17,2-2.07c0.48-0.89,0.72-1.91,0.72-3.05c0-1.14-0.24-2.16-0.72-3.05
		c-0.49-0.89-1.15-1.58-2-2.06c-0.84-0.49-1.79-0.73-2.83-0.73c-1.06,0-2.02,0.24-2.86,0.73c-0.85,0.48-1.51,1.17-2,2.06
		c-0.48,0.89-0.73,1.91-0.73,3.05c0,1.14,0.24,2.16,0.73,3.05c0.49,0.9,1.15,1.58,2,2.07c0.84,0.49,1.8,0.72,2.86,0.72
		C381.81,132.89,382.76,132.65,383.6,132.17 M388.32,113.41v21.13h-1.94v-2.96c-0.61,1.01-1.41,1.78-2.41,2.3
		c-1,0.53-2.12,0.8-3.37,0.8c-1.41,0-2.68-0.32-3.82-0.97c-1.14-0.64-2.03-1.54-2.68-2.71c-0.65-1.16-0.97-2.48-0.97-3.96
		c0-1.48,0.32-2.8,0.97-3.96c0.64-1.16,1.54-2.05,2.68-2.69c1.14-0.63,2.41-0.95,3.82-0.95c1.21,0,2.31,0.25,3.29,0.75
		c0.98,0.51,1.78,1.24,2.41,2.21v-9H388.32z"/>
	<path class="st0" d="M397.04,121.91c-0.83,0.49-1.47,1.16-1.93,2.02c-0.47,0.87-0.7,1.86-0.7,2.98c0,0.29,0.01,0.49,0.03,0.63
		l10.57-2.05c-0.23-1.25-0.81-2.28-1.74-3.09c-0.93-0.81-2.07-1.21-3.42-1.21C398.81,121.19,397.87,121.43,397.04,121.91
		 M402.94,132.39c0.79-0.33,1.46-0.82,2.01-1.47l1.14,1.31c-0.67,0.8-1.49,1.4-2.48,1.82c-0.99,0.41-2.08,0.62-3.28,0.62
		c-1.54,0-2.9-0.33-4.1-0.98c-1.2-0.66-2.13-1.56-2.79-2.72c-0.67-1.16-1-2.47-1-3.93c0-1.46,0.32-2.77,0.95-3.93
		c0.64-1.16,1.52-2.06,2.64-2.71c1.12-0.64,2.39-0.97,3.82-0.97c1.33,0,2.53,0.31,3.6,0.91c1.07,0.6,1.93,1.45,2.56,2.53
		c0.64,1.08,0.97,2.32,1.01,3.7l-12.3,2.39c0.38,1.22,1.07,2.17,2.06,2.86c1,0.69,2.19,1.04,3.58,1.04
		C401.3,132.89,402.15,132.73,402.94,132.39"/>
	<path class="st0" d="M425.99,133.64c-0.38,0.34-0.84,0.6-1.4,0.79c-0.55,0.18-1.13,0.27-1.74,0.27c-1.41,0-2.49-0.38-3.24-1.14
		c-0.76-0.76-1.14-1.83-1.14-3.22v-14.04h2.02v3.28h4.53v1.71h-4.53v8.94c0,0.89,0.22,1.57,0.66,2.04c0.44,0.46,1.07,0.7,1.91,0.7
		c0.91,0,1.65-0.26,2.22-0.77L425.99,133.64z"/>
	<path class="st0" d="M438.65,132.17c0.84-0.48,1.5-1.17,1.98-2.07c0.48-0.89,0.71-1.91,0.71-3.05c0-1.14-0.24-2.16-0.71-3.05
		c-0.47-0.89-1.13-1.58-1.98-2.06c-0.85-0.49-1.8-0.73-2.86-0.73c-1.06,0-2.02,0.24-2.87,0.73c-0.84,0.48-1.51,1.17-1.99,2.06
		c-0.49,0.89-0.73,1.91-0.73,3.05c0,1.14,0.24,2.16,0.73,3.05c0.48,0.9,1.15,1.58,1.99,2.07c0.85,0.49,1.8,0.72,2.87,0.72
		C436.85,132.89,437.81,132.65,438.65,132.17 M431.89,133.71c-1.16-0.66-2.07-1.56-2.74-2.72c-0.67-1.16-1-2.47-1-3.93
		c0-1.46,0.33-2.77,1-3.93c0.66-1.16,1.58-2.06,2.74-2.71c1.16-0.64,2.46-0.97,3.9-0.97c1.44,0,2.74,0.32,3.9,0.97
		c1.16,0.65,2.07,1.55,2.72,2.71c0.66,1.16,0.99,2.47,0.99,3.93c0,1.46-0.33,2.77-0.99,3.93c-0.65,1.16-1.56,2.06-2.72,2.72
		c-1.16,0.65-2.46,0.98-3.9,0.98C434.35,134.69,433.05,134.36,431.89,133.71"/>
	<path class="st0" d="M456.48,132.17c0.85-0.48,1.51-1.17,1.99-2.07c0.49-0.89,0.73-1.91,0.73-3.05c0-1.14-0.24-2.16-0.73-3.05
		c-0.49-0.89-1.15-1.58-1.99-2.06c-0.84-0.49-1.79-0.73-2.83-0.73c-1.06,0-2.02,0.24-2.87,0.73c-0.84,0.48-1.51,1.17-1.99,2.06
		c-0.49,0.89-0.73,1.91-0.73,3.05c0,1.14,0.24,2.16,0.73,3.05c0.48,0.9,1.15,1.58,1.99,2.07c0.85,0.49,1.8,0.72,2.87,0.72
		C454.69,132.89,455.63,132.65,456.48,132.17 M461.19,113.41v21.13h-1.93v-2.96c-0.61,1.01-1.41,1.78-2.41,2.3
		c-1,0.53-2.12,0.8-3.38,0.8c-1.4,0-2.68-0.32-3.81-0.97c-1.14-0.64-2.03-1.54-2.68-2.71c-0.64-1.16-0.97-2.48-0.97-3.96
		c0-1.48,0.32-2.8,0.97-3.96c0.65-1.16,1.54-2.05,2.68-2.69c1.14-0.63,2.41-0.95,3.81-0.95c1.22,0,2.31,0.25,3.29,0.75
		c0.97,0.51,1.78,1.24,2.4,2.21v-9H461.19z"/>
	<path class="st0" d="M475.82,132.17c0.84-0.48,1.5-1.17,1.98-2.07c0.48-0.89,0.71-1.91,0.71-3.05c0-1.14-0.24-2.16-0.71-3.05
		c-0.47-0.89-1.13-1.58-1.98-2.06c-0.85-0.49-1.8-0.73-2.86-0.73c-1.06,0-2.02,0.24-2.87,0.73c-0.84,0.48-1.51,1.17-1.99,2.06
		c-0.49,0.89-0.73,1.91-0.73,3.05c0,1.14,0.24,2.16,0.73,3.05c0.48,0.9,1.15,1.58,1.99,2.07c0.85,0.49,1.8,0.72,2.87,0.72
		C474.02,132.89,474.97,132.65,475.82,132.17 M469.05,133.71c-1.16-0.66-2.07-1.56-2.74-2.72c-0.67-1.16-1-2.47-1-3.93
		c0-1.46,0.33-2.77,1-3.93c0.66-1.16,1.58-2.06,2.74-2.71c1.16-0.64,2.46-0.97,3.9-0.97c1.44,0,2.74,0.32,3.9,0.97
		c1.16,0.65,2.07,1.55,2.72,2.71c0.66,1.16,0.99,2.47,0.99,3.93c0,1.46-0.33,2.77-0.99,3.93c-0.65,1.16-1.56,2.06-2.72,2.72
		c-1.16,0.65-2.46,0.98-3.9,0.98C471.51,134.69,470.21,134.36,469.05,133.71"/>
	<path class="st0" d="M485.22,134.16c-1.11-0.35-1.98-0.79-2.61-1.32l0.91-1.6c0.63,0.49,1.41,0.9,2.36,1.21
		c0.95,0.32,1.94,0.47,2.96,0.47c1.36,0,2.38-0.21,3.03-0.64c0.65-0.43,0.98-1.03,0.98-1.81c0-0.55-0.18-0.99-0.54-1.3
		c-0.36-0.31-0.82-0.55-1.37-0.71c-0.55-0.16-1.28-0.32-2.19-0.47c-1.21-0.23-2.19-0.46-2.93-0.7c-0.74-0.23-1.37-0.64-1.89-1.21
		c-0.52-0.57-0.78-1.36-0.78-2.36c0-1.26,0.52-2.28,1.57-3.08c1.04-0.8,2.49-1.2,4.35-1.2c0.97,0,1.94,0.13,2.91,0.39
		c0.97,0.26,1.76,0.59,2.39,1.01l-0.88,1.63c-1.24-0.86-2.71-1.28-4.42-1.28c-1.29,0-2.26,0.23-2.92,0.69
		c-0.65,0.45-0.98,1.05-0.98,1.79c0,0.57,0.19,1.03,0.55,1.37c0.37,0.34,0.83,0.59,1.38,0.75c0.55,0.16,1.31,0.33,2.28,0.5
		c1.2,0.23,2.16,0.46,2.88,0.69c0.72,0.23,1.34,0.62,1.85,1.17c0.52,0.55,0.77,1.31,0.77,2.27c0,1.31-0.55,2.35-1.64,3.12
		c-1.09,0.77-2.61,1.15-4.54,1.15C487.49,134.69,486.32,134.51,485.22,134.16"/>
	<path class="st2" d="M33.59,120.57c-2.46,0-4.92-0.93-6.79-2.8l-0.69-0.69c-3.73-3.73-3.73-9.84,0-13.58l16.1-16.1l14.26,14.27
		l-16.1,16.1C38.52,119.64,36.05,120.57,33.59,120.57 M70.75,87.41L56.48,73.14l16.1-16.1c1.87-1.87,4.33-2.8,6.79-2.8
		c2.46,0,4.92,0.93,6.79,2.8l0.69,0.69c3.73,3.73,3.73,9.84,0,13.58L70.75,87.41"/>
	<path class="st3" d="M79.37,120.57c-2.46,0-4.92-0.93-6.79-2.8l-16.1-16.1l14.27-14.27l16.1,16.1c3.73,3.74,3.73,9.84,0,13.58
		l-0.69,0.69C84.29,119.64,81.83,120.57,79.37,120.57 M42.22,87.41l-16.1-16.1c-3.73-3.73-3.73-9.84,0-13.58l0.69-0.69
		c1.87-1.87,4.33-2.8,6.79-2.8c2.46,0,4.92,0.93,6.79,2.8l16.1,16.1L42.22,87.41"/>
	
		<rect x="46.39" y="77.32" transform="matrix(0.7072 -0.7071 0.7071 0.7072 -45.2615 65.5324)" class="st4" width="20.18" height="20.18"/>
</g>
</svg>
