<?xml version="1.0" encoding="utf-8"?>
<!-- Generator: Adobe Illustrator 25.2.1, SVG Export Plug-In . SVG Version: 6.00 Build 0)  -->
<svg version="1.1" id="Capa_1" xmlns="http://www.w3.org/2000/svg" xmlns:xlink="http://www.w3.org/1999/xlink" x="0px" y="0px"
	 viewBox="0 0 458 183" style="enable-background:new 0 0 458 183;" xml:space="preserve">
<style type="text/css">
	.st0{fill:#FFFFFF;}
	.st1{fill-rule:evenodd;clip-rule:evenodd;fill:#FFFFFF;}
	.st2{fill:#CBD6EB;}
	.st3{fill:#DEE3EF;}
	.st4{fill:#F6F7F9;}
</style>
<g>
	<path class="st0" d="M156.11,108.16h1.55v10.95h-1.45v-2.21c-1.86,1.61-4.32,2.37-6.91,2.37c-5.68,0-11.07-3.98-11.07-11.17
		c0-6.47,4.89-11.23,11.58-11.23c3.19,0,6,1.01,7.95,3.03l-1.01,1.07c-1.93-1.89-4.23-2.62-6.91-2.62c-5.74,0-10,4.16-10,9.75
		c0,6.19,4.67,9.72,9.56,9.72c2.4,0,4.86-0.82,6.72-2.65V108.16z"/>
	<path class="st0" d="M177.27,110.88c0-4.13-2.84-6.94-6.62-6.94c-3.79,0-6.62,2.81-6.62,6.94c0,4.13,2.84,6.94,6.62,6.94
		C174.44,117.82,177.27,115.01,177.27,110.88 M162.42,110.88c0-4.89,3.5-8.36,8.23-8.36c4.73,0,8.23,3.47,8.23,8.36
		c0,4.89-3.5,8.37-8.23,8.37C165.92,119.24,162.42,115.77,162.42,110.88"/>
	<path class="st0" d="M198.6,110.88c0-4.13-2.87-6.94-6.65-6.94c-3.78,0-6.63,2.81-6.63,6.94c0,4.13,2.84,6.94,6.63,6.94
		C195.73,117.82,198.6,115.01,198.6,110.88 M200.18,110.88c0,4.93-3.5,8.37-8.14,8.37c-2.97,0-5.46-1.49-6.75-4.01v3.88h-1.51V95.7
		h1.57v10.7c1.33-2.46,3.79-3.88,6.69-3.88C196.68,102.51,200.18,105.92,200.18,110.88"/>
	<path class="st0" d="M205.07,102.64h1.58v16.47h-1.58V102.64z M204.57,97.37c0-0.69,0.57-1.29,1.29-1.29s1.29,0.57,1.29,1.26
		c0,0.73-0.57,1.29-1.29,1.29S204.57,98.07,204.57,97.37"/>
	<path class="st0" d="M213.05,110.75c0,0.31,0.03,0.66,0.06,0.98l12.56-2.46c-0.44-2.93-2.78-5.36-6.15-5.36
		C215.73,103.9,213.05,106.74,213.05,110.75 M225.33,115.52l0.92,1.04c-1.45,1.77-3.69,2.68-6.21,2.68c-4.98,0-8.52-3.47-8.52-8.37
		c0-4.89,3.34-8.36,8.01-8.36c4.39,0,7.51,3.28,7.73,7.67l-13.92,2.71c0.79,3.03,3.34,4.92,6.72,4.92
		C222.17,117.82,224.07,117.06,225.33,115.52"/>
	<path class="st0" d="M239.94,102.51v1.55l-0.38-0.04c-3.65,0-5.84,2.43-5.84,6.5v8.58h-1.58v-16.47h1.52v3.6
		C234.67,103.84,236.84,102.51,239.94,102.51"/>
	<path class="st0" d="M259.02,109.49v9.62h-1.58v-9.5c0-3.72-1.99-5.68-5.33-5.68c-3.88,0-6.25,2.49-6.25,6.4v8.77h-1.57v-16.47
		h1.51v3.57c1.1-2.31,3.41-3.7,6.53-3.7C256.35,102.51,259.02,104.88,259.02,109.49"/>
	<path class="st0" d="M278.62,110.88c0-4.13-2.84-6.94-6.63-6.94c-3.78,0-6.62,2.81-6.62,6.94c0,4.13,2.84,6.94,6.62,6.94
		C275.78,117.82,278.62,115.01,278.62,110.88 M263.76,110.88c0-4.89,3.5-8.36,8.23-8.36c4.73,0,8.24,3.47,8.24,8.36
		c0,4.89-3.5,8.37-8.24,8.37C267.26,119.24,263.76,115.77,263.76,110.88"/>
	<path class="st0" d="M306.29,110.88c0-4.14-2.84-6.94-6.62-6.94c-3.79,0-6.63,2.81-6.63,6.94c0,4.13,2.84,6.94,6.63,6.94
		C303.45,117.82,306.29,115.01,306.29,110.88 M307.86,95.7v23.41h-1.55v-3.88c-1.29,2.55-3.78,4-6.75,4c-4.64,0-8.14-3.44-8.14-8.36
		c0-4.95,3.5-8.36,8.14-8.36c2.93,0,5.4,1.46,6.72,3.95V95.7H307.86z"/>
	<path class="st0" d="M314.27,110.75c0,0.31,0.03,0.66,0.07,0.98l12.55-2.46c-0.44-2.93-2.78-5.36-6.15-5.36
		C316.95,103.9,314.27,106.74,314.27,110.75 M326.54,115.52l0.92,1.04c-1.45,1.77-3.69,2.68-6.22,2.68c-4.98,0-8.52-3.47-8.52-8.37
		c0-4.89,3.34-8.36,8.01-8.36c4.38,0,7.51,3.28,7.73,7.67l-13.92,2.71c0.79,3.03,3.35,4.92,6.72,4.92
		C323.39,117.82,325.28,117.06,326.54,115.52"/>
	<path class="st0" d="M349.13,118.07c-0.82,0.79-2.15,1.17-3.37,1.17c-2.91,0-4.48-1.71-4.48-4.48V99.05h1.57v3.6h5.24V104h-5.24
		v10.6c0,2.11,1.04,3.28,3.06,3.28c0.98,0,1.89-0.31,2.56-0.92L349.13,118.07z"/>
	<path class="st0" d="M365.98,110.88c0-4.13-2.84-6.94-6.62-6.94c-3.79,0-6.62,2.81-6.62,6.94c0,4.13,2.84,6.94,6.62,6.94
		C363.14,117.82,365.98,115.01,365.98,110.88 M351.12,110.88c0-4.89,3.5-8.36,8.24-8.36c4.73,0,8.23,3.47,8.23,8.36
		c0,4.89-3.5,8.37-8.23,8.37C354.62,119.24,351.12,115.77,351.12,110.88"/>
	<path class="st0" d="M385.54,110.88c0-4.14-2.84-6.94-6.62-6.94c-3.79,0-6.62,2.81-6.62,6.94c0,4.13,2.84,6.94,6.62,6.94
		C382.7,117.82,385.54,115.01,385.54,110.88 M387.12,95.7v23.41h-1.55v-3.88c-1.29,2.55-3.79,4-6.75,4c-4.64,0-8.14-3.44-8.14-8.36
		c0-4.95,3.5-8.36,8.14-8.36c2.93,0,5.4,1.46,6.72,3.95V95.7H387.12z"/>
	<path class="st0" d="M406.84,110.88c0-4.13-2.84-6.94-6.62-6.94c-3.79,0-6.63,2.81-6.63,6.94c0,4.13,2.84,6.94,6.63,6.94
		C404,117.82,406.84,115.01,406.84,110.88 M391.98,110.88c0-4.89,3.5-8.36,8.24-8.36c4.73,0,8.23,3.47,8.23,8.36
		c0,4.89-3.5,8.37-8.23,8.37C395.48,119.24,391.98,115.77,391.98,110.88"/>
	<path class="st0" d="M410.91,117.13l0.73-1.27c1.26,1.07,3.5,1.99,5.93,1.99c3.47,0,4.86-1.23,4.86-3.09
		c0-4.8-10.92-1.27-10.92-7.73c0-2.49,2.08-4.51,6.25-4.51c2.08,0,4.35,0.63,5.65,1.61l-0.73,1.26c-1.39-1.01-3.19-1.48-4.95-1.48
		c-3.22,0-4.64,1.32-4.64,3.09c0,4.95,10.91,1.45,10.91,7.73c0,2.68-2.3,4.51-6.5,4.51C414.79,119.24,412.2,118.32,410.91,117.13"/>
	<path class="st0" d="M134.57,68.98c0-10.32,7.9-17.64,18.66-17.64c6.25,0,11.29,2.28,14.58,6.4l-6.1,5.52
		c-2.13-2.57-4.75-3.97-8-3.97c-5.57,0-9.45,3.88-9.45,9.69c0,5.81,3.88,9.69,9.45,9.69c3.25,0,5.86-1.41,8-3.97l6.1,5.52
		c-3.3,4.12-8.33,6.4-14.58,6.4C142.47,86.61,134.57,79.3,134.57,68.98"/>
	<polygon class="st0" points="204.34,52.02 204.34,85.94 194.74,85.94 194.74,72.71 181.67,72.71 181.67,85.94 172.07,85.94 
		172.07,52.02 181.67,52.02 181.67,64.76 194.74,64.76 194.74,52.02 	"/>
	<path class="st0" d="M231.04,72.27l-4.36-10.85l-4.36,10.85H231.04z M233.85,79.34h-14.34l-2.67,6.59h-9.79l14.97-33.92h9.45
		l15.02,33.92h-9.98L233.85,79.34z"/>
	<path class="st0" d="M246.98,68.98c0-10.32,7.9-17.64,18.66-17.64c6.25,0,11.29,2.28,14.58,6.4l-6.11,5.52
		c-2.13-2.57-4.75-3.97-7.99-3.97c-5.57,0-9.45,3.88-9.45,9.69c0,5.81,3.88,9.69,9.45,9.69c3.24,0,5.86-1.41,7.99-3.97l6.11,5.52
		c-3.3,4.12-8.34,6.4-14.58,6.4C254.88,86.61,246.98,79.3,246.98,68.98"/>
	<path class="st0" d="M310.02,68.98c0-5.86-4.03-9.69-9.16-9.69c-5.14,0-9.16,3.83-9.16,9.69c0,5.86,4.02,9.69,9.16,9.69
		C305.99,78.67,310.02,74.84,310.02,68.98 M282.01,68.98c0-10.18,8-17.64,18.85-17.64c10.85,0,18.85,7.46,18.85,17.64
		c0,10.18-8,17.64-18.85,17.64C290.01,86.61,282.01,79.15,282.01,68.98"/>
	<path class="st0" d="M59.61,124.82l-0.35,2.65c0.27-0.11,3.78-0.03,5.03,0.14c1.26,0.18,3.15,0.85,6.02,0.21
		c2.87-0.65,6.31-0.34,6.31-0.34l-0.46-2.81C76.16,124.67,68.54,127.91,59.61,124.82"/>
	<path class="st0" d="M69.28,134.26l-0.13-0.22L69.28,134.26z M71.41,131.59c-0.77,1.14-1.92,2.06-2.31,2.35l0.04,0.06
		c-0.32-0.49-0.87-0.82-1.48-0.82c-0.56,0-1.06,0.27-1.38,0.69c-0.46-0.36-1.48-1.2-2.2-2.23C67.66,132.16,68.75,132,71.41,131.59
		 M60.38,131.46c0.44,0,1.81,0,2.27,0.03c0.45,0.67,1.55,2.06,3.34,2.95l-0.08,0.53V135C65.32,134.71,61.7,133.36,60.38,131.46
		 M65.9,135.59v0.31c0.19,0.03,1.43,0.18,3.47-1.35l-0.08-0.28l0.08,0.21l0.01,0.03c1.94-0.91,3.07-2.43,3.51-3.09
		c0.53-0.05,1.43-0.11,1.84-0.12c-1.3,2-4.73,3.49-5.29,3.77v0.58c5.05-1.39,7.77-4.25,7.77-4.25l-0.33-2.04
		c0,0-2.94-0.16-5.34,0.41c-2.4,0.57-4.94,0.61-6.35,0.23c-1.42-0.37-6.31-0.4-6.31-0.4l-0.33,1.83
		C58.55,131.42,60.98,134.2,65.9,135.59"/>
	<path class="st0" d="M69.39,137.25l-0.14,0.41L69.39,137.25z M82.6,144.53l0.62-2.13c-7.73-0.37-13.04-5.18-13.78-5.9v0.38
		l-0.04,0.34l0.04-0.34v-0.16c-0.21,0.09-2.01,0.84-3.51,0.33l-0.01-0.06c-0.76,0.74-5.51,5.04-13.16,5.42l0.7,2.45
		c0,0,8.04-1.42,12.78-6.94l0.63,0.56c-6.04,6.89-12.94,8.02-12.94,8.02l0.59,2.02c0,0,5.87-0.22,13.17-9.85l0.54-0.08
		c7.33,9.71,13.24,9.93,13.24,9.93l0.53-1.84c0,0-7.56-1.51-13.1-8.5l0.32-0.42l-0.03,0.06C73.89,143.55,82.6,144.53,82.6,144.53"/>
	<path class="st1" d="M31.06,88.39c-2.59-1.16-3.72-3.42-4-6.27c-0.23-2.4,0.1-4.77,0.57-6.93c0.79,1.62,1.49,3.42,2.46,5
		c1.44,2.36,1.72,4.78,1.12,7.41C31.17,87.84,31.12,88.08,31.06,88.39"/>
	<path class="st1" d="M32.18,86.34c0.14-2.53,0.76-4.65,2.84-6.01c0.97-0.63,1.73-1.7,2.51-2.47c-0.2,1.14-0.37,2.52-0.68,3.85
		C36.23,84.41,34.68,85.95,32.18,86.34"/>
	<path class="st1" d="M32.48,96.55c-2.77-0.57-4.38-2.53-5.27-5.24c-0.74-2.3-0.94-4.66-0.95-6.88c1.13,1.4,2.2,3.01,3.5,4.34
		c1.92,1.98,2.71,4.28,2.71,7C32.47,96,32.48,96.24,32.48,96.55"/>
	<path class="st1" d="M33.13,94.3c-0.43-2.49-0.29-4.7,1.46-6.48c0.81-0.83,1.31-2.02,1.9-2.96c0.06,1.16,0.2,2.55,0.19,3.92
		C36.66,91.54,35.48,93.36,33.13,94.3"/>
	<path class="st1" d="M33.22,104.02c-2.8-0.44-4.48-2.33-5.49-5c-0.86-2.25-1.14-4.62-1.25-6.83c1.18,1.36,2.33,2.91,3.68,4.19
		c2,1.9,2.9,4.15,3.02,6.87C33.18,103.47,33.21,103.72,33.22,104.02"/>
	<path class="st1" d="M33.77,101.75c-0.53-2.49-0.5-4.69,1.17-6.55c0.78-0.86,1.22-2.08,1.77-3.04c0.1,1.16,0.3,2.53,0.36,3.91
		C37.18,98.83,36.09,100.72,33.77,101.75"/>
	<path class="st1" d="M35.38,111.58c-2.83-0.1-4.73-1.77-6.05-4.3c-1.11-2.14-1.69-4.46-2.06-6.65c1.34,1.21,2.66,2.62,4.16,3.73
		c2.22,1.63,3.38,3.79,3.82,6.45C35.27,111.05,35.32,111.28,35.38,111.58"/>
	<path class="st1" d="M35.65,109.27c-0.83-2.4-1.04-4.6,0.37-6.63c0.67-0.95,0.97-2.22,1.4-3.23c0.25,1.13,0.61,2.48,0.83,3.84
		C38.68,105.97,37.82,107.97,35.65,109.27"/>
	<path class="st1" d="M39.18,116.36c-1.28-2.2-1.93-4.3-0.93-6.58c0.45-1.07,0.51-2.37,0.72-3.44c0.46,1.05,1.09,2.31,1.56,3.6
		C41.5,112.51,41.07,114.67,39.18,116.36"/>
	<path class="st1" d="M43.63,122.62c-1.63-1.94-2.64-3.91-2.05-6.32c0.28-1.13,0.11-2.41,0.13-3.52c0.65,0.96,1.47,2.1,2.17,3.28
		C45.26,118.43,45.19,120.64,43.63,122.62"/>
	<path class="st1" d="M50.42,127.21c-2.1-1.4-3.61-3.03-3.71-5.52c-0.04-1.15-0.56-2.35-0.84-3.4c0.88,0.75,1.97,1.61,2.97,2.55
		C50.83,122.75,51.38,124.87,50.42,127.21"/>
	<path class="st1" d="M30.69,68.28c0.61,1.86,1.17,3.74,1.84,5.58c0.83,2.32,0.39,4.45-0.53,6.59c-1.31-0.87-2.16-2.08-2.5-3.73
		c-0.4-1.9-0.18-3.73,0.29-5.53C30.06,70.17,30.4,69.19,30.69,68.28"/>
	<path class="st1" d="M28.66,109.77c1.77,0.86,3.5,1.77,5.28,2.58c2.24,1.02,3.45,2.83,4.34,4.98c-1.53,0.33-3,0.09-4.41-0.82
		c-1.63-1.04-2.8-2.48-3.75-4.07C29.58,111.55,29.12,110.62,28.66,109.77"/>
	<path class="st1" d="M39.18,72.38c-0.41,1.13-0.78,2.42-1.31,3.62c-0.9,2.05-2.49,2.93-4.6,2.87c0.47-2.06,1.14-3.81,3.06-4.65
		C37.34,73.77,38.24,73.01,39.18,72.38"/>
	<path class="st1" d="M32.94,72.89c-1.4-1.78-1.53-3.76-0.85-5.88c0.59-1.86,1.58-3.4,2.82-5.1c-0.07,0.72-0.15,1.21-0.14,1.7
		c0.02,1.14,0,2.29,0.18,3.4c0.33,2.1-0.35,3.77-1.49,5.32l-0.39,0.52L32.94,72.89z"/>
	<path class="st1" d="M34.5,71.91c0.86-1.78,2.03-2.98,3.91-3.19c0.92-0.11,1.8-0.49,2.54-0.71C39.23,71.39,37.36,72.92,34.5,71.91"
		/>
	<path class="st1" d="M35.75,67.11c-0.79-1.57-0.85-3.07-0.2-4.65c0.78-1.88,2.09-3.24,3.45-4.51c-0.24,1.87-0.43,3.72-0.74,5.58
		C37.96,65.1,36.91,66.11,35.75,67.11"/>
	<path class="st1" d="M43.66,64.32c-1.79,1.94-3.6,3.88-6.41,2.2c1.07-1.43,2.32-2.32,4.09-2.05
		C42.11,64.56,42.91,64.36,43.66,64.32"/>
	<path class="st1" d="M39.96,63c-0.88-1.53-1.01-3.03-0.45-4.63c0.68-1.93,1.91-3.35,3.21-4.71c-0.15,1.88-0.24,3.77-0.46,5.62
		C42.06,60.86,41.07,61.93,39.96,63"/>
	<path class="st1" d="M47.71,59.76c-1.69,2.04-3.39,4.09-6.28,2.57c1-1.49,2.19-2.45,3.96-2.29C46.16,60.1,46.96,59.86,47.71,59.76"
		/>
	<path class="st1" d="M43.33,58.32c-0.55-1.67-0.39-3.16,0.49-4.63c1.05-1.76,2.55-2.9,4.08-3.96c-0.52,1.81-0.98,3.63-1.57,5.4
		C45.81,56.67,44.62,57.5,43.33,58.32"/>
	<path class="st1" d="M51.62,56.03c-1.87,1.86-3.77,3.76-6.49,1.95c1.12-1.38,2.42-2.21,4.17-1.9
		C50.06,56.22,50.88,56.05,51.62,56.03"/>
	<path class="st1" d="M56.92,131.13c-2.25-1.18-3.93-2.62-4.31-5.08c-0.17-1.14-0.81-2.27-1.21-3.3c0.95,0.65,2.15,1.38,3.24,2.22
		C56.83,126.63,57.6,128.69,56.92,131.13"/>
	<path class="st1" d="M56.52,48.65c-2.15,3.67-4.32,7.35-9.29,5.69c1.18-2.63,2.84-4.44,5.69-4.66
		C54.16,49.57,55.36,48.97,56.52,48.65"/>
	<path class="st1" d="M61.73,134.34c-1.25,1.38-2.84,1.77-4.68,1.52c-1.58-0.21-2.99-0.81-4.55-1.58c0.6-0.04,1.01-0.04,1.4-0.13
		c0.92-0.18,1.87-0.31,2.74-0.61c1.67-0.57,3.12-0.26,4.55,0.46l0.47,0.23L61.73,134.34z"/>
	<path class="st1" d="M50.64,129.27c-1.54,0.83-3.05,0.92-4.64,0.3c-1.91-0.73-3.29-2.01-4.59-3.34c1.87,0.2,3.72,0.34,5.59,0.63
		C48.59,127.1,49.62,128.12,50.64,129.27"/>
	<path class="st1" d="M56.68,131.82c-1.33,1.14-2.78,1.55-4.47,1.28c-2.02-0.32-3.64-1.28-5.19-2.3c1.88-0.21,3.72-0.45,5.58-0.57
		C54.21,130.14,55.44,130.92,56.68,131.82"/>
	<path class="st1" d="M45.77,124.89c-1.51,0.91-3,1.08-4.61,0.56c-1.96-0.64-3.4-1.83-4.78-3.1c1.88,0.1,3.77,0.14,5.63,0.33
		C43.59,122.83,44.69,123.81,45.77,124.89"/>
	<path class="st1" d="M41.08,121.42c-1.63,0.64-3.13,0.56-4.63-0.26c-1.82-0.95-3.02-2.39-4.16-3.87c1.84,0.43,3.68,0.79,5.47,1.29
		C39.3,119.02,40.2,120.16,41.08,121.42"/>
	<path class="st1" d="M104.66,88.39c2.59-1.16,3.72-3.42,4-6.27c0.23-2.4-0.1-4.77-0.58-6.93c-0.79,1.62-1.49,3.42-2.46,5
		c-1.44,2.36-1.72,4.78-1.12,7.41C104.55,87.84,104.61,88.08,104.66,88.39"/>
	<path class="st1" d="M103.54,86.34c-0.13-2.53-0.76-4.65-2.83-6.01c-0.97-0.63-1.73-1.7-2.51-2.47c0.2,1.14,0.37,2.52,0.68,3.85
		C99.49,84.41,101.04,85.95,103.54,86.34"/>
	<path class="st1" d="M103.24,96.55c2.77-0.57,4.38-2.53,5.27-5.24c0.74-2.3,0.93-4.66,0.95-6.88c-1.13,1.4-2.2,3.01-3.5,4.34
		c-1.91,1.98-2.71,4.28-2.71,7C103.25,96,103.24,96.24,103.24,96.55"/>
	<path class="st1" d="M102.59,94.3c0.42-2.49,0.29-4.7-1.46-6.48c-0.82-0.83-1.31-2.02-1.9-2.96c-0.06,1.16-0.2,2.55-0.19,3.92
		C99.06,91.54,100.24,93.36,102.59,94.3"/>
	<path class="st1" d="M102.5,104.02c2.79-0.44,4.48-2.33,5.49-5c0.85-2.25,1.14-4.62,1.25-6.83c-1.18,1.36-2.33,2.91-3.68,4.19
		c-2,1.9-2.9,4.15-3.01,6.87C102.54,103.47,102.52,103.72,102.5,104.02"/>
	<path class="st1" d="M101.95,101.75c0.54-2.49,0.5-4.69-1.17-6.55c-0.77-0.86-1.22-2.08-1.77-3.04c-0.11,1.16-0.3,2.53-0.36,3.91
		C98.54,98.83,99.64,100.72,101.95,101.75"/>
	<path class="st1" d="M100.35,111.58c2.82-0.1,4.72-1.77,6.05-4.3c1.11-2.14,1.69-4.46,2.06-6.65c-1.34,1.21-2.67,2.62-4.16,3.73
		c-2.22,1.63-3.38,3.79-3.81,6.45C100.46,111.05,100.41,111.28,100.35,111.58"/>
	<path class="st1" d="M100.07,109.27c0.83-2.4,1.05-4.6-0.37-6.63c-0.67-0.95-0.98-2.22-1.4-3.23c-0.24,1.13-0.6,2.48-0.83,3.84
		C97.04,105.97,97.9,107.97,100.07,109.27"/>
	<path class="st1" d="M96.54,116.36c1.28-2.2,1.93-4.3,0.93-6.58c-0.46-1.07-0.51-2.37-0.73-3.44c-0.46,1.05-1.08,2.31-1.57,3.6
		C94.22,112.51,94.66,114.67,96.54,116.36"/>
	<path class="st1" d="M92.09,122.62c1.63-1.94,2.64-3.91,2.06-6.32c-0.29-1.13-0.11-2.41-0.14-3.52c-0.64,0.96-1.46,2.1-2.16,3.28
		C90.46,118.43,90.54,120.64,92.09,122.62"/>
	<path class="st1" d="M85.29,127.21c2.1-1.4,3.62-3.03,3.71-5.52c0.05-1.15,0.57-2.35,0.84-3.4c-0.87,0.75-1.98,1.61-2.98,2.55
		C84.89,122.75,84.35,124.87,85.29,127.21"/>
	<path class="st1" d="M105.04,68.28c-0.61,1.86-1.17,3.74-1.84,5.58c-0.83,2.32-0.39,4.45,0.53,6.59c1.3-0.87,2.16-2.08,2.5-3.73
		c0.4-1.9,0.18-3.73-0.29-5.53C105.66,70.17,105.32,69.19,105.04,68.28"/>
	<path class="st1" d="M107.07,109.77c-1.77,0.86-3.5,1.77-5.28,2.58c-2.24,1.02-3.45,2.83-4.34,4.98c1.53,0.33,2.99,0.09,4.42-0.82
		c1.63-1.04,2.79-2.48,3.74-4.07C106.14,111.55,106.6,110.62,107.07,109.77"/>
	<path class="st1" d="M96.54,72.38c0.41,1.13,0.78,2.42,1.31,3.62c0.91,2.05,2.5,2.93,4.6,2.87c-0.47-2.06-1.15-3.81-3.06-4.65
		C98.39,73.77,97.48,73.01,96.54,72.38"/>
	<path class="st1" d="M102.78,72.89c1.41-1.78,1.54-3.76,0.86-5.88c-0.59-1.86-1.58-3.4-2.83-5.1c0.07,0.72,0.16,1.21,0.15,1.7
		c-0.03,1.14,0,2.29-0.19,3.4c-0.33,2.1,0.35,3.77,1.49,5.32l0.38,0.52L102.78,72.89z"/>
	<path class="st1" d="M101.22,71.91c-0.87-1.78-2.03-2.98-3.9-3.19c-0.92-0.11-1.8-0.49-2.55-0.71
		C96.49,71.39,98.36,72.92,101.22,71.91"/>
	<path class="st1" d="M99.97,67.11c0.79-1.57,0.85-3.07,0.21-4.65c-0.78-1.88-2.09-3.24-3.44-4.51c0.23,1.87,0.42,3.72,0.74,5.58
		C97.76,65.1,98.81,66.11,99.97,67.11"/>
	<path class="st1" d="M92.07,64.32c1.78,1.94,3.6,3.88,6.4,2.2c-1.06-1.43-2.31-2.32-4.08-2.05C93.62,64.56,92.81,64.36,92.07,64.32
		"/>
	<path class="st1" d="M95.76,63c0.87-1.53,1.01-3.03,0.45-4.63c-0.67-1.93-1.91-3.35-3.2-4.71c0.14,1.88,0.22,3.77,0.46,5.62
		C93.66,60.86,94.66,61.93,95.76,63"/>
	<path class="st1" d="M88.02,59.76c1.68,2.04,3.38,4.09,6.28,2.57c-1-1.49-2.19-2.45-3.97-2.29C89.56,60.1,88.76,59.86,88.02,59.76"
		/>
	<path class="st1" d="M92.4,58.32c0.56-1.67,0.39-3.16-0.49-4.63c-1.04-1.76-2.54-2.9-4.08-3.96c0.51,1.81,0.98,3.63,1.57,5.4
		C89.91,56.67,91.1,57.5,92.4,58.32"/>
	<path class="st1" d="M84.11,56.03c1.87,1.86,3.76,3.76,6.49,1.95c-1.13-1.38-2.42-2.21-4.17-1.9
		C85.66,56.22,84.85,56.05,84.11,56.03"/>
	<path class="st1" d="M78.8,131.13c2.25-1.18,3.93-2.62,4.31-5.08c0.17-1.14,0.81-2.27,1.21-3.3c-0.96,0.65-2.15,1.38-3.24,2.22
		C78.9,126.63,78.13,128.69,78.8,131.13"/>
	<path class="st1" d="M79.21,48.65c2.15,3.67,4.32,7.35,9.29,5.69c-1.19-2.63-2.84-4.44-5.69-4.66
		C81.56,49.57,80.36,48.97,79.21,48.65"/>
	<path class="st1" d="M73.99,134.34c1.26,1.38,2.85,1.77,4.68,1.52c1.59-0.21,3-0.81,4.55-1.58c-0.6-0.04-1.01-0.04-1.4-0.13
		c-0.93-0.18-1.87-0.31-2.74-0.61c-1.68-0.57-3.13-0.26-4.56,0.46l-0.47,0.23L73.99,134.34z"/>
	<path class="st1" d="M85.08,129.27c1.54,0.83,3.05,0.92,4.64,0.3c1.91-0.73,3.3-2.01,4.59-3.34c-1.87,0.2-3.72,0.34-5.58,0.63
		C87.14,127.1,86.1,128.12,85.08,129.27"/>
	<path class="st1" d="M79.04,131.82c1.34,1.14,2.79,1.55,4.47,1.28c2.02-0.32,3.64-1.28,5.19-2.3c-1.87-0.21-3.72-0.45-5.59-0.57
		C81.51,130.14,80.29,130.92,79.04,131.82"/>
	<path class="st1" d="M89.95,124.89c1.51,0.91,3,1.08,4.62,0.56c1.95-0.64,3.4-1.83,4.78-3.1c-1.88,0.1-3.77,0.14-5.62,0.33
		C92.13,122.83,91.04,123.81,89.95,124.89"/>
	<path class="st1" d="M94.65,121.42c1.64,0.64,3.13,0.56,4.64-0.26c1.81-0.95,3.02-2.39,4.16-3.87c-1.84,0.43-3.68,0.79-5.47,1.29
		C96.43,119.02,95.52,120.16,94.65,121.42"/>
	<path class="st1" d="M67.71,125.4c-15.57,0-28.2-16.2-28.2-36.17c0-0.27,0.01-0.57,0.01-0.84H66.1l0.01,6.09l3.4,0.03l-0.01-6.12
		H95.9v0.84C95.9,109.2,83.28,125.4,67.71,125.4 M53.65,72.77l0.02-0.05c0.74-1.98,2.4-3.41,5.56-3.92c1.58-0.27,3.31-0.2,4.73,0.1
		c-0.67-0.27-1.28-0.44-1.75-0.49h-0.02h-0.03l-0.07-0.11l0.01-0.06l0.03-0.02l0.1-0.11c0.21-0.18,0.48-0.34,0.8-0.44
		c-0.49-0.14-0.95-0.18-1.39-0.19l-0.16,0.01c-0.33,0-0.64,0.04-0.93,0.12l-0.01,0.02h-0.04l-0.1-0.11v-0.02l0.03-0.03l0.3-0.51
		l-0.04-0.03c-0.53,0.03-1.01,0.15-1.46,0.34l-0.04,0.02l-0.01,0.01l-0.1-0.11v-0.03l0.02-0.03L59.17,67l0.45-0.63
		c-0.72-0.34-1.39-0.55-2.02-0.63l-0.03,0l-0.07-0.1l0.03-0.07l0.03-0.03c1.43-0.88,3.15-0.96,5.38,0.23
		c1.02,0.53,1.99,1.31,2.72,2.1l0.19-0.25c-0.25-0.49-0.51-0.87-0.77-1.16l-0.03-0.02l-0.01-0.06l0.06-0.09l0.02-0.01h0.03l0.1,0
		c0.24,0,0.52,0.04,0.79,0.17c-0.24-0.37-0.51-0.67-0.8-0.94l-0.12-0.08l-0.66-0.45l-0.03-0.01l-0.04-0.07l0.04-0.09l0.03-0.02
		l0.47-0.14l-0.01-0.05c-0.36-0.28-0.74-0.48-1.16-0.62h0l-0.05-0.09l0.04-0.08l0.04-0.02l0.11-0.03l0.67-0.16
		c-0.27-0.64-0.6-1.16-0.95-1.58l-0.03-0.03l-0.01-0.05l0.1-0.11l0.04,0.01c1.43,0.26,2.61,1.2,3.4,3.27
		c0.18,0.5,0.33,1.03,0.42,1.54l0.17,0c0.09-0.53,0.23-1.06,0.42-1.54c0.79-2.07,1.97-3.01,3.4-3.27l0.03-0.01l0.1,0.11l-0.01,0.05
		l-0.03,0.04c-0.35,0.42-0.68,0.92-0.96,1.57l0.68,0.16l0.11,0.03l0.03,0.02l0.05,0.08l-0.06,0.09l-0.03,0.01
		c-0.41,0.14-0.79,0.34-1.14,0.61l-0.02,0.05l0.47,0.14l0.03,0.01l0.04,0.09l-0.04,0.07l-0.02,0.01l-0.67,0.45l-0.12,0.08
		c-0.28,0.27-0.56,0.57-0.8,0.94c0.27-0.13,0.54-0.17,0.79-0.17l0.1,0l0.04,0.01l0.07,0.09l-0.01,0.06l-0.02,0.01
		c-0.23,0.25-0.46,0.6-0.69,1l0.23,0.28c0.71-0.75,1.64-1.46,2.6-1.97c2.23-1.19,3.95-1.11,5.37-0.22l0.04,0.03l0.03,0.07l-0.08,0.1
		l-0.05,0c-0.62,0.08-1.3,0.29-2.03,0.63L76.04,67l0.08,0.15l0.02,0.03v0.03l-0.1,0.1h-0.03l-0.03-0.02
		c-0.46-0.19-0.95-0.32-1.47-0.34l-0.04,0.03l0.31,0.51l0.02,0.04v0.01l-0.09,0.11l-0.05-0.03c-0.29-0.07-0.6-0.12-0.92-0.12
		l-0.17-0.01c-0.43,0.01-0.89,0.05-1.38,0.19c0.31,0.09,0.6,0.26,0.81,0.44l0.1,0.11l0.03,0.02l0.02,0.06l-0.07,0.11h-0.03H73
		c-0.48,0.05-1.09,0.21-1.75,0.49c1.41-0.31,3.15-0.37,4.73-0.1c3.16,0.51,4.81,1.94,5.56,3.92l0.03,0.05v0.01l-0.11,0.1l-0.04-0.01
		l-0.01,0c-0.7-0.41-1.55-0.75-2.58-0.97c0.04,0.31,0.04,0.64-0.02,0.99l-0.06,0.29l-0.01,0.03l-0.09,0.07l-0.08-0.03l-0.01-0.05
		c-0.31-0.57-0.71-1.08-1.24-1.51l-0.07-0.01c0.01,0.28-0.02,0.55-0.09,0.79l-0.02,0.05l-0.08,0.06l-0.07-0.03l-0.02-0.04
		c-0.25-0.31-0.53-0.61-0.85-0.87l-0.17-0.12c-0.44-0.35-0.95-0.64-1.54-0.87c0.25,0.34,0.42,0.69,0.47,1.04l0.03,0.24v0.05
		l-0.1,0.09l-0.04-0.02l-0.03-0.02c-0.5-0.31-1.23-0.61-2.1-0.87c1.28,0.62,2.61,1.52,3.7,2.57c2.52,2.43,3.12,4.75,2.54,7
		l-0.01,0.03l-0.1,0.06l-0.08-0.06l-0.01-0.01c-0.37-0.81-0.93-1.64-1.72-2.47c-0.16,0.31-0.37,0.6-0.63,0.87l-0.26,0.23l-0.03,0.03
		l-0.05,0.02l-0.1-0.09v-0.02c0.09-0.72,0.04-1.44-0.16-2.16l-0.06-0.05c-0.16,0.26-0.37,0.49-0.59,0.65l-0.03,0.04l-0.05,0
		l-0.09-0.06l-0.01-0.07c-0.01-0.43-0.09-0.86-0.22-1.31l-0.07-0.22c-0.19-0.57-0.47-1.15-0.85-1.72c0.02,0.46-0.06,0.88-0.22,1.24
		l-0.13,0.24l-0.02,0.03l-0.07,0.04l-0.08-0.05l-0.02-0.03c-0.39-0.92-1.31-2.16-2.56-3.36l-0.48-0.45
		c-0.19,0.49-0.44,0.92-0.77,1.23l0.05,0.53c0,0.83-0.33,1.55-0.83,1.97c0.01,1.14,0.11,7.62,0.21,12.59h0.01l0,5.94h-2.04
		l-0.06-6.65c-0.03-5.23-0.06-11.71-0.03-11.9h0l0-0.01c-0.47-0.43-0.78-1.14-0.78-1.94l0.05-0.55c-0.34-0.36-0.61-0.81-0.79-1.36
		l-0.66,0.61c-1.24,1.2-2.16,2.44-2.56,3.36v0.03l-0.09,0.05l-0.07-0.03L61.8,75.9l-0.14-0.24c-0.15-0.36-0.24-0.77-0.22-1.24
		c-0.38,0.57-0.65,1.15-0.84,1.72l-0.08,0.22c-0.13,0.45-0.2,0.89-0.21,1.33l0,0.01l0,0.04L60.2,77.8h-0.04l-0.05-0.05l-0.58-0.65
		l-0.06,0.05c-0.2,0.72-0.24,1.44-0.16,2.16l0.01,0.02l-0.11,0.09l-0.04-0.01l-0.04-0.04l-0.24-0.23c-0.27-0.27-0.48-0.56-0.64-0.87
		c-0.79,0.83-1.36,1.67-1.72,2.47l-0.02,0.01l-0.08,0.06l-0.09-0.06l-0.02-0.05c-0.58-2.24,0.02-4.56,2.54-6.99
		c1.09-1.05,2.42-1.95,3.7-2.57c-0.87,0.26-1.61,0.55-2.1,0.87l-0.03,0.02l-0.05,0l-0.1-0.08v-0.02v-0.03l0.03-0.24
		c0.06-0.36,0.23-0.71,0.48-1.04c-0.6,0.23-1.1,0.52-1.54,0.87l-0.17,0.12c-0.33,0.27-0.61,0.58-0.86,0.88l-0.02,0.03l-0.07,0.03
		l-0.09-0.06l-0.01-0.05c-0.07-0.24-0.1-0.51-0.09-0.79l-0.08,0.01c-0.52,0.43-0.92,0.94-1.22,1.51l-0.01,0.03l-0.09,0.04
		l-0.09-0.06l-0.01-0.03l-0.06-0.29c-0.07-0.35-0.07-0.68-0.03-0.99c-1.02,0.22-1.87,0.56-2.58,0.96l-0.03,0.02l-0.04,0.01
		l-0.1-0.09V72.77z M67.69,51.8c-16.04,0-29.03,16.69-29.03,37.24c0,20.57,12.99,37.25,29.03,37.25c16.03,0,29.02-16.68,29.02-37.25
		C96.71,68.49,83.72,51.8,67.69,51.8"/>
	<path class="st0" d="M62.16,98.24l7.44,0.2l0.56,0.59c1.7,2.51,1.04,2.88-0.04,3.6c-0.34,0.21-0.47,0.46-0.46,0.65l-3.26,0.04
		C66.4,103.32,63.33,102.09,62.16,98.24 M59.11,96.04c-1.38-0.04-2.53-0.47-2.8-1.57c-0.3-1.22,0-1.78,0.53-1.69
		c1.51,0.21,0.14,2.28,2.14,2.5c0.9,0.12,4.21-0.04,5.91-0.37c1.7-0.34,5.91-0.55,7.78,1.59c0.71,0.98,0.52,2.63,0.96,2.36
		c0.44-0.26,1.51-0.91,1.51-0.91s4.64-2.94,6.58-2.91c1.94,0.04,1.8,1.87,1.37,1.99c-0.98,0.27-0.52-0.45-1.58-0.79
		c-1.06-0.34-4.56,1.39-6.9,2.66c-1.05,0.57-1.64,1.08-2.1,1.25c-0.27-0.23-0.25-0.74-0.35-1.13c-0.31-1.07-0.97-1.72-1.36-1.63
		c-0.39,0.11,0.52,0.92,0.91,1.74c0.26,0.53,0.1,0.76-0.04,0.86c-0.24-0.21-0.51-0.6-0.87-1.19c-1.4-2.36-3.58-2.51-5.62-2.61
		C63.14,96.09,60.49,96.07,59.11,96.04 M81.22,91.25c1.24-0.07,2.13,1.32,1.48,1.73c-0.19,0.13-0.68,0.2-1.51-0.36
		c-0.41-0.3-1.56-0.41-2.34,0.01c-0.97,0.53-5.23,2.95-5.79,3.3l-0.42-0.34C72.65,95.58,78.7,91.25,81.22,91.25 M78.94,95.36
		l-4.97,2.79c0,0-0.38-1.52-0.62-1.83l4.51-2.73L78.94,95.36z M91.73,103.31l-0.29-0.15c-6.28-3.07-14.63-2.98-18.06-2.8
		c1.19-0.88,7.68-4.61,8.12-3.47c0.47,0.92,0.85,0.79,1.4,0.7c0.56-0.1,1.35-0.76,0.86-1.99c-0.67-1.23-2.44-1.05-3.98-0.36
		l-1.24-2.01c0,0,1.42-0.83,2.37-0.26c0.96,0.56,2.25,1.04,2.37-0.32c0.13-1.37-1.57-2.51-4.1-1.34c-2.87,1.33-6.92,4.02-6.92,4.02
		s-2.26-1.82-7.94-0.82c-5.68,1-5.83-0.02-5.83-0.02s-0.02-2.34-1.85-2.26c-1.83,0.06-1.38,2.63-0.07,3.59
		c0.95,0.7,1.57,0.91,4.22,0.84c2.12-0.06,5.88,0.13,8.06,1.31l-6.9-0.07c0,0-0.56-0.04-0.33,0.7c0.07,0.23,0.28,0.76,0.61,1.43
		c-2.65-0.03-14.69-0.13-19.43,0.41c0.1,0.38,0.2,0.77,0.3,1.13c1.42-0.05,12.48-0.48,19.96-0.04c0.42,0.69,0.92,1.36,1.44,1.87
		c-3.12-0.39-9.19-0.61-20.71,0.37c0.16,0.47,0.33,0.94,0.51,1.4c0.9-0.12,10.4-1.38,21.08-1.11h0.24c0.62,0.02,1.23,0.04,1.85,0.07
		c6.37,1.63,14.87,9.79,16.9,11.81l0.64-0.69c-2.72-3.86-14.19-11.44-14.19-11.44c5.84,1.22,13.56,8.71,15.15,10.3
		c0.31-0.39,0.61-0.79,0.91-1.2c-3.25-3.55-14.42-10.35-14.42-10.35c5.94,1.57,13.11,7.79,15,9.52c0.24-0.36,0.47-0.72,0.71-1.09
		c-3.4-4.09-14.85-9.86-14.85-9.86c6.78,1.62,13.74,7.2,15.53,8.72c0.21-0.37,0.41-0.74,0.6-1.12c-2.5-2.26-13.11-7.97-13.11-7.97
		c3.3,0.37,12.42,6.06,13.68,6.84c0.13-0.26,0.26-0.54,0.37-0.83c-1.28-1.48-9.69-5.51-9.69-5.51c4,0.46,9.11,4,10.05,4.68
		c0.12-0.28,0.22-0.55,0.33-0.82c-1.21-1.09-5.32-2.96-5.32-2.96c2.2,0.19,4.64,1.67,5.57,2.29
		C91.47,104.05,91.6,103.69,91.73,103.31"/>
	<path class="st0" d="M63.39,123.08c0,0,9.05,2.04,15.63-3.27C79.03,119.81,78.39,118.8,63.39,123.08"/>
	<path class="st0" d="M56.75,120.51c1.26,0.74,2.58,1.36,3.93,1.84c7.14-3.2,22.97-5.95,23.23-5.99l0.01,0
		C83.71,116.35,73.97,115.81,56.75,120.51"/>
	<path class="st0" d="M52.33,117.2c0.93,0.86,1.91,1.66,2.93,2.36c2.08-0.76,12.77-4.48,26.03-5.49
		C81.28,114.08,76.32,112.28,52.33,117.2"/>
	<path class="st0" d="M49.3,113.94c0.62,0.77,1.26,1.51,1.94,2.21c1.98-0.56,15.04-4.13,26.94-4.42
		C78.18,111.73,73.7,109.35,49.3,113.94"/>
	<path class="st0" d="M74.75,109.63c0,0-5.38-2.37-27.78,0.94c0.42,0.7,0.86,1.38,1.32,2.03C49.87,112.21,62.33,109.29,74.75,109.63
		"/>
	<path class="st0" d="M71.22,107.12c0,0-7.09-2.77-26.05,0.04c0.26,0.55,0.52,1.09,0.8,1.63C47.11,108.58,60.9,106.14,71.22,107.12"
		/>
	<path class="st0" d="M79.67,52.27c-1.15-0.92-1.4-1.83-1.58-2.55c0,0-0.4-1.53-1.66-1.44c0,0,0.69,1.35,0.99,2.06
		c0.44,1.09,0.62,1.65,1.47,2.22c0,0-1.54-0.17-2.7-1.5c-1.16-1.31-1.27-1.16-1.27-1.16c0.16,0.47-0.44,0.41-0.24,0.73
		c0.48,0.7,1.07,1.33,1.54,1.64c0.69,0.47,1.35,0.83,3.07,1.37c1.14,0.35,1.72,1.51,1.71,1.78C81.01,55.42,80.96,53.32,79.67,52.27"
		/>
	<path class="st0" d="M61.1,49.94c0,0-0.08-0.18-1.24,1.13c-1.16,1.32-2.7,1.5-2.7,1.5c0.84-0.57,1.02-1.13,1.47-2.22
		c0.29-0.71,0.99-2.06,0.99-2.06c-1.26-0.1-1.65,1.44-1.65,1.44c-0.19,0.72-0.43,1.63-1.58,2.55c-1.28,1.05-1.34,3.15-1.34,3.15
		c0-0.28,0.57-1.43,1.71-1.78c1.72-0.54,2.37-0.9,3.08-1.37c0.47-0.31,1.06-0.93,1.54-1.64C61.57,50.32,60.94,50.42,61.1,49.94"/>
	<path class="st0" d="M64.09,28.75l-0.08-0.23l0.08,0.2L64.09,28.75z M81.25,41.38c0,0,1.85-0.19,3.47-0.96
		c1.09-0.52,2.29-0.06,2.48,0.14c0,0-1.47-1.51-3.12-1.4c-1.67,0.12-3.52-0.07-3.87-0.57l6.06-3.08l-6.18,0.17
		c0,0,1.53-1.03,2.61-2.49c0.71-0.96,1.99-1.13,2.25-1.03c0,0-2.01-0.63-3.42,0.25c-1.38,0.86-2.91,1.55-3.48,1.3l0.03-0.03
		l4.26-5.24l-5.48,2.84c0,0,0.92-1.61,1.25-3.37c0.22-1.19,1.3-1.9,1.58-1.91c0,0-2.08,0.29-2.98,1.7
		c-0.88,1.41-1.98,2.71-2.59,2.69l1.76-6.62l-4.06,5.01c0,0,0.84-1.44,0.16-3.96c-0.31-1.16,0.44-2.24,0.68-2.39
		c0,0-1.79,1.11-2.04,2.75c-0.25,1.65-0.55,3.06-1.11,3.28L68,22.11l-1.53,6.11c-0.56-0.25-0.83-1.37-1-3.03
		c-0.17-1.66-1.91-2.85-1.91-2.85c0.23,0.15,0.93,1.27,0.57,2.42c-0.62,1.9-0.31,3.22-0.13,3.73l-3.94-4.82l1.76,6.62
		c-0.61,0.03-1.71-1.26-2.6-2.67c-0.89-1.42-2.97-1.72-2.97-1.72c0.27,0.04,1.35,0.73,1.57,1.91c0.33,1.77,1.26,3.38,1.26,3.38
		l-5.48-2.85l4.27,5.24l0.02,0.04c-0.56,0.25-2.09-0.43-3.48-1.31C53,31.44,51,32.08,51,32.08c0.26-0.09,1.54,0.07,2.25,1.04
		c1.07,1.45,2.6,2.49,2.6,2.49l-6.17-0.17l6.05,3.07c-0.35,0.51-2.2,0.69-3.86,0.57c-1.66-0.11-3.13,1.4-3.13,1.4
		c0.19-0.2,1.39-0.66,2.47-0.15c1.63,0.77,3.47,0.98,3.47,0.98l-5.52,2.76l6.94-0.27c-0.1,0.61-1.81,1.73-3.37,2.32
		c-1.56,0.61-2.26,2.58-2.26,2.58c0.09-0.26,0.99-1.19,2.19-1.16c1.8,0.01,4.14,0.11,5.68-2.41c0,0-0.65,0.07-2.16,0.97
		c-1.51,0.89-2.81,0.55-2.81,0.55c0.98-0.28,2.3-0.9,3.08-1.82c0.49-0.58,1.31-1.77,1.31-1.77l-5,0.06l4.63-2.57
		c0,0-0.51-0.37-2.25-0.2c-1.75,0.19-2.9-0.51-2.9-0.51c1.01,0.15,2.47,0.14,3.54-0.36c0.71-0.33,1.94-1.06,1.94-1.06l-4.43-2.12
		l5.3-0.09c0,0-0.27-0.58-1.9-1.24c-1.63-0.66-2.3-1.82-2.3-1.82c0.82,0.61,2.11,1.29,3.3,1.37c0.78,0.05,2.03-0.05,2.03-0.05
		l-3.22-3.76l4.81,2.23c0,0,0-0.64-1.17-1.94c-1.17-1.31-1.28-2.64-1.28-2.64c0.47,0.9,1.34,2.08,2.37,2.66
		c0.68,0.38,1.68,0.74,1.68,0.74l-1.11-4.7l3.05,3.8c0,0,0.29-0.56-0.19-2.24c-0.47-1.7,0.16-2.93,0.16-2.93
		c0.02,1.02,0.28,2.46,0.95,3.44c0.44,0.64,0.92,1.66,0.92,1.66l1.37-4.95l0.97,4.79c0,0,0.64-0.91,1.1-1.53
		c0.73-0.94,1.05-2.36,1.12-3.37c0,0,0.57,1.25,0.02,2.92c-0.55,1.66-0.15,2.28-0.15,2.28l3.04-3.8l-1.11,4.71
		c0,0,0.99-0.37,1.68-0.74c1.04-0.58,1.9-1.75,2.37-2.67c0,0-0.11,1.34-1.28,2.65c-1.17,1.3-1.18,1.94-1.18,1.94l4.81-2.24
		l-3.22,3.77c0,0,1.26,0.09,2.02,0.04c1.18-0.06,2.48-0.75,3.3-1.35c0,0-0.67,1.15-2.3,1.82c-1.62,0.67-1.91,1.24-1.91,1.24
		l5.31,0.07l-4.43,2.12c0,0,1.24,0.74,1.94,1.06c1.07,0.5,2.54,0.51,3.54,0.36c0,0-1.13,0.7-2.89,0.52c-1.74-0.17-2.26,0.2-2.26,0.2
		l4.64,2.57l-5-0.06c0,0,0.79,1.11,1.29,1.69c0.76,0.92,2.09,1.54,3.07,1.82c0,0-1.3,0.34-2.81-0.55c-1.51-0.9-2.16-0.97-2.16-0.97
		c1.55,2.52,3.88,2.43,5.68,2.41c1.21-0.03,2.11,0.9,2.19,1.16c0,0-0.7-1.97-2.26-2.58c-1.56-0.59-3.25-1.64-3.34-2.24l6.94,0.27
		L81.25,41.38z"/>
	<polygon class="st0" points="66.37,38.88 66.36,38.86 66.32,38.84 66.25,38.79 66.17,38.73 65.88,38.56 65.58,38.42 65.28,38.3 
		64.99,38.21 64.71,38.13 64.42,38.09 64.14,38.06 63.85,38.04 63.57,38.04 63.3,38.06 63.04,38.09 62.78,38.13 62.53,38.19 
		62.28,38.26 62.05,38.33 61.82,38.4 61.6,38.49 61.39,38.59 61.2,38.68 61.01,38.77 60.83,38.87 60.68,38.95 60.51,39.06 
		60.38,39.14 60.16,39.28 59.98,39.43 59.88,39.51 59.85,39.54 59.85,39.55 59.85,39.56 59.87,39.58 59.9,39.6 59.93,39.62 
		59.95,39.62 60.01,39.62 60.05,39.6 60.12,39.58 60.19,39.56 60.26,39.54 60.36,39.51 60.44,39.43 60.56,39.33 60.71,39.26 
		60.88,39.17 61.07,39.07 61.28,38.98 61.51,38.88 61.77,38.79 62,38.71 62.28,38.63 62.53,38.56 62.81,38.51 63.08,38.46 
		63.34,38.44 63.48,38.43 63.61,38.42 63.73,38.43 63.86,38.43 64.02,38.45 64.18,38.49 64.32,38.52 64.49,38.58 64.79,38.68 
		65.07,38.82 65.2,38.88 65.35,38.92 65.48,38.98 65.61,39.02 65.73,39.06 65.87,39.07 65.92,39.07 65.99,39.07 66.04,39.07 
		66.11,39.07 66.19,39.06 66.25,39.05 66.31,39.02 66.34,39 66.37,38.99 66.39,38.96 66.39,38.95 66.39,38.92 66.39,38.9 	"/>
	<polygon class="st0" points="65.55,39.73 65.3,39.62 65.07,39.52 64.83,39.46 64.59,39.4 64.35,39.36 64.12,39.33 63.88,39.32 
		63.65,39.33 63.44,39.34 63.22,39.38 63.01,39.4 62.81,39.45 62.6,39.51 62.42,39.56 62.23,39.62 62.05,39.68 61.89,39.75 
		61.73,39.83 61.45,39.97 61.21,40.11 60.87,40.34 60.74,40.42 60.74,40.45 60.76,40.45 60.79,40.47 60.83,40.47 60.91,40.46 
		61.01,40.45 61.13,40.4 61.22,40.34 61.3,40.27 61.43,40.21 61.55,40.14 61.71,40.09 61.87,40.01 62.05,39.94 62.25,39.88 
		62.45,39.81 62.65,39.76 62.87,39.72 63.08,39.67 63.29,39.64 63.5,39.62 63.71,39.61 63.9,39.62 64.06,39.64 64.22,39.64 
		64.37,39.69 64.51,39.74 64.8,39.84 65.07,39.94 65.2,39.98 65.32,40.02 65.44,40.05 65.56,40.07 65.68,40.09 65.8,40.09 
		65.86,40.07 65.92,40.06 65.98,40.04 66.03,40.02 65.78,39.86 	"/>
	<path class="st0" d="M65.36,40.98l-0.17,0.07L65,41.15l-0.16,0.07l-0.19,0.06l-0.17,0.05l-0.18,0.05l-0.06,0.01l0.06-0.06l0.1-0.09
		l0.07-0.1l0.05-0.12l0.06-0.11l0.04-0.11l0.02-0.13l0-0.15v-0.1l-0.02-0.08l-0.01-0.1l-0.01-0.04l0.04,0.01l0.2,0.09l0.16,0.12
		l0.2,0.13l0.17,0.15l0.19,0.17L65.36,40.98z M62.71,41.39l-0.14-0.02l-0.13-0.03l-0.14-0.03l-0.23-0.09l-0.23-0.07l-0.2-0.08
		l-0.16-0.07l-0.14-0.07l-0.1-0.05l0.1-0.08l0.3-0.21l0.2-0.13l0.26-0.12l0.13-0.05l0.14-0.07l0.04-0.01l-0.01,0.04l-0.01,0.09
		l-0.01,0.09v0.08v0.07l0.01,0.07l0.01,0.07l0.01,0.06l0.01,0.06l0.03,0.06l0.03,0.07l0.02,0.06l0.03,0.06l0.03,0.06l0.04,0.04
		l0.05,0.06l0.04,0.05l0.05,0.03l0.05,0.04l0.01,0L62.71,41.39z M62.84,40.09l0.15-0.03l0.19-0.03L63.34,40h0.05l-0.05,0.02
		l-0.05,0.02l-0.05,0.02l-0.03,0.03l-0.05,0.02l-0.04,0.04l-0.03,0.03l-0.03,0.05l-0.04,0.04L63,40.32l-0.02,0.04l-0.02,0.05
		l-0.01,0.05v0.05v0.07l0.01,0.04l0.02,0.06L63,40.74l0.02,0.05l0.04,0.04l0.03,0.04l0.03,0.04l0.04,0.02l0.05,0.04l0.03,0.03
		l0.05,0.02l0.05,0.01l0.05,0.01l0.05,0.02h0.06h0.06l0.05-0.02l0.05-0.01l0.04-0.01l0.05-0.02l0.05-0.03l0.05-0.04l0.04-0.02
		l0.02-0.04l0.03-0.04l0.02-0.04l0.04-0.05l0.01-0.06l0.02-0.06v-0.04v-0.07v-0.05v-0.05l-0.02-0.05l-0.01-0.04l-0.04-0.06
		l-0.02-0.04l-0.03-0.05l-0.02-0.03l-0.04-0.04l-0.05-0.02l-0.05-0.03l-0.05-0.02l-0.04-0.02L63.61,40h0.09l0.18,0.02l0.2,0.02
		l0.17,0.05l0.03,0l0.01,0.01l0.02,0.05l0.01,0.05l0.04,0.05l0.02,0.08l0,0.06l0.01,0.05l0,0.07l0,0.09l-0.01,0.09l-0.03,0.09
		l-0.03,0.08l-0.03,0.07l-0.05,0.07l-0.06,0.07l-0.04,0.07l-0.06,0.06l-0.06,0.06l-0.09,0.05l-0.07,0.03l-0.09,0.03l-0.09,0.01
		l-0.09,0.02H63.5h-0.09l-0.09-0.02l-0.08-0.01l-0.08-0.03l-0.08-0.03l-0.07-0.05l-0.07-0.06l-0.05-0.06l-0.07-0.07l-0.05-0.07
		l-0.05-0.07l-0.04-0.07l-0.03-0.08l-0.01-0.09l-0.01-0.09l-0.02-0.09l0.02-0.1l0.03-0.13l0.03-0.1l0.02-0.07L62.84,40.09z
		 M63.5,40.16l0.07,0.01l0.08,0.02l0.05,0.03l0.06,0.04l0.05,0.06l0.03,0.07l0.02,0.05l0.01,0.07l-0.01,0.09l-0.02,0.07l-0.03,0.06
		l-0.05,0.06l-0.06,0.04l-0.05,0.03l-0.08,0.03l-0.07,0l-0.07,0l-0.07-0.03l-0.07-0.03l-0.05-0.04l-0.04-0.06l-0.03-0.06l-0.03-0.07
		v-0.09v-0.07l0.03-0.05l0.03-0.07l0.04-0.06l0.05-0.04l0.07-0.03l0.07-0.02L63.5,40.16z M65.48,40.5l-0.2-0.16l-0.21-0.14
		l-0.22-0.11l-0.22-0.1l-0.22-0.07l-0.22-0.06l-0.21-0.03l-0.21-0.03h-0.21l-0.22,0.02l-0.2,0l-0.2,0.04l-0.19,0.05l-0.2,0.06
		l-0.17,0.07l-0.19,0.06l-0.17,0.07l-0.15,0.07l-0.16,0.09l-0.14,0.07l-0.13,0.08l-0.1,0.07l-0.21,0.15l-0.14,0.1l-0.1,0.08
		l-0.04,0.02l0.13,0.07l0.16,0.09l0.21,0.09l0.22,0.1l0.26,0.09l0.28,0.09l0.15,0.03l0.16,0.04l0.16,0.04l0.19,0.04l0.16,0.01
		l0.19,0.02l0.18,0.01h0.18h0.19l0.19-0.02l0.19-0.01l0.21-0.04l0.2-0.04l0.21-0.04l0.2-0.07l0.2-0.06l0.21-0.09l0.2-0.1l0.21-0.1
		l0.21-0.14l-0.21-0.21L65.48,40.5z"/>
	<polygon class="st0" points="75.85,39.28 75.69,39.17 75.45,39 75.32,38.91 75.18,38.82 75.01,38.74 74.83,38.64 74.64,38.55 
		74.45,38.45 74.24,38.37 74.02,38.27 73.8,38.2 73.56,38.13 73.31,38.06 73.07,38.01 72.8,37.97 72.55,37.93 72.27,37.92 72,37.91 
		71.72,37.93 71.43,37.96 71.15,38.01 70.86,38.08 70.56,38.18 70.25,38.29 69.97,38.43 69.68,38.6 69.58,38.65 69.52,38.71 
		69.49,38.73 69.48,38.75 69.45,38.79 69.45,38.79 69.45,38.82 69.45,38.84 69.48,38.86 69.5,38.88 69.54,38.9 69.59,38.91 
		69.66,38.92 69.73,38.94 69.79,38.94 69.86,38.95 69.93,38.95 69.98,38.94 70.11,38.91 70.24,38.89 70.36,38.84 70.49,38.79 
		70.64,38.74 70.78,38.68 71.06,38.56 71.36,38.44 71.51,38.39 71.67,38.36 71.82,38.33 71.98,38.31 72.1,38.3 72.24,38.3 
		72.36,38.3 72.5,38.31 72.76,38.33 73.02,38.38 73.3,38.44 73.57,38.5 73.83,38.59 74.09,38.67 74.32,38.75 74.56,38.84 
		74.76,38.92 74.97,39.03 75.13,39.13 75.28,39.21 75.4,39.28 75.49,39.36 75.58,39.4 75.66,39.43 75.72,39.46 75.78,39.48 
		75.83,39.48 75.88,39.48 75.9,39.48 75.94,39.48 75.98,39.46 75.99,39.43 76,39.41 76,39.4 75.97,39.38 	"/>
	<polygon class="st0" points="74.64,39.98 74.39,39.84 74.11,39.69 73.95,39.64 73.79,39.56 73.6,39.48 73.43,39.43 73.24,39.38 
		73.04,39.32 72.83,39.28 72.63,39.24 72.4,39.22 72.19,39.19 71.96,39.19 71.72,39.21 71.49,39.23 71.26,39.27 71.02,39.33 
		70.78,39.4 70.53,39.5 70.28,39.61 70.05,39.74 69.81,39.89 69.87,39.91 69.93,39.93 69.98,39.94 70.05,39.94 70.16,39.94 
		70.28,39.94 70.4,39.92 70.52,39.88 70.65,39.84 70.79,39.8 71.05,39.71 71.33,39.61 71.47,39.56 71.63,39.54 71.79,39.51 
		71.94,39.48 72.14,39.48 72.33,39.48 72.55,39.51 72.77,39.55 72.98,39.58 73.18,39.64 73.39,39.68 73.59,39.75 73.79,39.81 
		73.97,39.88 74.13,39.94 74.29,40.02 74.41,40.09 74.54,40.14 74.63,40.21 74.71,40.25 74.83,40.3 74.94,40.34 75.01,40.34 
		75.05,40.34 75.09,40.32 75.1,40.3 75.1,40.29 74.99,40.2 	"/>
	<path class="st0" d="M74.51,40.81l-0.13,0.08l-0.18,0.06L74,41.03l-0.21,0.08l-0.24,0.06l-0.13,0.04l-0.13,0.02l-0.14,0.04
		l-0.12,0.01l0.09-0.06l0.09-0.09l0.08-0.12l0.06-0.1l0.05-0.13l0.03-0.13l0.02-0.06l0.01-0.07v-0.07l0.01-0.06l-0.01-0.09v-0.08
		l-0.01-0.09l-0.02-0.05l0.05,0.02l0.14,0.06l0.14,0.06l0.23,0.12l0.24,0.12l0.28,0.2l0.11,0.08L74.51,40.81z M71.54,41.23
		l-0.17-0.04l-0.17-0.04l-0.17-0.06l-0.18-0.07l-0.17-0.09l-0.18-0.09l-0.18-0.09l0.18-0.17l0.18-0.16l0.19-0.12l0.17-0.12
		l0.19-0.09l0.04-0.02l-0.02,0.04l-0.01,0.1l0,0.09v0.1v0.06v0.06l0,0.07l0.01,0.07l0.03,0.12l0.06,0.12l0.06,0.11l0.07,0.1
		l0.08,0.09l0.04,0.05L71.54,41.23z M71.77,39.91l0.19-0.03l0.18-0.01h0.14l-0.05,0.01l-0.06,0.01l-0.06,0.01l-0.04,0.04l-0.05,0.01
		L72,39.98l-0.04,0.04l-0.04,0.04l-0.03,0.03l-0.03,0.05l-0.03,0.05l-0.02,0.04l-0.01,0.06l-0.01,0.05l0,0.06l0,0.05l0.01,0.05
		l0.01,0.07l0.02,0.04l0.03,0.06l0.03,0.03l0.03,0.05l0.04,0.04L72,40.82l0.04,0.04l0.05,0.01l0.04,0.03l0.06,0.01l0.06,0.01h0.05
		h0.05h0.06h0.05l0.06-0.01l0.05-0.01l0.04-0.03l0.04-0.01l0.05-0.04l0.03-0.03l0.05-0.04l0.03-0.05l0.03-0.03l0.02-0.06l0.02-0.04
		l0.01-0.07l0.01-0.05V40.4v-0.06l-0.01-0.05l-0.01-0.06l-0.02-0.04l-0.02-0.05l-0.03-0.05l-0.03-0.03l-0.05-0.04l-0.03-0.04
		l-0.05-0.04l-0.04-0.01l-0.04-0.04l-0.05-0.01l-0.06-0.01l-0.02,0l0.09,0l0.16,0.02l0.18,0.04l0.16,0.04l0.11,0.02l0.04,0.07
		l0.04,0.11l0.02,0.1l0.01,0.13l-0.01,0.09l-0.01,0.09l-0.03,0.09l-0.03,0.07l-0.03,0.07l-0.05,0.09l-0.05,0.05l-0.05,0.07
		l-0.08,0.06l-0.06,0.06l-0.08,0.04l-0.08,0.04l-0.08,0.03l-0.08,0.03h-0.1l-0.09,0.01l-0.09-0.01h-0.09l-0.09-0.03l-0.08-0.03
		l-0.07-0.04l-0.08-0.04l-0.07-0.06l-0.07-0.06l-0.04-0.07l-0.05-0.05l-0.05-0.09l-0.03-0.07l-0.03-0.07l-0.02-0.09l-0.02-0.09V40.4
		v-0.06l0.01-0.08l0-0.05l0.02-0.07l0.03-0.06l0.01-0.06l0.03-0.06l0.01-0.01l0.03-0.01L71.77,39.91z M72.41,40.05l0.07,0.02
		l0.06,0.03l0.05,0.05l0.04,0.05l0.03,0.06l0.03,0.07l0.01,0.08l-0.01,0.07l-0.03,0.06l-0.03,0.07l-0.04,0.06l-0.05,0.03l-0.06,0.04
		l-0.07,0.02l-0.08,0.02l-0.07-0.02l-0.07-0.02l-0.07-0.04l-0.05-0.03l-0.04-0.06L72,40.53l-0.02-0.06l-0.01-0.07l0.01-0.08
		L72,40.25l0.04-0.06l0.04-0.05l0.05-0.05l0.07-0.03l0.07-0.02l0.07-0.01L72.41,40.05z M74.52,40.45l-0.12-0.09l-0.13-0.07
		l-0.14-0.08l-0.15-0.07l-0.16-0.07l-0.16-0.07l-0.19-0.06l-0.17-0.07l-0.19-0.06l-0.2-0.04l-0.2-0.04l-0.2-0.03l-0.21-0.01h-0.22
		l-0.21,0.02l-0.21,0.03l-0.22,0.05l-0.21,0.08L71,39.96l-0.23,0.11l-0.22,0.14l-0.2,0.15l-0.22,0.2l-0.21,0.22l0.21,0.12l0.21,0.11
		l0.21,0.1l0.21,0.09l0.21,0.08l0.21,0.05l0.2,0.05l0.2,0.05l0.21,0.02l0.19,0.03h0.2h0.2h0.19h0.17l0.19-0.02l0.18-0.02l0.15-0.03
		l0.17-0.04l0.17-0.03l0.14-0.04l0.3-0.09l0.27-0.09l0.21-0.1l0.21-0.1l0.16-0.08l0.14-0.07l-0.14-0.1L74.52,40.45z"/>
	<path class="st0" d="M74.93,49.91c-1.91,1.53-4.31,2.44-6.93,2.44c-2.61,0-5-0.9-6.9-2.41l-0.47,0.5c2.02,1.62,4.58,2.58,7.37,2.58
		c2.76,0,5.3-0.95,7.31-2.54"/>
</g>
</svg>
