<svg xmlns="http://www.w3.org/2000/svg" width="61.096" height="61.093" viewBox="0 0 61.096 61.093">
  <g id="iconoGratis" transform="translate(-61.153 -888.169)">
    <g id="Grupo_3075" data-name="Grupo 3075">
      <rect id="Rectángulo_3475" data-name="Rectángulo 3475" width="41.04" height="59.694" rx="4" transform="translate(102.892 948.562) rotate(180)" fill="none" stroke="#01b7e8" stroke-miterlimit="10" stroke-width="1"/>
    </g>
    <g id="Grupo_3076" data-name="Grupo 3076">
      <path id="Trazado_11094" data-name="Trazado 11094" d="M99.162,949.262H65.584a4.436,4.436,0,0,1-4.431-4.43V892.6a4.435,4.435,0,0,1,4.431-4.43H99.162a4.435,4.435,0,0,1,4.43,4.43v52.233A4.435,4.435,0,0,1,99.162,949.262ZM65.584,889.568a3.035,3.035,0,0,0-3.032,3.031v52.233a3.035,3.035,0,0,0,3.032,3.031H99.162a3.035,3.035,0,0,0,3.031-3.031V892.6a3.035,3.035,0,0,0-3.031-3.031Z" fill="#01b7e8"/>
    </g>
    <g id="Grupo_3077" data-name="Grupo 3077">
      <path id="Trazado_11095" data-name="Trazado 11095" d="M87.036,893.3H77.709a.7.7,0,1,1,0-1.4h9.327a.7.7,0,1,1,0,1.4Z" fill="#01b7e8"/>
    </g>
    <g id="Grupo_3078" data-name="Grupo 3078">
      <path id="Trazado_11096" data-name="Trazado 11096" d="M84.238,945.536H80.507a.7.7,0,0,1,0-1.4h3.731a.7.7,0,1,1,0,1.4Z" fill="#01b7e8"/>
    </g>
    <g id="Grupo_3079" data-name="Grupo 3079">
      <path id="Trazado_11097" data-name="Trazado 11097" d="M74.91,945.536H71.179a.7.7,0,1,1,0-1.4H74.91a.7.7,0,0,1,0,1.4Z" fill="#01b7e8"/>
    </g>
    <g id="Grupo_3080" data-name="Grupo 3080">
      <path id="Trazado_11098" data-name="Trazado 11098" d="M93.566,945.536H89.835a.7.7,0,0,1,0-1.4h3.731a.7.7,0,1,1,0,1.4Z" fill="#01b7e8"/>
    </g>
    <g id="Grupo_3081" data-name="Grupo 3081">
      <circle id="Elipse_109" data-name="Elipse 109" cx="0.933" cy="0.933" r="0.933" transform="translate(89.837 891.666)" fill="#01b7e8"/>
    </g>
    <g id="Grupo_3082" data-name="Grupo 3082">
      <rect id="Rectángulo_3476" data-name="Rectángulo 3476" width="7.462" height="7.462" rx="2.5" transform="translate(67.45 928.044)" fill="none" stroke="#01b7e8" stroke-miterlimit="10" stroke-width="1"/>
    </g>
    <g id="Grupo_3083" data-name="Grupo 3083">
      <path id="Trazado_11099" data-name="Trazado 11099" d="M101.961,931.773H80.508V904.725a1.866,1.866,0,0,1,1.866-1.866h31.712v16.789A12.124,12.124,0,0,1,101.961,931.773Z" fill="#fff"/>
    </g>
    <g id="Grupo_3084" data-name="Grupo 3084">
      <path id="Trazado_11100" data-name="Trazado 11100" d="M108.485,913.5a.7.7,0,0,1-.7-.7v-1.629a.7.7,0,1,1,1.4,0V912.8A.7.7,0,0,1,108.485,913.5Z" fill="#01b7e8"/>
    </g>
    <g id="Grupo_3085" data-name="Grupo 3085">
      <path id="Trazado_11101" data-name="Trazado 11101" d="M108.485,926.974a.7.7,0,0,1-.7-.7v-1.629a.7.7,0,1,1,1.4,0v1.629A.7.7,0,0,1,108.485,926.974Z" fill="#01b7e8"/>
    </g>
    <g id="Grupo_3089" data-name="Grupo 3089">
      <g id="Grupo_3086" data-name="Grupo 3086">
        <path id="Trazado_11102" data-name="Trazado 11102" d="M72.112,936.205h-2.8a3.034,3.034,0,0,1-3.031-3.031v-2.8a3.035,3.035,0,0,1,3.031-3.031h2.8a3.036,3.036,0,0,1,3.032,3.031v2.8A3.034,3.034,0,0,1,72.112,936.205Zm-2.8-7.462a1.634,1.634,0,0,0-1.632,1.632v2.8a1.634,1.634,0,0,0,1.632,1.632h2.8a1.635,1.635,0,0,0,1.633-1.632v-2.8a1.635,1.635,0,0,0-1.633-1.632Z" fill="#01b7e8"/>
      </g>
      <g id="Grupo_3087" data-name="Grupo 3087">
        <path id="Trazado_11103" data-name="Trazado 11103" d="M72.112,922.454h-2.8a3.034,3.034,0,0,1-3.031-3.032v-2.8a3.035,3.035,0,0,1,3.031-3.031h2.8a3.036,3.036,0,0,1,3.032,3.031v2.8A3.035,3.035,0,0,1,72.112,922.454Zm-2.8-7.462a1.634,1.634,0,0,0-1.632,1.632v2.8a1.634,1.634,0,0,0,1.632,1.632h2.8a1.635,1.635,0,0,0,1.633-1.632v-2.8a1.635,1.635,0,0,0-1.633-1.632Z" fill="#01b7e8"/>
      </g>
      <g id="Grupo_3088" data-name="Grupo 3088">
        <path id="Trazado_11104" data-name="Trazado 11104" d="M72.112,908.7h-2.8a3.034,3.034,0,0,1-3.031-3.031v-2.8a3.036,3.036,0,0,1,3.031-3.032h2.8a3.036,3.036,0,0,1,3.032,3.032v2.8A3.034,3.034,0,0,1,72.112,908.7Zm-2.8-7.462a1.635,1.635,0,0,0-1.632,1.633v2.8a1.634,1.634,0,0,0,1.632,1.632h2.8a1.635,1.635,0,0,0,1.633-1.632v-2.8a1.635,1.635,0,0,0-1.633-1.633Z" fill="#01b7e8"/>
      </g>
    </g>
    <path id="Trazado_11105" data-name="Trazado 11105" d="M82.374,903.559a1.179,1.179,0,0,0-1.166,1.19v28.568a1.179,1.179,0,0,0,1.166,1.19h4.663a.707.707,0,0,1,.7.715v5.366l9.185-5.969a.692.692,0,0,1,.376-.112h22.387a1.179,1.179,0,0,0,1.166-1.19V904.749a1.179,1.179,0,0,0-1.166-1.19Z" fill="#fff"/>
    <g id="Grupo_3096" data-name="Grupo 3096">
      <g id="Grupo_3090" data-name="Grupo 3090">
        <circle id="Elipse_110" data-name="Elipse 110" cx="11.193" cy="11.193" r="11.193" transform="translate(89.836 907.531)" fill="#01b7e8"/>
      </g>
      <g id="Grupo_3092" data-name="Grupo 3092">
        <g id="Grupo_3091" data-name="Grupo 3091">
          <path id="Trazado_11106" data-name="Trazado 11106" d="M101.028,930.616a11.893,11.893,0,1,1,11.893-11.892A11.906,11.906,0,0,1,101.028,930.616Zm0-22.386a10.493,10.493,0,1,0,10.493,10.494A10.506,10.506,0,0,0,101.028,908.23Z" fill="#01b7e8"/>
        </g>
      </g>
      <g id="Grupo_3093" data-name="Grupo 3093">
        <circle id="Elipse_111" data-name="Elipse 111" cx="0.933" cy="0.933" r="0.933" transform="translate(107.092 917.791)" fill="#01b7e8"/>
      </g>
      <g id="Grupo_3094" data-name="Grupo 3094">
        <circle id="Elipse_112" data-name="Elipse 112" cx="0.933" cy="0.933" r="0.933" transform="translate(93.099 917.791)" fill="#01b7e8"/>
      </g>
      <g id="Grupo_3095" data-name="Grupo 3095">
        <path id="Trazado_11107" data-name="Trazado 11107" d="M101.034,925.346a3.942,3.942,0,0,1-3.69-2.332.7.7,0,1,1,1.29-.543,2.579,2.579,0,0,0,2.4,1.475,2.426,2.426,0,0,0,2.559-2.26c0-1.032-.445-2.263-2.571-2.263-2.918,0-3.958-1.891-3.958-3.66a3.822,3.822,0,0,1,3.958-3.66,3.942,3.942,0,0,1,3.691,2.332.7.7,0,1,1-1.29.543,2.581,2.581,0,0,0-2.4-1.476,2.426,2.426,0,0,0-2.559,2.261c0,1.031.444,2.261,2.559,2.261,2.927,0,3.97,1.891,3.97,3.662A3.822,3.822,0,0,1,101.034,925.346Z" fill="#fff"/>
      </g>
      <line id="Línea_124" data-name="Línea 124" x1="18.654" y2="13.548" transform="translate(91.702 911.359)" fill="none" stroke="#fff" stroke-miterlimit="10" stroke-width="2"/>
    </g>
    <g id="Grupo_3098" data-name="Grupo 3098">
      <g id="Grupo_3097" data-name="Grupo 3097">
        <path id="Trazado_11108" data-name="Trazado 11108" d="M87.037,941.8a.707.707,0,0,1-.337-.086.7.7,0,0,1-.363-.613v-5.831H82.374a2.568,2.568,0,0,1-2.565-2.565V904.725a2.568,2.568,0,0,1,2.565-2.565h37.31a2.568,2.568,0,0,1,2.565,2.565v27.981a2.568,2.568,0,0,1-2.565,2.565H97.5l-10.089,6.421A.7.7,0,0,1,87.037,941.8Zm-4.663-38.242a1.167,1.167,0,0,0-1.166,1.166v27.981a1.167,1.167,0,0,0,1.166,1.166h4.663a.7.7,0,0,1,.7.7v5.255l9.185-5.846a.706.706,0,0,1,.376-.109h22.387a1.167,1.167,0,0,0,1.166-1.166V904.725a1.167,1.167,0,0,0-1.166-1.166Z" fill="#01b7e8"/>
      </g>
    </g>
  </g>
</svg>
