<svg xmlns="http://www.w3.org/2000/svg" xmlns:xlink="http://www.w3.org/1999/xlink" width="50.135" height="42.393" viewBox="0 0 50.135 42.393">
  <defs>
    <linearGradient id="linear-gradient" x1="1.023" y1="0.571" x2="-0.664" y2="0.366" gradientUnits="objectBoundingBox">
      <stop offset="0" stop-color="#2cb0cf"/>
      <stop offset="1" stop-color="#d41183"/>
    </linearGradient>
  </defs>
  <g id="icono04InfoCap" transform="translate(-927.356 -3601.906)">
    <g id="icono04InfoCap-2" data-name="icono04InfoCap" transform="translate(-1)">
      <path id="icono04InfoCap-3" data-name="icono04InfoCap" d="M929.91,3604.8l13.473,4.993v33.679l-13.473-4.121Z" opacity="0.5" fill="url(#linear-gradient)"/>
      <g id="icono04InfoCap-4" data-name="icono04InfoCap" transform="translate(0 -1)">
        <path id="Trazado_11195" data-name="Trazado 11195" d="M953.795,3633.467a.777.777,0,0,0-.777.777v4.9h-5.8a.777.777,0,1,0,0,1.554h6.58a.777.777,0,0,0,.778-.777v-5.681A.777.777,0,0,0,953.795,3633.467Z" fill="#0629f9"/>
        <path id="Trazado_11196" data-name="Trazado 11196" d="M944.43,3608.523l-10.963-4.063h19.551v11.167a.777.777,0,0,0,1.555,0v-11.944a.777.777,0,0,0-.778-.777H929.117a.864.864,0,0,0-.088.009.641.641,0,0,0-.066.01.581.581,0,0,0-.073.022c-.024.008-.048.015-.071.025a.622.622,0,0,0-.062.034c-.023.013-.046.024-.068.039s-.038.031-.057.047-.038.031-.056.049-.031.038-.047.057-.033.04-.047.061-.021.039-.032.059a.815.815,0,0,0-.039.079l-.007.015c-.006.017-.008.034-.013.051a.758.758,0,0,0-.021.082.78.78,0,0,0-.009.085c0,.017-.005.034-.005.052v36.242c0,.013,0,.025,0,.037a.765.765,0,0,0,.008.083c0,.025.008.048.014.071s.014.049.023.073.018.047.029.07.022.043.035.064a.684.684,0,0,0,.041.063c.015.02.031.039.048.058s.033.035.051.052a.682.682,0,0,0,.059.048.65.65,0,0,0,.063.043.587.587,0,0,0,.063.034.682.682,0,0,0,.078.033.347.347,0,0,0,.034.014l15.027,4.6a.765.765,0,0,0,.227.034.777.777,0,0,0,.777-.777v-35.27A.777.777,0,0,0,944.43,3608.523Zm-1.047,34.948-13.473-4.121V3604.8l13.473,4.993Z" fill="#0629f9"/>
        <path id="Trazado_11197" data-name="Trazado 11197" d="M940.169,3627.522a2.073,2.073,0,1,0-2.073-2.073A2.075,2.075,0,0,0,940.169,3627.522Zm0-2.591a.518.518,0,1,1-.518.518A.519.519,0,0,1,940.169,3624.931Z" fill="#fff"/>
        <path id="Trazado_11198" data-name="Trazado 11198" d="M973.694,3617.5a2.675,2.675,0,0,0-2.378,3.906l-5.514,5.44H964.73a.778.778,0,0,0,0,1.555h1.39a.778.778,0,0,0,.546-.224l5.733-5.656a2.649,2.649,0,0,0,1.295.336,2.678,2.678,0,1,0,0-5.357Zm0,3.8a1.125,1.125,0,1,1,1.125-1.124A1.125,1.125,0,0,1,973.694,3621.3Z" fill="#0629f9"/>
        <path id="Trazado_11199" data-name="Trazado 11199" d="M973.342,3625.418a2.678,2.678,0,0,0-2.355,3.953l-1.286,1.311h-19.17a.778.778,0,0,0,0,1.555h19.5a.773.773,0,0,0,.555-.234l1.509-1.539a2.678,2.678,0,1,0,1.25-5.046Zm0,3.8a1.124,1.124,0,1,1,1.124-1.124A1.125,1.125,0,0,1,973.342,3629.221Z" fill="#0629f9"/>
        <path id="Trazado_11200" data-name="Trazado 11200" d="M975.812,3608.04a2.672,2.672,0,0,0-2.415,3.83l-11.435,11.455H950.946a.777.777,0,1,0,0,1.554h11.338a.777.777,0,0,0,.55-.228l11.612-11.632a2.677,2.677,0,1,0,1.366-4.979Zm0,3.8a1.124,1.124,0,1,1,1.124-1.124A1.125,1.125,0,0,1,975.812,3611.843Z" fill="#0629f9"/>
        <path id="Trazado_11201" data-name="Trazado 11201" d="M958.495,3612.09v1.717l-5.316,5.987h-5.964a.778.778,0,0,0,0,1.555h6.314a.776.776,0,0,0,.581-.262l5.743-6.468a.775.775,0,0,0,.2-.516v-2.034a2.68,2.68,0,1,0-1.554.021Zm.74-3.7a1.122,1.122,0,0,1,.07,2.242c-.011,0-.022,0-.033,0s-.047,0-.07.007a1.123,1.123,0,0,1,.033-2.245Z" fill="#0629f9"/>
        <path id="Trazado_11202" data-name="Trazado 11202" d="M958.166,3620.032a.777.777,0,1,0,1.1,1.094l6.832-6.885a2.648,2.648,0,0,0,1.165.271,2.689,2.689,0,1,0-2.308-1.326Zm9.1-9.323a1.125,1.125,0,1,1-1.124,1.124A1.125,1.125,0,0,1,967.266,3610.709Z" fill="#0629f9"/>
        <path id="Trazado_11203" data-name="Trazado 11203" d="M960.049,3627.625a.777.777,0,0,0-.777-.777H947.215a.778.778,0,0,0,0,1.555h12.057A.778.778,0,0,0,960.049,3627.625Z" fill="#0629f9"/>
        <path id="Trazado_11204" data-name="Trazado 11204" d="M962.248,3628.4a.778.778,0,0,0,0-1.555h-.28a.778.778,0,0,0,0,1.555Z" fill="#0629f9"/>
        <path id="Trazado_11205" data-name="Trazado 11205" d="M947.215,3630.682a.778.778,0,0,0,0,1.555h.622a.778.778,0,0,0,0-1.555Z" fill="#0629f9"/>
        <path id="Trazado_11206" data-name="Trazado 11206" d="M947.837,3623.325h-.622a.777.777,0,1,0,0,1.554h.622a.777.777,0,1,0,0-1.554Z" fill="#0629f9"/>
      </g>
    </g>
  </g>
</svg>
