<svg xmlns="http://www.w3.org/2000/svg" xmlns:xlink="http://www.w3.org/1999/xlink" width="50.65" height="38.007" viewBox="0 0 50.65 38.007">
  <defs>
    <linearGradient id="linear-gradient" y1="0.5" x2="1" y2="0.5" gradientUnits="objectBoundingBox">
      <stop offset="0" stop-color="#2cb0cf"/>
      <stop offset="1" stop-color="#d41183"/>
    </linearGradient>
  </defs>
  <g id="icono02InfoCap" transform="translate(-408.019 -3605.609)">
    <path id="Rectángulo_3451" data-name="Rectángulo 3451" d="M0,0H49.65a0,0,0,0,1,0,0V22.514a4.969,4.969,0,0,1-4.969,4.969H4.969A4.969,4.969,0,0,1,0,22.514V0A0,0,0,0,1,0,0Z" transform="translate(409.019 3616.134)" opacity="0.5" fill="url(#linear-gradient)"/>
    <g id="icono02InfoCap-2" data-name="icono02InfoCap" transform="translate(-4)">
      <path id="Trazado_11215" data-name="Trazado 11215" d="M459.4,3605.609H415.138a3.123,3.123,0,0,0-3.119,3.12v30.747a3.122,3.122,0,0,0,3.119,3.119H459.4a3.123,3.123,0,0,0,3.12-3.119v-30.747A3.124,3.124,0,0,0,459.4,3605.609Zm1.59,33.867a1.591,1.591,0,0,1-1.59,1.59H415.138a1.591,1.591,0,0,1-1.589-1.59v-30.747a1.591,1.591,0,0,1,1.589-1.59H459.4a1.592,1.592,0,0,1,1.59,1.59Z" fill="#0629f9"/>
      <path id="Trazado_11216" data-name="Trazado 11216" d="M459.122,3613.369a.765.765,0,0,0-.765-.765H416.124a.765.765,0,0,0,0,1.53h42.233A.766.766,0,0,0,459.122,3613.369Z" fill="#0629f9"/>
      <path id="Trazado_11217" data-name="Trazado 11217" d="M417.429,3610.905a.979.979,0,1,0-.98-.98A.98.98,0,0,0,417.429,3610.905Z" fill="#0629f9"/>
      <path id="Trazado_11218" data-name="Trazado 11218" d="M421.058,3610.905a.979.979,0,1,0-.98-.98A.979.979,0,0,0,421.058,3610.905Z" fill="#0629f9"/>
      <path id="Trazado_11219" data-name="Trazado 11219" d="M424.686,3610.905a.979.979,0,1,0-.98-.98A.98.98,0,0,0,424.686,3610.905Z" fill="#0629f9"/>
      <path id="Trazado_11220" data-name="Trazado 11220" d="M448.873,3628.032a4.7,4.7,0,1,0,4.7,4.7A4.7,4.7,0,0,0,448.873,3628.032Zm0,7.863a3.167,3.167,0,1,1,3.167-3.167A3.17,3.17,0,0,1,448.873,3635.9Z" fill="#fff"/>
      <path id="Trazado_11221" data-name="Trazado 11221" d="M457.333,3619.794a2.9,2.9,0,0,0-2.065.855,1.391,1.391,0,0,1-2.375-.983,2.924,2.924,0,0,0-2.92-2.921h-2.2a2.924,2.924,0,0,0-2.921,2.921,1.39,1.39,0,0,1-2.374.983,2.921,2.921,0,0,0-4.13,0l-1.555,1.555a2.924,2.924,0,0,0,0,4.13,1.391,1.391,0,0,1-.983,2.375,2.924,2.924,0,0,0-2.921,2.92v2.2a2.924,2.924,0,0,0,2.921,2.92,1.391,1.391,0,0,1,.983,2.375.765.765,0,0,0,1.082,1.081,2.92,2.92,0,0,0-2.065-4.985,1.393,1.393,0,0,1-1.391-1.391v-2.2a1.393,1.393,0,0,1,1.391-1.391,2.92,2.92,0,0,0,2.065-4.985,1.392,1.392,0,0,1,0-1.968l1.554-1.554a1.391,1.391,0,0,1,1.968,0,2.92,2.92,0,0,0,4.985-2.065,1.393,1.393,0,0,1,1.391-1.391h2.2a1.393,1.393,0,0,1,1.391,1.391,2.92,2.92,0,0,0,4.985,2.065,1.391,1.391,0,0,1,1.967,0,.765.765,0,0,0,1.082-1.082A2.9,2.9,0,0,0,457.333,3619.794Z" fill="#fff"/>
    </g>
  </g>
</svg>
