<svg xmlns="http://www.w3.org/2000/svg" width="60.256" height="60.257" viewBox="0 0 60.256 60.257">
  <g id="iconoHorarios" transform="translate(-605.978 -1016.699)">
    <circle id="Elipse_113" data-name="Elipse 113" cx="25.242" cy="25.242" r="25.242" transform="translate(610.864 1021.881)" fill="#fff"/>
    <g id="Grupo_3100" data-name="Grupo 3100">
      <path id="Trazado_11109" data-name="Trazado 11109" d="M636.106,1076.956a.989.989,0,0,1,0-1.977,28.183,28.183,0,0,0,28.151-28.152.988.988,0,0,1,1.977,0A30.163,30.163,0,0,1,636.106,1076.956Z" fill="#01b7e8"/>
      <path id="Trazado_11110" data-name="Trazado 11110" d="M606.967,1047.816a.989.989,0,0,1-.989-.989,30.163,30.163,0,0,1,30.128-30.128.989.989,0,1,1,0,1.977,28.184,28.184,0,0,0-28.151,28.151A.988.988,0,0,1,606.967,1047.816Z" fill="#01b7e8"/>
      <path id="Trazado_11111" data-name="Trazado 11111" d="M636.106,1072.627a25.572,25.572,0,0,1-15.512-5.183.988.988,0,1,1,1.19-1.578,23.612,23.612,0,0,0,14.322,4.784,23.827,23.827,0,0,0,8.786-45.973.989.989,0,0,1,.73-1.838,25.8,25.8,0,0,1-9.516,49.788Z" fill="#01b7e8"/>
      <path id="Trazado_11112" data-name="Trazado 11112" d="M616.87,1063.486a.987.987,0,0,1-.767-.363,25.812,25.812,0,0,1,23.682-41.835.988.988,0,1,1-.279,1.957,23.825,23.825,0,0,0-21.871,38.628.988.988,0,0,1-.765,1.613Z" fill="#01b7e8"/>
      <path id="Trazado_11113" data-name="Trazado 11113" d="M636.106,1050.938a4.11,4.11,0,1,1,4.11-4.111A4.115,4.115,0,0,1,636.106,1050.938Zm0-6.244a2.134,2.134,0,1,0,2.134,2.133A2.136,2.136,0,0,0,636.106,1044.694Z" fill="#01b7e8"/>
      <path id="Trazado_11114" data-name="Trazado 11114" d="M636.106,1027.253a.988.988,0,0,1-.988-.989v-4.248a.988.988,0,0,1,1.977,0v4.248A.989.989,0,0,1,636.106,1027.253Z" fill="#01b7e8"/>
      <path id="Trazado_11115" data-name="Trazado 11115" d="M646.387,1030.008a.989.989,0,0,1-.855-1.483l2.124-3.679a.988.988,0,0,1,1.712.988l-2.124,3.679A.99.99,0,0,1,646.387,1030.008Z" fill="#01b7e8"/>
      <path id="Trazado_11116" data-name="Trazado 11116" d="M653.915,1037.534a.988.988,0,0,1-.495-1.844l3.68-2.124a.988.988,0,1,1,.988,1.712l-3.679,2.124A.985.985,0,0,1,653.915,1037.534Z" fill="#01b7e8"/>
      <path id="Trazado_11117" data-name="Trazado 11117" d="M660.918,1047.816h-4.249a.989.989,0,0,1,0-1.977h4.249a.989.989,0,0,1,0,1.977Z" fill="#01b7e8"/>
      <path id="Trazado_11118" data-name="Trazado 11118" d="M657.593,1060.222a.98.98,0,0,1-.493-.133l-3.68-2.124a.989.989,0,1,1,.989-1.712l3.679,2.124a.989.989,0,0,1-.495,1.845Z" fill="#01b7e8"/>
      <path id="Trazado_11119" data-name="Trazado 11119" d="M648.513,1069.3a.987.987,0,0,1-.857-.494l-2.124-3.679a.989.989,0,1,1,1.712-.989l2.124,3.68a.988.988,0,0,1-.855,1.482Z" fill="#01b7e8"/>
      <path id="Trazado_11120" data-name="Trazado 11120" d="M636.106,1072.627a.987.987,0,0,1-.988-.988v-4.249a.988.988,0,0,1,1.977,0v4.249A.988.988,0,0,1,636.106,1072.627Z" fill="#01b7e8"/>
      <path id="Trazado_11121" data-name="Trazado 11121" d="M623.7,1069.3a.987.987,0,0,1-.855-1.482l2.124-3.68a.989.989,0,1,1,1.712.989l-2.124,3.679A.989.989,0,0,1,623.7,1069.3Z" fill="#01b7e8"/>
      <path id="Trazado_11122" data-name="Trazado 11122" d="M614.62,1060.222a.989.989,0,0,1-.495-1.845l3.679-2.124a.988.988,0,1,1,.988,1.712l-3.679,2.124A.982.982,0,0,1,614.62,1060.222Z" fill="#01b7e8"/>
      <path id="Trazado_11123" data-name="Trazado 11123" d="M615.543,1047.816h-4.248a.989.989,0,1,1,0-1.977h4.248a.989.989,0,1,1,0,1.977Z" fill="#01b7e8"/>
      <path id="Trazado_11124" data-name="Trazado 11124" d="M618.3,1037.534a.979.979,0,0,1-.493-.132l-3.679-2.124a.988.988,0,1,1,.988-1.712l3.679,2.124a.988.988,0,0,1-.495,1.844Z" fill="#01b7e8"/>
      <path id="Trazado_11125" data-name="Trazado 11125" d="M625.825,1030.008a.988.988,0,0,1-.856-.5l-2.124-3.679a.988.988,0,1,1,1.712-.988l2.124,3.679a.99.99,0,0,1-.856,1.483Z" fill="#01b7e8"/>
      <path id="Trazado_11126" data-name="Trazado 11126" d="M638.082,1045.465a.9.9,0,0,1-.644-.308.987.987,0,0,1,0-1.4c.019-.019.038-.037.058-.054.4-.363,7.36-6.936,10.034-9.462a.989.989,0,0,1,1.358,1.437l-9.64,9.093A1.968,1.968,0,0,1,638.082,1045.465Z" fill="#01b7e8"/>
      <path id="Trazado_11127" data-name="Trazado 11127" d="M636.106,1057.02a.988.988,0,0,1-.988-.989v-6.082a.988.988,0,0,1,1.977,0v6.082A.989.989,0,0,1,636.106,1057.02Z" fill="#01b7e8"/>
    </g>
  </g>
</svg>
