<svg xmlns="http://www.w3.org/2000/svg" xmlns:xlink="http://www.w3.org/1999/xlink" width="49.205" height="52.849" viewBox="0 0 49.205 52.849">
  <defs>
    <linearGradient id="linear-gradient" x1="1.092" y1="0.227" x2="-0.017" y2="0.739" gradientUnits="objectBoundingBox">
      <stop offset="0" stop-color="#2cb0cf"/>
      <stop offset="1" stop-color="#d41183"/>
    </linearGradient>
  </defs>
  <g id="icono01InfoCap" transform="translate(-151.502 -3596.696)">
    <circle id="Elipse_97" data-name="Elipse 97" cx="14.113" cy="14.113" r="14.113" transform="translate(161.53 3596.696)" opacity="0.5" fill="url(#linear-gradient)"/>
    <g id="Grupo_3574" data-name="Grupo 3574">
      <path id="Trazado_11222" data-name="Trazado 11222" d="M170.156,3633.9a5.489,5.489,0,1,0-4.718-2.694.781.781,0,0,0-.2.155,14.932,14.932,0,0,0-3.538,7.379l-1.616,9.923a.766.766,0,0,0,.632.877.741.741,0,0,0,.124.01.764.764,0,0,0,.754-.642l1.615-9.916a13.376,13.376,0,0,1,3.166-6.606A5.462,5.462,0,0,0,170.156,3633.9Zm0-9.435a3.953,3.953,0,1,1-3.953,3.953A3.957,3.957,0,0,1,170.156,3624.46Z" fill="#0629f9"/>
      <path id="Trazado_11223" data-name="Trazado 11223" d="M199.942,3647.4h-6.984v-6.363a7.1,7.1,0,0,0-1.647-4.543l-1.513-1.813,1.708-9.767a.765.765,0,0,0-1.507-.263l-3.429,19.61a.765.765,0,0,0,.622.885.739.739,0,0,0,.132.012.766.766,0,0,0,.753-.633l1.376-7.871.684.82a5.57,5.57,0,0,1,1.292,3.563v6.363h-6.982a2.625,2.625,0,0,0-2.009-3.936L176,3642.82l-3.055-8.055a.765.765,0,1,0-1.43.543l3.223,8.5a.766.766,0,0,0,.639.49l6.913.689a1.1,1.1,0,0,1,.635,1.9,1.082,1.082,0,0,1-.834.286l-8.731-.719a.964.964,0,0,1-.82-.6l-2.706-6.73a.765.765,0,0,0-1.419.571l2.706,6.729a2.487,2.487,0,0,0,2.114,1.559l1.46.12c0,.022-.007.043-.007.065a.765.765,0,0,0,.765.765h24.493a.765.765,0,1,0,0-1.529Z" fill="#0629f9"/>
      <path id="Trazado_11224" data-name="Trazado 11224" d="M155.544,3630.238a2.252,2.252,0,1,0-3.479,2.856,10.141,10.141,0,0,1,2.216,5.966v9.633a.765.765,0,0,0,1.53,0v-9.665c0-.022,0-.044,0-.065a11.661,11.661,0,0,0-2.592-6.876.73.73,0,0,1,.031-1,.722.722,0,0,1,1.08.081l.109.145a13.06,13.06,0,0,1,2.647,7.857v9.527a.765.765,0,0,0,1.53,0v-9.527a14.6,14.6,0,0,0-2.959-8.783Z" fill="#0629f9"/>
      <path id="Trazado_11225" data-name="Trazado 11225" d="M170.222,3609.144a.766.766,0,0,0-1.082,0l-3.661,3.661a.767.767,0,0,0,0,1.082l3.572,3.571a.764.764,0,0,0,1.081-1.081l-3.03-3.031,3.12-3.12A.767.767,0,0,0,170.222,3609.144Z" fill="#fff"/>
      <path id="Trazado_11226" data-name="Trazado 11226" d="M178.991,3617.458a.766.766,0,0,0,1.082,0l3.572-3.571a.767.767,0,0,0,0-1.082l-3.661-3.661a.765.765,0,1,0-1.082,1.082l3.12,3.12-3.031,3.031A.765.765,0,0,0,178.991,3617.458Z" fill="#fff"/>
      <path id="Trazado_11227" data-name="Trazado 11227" d="M177.1,3609.027a.765.765,0,0,0-1.048.268l-4.286,7.233a.765.765,0,0,0,1.316.779l4.286-7.232A.766.766,0,0,0,177.1,3609.027Z" fill="#fff"/>
      <path id="Trazado_11228" data-name="Trazado 11228" d="M165.276,3623.642a.766.766,0,0,0,0-1.082,13.113,13.113,0,1,1,18.616-.048.766.766,0,0,0-.122.912l1.732,3.087c-.831-.415-2-1.01-3.661-1.864a.766.766,0,0,0-.733.018,13.016,13.016,0,0,1-3.932,1.488.765.765,0,0,0,.3,1.5,14.545,14.545,0,0,0,4.026-1.457c1.4.719,2.558,1.308,3.448,1.751.616.307,1.1.543,1.442.7a2.5,2.5,0,0,0,.943.317.707.707,0,0,0,.446-.16.767.767,0,0,0,.205-.988l-2.609-4.65a14.642,14.642,0,1,0-21.187.473A.766.766,0,0,0,165.276,3623.642Z" fill="#0629f9"/>
    </g>
  </g>
</svg>
