<svg xmlns="http://www.w3.org/2000/svg" width="59.527" height="59.527" viewBox="0 0 59.527 59.527">
  <g id="img2Red" transform="translate(-79.268 -918.92)">
    <g id="Grupo_1180" data-name="Grupo 1180">
      <g id="Grupo_1150" data-name="Grupo 1150">
        <rect id="Rectángulo_1577" data-name="Rectángulo 1577" width="23.629" height="5.453" transform="translate(97.217 972.313)" fill="#333"/>
      </g>
      <g id="Grupo_1151" data-name="Grupo 1151">
        <path id="Trazado_6697" data-name="Trazado 6697" d="M116.3,972.313H97.216v3.635h15.45a3.635,3.635,0,0,0,3.635-3.635Z" fill="#01b7e8"/>
      </g>
      <g id="Grupo_1152" data-name="Grupo 1152">
        <path id="Trazado_6698" data-name="Trazado 6698" d="M120.846,978.447H97.217a.681.681,0,0,1-.682-.681v-5.453a.682.682,0,0,1,.682-.682h23.629a.682.682,0,0,1,.681.682v5.453A.681.681,0,0,1,120.846,978.447ZM97.9,977.084h22.266v-4.09H97.9Z" fill="#01b7e8"/>
      </g>
      <g id="Grupo_1153" data-name="Grupo 1153">
        <path id="Rectángulo_1578" data-name="Rectángulo 1578" d="M0,0H58.164a0,0,0,0,1,0,0V2.453a3,3,0,0,1-3,3H3a3,3,0,0,1-3-3V0A0,0,0,0,1,0,0Z" transform="translate(79.949 966.86)" fill="#333"/>
      </g>
      <g id="Grupo_1154" data-name="Grupo 1154">
        <path id="Trazado_6699" data-name="Trazado 6699" d="M129.933,970.495H79.949V966.86h53.619A3.635,3.635,0,0,1,129.933,970.495Z" fill="#333"/>
      </g>
      <g id="Grupo_1155" data-name="Grupo 1155">
        <path id="Trazado_6700" data-name="Trazado 6700" d="M135.387,972.994H82.676a3.411,3.411,0,0,1-3.408-3.408V966.86a.682.682,0,0,1,.681-.682h58.164a.683.683,0,0,1,.682.682v2.726A3.412,3.412,0,0,1,135.387,972.994Zm-54.756-5.452v2.044a2.047,2.047,0,0,0,2.045,2.045h52.711a2.047,2.047,0,0,0,2.045-2.045v-2.044Z" fill="#01b7e8"/>
      </g>
      <g id="Grupo_1156" data-name="Grupo 1156">
        <path id="Trazado_6701" data-name="Trazado 6701" d="M127.207,978.447H90.855a.682.682,0,1,1,0-1.363h36.352a.682.682,0,1,1,0,1.363Z" fill="#01b7e8"/>
      </g>
      <g id="Grupo_1157" data-name="Grupo 1157">
        <circle id="Elipse_73" data-name="Elipse 73" cx="0.682" cy="0.682" r="0.682" transform="translate(108.35 968.905)" fill="#01b7e8"/>
      </g>
      <g id="Grupo_1158" data-name="Grupo 1158">
        <path id="Rectángulo_1579" data-name="Rectángulo 1579" d="M3,0H55.164a3,3,0,0,1,3,3V36.353a0,0,0,0,1,0,0H0a0,0,0,0,1,0,0V3A3,3,0,0,1,3,0Z" transform="translate(79.949 930.508)" fill="#333"/>
      </g>
      <g id="Grupo_1159" data-name="Grupo 1159">
        <path id="Rectángulo_1580" data-name="Rectángulo 1580" d="M3,0H54.528a0,0,0,0,1,0,0V25.99a4,4,0,0,1-4,4H0a0,0,0,0,1,0,0V3A3,3,0,0,1,3,0Z" transform="translate(79.949 930.508)" fill="#333"/>
      </g>
      <g id="Grupo_1160" data-name="Grupo 1160">
        <path id="Trazado_6702" data-name="Trazado 6702" d="M138.113,967.542H79.949a.682.682,0,0,1-.681-.682V933.234a3.411,3.411,0,0,1,3.408-3.408h52.711a3.412,3.412,0,0,1,3.408,3.408V966.86A.683.683,0,0,1,138.113,967.542Zm-57.482-1.364h56.8V933.234a2.048,2.048,0,0,0-2.045-2.045H82.676a2.047,2.047,0,0,0-2.045,2.045Z" fill="#01b7e8"/>
      </g>
      <g id="Grupo_1161" data-name="Grupo 1161">
        <rect id="Rectángulo_1581" data-name="Rectángulo 1581" width="41.805" height="39.989" transform="translate(88.128 926.871)" fill="#333"/>
      </g>
      <g id="Grupo_1162" data-name="Grupo 1162">
        <path id="Rectángulo_1582" data-name="Rectángulo 1582" d="M0,0H38.17a0,0,0,0,1,0,0V19.261a18,18,0,0,1-18,18H0a0,0,0,0,1,0,0V0A0,0,0,0,1,0,0Z" transform="translate(88.128 926.872)" fill="#333"/>
      </g>
      <g id="Grupo_1163" data-name="Grupo 1163">
        <path id="Trazado_6703" data-name="Trazado 6703" d="M129.934,967.542H88.128a.682.682,0,0,1-.681-.682V926.871a.681.681,0,0,1,.681-.681h41.806a.682.682,0,0,1,.682.681V966.86A.683.683,0,0,1,129.934,967.542ZM88.81,966.178h40.442V927.553H88.81Z" fill="#01b7e8"/>
      </g>
      <g id="Grupo_1164" data-name="Grupo 1164">
        <path id="Rectángulo_1583" data-name="Rectángulo 1583" d="M2,0H39.805a2,2,0,0,1,2,2V7.271a0,0,0,0,1,0,0H0a0,0,0,0,1,0,0V2A2,2,0,0,1,2,0Z" transform="translate(88.128 919.602)" fill="#01b7e8"/>
      </g>
      <g id="Grupo_1165" data-name="Grupo 1165">
        <path id="Rectángulo_1584" data-name="Rectángulo 1584" d="M2,0H39.079a0,0,0,0,1,0,0V3.452a2,2,0,0,1-2,2H0a0,0,0,0,1,0,0V2A2,2,0,0,1,2,0Z" transform="translate(88.128 919.602)" fill="#333"/>
      </g>
      <g id="Grupo_1166" data-name="Grupo 1166">
        <path id="Trazado_6704" data-name="Trazado 6704" d="M129.934,927.554H88.128a.682.682,0,0,1-.681-.682v-5.453a2.5,2.5,0,0,1,2.5-2.5h38.17a2.5,2.5,0,0,1,2.5,2.5v5.453A.683.683,0,0,1,129.934,927.554ZM88.81,926.191h40.442v-4.772a1.137,1.137,0,0,0-1.136-1.136H89.946a1.137,1.137,0,0,0-1.136,1.136Z" fill="#01b7e8"/>
      </g>
      <g id="Grupo_1167" data-name="Grupo 1167">
        <path id="Trazado_6705" data-name="Trazado 6705" d="M125.39,923.921a.681.681,0,0,1-.481-.2.708.708,0,0,1-.2-.481.678.678,0,0,1,.2-.482.7.7,0,0,1,.963-.009.69.69,0,0,1,0,.972A.7.7,0,0,1,125.39,923.921Z" fill="#01b7e8"/>
      </g>
      <g id="Grupo_1168" data-name="Grupo 1168">
        <path id="Trazado_6706" data-name="Trazado 6706" d="M120.165,923.24a.675.675,0,0,1,.681-.682h0a.681.681,0,0,1,.682.682h0a.687.687,0,0,1-.682.681h0A.681.681,0,0,1,120.165,923.24Z" fill="#01b7e8"/>
      </g>
      <g id="Grupo_1169" data-name="Grupo 1169">
        <path id="Trazado_6707" data-name="Trazado 6707" d="M116.3,923.921a.681.681,0,0,1-.481-.2.709.709,0,0,1-.2-.481.679.679,0,0,1,.2-.482.693.693,0,0,1,.963-.009.69.69,0,0,1,0,.972A.7.7,0,0,1,116.3,923.921Z" fill="#01b7e8"/>
      </g>
      <g id="Grupo_1170" data-name="Grupo 1170">
        <path id="Trazado_6708" data-name="Trazado 6708" d="M83.585,953a.683.683,0,0,1-.682-.682v-9.724a.681.681,0,0,1,1.363,0v9.724A.682.682,0,0,1,83.585,953Z" fill="#01b7e8"/>
      </g>
      <g id="Grupo_1171" data-name="Grupo 1171">
        <path id="Trazado_6709" data-name="Trazado 6709" d="M83.585,939.641a.682.682,0,0,1-.682-.682v-2.09a.681.681,0,1,1,1.363,0v2.09A.681.681,0,0,1,83.585,939.641Z" fill="#01b7e8"/>
      </g>
      <g id="Grupo_1172" data-name="Grupo 1172">
        <circle id="Elipse_74" data-name="Elipse 74" cx="14.541" cy="14.541" r="14.541" transform="translate(94.49 932.325)" fill="#333"/>
      </g>
      <g id="Grupo_1173" data-name="Grupo 1173">
        <path id="Trazado_6710" data-name="Trazado 6710" d="M120.133,937.486a14.532,14.532,0,0,1-24.022,16.033,14.534,14.534,0,1,0,24.022-16.033Z" fill="#01b7e8"/>
      </g>
      <g id="Grupo_1174" data-name="Grupo 1174">
        <path id="Trazado_6711" data-name="Trazado 6711" d="M109.031,962.089a15.223,15.223,0,1,1,15.223-15.223A15.239,15.239,0,0,1,109.031,962.089Zm0-29.082a13.859,13.859,0,1,0,13.86,13.859A13.875,13.875,0,0,0,109.031,933.007Z" fill="#01b7e8"/>
      </g>
      <g id="Grupo_1176" data-name="Grupo 1176">
        <g id="Grupo_1175" data-name="Grupo 1175">
          <path id="Trazado_6712" data-name="Trazado 6712" d="M114.655,950.8l12.723,4.366-5.784,2.574-2.574,5.784Z" fill="#333"/>
        </g>
      </g>
      <g id="Grupo_1177" data-name="Grupo 1177">
        <path id="Trazado_6713" data-name="Trazado 6713" d="M114.655,950.8l6.94,6.94-2.574,5.784Z" fill="#333"/>
      </g>
      <g id="Grupo_1178" data-name="Grupo 1178">
        <path id="Trazado_6714" data-name="Trazado 6714" d="M119.021,964.205h-.03a.683.683,0,0,1-.615-.46l-4.365-12.723a.682.682,0,0,1,.866-.866l12.723,4.366a.681.681,0,0,1,.056,1.267l-5.545,2.468-2.467,5.544A.682.682,0,0,1,119.021,964.205ZM115.752,951.9l3.351,9.765,1.869-4.2a.686.686,0,0,1,.346-.346l4.2-1.869Z" fill="#01b7e8"/>
      </g>
      <g id="Grupo_1179" data-name="Grupo 1179">
        <path id="Trazado_6715" data-name="Trazado 6715" d="M110.981,943.483c0-.957-.886-1.531-2.105-1.531a3.371,3.371,0,0,0-2.989,1.722l-3.563-1.913c1.269-2.128,3.587-3.538,7.1-3.538,3.683,0,6.312,1.577,6.312,4.494,0,3.73-3.921,4.281-3.921,6.48h-4.256C107.561,946.065,110.981,945.276,110.981,943.483ZM106.988,953a2.726,2.726,0,0,1,5.427,0,2.722,2.722,0,0,1-5.427,0Z" fill="#01b7e8"/>
      </g>
    </g>
  </g>
</svg>
