<svg xmlns="http://www.w3.org/2000/svg" width="55.288" height="55.288" viewBox="0 0 55.288 55.288">
  <g id="img4Red" transform="translate(-644.705 -924.359)">
    <g id="Grupo_1183" data-name="Grupo 1183">
      <g id="Grupo_1182" data-name="Grupo 1182">
        <circle id="Elipse_75" data-name="Elipse 75" cx="26.445" cy="26.445" r="26.445" transform="matrix(0.026, -1, 1, 0.026, 645.218, 977.743)" fill="none" stroke="#01b7e8" stroke-miterlimit="10" stroke-width="1"/>
        <g id="Grupo_1181" data-name="Grupo 1181">
          <path id="Trazado_6717" data-name="Trazado 6717" d="M694.561,952a22.213,22.213,0,1,1-22.212-22.212A22.214,22.214,0,0,1,694.561,952Z" fill="none" stroke="#01b7e8" stroke-miterlimit="10" stroke-width="2"/>
        </g>
        <path id="Trazado_6718" data-name="Trazado 6718" d="M673.806,952.7a.981.981,0,0,1-.481,1.3h0a.982.982,0,0,1-1.3-.483l-7.666-16.706a.981.981,0,0,1,.482-1.3h0a.977.977,0,0,1,1.3.482Z" fill="#01b7e8"/>
        <path id="Trazado_6719" data-name="Trazado 6719" d="M674.221,954.748c-.333.105-.735-.228-.9-.744h0c-.163-.516-.024-1.02.31-1.125l11.349-3.564c.332-.1.736.228.9.745h0c.162.516.023,1.02-.312,1.125Z" fill="#01b7e8"/>
        <path id="Trazado_6720" data-name="Trazado 6720" d="M676.236,954a2.911,2.911,0,1,1-2.911-2.912A2.912,2.912,0,0,1,676.236,954Z" fill="#01b7e8"/>
        <path id="Trazado_6721" data-name="Trazado 6721" d="M672.92,933.9a.656.656,0,0,1-.579.712h0a.656.656,0,0,1-.579-.712v-2.246a.655.655,0,0,1,.579-.712h0a.655.655,0,0,1,.579.712Z" fill="#01b7e8"/>
        <path id="Trazado_6722" data-name="Trazado 6722" d="M672.92,972.389a.656.656,0,0,1-.579.712h0a.656.656,0,0,1-.579-.712v-2.247a.655.655,0,0,1,.579-.711h0a.655.655,0,0,1,.579.711Z" fill="#01b7e8"/>
        <path id="Trazado_6723" data-name="Trazado 6723" d="M690.461,952.6a.656.656,0,0,1-.711-.579h0a.656.656,0,0,1,.711-.581h2.249a.656.656,0,0,1,.711.581h0a.657.657,0,0,1-.711.579Z" fill="#01b7e8"/>
        <path id="Trazado_6724" data-name="Trazado 6724" d="M651.974,952.6a.658.658,0,0,1-.713-.579h0a.657.657,0,0,1,.713-.581h2.246a.656.656,0,0,1,.713.581h0a.657.657,0,0,1-.713.579Z" fill="#01b7e8"/>
        <path id="Trazado_6725" data-name="Trazado 6725" d="M685.564,939.619a.655.655,0,0,1-.912.093h0a.655.655,0,0,1,.092-.913l1.591-1.589a.652.652,0,0,1,.91-.094h0a.655.655,0,0,1-.092.913Z" fill="#01b7e8"/>
        <path id="Trazado_6726" data-name="Trazado 6726" d="M658.348,966.834a.655.655,0,0,1-.912.093h0a.656.656,0,0,1,.093-.913l1.589-1.59a.656.656,0,0,1,.913-.092h0a.656.656,0,0,1-.093.913Z" fill="#01b7e8"/>
        <path id="Trazado_6727" data-name="Trazado 6727" d="M684.744,965.245a.655.655,0,0,1-.092-.913h0a.655.655,0,0,1,.912.092l1.589,1.59a.655.655,0,0,1,.092.913h0a.652.652,0,0,1-.91-.093Z" fill="#01b7e8"/>
        <path id="Trazado_6728" data-name="Trazado 6728" d="M657.529,938.029a.656.656,0,0,1-.093-.913h0a.655.655,0,0,1,.912.094l1.59,1.589a.656.656,0,0,1,.093.913h0a.656.656,0,0,1-.913-.093Z" fill="#01b7e8"/>
      </g>
    </g>
  </g>
</svg>
